<?xml version="1.0" encoding="UTF-8"?>

<!DOCTYPE svg PUBLIC '-//W3C//DTD SVG 1.0//EN' 'http://www.w3.org/TR/2001/REC-SVG-20010904/DTD/svg10.dtd'>
<svg style="fill-opacity:1; color-rendering:auto; color-interpolation:auto; stroke:black; text-rendering:auto; stroke-linecap:square; stroke-miterlimit:10; stroke-opacity:1; shape-rendering:auto; fill:black; stroke-dasharray:none; font-weight:normal; stroke-width:1; font-family:&apos;Dialog&apos;; font-style:normal; stroke-linejoin:miter; font-size:12; stroke-dashoffset:0; image-rendering:auto;" xmlns="http://www.w3.org/2000/svg" width="1504" xmlns:xlink="http://www.w3.org/1999/xlink" height="604">
  <!--Generated by the Batik Graphics2D SVG Generator-->
  <defs id="genericDefs" />
  <g>
    <g style="fill:rgb(128,128,255); stroke:rgb(128,128,255);">
      <rect x="2" y="2" width="300" style="fill:none;" height="300" />
      <line x1="2" x2="302" y1="2" style="fill:none;" y2="302" />
      <line x1="302" x2="2" y1="2" style="fill:none;" y2="302" />
      <line x1="152" x2="152" y1="2" style="fill:none;" y2="302" />
      <line x1="2" x2="302" y1="152" style="fill:none;" y2="152" />
      <polygon style="fill:black; stroke:none;" points=" 162 149 170 152 179 157 188 166 191 174 188 181 182 187 176 181 172 176 165 168 160 158 155 148" />
      <polygon style="fill:none; stroke:black;" points=" 162 149 170 152 179 157 188 166 191 174 188 181 182 187 176 181 172 176 165 168 160 158 155 148" />
      <polygon style="fill:black; stroke:none;" points=" 171 110 166 116 175 116 184 115 193 114 202 113 211 111 216 111 223 110 232 108 243 100 236 95 222 99 211 103 203 105 197 107 195 107 186 109 178 110" />
      <polygon style="fill:none; stroke:black;" points=" 171 110 166 116 175 116 184 115 193 114 202 113 211 111 216 111 223 110 232 108 243 100 236 95 222 99 211 103 203 105 197 107 195 107 186 109 178 110" />
      <polygon style="fill:black; stroke:none;" points=" 243 100 232 108 232 117 232 125 232 133 233 141 232 151 232 160 231 169 230 178 229 187 228 196 225 207 223 217 219 226 216 235 212 242 216 266 224 259 231 250 237 241 241 228 242 223 243 216 244 207 245 197 245 185 246 170 246 156 248 144 250 133 252 124 255 117 259 111 255 107 249 102" />
      <polygon style="fill:none; stroke:black;" points=" 243 100 232 108 232 117 232 125 232 133 233 141 232 151 232 160 231 169 230 178 229 187 228 196 225 207 223 217 219 226 216 235 212 242 216 266 224 259 231 250 237 241 241 228 242 223 243 216 244 207 245 197 245 185 246 170 246 156 248 144 250 133 252 124 255 117 259 111 255 107 249 102" />
      <polygon style="fill:black; stroke:none;" points=" 212 242 205 241 197 239 189 236 184 235 178 233 179 233 185 241 192 249 199 259 202 264 206 271 216 266" />
      <polygon style="fill:none; stroke:black;" points=" 212 242 205 241 197 239 189 236 184 235 178 233 179 233 185 241 192 249 199 259 202 264 206 271 216 266" />
      <polygon style="fill:black; stroke:none;" points=" 171 110 175 103 180 94 186 86 191 77 197 67 200 62 203 55 208 46 204 40 200 35 195 33 191 32 186 36 185 39 182 49 179 59 176 68 172 78 167 87 163 96 157 106 152 116 145 126 139 135 131 147 128 150 137 145 147 138 156 129 160 124 166 116" />
      <polygon style="fill:none; stroke:black;" points=" 171 110 175 103 180 94 186 86 191 77 197 67 200 62 203 55 208 46 204 40 200 35 195 33 191 32 186 36 185 39 182 49 179 59 176 68 172 78 167 87 163 96 157 106 152 116 145 126 139 135 131 147 128 150 137 145 147 138 156 129 160 124 166 116" />
      <polygon style="fill:black; stroke:none;" points=" 45 215 45 225 55 224 63 222 71 221 81 221 89 220 90 212 85 209 76 211 67 213 58 214 52 215" />
      <polygon style="fill:none; stroke:black;" points=" 45 215 45 225 55 224 63 222 71 221 81 221 89 220 90 212 85 209 76 211 67 213 58 214 52 215" />
      <polygon style="fill:black; stroke:none;" points=" 45 167 51 166 61 163 70 161 79 159 79 160 84 160 88 164 84 167 77 170 73 171 63 173 53 174 45 174" />
      <polygon style="fill:none; stroke:black;" points=" 45 167 51 166 61 163 70 161 79 159 79 160 84 160 88 164 84 167 77 170 73 171 63 173 53 174 45 174" />
      <polygon style="fill:black; stroke:none;" points=" 40 123 45 124 54 123 63 121 70 118 79 116 88 113 96 111 105 108 109 110 100 123 90 123 82 123 72 125 62 126 53 129 44 131" />
      <polygon style="fill:none; stroke:black;" points=" 40 123 45 124 54 123 63 121 70 118 79 116 88 113 96 111 105 108 109 110 100 123 90 123 82 123 72 125 62 126 53 129 44 131" />
      <polygon style="fill:black; stroke:none;" points=" 109 110 100 123 101 132 102 140 103 149 103 158 103 168 103 177 103 185 103 193 103 200 102 208 102 215 102 220 109 243 113 235 116 224 116 217 116 208 117 197 117 189 117 181 117 173 117 165 117 158 117 151 118 144 120 135 123 128 117 118" />
      <polygon style="fill:none; stroke:black;" points=" 109 110 100 123 101 132 102 140 103 149 103 158 103 168 103 177 103 185 103 193 103 200 102 208 102 215 102 220 109 243 113 235 116 224 116 217 116 208 117 197 117 189 117 181 117 173 117 165 117 158 117 151 118 144 120 135 123 128 117 118" />
      <polygon style="fill:black; stroke:none;" points=" 102 220 109 243 105 248 101 243 98 237 93 229 89 220 85 209 90 212 96 217" />
      <polygon style="fill:none; stroke:black;" points=" 102 220 109 243 105 248 101 243 98 237 93 229 89 220 85 209 90 212 96 217" />
      <polygon style="fill:black; stroke:none;" points=" 40 123 31 121 29 123 30 126 31 135 33 145 35 154 35 162 36 170 36 178 37 185 36 194 36 203 35 211 34 218 34 228 37 236 39 244 40 243 42 239 45 232 45 225 45 215 45 207 45 199 45 190 45 180 45 174 45 167 44 159 44 150 44 138 44 131" />
      <polygon style="fill:none; stroke:black;" points=" 40 123 31 121 29 123 30 126 31 135 33 145 35 154 35 162 36 170 36 178 37 185 36 194 36 203 35 211 34 218 34 228 37 236 39 244 40 243 42 239 45 232 45 225 45 215 45 207 45 199 45 190 45 180 45 174 45 167 44 159 44 150 44 138 44 131" />
      <polygon style="fill:black; stroke:none;" points=" 54 123 58 115 62 107 67 98 71 89 77 80 82 72 89 61 81 53 75 50 70 48 66 53 67 58 65 69 63 79 60 89 57 98 54 107 50 115 45 124" />
      <polygon style="fill:none; stroke:black;" points=" 54 123 58 115 62 107 67 98 71 89 77 80 82 72 89 61 81 53 75 50 70 48 66 53 67 58 65 69 63 79 60 89 57 98 54 107 50 115 45 124" />
      <rect x="302" y="2" width="300" style="fill:none;" height="300" />
      <line x1="302" x2="602" y1="2" style="fill:none;" y2="302" />
      <line x1="602" x2="302" y1="2" style="fill:none;" y2="302" />
      <line x1="452" x2="452" y1="2" style="fill:none;" y2="302" />
      <line x1="302" x2="602" y1="152" style="fill:none;" y2="152" />
      <polygon style="fill:silver; stroke:none;" points=" 462 149 470 152 479 157 488 166 491 174 488 181 482 187 476 181 472 176 465 168 460 158 455 148" />
      <polygon style="fill:none; stroke:silver;" points=" 462 149 470 152 479 157 488 166 491 174 488 181 482 187 476 181 472 176 465 168 460 158 455 148" />
      <polygon style="fill:silver; stroke:none;" points=" 471 110 466 116 475 116 484 115 493 114 502 113 511 111 516 111 523 110 532 108 543 100 536 95 522 99 511 103 503 105 497 107 495 107 486 109 478 110" />
      <polygon style="fill:none; stroke:silver;" points=" 471 110 466 116 475 116 484 115 493 114 502 113 511 111 516 111 523 110 532 108 543 100 536 95 522 99 511 103 503 105 497 107 495 107 486 109 478 110" />
      <polygon style="fill:silver; stroke:none;" points=" 543 100 532 108 532 117 532 125 532 133 533 141 532 151 532 160 531 169 530 178 529 187 528 196 525 207 523 217 519 226 516 235 512 242 516 266 524 259 531 250 537 241 541 228 542 223 543 216 544 207 545 197 545 185 546 170 546 156 548 144 550 133 552 124 555 117 559 111 555 107 549 102" />
      <polygon style="fill:none; stroke:silver;" points=" 543 100 532 108 532 117 532 125 532 133 533 141 532 151 532 160 531 169 530 178 529 187 528 196 525 207 523 217 519 226 516 235 512 242 516 266 524 259 531 250 537 241 541 228 542 223 543 216 544 207 545 197 545 185 546 170 546 156 548 144 550 133 552 124 555 117 559 111 555 107 549 102" />
      <polygon style="fill:silver; stroke:none;" points=" 512 242 505 241 497 239 489 236 484 235 478 233 479 233 485 241 492 249 499 259 502 264 506 271 516 266" />
      <polygon style="fill:none; stroke:silver;" points=" 512 242 505 241 497 239 489 236 484 235 478 233 479 233 485 241 492 249 499 259 502 264 506 271 516 266" />
      <polygon style="fill:silver; stroke:none;" points=" 471 110 475 103 480 94 486 86 491 77 497 67 500 62 503 55 508 46 504 40 500 35 495 33 491 32 486 36 485 39 482 49 479 59 476 68 472 78 467 87 463 96 457 106 452 116 445 126 439 135 431 147 428 150 437 145 447 138 456 129 460 124 466 116" />
      <polygon style="fill:none; stroke:silver;" points=" 471 110 475 103 480 94 486 86 491 77 497 67 500 62 503 55 508 46 504 40 500 35 495 33 491 32 486 36 485 39 482 49 479 59 476 68 472 78 467 87 463 96 457 106 452 116 445 126 439 135 431 147 428 150 437 145 447 138 456 129 460 124 466 116" />
      <polygon style="fill:silver; stroke:none;" points=" 345 215 345 225 355 224 363 222 371 221 381 221 389 220 390 212 385 209 376 211 367 213 358 214 352 215" />
      <polygon style="fill:none; stroke:silver;" points=" 345 215 345 225 355 224 363 222 371 221 381 221 389 220 390 212 385 209 376 211 367 213 358 214 352 215" />
      <polygon style="fill:silver; stroke:none;" points=" 345 167 351 166 361 163 370 161 379 159 379 160 384 160 388 164 384 167 377 170 373 171 363 173 353 174 345 174" />
      <polygon style="fill:none; stroke:silver;" points=" 345 167 351 166 361 163 370 161 379 159 379 160 384 160 388 164 384 167 377 170 373 171 363 173 353 174 345 174" />
      <polygon style="fill:silver; stroke:none;" points=" 340 123 345 124 354 123 363 121 370 118 379 116 388 113 396 111 405 108 409 110 400 123 390 123 382 123 372 125 362 126 353 129 344 131" />
      <polygon style="fill:none; stroke:silver;" points=" 340 123 345 124 354 123 363 121 370 118 379 116 388 113 396 111 405 108 409 110 400 123 390 123 382 123 372 125 362 126 353 129 344 131" />
      <polygon style="fill:silver; stroke:none;" points=" 409 110 400 123 401 132 402 140 403 149 403 158 403 168 403 177 403 185 403 193 403 200 402 208 402 215 402 220 409 243 413 235 416 224 416 217 416 208 417 197 417 189 417 181 417 173 417 165 417 158 417 151 418 144 420 135 423 128 417 118" />
      <polygon style="fill:none; stroke:silver;" points=" 409 110 400 123 401 132 402 140 403 149 403 158 403 168 403 177 403 185 403 193 403 200 402 208 402 215 402 220 409 243 413 235 416 224 416 217 416 208 417 197 417 189 417 181 417 173 417 165 417 158 417 151 418 144 420 135 423 128 417 118" />
      <polygon style="fill:silver; stroke:none;" points=" 402 220 409 243 405 248 401 243 398 237 393 229 389 220 385 209 390 212 396 217" />
      <polygon style="fill:none; stroke:silver;" points=" 402 220 409 243 405 248 401 243 398 237 393 229 389 220 385 209 390 212 396 217" />
      <polygon style="fill:silver; stroke:none;" points=" 340 123 331 121 329 123 330 126 331 135 333 145 335 154 335 162 336 170 336 178 337 185 336 194 336 203 335 211 334 218 334 228 337 236 339 244 340 243 342 239 345 232 345 225 345 215 345 207 345 199 345 190 345 180 345 174 345 167 344 159 344 150 344 138 344 131" />
      <polygon style="fill:none; stroke:silver;" points=" 340 123 331 121 329 123 330 126 331 135 333 145 335 154 335 162 336 170 336 178 337 185 336 194 336 203 335 211 334 218 334 228 337 236 339 244 340 243 342 239 345 232 345 225 345 215 345 207 345 199 345 190 345 180 345 174 345 167 344 159 344 150 344 138 344 131" />
      <polygon style="fill:rgb(64,64,64); stroke:none;" points=" 354 123 358 115 362 107 367 98 371 89 377 80 382 72 389 61 381 53 375 50 370 48 366 53 367 58 365 69 363 79 360 89 357 98 354 107 350 115 345 124" />
      <polygon style="fill:none; stroke:rgb(64,64,64);" points=" 354 123 358 115 362 107 367 98 371 89 377 80 382 72 389 61 381 53 375 50 370 48 366 53 367 58 365 69 363 79 360 89 357 98 354 107 350 115 345 124" />
      <path d="M389 61 L345 124" style="fill:none; stroke-width:4; stroke:red;" />
      <circle style="fill:lime; stroke:none;" r="7" cx="389" cy="61" />
      <rect x="602" y="2" width="300" style="fill:none;" height="300" />
      <line x1="602" x2="902" y1="2" style="fill:none;" y2="302" />
      <line x1="902" x2="602" y1="2" style="fill:none;" y2="302" />
      <line x1="752" x2="752" y1="2" style="fill:none;" y2="302" />
      <line x1="602" x2="902" y1="152" style="fill:none;" y2="152" />
      <polygon style="fill:silver; stroke:none;" points=" 762 149 770 152 779 157 788 166 791 174 788 181 782 187 776 181 772 176 765 168 760 158 755 148" />
      <polygon style="fill:none; stroke:silver;" points=" 762 149 770 152 779 157 788 166 791 174 788 181 782 187 776 181 772 176 765 168 760 158 755 148" />
      <polygon style="fill:silver; stroke:none;" points=" 771 110 766 116 775 116 784 115 793 114 802 113 811 111 816 111 823 110 832 108 843 100 836 95 822 99 811 103 803 105 797 107 795 107 786 109 778 110" />
      <polygon style="fill:none; stroke:silver;" points=" 771 110 766 116 775 116 784 115 793 114 802 113 811 111 816 111 823 110 832 108 843 100 836 95 822 99 811 103 803 105 797 107 795 107 786 109 778 110" />
      <polygon style="fill:silver; stroke:none;" points=" 843 100 832 108 832 117 832 125 832 133 833 141 832 151 832 160 831 169 830 178 829 187 828 196 825 207 823 217 819 226 816 235 812 242 816 266 824 259 831 250 837 241 841 228 842 223 843 216 844 207 845 197 845 185 846 170 846 156 848 144 850 133 852 124 855 117 859 111 855 107 849 102" />
      <polygon style="fill:none; stroke:silver;" points=" 843 100 832 108 832 117 832 125 832 133 833 141 832 151 832 160 831 169 830 178 829 187 828 196 825 207 823 217 819 226 816 235 812 242 816 266 824 259 831 250 837 241 841 228 842 223 843 216 844 207 845 197 845 185 846 170 846 156 848 144 850 133 852 124 855 117 859 111 855 107 849 102" />
      <polygon style="fill:silver; stroke:none;" points=" 812 242 805 241 797 239 789 236 784 235 778 233 779 233 785 241 792 249 799 259 802 264 806 271 816 266" />
      <polygon style="fill:none; stroke:silver;" points=" 812 242 805 241 797 239 789 236 784 235 778 233 779 233 785 241 792 249 799 259 802 264 806 271 816 266" />
      <polygon style="fill:silver; stroke:none;" points=" 771 110 775 103 780 94 786 86 791 77 797 67 800 62 803 55 808 46 804 40 800 35 795 33 791 32 786 36 785 39 782 49 779 59 776 68 772 78 767 87 763 96 757 106 752 116 745 126 739 135 731 147 728 150 737 145 747 138 756 129 760 124 766 116" />
      <polygon style="fill:none; stroke:silver;" points=" 771 110 775 103 780 94 786 86 791 77 797 67 800 62 803 55 808 46 804 40 800 35 795 33 791 32 786 36 785 39 782 49 779 59 776 68 772 78 767 87 763 96 757 106 752 116 745 126 739 135 731 147 728 150 737 145 747 138 756 129 760 124 766 116" />
      <polygon style="fill:silver; stroke:none;" points=" 645 215 645 225 655 224 663 222 671 221 681 221 689 220 690 212 685 209 676 211 667 213 658 214 652 215" />
      <polygon style="fill:none; stroke:silver;" points=" 645 215 645 225 655 224 663 222 671 221 681 221 689 220 690 212 685 209 676 211 667 213 658 214 652 215" />
      <polygon style="fill:silver; stroke:none;" points=" 645 167 651 166 661 163 670 161 679 159 679 160 684 160 688 164 684 167 677 170 673 171 663 173 653 174 645 174" />
      <polygon style="fill:none; stroke:silver;" points=" 645 167 651 166 661 163 670 161 679 159 679 160 684 160 688 164 684 167 677 170 673 171 663 173 653 174 645 174" />
      <polygon style="fill:silver; stroke:none;" points=" 640 123 645 124 654 123 663 121 670 118 679 116 688 113 696 111 705 108 709 110 700 123 690 123 682 123 672 125 662 126 653 129 644 131" />
      <polygon style="fill:none; stroke:silver;" points=" 640 123 645 124 654 123 663 121 670 118 679 116 688 113 696 111 705 108 709 110 700 123 690 123 682 123 672 125 662 126 653 129 644 131" />
      <polygon style="fill:silver; stroke:none;" points=" 709 110 700 123 701 132 702 140 703 149 703 158 703 168 703 177 703 185 703 193 703 200 702 208 702 215 702 220 709 243 713 235 716 224 716 217 716 208 717 197 717 189 717 181 717 173 717 165 717 158 717 151 718 144 720 135 723 128 717 118" />
      <polygon style="fill:none; stroke:silver;" points=" 709 110 700 123 701 132 702 140 703 149 703 158 703 168 703 177 703 185 703 193 703 200 702 208 702 215 702 220 709 243 713 235 716 224 716 217 716 208 717 197 717 189 717 181 717 173 717 165 717 158 717 151 718 144 720 135 723 128 717 118" />
      <polygon style="fill:silver; stroke:none;" points=" 702 220 709 243 705 248 701 243 698 237 693 229 689 220 685 209 690 212 696 217" />
      <polygon style="fill:none; stroke:silver;" points=" 702 220 709 243 705 248 701 243 698 237 693 229 689 220 685 209 690 212 696 217" />
      <polygon style="fill:rgb(64,64,64); stroke:none;" points=" 640 123 631 121 629 123 630 126 631 135 633 145 635 154 635 162 636 170 636 178 637 185 636 194 636 203 635 211 634 218 634 228 637 236 639 244 640 243 642 239 645 232 645 225 645 215 645 207 645 199 645 190 645 180 645 174 645 167 644 159 644 150 644 138 644 131" />
      <polygon style="fill:none; stroke:rgb(64,64,64);" points=" 640 123 631 121 629 123 630 126 631 135 633 145 635 154 635 162 636 170 636 178 637 185 636 194 636 203 635 211 634 218 634 228 637 236 639 244 640 243 642 239 645 232 645 225 645 215 645 207 645 199 645 190 645 180 645 174 645 167 644 159 644 150 644 138 644 131" />
      <polygon style="fill:rgb(64,64,64); stroke:none;" points=" 654 123 658 115 662 107 667 98 671 89 677 80 682 72 689 61 681 53 675 50 670 48 666 53 667 58 665 69 663 79 660 89 657 98 654 107 650 115 645 124" />
      <polygon style="fill:none; stroke:rgb(64,64,64);" points=" 654 123 658 115 662 107 667 98 671 89 677 80 682 72 689 61 681 53 675 50 670 48 666 53 667 58 665 69 663 79 660 89 657 98 654 107 650 115 645 124" />
      <path d="M631 121 L639 244" style="fill:none; stroke-width:4; stroke:red;" />
      <circle style="fill:lime; stroke:none;" r="7" cx="631" cy="121" />
      <rect x="902" y="2" width="300" style="fill:none;" height="300" />
      <line x1="902" x2="1202" y1="2" style="fill:none;" y2="302" />
      <line x1="1202" x2="902" y1="2" style="fill:none;" y2="302" />
      <line x1="1052" x2="1052" y1="2" style="fill:none;" y2="302" />
      <line x1="902" x2="1202" y1="152" style="fill:none;" y2="152" />
      <polygon style="fill:silver; stroke:none;" points=" 1062 149 1070 152 1079 157 1088 166 1091 174 1088 181 1082 187 1076 181 1072 176 1065 168 1060 158 1055 148" />
      <polygon style="fill:none; stroke:silver;" points=" 1062 149 1070 152 1079 157 1088 166 1091 174 1088 181 1082 187 1076 181 1072 176 1065 168 1060 158 1055 148" />
      <polygon style="fill:silver; stroke:none;" points=" 1071 110 1066 116 1075 116 1084 115 1093 114 1102 113 1111 111 1116 111 1123 110 1132 108 1143 100 1136 95 1122 99 1111 103 1103 105 1097 107 1095 107 1086 109 1078 110" />
      <polygon style="fill:none; stroke:silver;" points=" 1071 110 1066 116 1075 116 1084 115 1093 114 1102 113 1111 111 1116 111 1123 110 1132 108 1143 100 1136 95 1122 99 1111 103 1103 105 1097 107 1095 107 1086 109 1078 110" />
      <polygon style="fill:silver; stroke:none;" points=" 1143 100 1132 108 1132 117 1132 125 1132 133 1133 141 1132 151 1132 160 1131 169 1130 178 1129 187 1128 196 1125 207 1123 217 1119 226 1116 235 1112 242 1116 266 1124 259 1131 250 1137 241 1141 228 1142 223 1143 216 1144 207 1145 197 1145 185 1146 170 1146 156 1148 144 1150 133 1152 124 1155 117 1159 111 1155 107 1149 102" />
      <polygon style="fill:none; stroke:silver;" points=" 1143 100 1132 108 1132 117 1132 125 1132 133 1133 141 1132 151 1132 160 1131 169 1130 178 1129 187 1128 196 1125 207 1123 217 1119 226 1116 235 1112 242 1116 266 1124 259 1131 250 1137 241 1141 228 1142 223 1143 216 1144 207 1145 197 1145 185 1146 170 1146 156 1148 144 1150 133 1152 124 1155 117 1159 111 1155 107 1149 102" />
      <polygon style="fill:silver; stroke:none;" points=" 1112 242 1105 241 1097 239 1089 236 1084 235 1078 233 1079 233 1085 241 1092 249 1099 259 1102 264 1106 271 1116 266" />
      <polygon style="fill:none; stroke:silver;" points=" 1112 242 1105 241 1097 239 1089 236 1084 235 1078 233 1079 233 1085 241 1092 249 1099 259 1102 264 1106 271 1116 266" />
      <polygon style="fill:silver; stroke:none;" points=" 1071 110 1075 103 1080 94 1086 86 1091 77 1097 67 1100 62 1103 55 1108 46 1104 40 1100 35 1095 33 1091 32 1086 36 1085 39 1082 49 1079 59 1076 68 1072 78 1067 87 1063 96 1057 106 1052 116 1045 126 1039 135 1031 147 1028 150 1037 145 1047 138 1056 129 1060 124 1066 116" />
      <polygon style="fill:none; stroke:silver;" points=" 1071 110 1075 103 1080 94 1086 86 1091 77 1097 67 1100 62 1103 55 1108 46 1104 40 1100 35 1095 33 1091 32 1086 36 1085 39 1082 49 1079 59 1076 68 1072 78 1067 87 1063 96 1057 106 1052 116 1045 126 1039 135 1031 147 1028 150 1037 145 1047 138 1056 129 1060 124 1066 116" />
      <polygon style="fill:silver; stroke:none;" points=" 945 215 945 225 955 224 963 222 971 221 981 221 989 220 990 212 985 209 976 211 967 213 958 214 952 215" />
      <polygon style="fill:none; stroke:silver;" points=" 945 215 945 225 955 224 963 222 971 221 981 221 989 220 990 212 985 209 976 211 967 213 958 214 952 215" />
      <polygon style="fill:silver; stroke:none;" points=" 945 167 951 166 961 163 970 161 979 159 979 160 984 160 988 164 984 167 977 170 973 171 963 173 953 174 945 174" />
      <polygon style="fill:none; stroke:silver;" points=" 945 167 951 166 961 163 970 161 979 159 979 160 984 160 988 164 984 167 977 170 973 171 963 173 953 174 945 174" />
      <polygon style="fill:rgb(64,64,64); stroke:none;" points=" 940 123 945 124 954 123 963 121 970 118 979 116 988 113 996 111 1005 108 1009 110 1000 123 990 123 982 123 972 125 962 126 953 129 944 131" />
      <polygon style="fill:none; stroke:rgb(64,64,64);" points=" 940 123 945 124 954 123 963 121 970 118 979 116 988 113 996 111 1005 108 1009 110 1000 123 990 123 982 123 972 125 962 126 953 129 944 131" />
      <polygon style="fill:rgb(64,64,64); stroke:none;" points=" 1009 110 1000 123 1001 132 1002 140 1003 149 1003 158 1003 168 1003 177 1003 185 1003 193 1003 200 1002 208 1002 215 1002 220 1009 243 1013 235 1016 224 1016 217 1016 208 1017 197 1017 189 1017 181 1017 173 1017 165 1017 158 1017 151 1018 144 1020 135 1023 128 1017 118" />
      <polygon style="fill:none; stroke:rgb(64,64,64);" points=" 1009 110 1000 123 1001 132 1002 140 1003 149 1003 158 1003 168 1003 177 1003 185 1003 193 1003 200 1002 208 1002 215 1002 220 1009 243 1013 235 1016 224 1016 217 1016 208 1017 197 1017 189 1017 181 1017 173 1017 165 1017 158 1017 151 1018 144 1020 135 1023 128 1017 118" />
      <polygon style="fill:rgb(64,64,64); stroke:none;" points=" 1002 220 1009 243 1005 248 1001 243 998 237 993 229 989 220 985 209 990 212 996 217" />
      <polygon style="fill:none; stroke:rgb(64,64,64);" points=" 1002 220 1009 243 1005 248 1001 243 998 237 993 229 989 220 985 209 990 212 996 217" />
      <polygon style="fill:rgb(64,64,64); stroke:none;" points=" 940 123 931 121 929 123 930 126 931 135 933 145 935 154 935 162 936 170 936 178 937 185 936 194 936 203 935 211 934 218 934 228 937 236 939 244 940 243 942 239 945 232 945 225 945 215 945 207 945 199 945 190 945 180 945 174 945 167 944 159 944 150 944 138 944 131" />
      <polygon style="fill:none; stroke:rgb(64,64,64);" points=" 940 123 931 121 929 123 930 126 931 135 933 145 935 154 935 162 936 170 936 178 937 185 936 194 936 203 935 211 934 218 934 228 937 236 939 244 940 243 942 239 945 232 945 225 945 215 945 207 945 199 945 190 945 180 945 174 945 167 944 159 944 150 944 138 944 131" />
      <polygon style="fill:rgb(64,64,64); stroke:none;" points=" 954 123 958 115 962 107 967 98 971 89 977 80 982 72 989 61 981 53 975 50 970 48 966 53 967 58 965 69 963 79 960 89 957 98 954 107 950 115 945 124" />
      <polygon style="fill:none; stroke:rgb(64,64,64);" points=" 954 123 958 115 962 107 967 98 971 89 977 80 982 72 989 61 981 53 975 50 970 48 966 53 967 58 965 69 963 79 960 89 957 98 954 107 950 115 945 124" />
      <path d="M940 123 L1009 110 L1009 243 L985 209" style="fill:none; stroke-width:4; stroke:red;" />
      <circle style="fill:lime; stroke:none;" r="7" cx="940" cy="123" />
      <rect x="1202" y="2" width="300" style="fill:none;" height="300" />
      <line x1="1202" x2="1502" y1="2" style="fill:none;" y2="302" />
      <line x1="1502" x2="1202" y1="2" style="fill:none;" y2="302" />
      <line x1="1352" x2="1352" y1="2" style="fill:none;" y2="302" />
      <line x1="1202" x2="1502" y1="152" style="fill:none;" y2="152" />
      <polygon style="fill:silver; stroke:none;" points=" 1362 149 1370 152 1379 157 1388 166 1391 174 1388 181 1382 187 1376 181 1372 176 1365 168 1360 158 1355 148" />
      <polygon style="fill:none; stroke:silver;" points=" 1362 149 1370 152 1379 157 1388 166 1391 174 1388 181 1382 187 1376 181 1372 176 1365 168 1360 158 1355 148" />
      <polygon style="fill:silver; stroke:none;" points=" 1371 110 1366 116 1375 116 1384 115 1393 114 1402 113 1411 111 1416 111 1423 110 1432 108 1443 100 1436 95 1422 99 1411 103 1403 105 1397 107 1395 107 1386 109 1378 110" />
      <polygon style="fill:none; stroke:silver;" points=" 1371 110 1366 116 1375 116 1384 115 1393 114 1402 113 1411 111 1416 111 1423 110 1432 108 1443 100 1436 95 1422 99 1411 103 1403 105 1397 107 1395 107 1386 109 1378 110" />
      <polygon style="fill:silver; stroke:none;" points=" 1443 100 1432 108 1432 117 1432 125 1432 133 1433 141 1432 151 1432 160 1431 169 1430 178 1429 187 1428 196 1425 207 1423 217 1419 226 1416 235 1412 242 1416 266 1424 259 1431 250 1437 241 1441 228 1442 223 1443 216 1444 207 1445 197 1445 185 1446 170 1446 156 1448 144 1450 133 1452 124 1455 117 1459 111 1455 107 1449 102" />
      <polygon style="fill:none; stroke:silver;" points=" 1443 100 1432 108 1432 117 1432 125 1432 133 1433 141 1432 151 1432 160 1431 169 1430 178 1429 187 1428 196 1425 207 1423 217 1419 226 1416 235 1412 242 1416 266 1424 259 1431 250 1437 241 1441 228 1442 223 1443 216 1444 207 1445 197 1445 185 1446 170 1446 156 1448 144 1450 133 1452 124 1455 117 1459 111 1455 107 1449 102" />
      <polygon style="fill:silver; stroke:none;" points=" 1412 242 1405 241 1397 239 1389 236 1384 235 1378 233 1379 233 1385 241 1392 249 1399 259 1402 264 1406 271 1416 266" />
      <polygon style="fill:none; stroke:silver;" points=" 1412 242 1405 241 1397 239 1389 236 1384 235 1378 233 1379 233 1385 241 1392 249 1399 259 1402 264 1406 271 1416 266" />
      <polygon style="fill:silver; stroke:none;" points=" 1371 110 1375 103 1380 94 1386 86 1391 77 1397 67 1400 62 1403 55 1408 46 1404 40 1400 35 1395 33 1391 32 1386 36 1385 39 1382 49 1379 59 1376 68 1372 78 1367 87 1363 96 1357 106 1352 116 1345 126 1339 135 1331 147 1328 150 1337 145 1347 138 1356 129 1360 124 1366 116" />
      <polygon style="fill:none; stroke:silver;" points=" 1371 110 1375 103 1380 94 1386 86 1391 77 1397 67 1400 62 1403 55 1408 46 1404 40 1400 35 1395 33 1391 32 1386 36 1385 39 1382 49 1379 59 1376 68 1372 78 1367 87 1363 96 1357 106 1352 116 1345 126 1339 135 1331 147 1328 150 1337 145 1347 138 1356 129 1360 124 1366 116" />
      <polygon style="fill:silver; stroke:none;" points=" 1245 215 1245 225 1255 224 1263 222 1271 221 1281 221 1289 220 1290 212 1285 209 1276 211 1267 213 1258 214 1252 215" />
      <polygon style="fill:none; stroke:silver;" points=" 1245 215 1245 225 1255 224 1263 222 1271 221 1281 221 1289 220 1290 212 1285 209 1276 211 1267 213 1258 214 1252 215" />
      <polygon style="fill:rgb(64,64,64); stroke:none;" points=" 1245 167 1251 166 1261 163 1270 161 1279 159 1279 160 1284 160 1288 164 1284 167 1277 170 1273 171 1263 173 1253 174 1245 174" />
      <polygon style="fill:none; stroke:rgb(64,64,64);" points=" 1245 167 1251 166 1261 163 1270 161 1279 159 1279 160 1284 160 1288 164 1284 167 1277 170 1273 171 1263 173 1253 174 1245 174" />
      <polygon style="fill:rgb(64,64,64); stroke:none;" points=" 1240 123 1245 124 1254 123 1263 121 1270 118 1279 116 1288 113 1296 111 1305 108 1309 110 1300 123 1290 123 1282 123 1272 125 1262 126 1253 129 1244 131" />
      <polygon style="fill:none; stroke:rgb(64,64,64);" points=" 1240 123 1245 124 1254 123 1263 121 1270 118 1279 116 1288 113 1296 111 1305 108 1309 110 1300 123 1290 123 1282 123 1272 125 1262 126 1253 129 1244 131" />
      <polygon style="fill:rgb(64,64,64); stroke:none;" points=" 1309 110 1300 123 1301 132 1302 140 1303 149 1303 158 1303 168 1303 177 1303 185 1303 193 1303 200 1302 208 1302 215 1302 220 1309 243 1313 235 1316 224 1316 217 1316 208 1317 197 1317 189 1317 181 1317 173 1317 165 1317 158 1317 151 1318 144 1320 135 1323 128 1317 118" />
      <polygon style="fill:none; stroke:rgb(64,64,64);" points=" 1309 110 1300 123 1301 132 1302 140 1303 149 1303 158 1303 168 1303 177 1303 185 1303 193 1303 200 1302 208 1302 215 1302 220 1309 243 1313 235 1316 224 1316 217 1316 208 1317 197 1317 189 1317 181 1317 173 1317 165 1317 158 1317 151 1318 144 1320 135 1323 128 1317 118" />
      <polygon style="fill:rgb(64,64,64); stroke:none;" points=" 1302 220 1309 243 1305 248 1301 243 1298 237 1293 229 1289 220 1285 209 1290 212 1296 217" />
      <polygon style="fill:none; stroke:rgb(64,64,64);" points=" 1302 220 1309 243 1305 248 1301 243 1298 237 1293 229 1289 220 1285 209 1290 212 1296 217" />
      <polygon style="fill:rgb(64,64,64); stroke:none;" points=" 1240 123 1231 121 1229 123 1230 126 1231 135 1233 145 1235 154 1235 162 1236 170 1236 178 1237 185 1236 194 1236 203 1235 211 1234 218 1234 228 1237 236 1239 244 1240 243 1242 239 1245 232 1245 225 1245 215 1245 207 1245 199 1245 190 1245 180 1245 174 1245 167 1244 159 1244 150 1244 138 1244 131" />
      <polygon style="fill:none; stroke:rgb(64,64,64);" points=" 1240 123 1231 121 1229 123 1230 126 1231 135 1233 145 1235 154 1235 162 1236 170 1236 178 1237 185 1236 194 1236 203 1235 211 1234 218 1234 228 1237 236 1239 244 1240 243 1242 239 1245 232 1245 225 1245 215 1245 207 1245 199 1245 190 1245 180 1245 174 1245 167 1244 159 1244 150 1244 138 1244 131" />
      <polygon style="fill:rgb(64,64,64); stroke:none;" points=" 1254 123 1258 115 1262 107 1267 98 1271 89 1277 80 1282 72 1289 61 1281 53 1275 50 1270 48 1266 53 1267 58 1265 69 1263 79 1260 89 1257 98 1254 107 1250 115 1245 124" />
      <polygon style="fill:none; stroke:rgb(64,64,64);" points=" 1254 123 1258 115 1262 107 1267 98 1271 89 1277 80 1282 72 1289 61 1281 53 1275 50 1270 48 1266 53 1267 58 1265 69 1263 79 1260 89 1257 98 1254 107 1250 115 1245 124" />
      <path d="M1245 167 L1288 164" style="fill:none; stroke-width:4; stroke:red;" />
      <circle style="fill:lime; stroke:none;" r="7" cx="1245" cy="167" />
      <rect x="2" y="302" width="300" style="fill:none;" height="300" />
      <line x1="2" x2="302" y1="302" style="fill:none;" y2="602" />
      <line x1="302" x2="2" y1="302" style="fill:none;" y2="602" />
      <line x1="152" x2="152" y1="302" style="fill:none;" y2="602" />
      <line x1="2" x2="302" y1="452" style="fill:none;" y2="452" />
      <polygon style="fill:silver; stroke:none;" points=" 162 449 170 452 179 457 188 466 191 474 188 481 182 487 176 481 172 476 165 468 160 458 155 448" />
      <polygon style="fill:none; stroke:silver;" points=" 162 449 170 452 179 457 188 466 191 474 188 481 182 487 176 481 172 476 165 468 160 458 155 448" />
      <polygon style="fill:silver; stroke:none;" points=" 171 410 166 416 175 416 184 415 193 414 202 413 211 411 216 411 223 410 232 408 243 400 236 395 222 399 211 403 203 405 197 407 195 407 186 409 178 410" />
      <polygon style="fill:none; stroke:silver;" points=" 171 410 166 416 175 416 184 415 193 414 202 413 211 411 216 411 223 410 232 408 243 400 236 395 222 399 211 403 203 405 197 407 195 407 186 409 178 410" />
      <polygon style="fill:silver; stroke:none;" points=" 243 400 232 408 232 417 232 425 232 433 233 441 232 451 232 460 231 469 230 478 229 487 228 496 225 507 223 517 219 526 216 535 212 542 216 566 224 559 231 550 237 541 241 528 242 523 243 516 244 507 245 497 245 485 246 470 246 456 248 444 250 433 252 424 255 417 259 411 255 407 249 402" />
      <polygon style="fill:none; stroke:silver;" points=" 243 400 232 408 232 417 232 425 232 433 233 441 232 451 232 460 231 469 230 478 229 487 228 496 225 507 223 517 219 526 216 535 212 542 216 566 224 559 231 550 237 541 241 528 242 523 243 516 244 507 245 497 245 485 246 470 246 456 248 444 250 433 252 424 255 417 259 411 255 407 249 402" />
      <polygon style="fill:silver; stroke:none;" points=" 212 542 205 541 197 539 189 536 184 535 178 533 179 533 185 541 192 549 199 559 202 564 206 571 216 566" />
      <polygon style="fill:none; stroke:silver;" points=" 212 542 205 541 197 539 189 536 184 535 178 533 179 533 185 541 192 549 199 559 202 564 206 571 216 566" />
      <polygon style="fill:silver; stroke:none;" points=" 171 410 175 403 180 394 186 386 191 377 197 367 200 362 203 355 208 346 204 340 200 335 195 333 191 332 186 336 185 339 182 349 179 359 176 368 172 378 167 387 163 396 157 406 152 416 145 426 139 435 131 447 128 450 137 445 147 438 156 429 160 424 166 416" />
      <polygon style="fill:none; stroke:silver;" points=" 171 410 175 403 180 394 186 386 191 377 197 367 200 362 203 355 208 346 204 340 200 335 195 333 191 332 186 336 185 339 182 349 179 359 176 368 172 378 167 387 163 396 157 406 152 416 145 426 139 435 131 447 128 450 137 445 147 438 156 429 160 424 166 416" />
      <polygon style="fill:rgb(64,64,64); stroke:none;" points=" 45 515 45 525 55 524 63 522 71 521 81 521 89 520 90 512 85 509 76 511 67 513 58 514 52 515" />
      <polygon style="fill:none; stroke:rgb(64,64,64);" points=" 45 515 45 525 55 524 63 522 71 521 81 521 89 520 90 512 85 509 76 511 67 513 58 514 52 515" />
      <polygon style="fill:rgb(64,64,64); stroke:none;" points=" 45 467 51 466 61 463 70 461 79 459 79 460 84 460 88 464 84 467 77 470 73 471 63 473 53 474 45 474" />
      <polygon style="fill:none; stroke:rgb(64,64,64);" points=" 45 467 51 466 61 463 70 461 79 459 79 460 84 460 88 464 84 467 77 470 73 471 63 473 53 474 45 474" />
      <polygon style="fill:rgb(64,64,64); stroke:none;" points=" 40 423 45 424 54 423 63 421 70 418 79 416 88 413 96 411 105 408 109 410 100 423 90 423 82 423 72 425 62 426 53 429 44 431" />
      <polygon style="fill:none; stroke:rgb(64,64,64);" points=" 40 423 45 424 54 423 63 421 70 418 79 416 88 413 96 411 105 408 109 410 100 423 90 423 82 423 72 425 62 426 53 429 44 431" />
      <polygon style="fill:rgb(64,64,64); stroke:none;" points=" 109 410 100 423 101 432 102 440 103 449 103 458 103 468 103 477 103 485 103 493 103 500 102 508 102 515 102 520 109 543 113 535 116 524 116 517 116 508 117 497 117 489 117 481 117 473 117 465 117 458 117 451 118 444 120 435 123 428 117 418" />
      <polygon style="fill:none; stroke:rgb(64,64,64);" points=" 109 410 100 423 101 432 102 440 103 449 103 458 103 468 103 477 103 485 103 493 103 500 102 508 102 515 102 520 109 543 113 535 116 524 116 517 116 508 117 497 117 489 117 481 117 473 117 465 117 458 117 451 118 444 120 435 123 428 117 418" />
      <polygon style="fill:rgb(64,64,64); stroke:none;" points=" 102 520 109 543 105 548 101 543 98 537 93 529 89 520 85 509 90 512 96 517" />
      <polygon style="fill:none; stroke:rgb(64,64,64);" points=" 102 520 109 543 105 548 101 543 98 537 93 529 89 520 85 509 90 512 96 517" />
      <polygon style="fill:rgb(64,64,64); stroke:none;" points=" 40 423 31 421 29 423 30 426 31 435 33 445 35 454 35 462 36 470 36 478 37 485 36 494 36 503 35 511 34 518 34 528 37 536 39 544 40 543 42 539 45 532 45 525 45 515 45 507 45 499 45 490 45 480 45 474 45 467 44 459 44 450 44 438 44 431" />
      <polygon style="fill:none; stroke:rgb(64,64,64);" points=" 40 423 31 421 29 423 30 426 31 435 33 445 35 454 35 462 36 470 36 478 37 485 36 494 36 503 35 511 34 518 34 528 37 536 39 544 40 543 42 539 45 532 45 525 45 515 45 507 45 499 45 490 45 480 45 474 45 467 44 459 44 450 44 438 44 431" />
      <polygon style="fill:rgb(64,64,64); stroke:none;" points=" 54 423 58 415 62 407 67 398 71 389 77 380 82 372 89 361 81 353 75 350 70 348 66 353 67 358 65 369 63 379 60 389 57 398 54 407 50 415 45 424" />
      <polygon style="fill:none; stroke:rgb(64,64,64);" points=" 54 423 58 415 62 407 67 398 71 389 77 380 82 372 89 361 81 353 75 350 70 348 66 353 67 358 65 369 63 379 60 389 57 398 54 407 50 415 45 424" />
      <path d="M45 515 L90 512" style="fill:none; stroke-width:4; stroke:red;" />
      <circle style="fill:lime; stroke:none;" r="7" cx="45" cy="515" />
      <rect x="302" y="302" width="300" style="fill:none;" height="300" />
      <line x1="302" x2="602" y1="302" style="fill:none;" y2="602" />
      <line x1="602" x2="302" y1="302" style="fill:none;" y2="602" />
      <line x1="452" x2="452" y1="302" style="fill:none;" y2="602" />
      <line x1="302" x2="602" y1="452" style="fill:none;" y2="452" />
      <polygon style="fill:silver; stroke:none;" points=" 462 449 470 452 479 457 488 466 491 474 488 481 482 487 476 481 472 476 465 468 460 458 455 448" />
      <polygon style="fill:none; stroke:silver;" points=" 462 449 470 452 479 457 488 466 491 474 488 481 482 487 476 481 472 476 465 468 460 458 455 448" />
      <polygon style="fill:silver; stroke:none;" points=" 471 410 466 416 475 416 484 415 493 414 502 413 511 411 516 411 523 410 532 408 543 400 536 395 522 399 511 403 503 405 497 407 495 407 486 409 478 410" />
      <polygon style="fill:none; stroke:silver;" points=" 471 410 466 416 475 416 484 415 493 414 502 413 511 411 516 411 523 410 532 408 543 400 536 395 522 399 511 403 503 405 497 407 495 407 486 409 478 410" />
      <polygon style="fill:silver; stroke:none;" points=" 543 400 532 408 532 417 532 425 532 433 533 441 532 451 532 460 531 469 530 478 529 487 528 496 525 507 523 517 519 526 516 535 512 542 516 566 524 559 531 550 537 541 541 528 542 523 543 516 544 507 545 497 545 485 546 470 546 456 548 444 550 433 552 424 555 417 559 411 555 407 549 402" />
      <polygon style="fill:none; stroke:silver;" points=" 543 400 532 408 532 417 532 425 532 433 533 441 532 451 532 460 531 469 530 478 529 487 528 496 525 507 523 517 519 526 516 535 512 542 516 566 524 559 531 550 537 541 541 528 542 523 543 516 544 507 545 497 545 485 546 470 546 456 548 444 550 433 552 424 555 417 559 411 555 407 549 402" />
      <polygon style="fill:silver; stroke:none;" points=" 512 542 505 541 497 539 489 536 484 535 478 533 479 533 485 541 492 549 499 559 502 564 506 571 516 566" />
      <polygon style="fill:none; stroke:silver;" points=" 512 542 505 541 497 539 489 536 484 535 478 533 479 533 485 541 492 549 499 559 502 564 506 571 516 566" />
      <polygon style="fill:rgb(64,64,64); stroke:none;" points=" 471 410 475 403 480 394 486 386 491 377 497 367 500 362 503 355 508 346 504 340 500 335 495 333 491 332 486 336 485 339 482 349 479 359 476 368 472 378 467 387 463 396 457 406 452 416 445 426 439 435 431 447 428 450 437 445 447 438 456 429 460 424 466 416" />
      <polygon style="fill:none; stroke:rgb(64,64,64);" points=" 471 410 475 403 480 394 486 386 491 377 497 367 500 362 503 355 508 346 504 340 500 335 495 333 491 332 486 336 485 339 482 349 479 359 476 368 472 378 467 387 463 396 457 406 452 416 445 426 439 435 431 447 428 450 437 445 447 438 456 429 460 424 466 416" />
      <polygon style="fill:rgb(64,64,64); stroke:none;" points=" 345 515 345 525 355 524 363 522 371 521 381 521 389 520 390 512 385 509 376 511 367 513 358 514 352 515" />
      <polygon style="fill:none; stroke:rgb(64,64,64);" points=" 345 515 345 525 355 524 363 522 371 521 381 521 389 520 390 512 385 509 376 511 367 513 358 514 352 515" />
      <polygon style="fill:rgb(64,64,64); stroke:none;" points=" 345 467 351 466 361 463 370 461 379 459 379 460 384 460 388 464 384 467 377 470 373 471 363 473 353 474 345 474" />
      <polygon style="fill:none; stroke:rgb(64,64,64);" points=" 345 467 351 466 361 463 370 461 379 459 379 460 384 460 388 464 384 467 377 470 373 471 363 473 353 474 345 474" />
      <polygon style="fill:rgb(64,64,64); stroke:none;" points=" 340 423 345 424 354 423 363 421 370 418 379 416 388 413 396 411 405 408 409 410 400 423 390 423 382 423 372 425 362 426 353 429 344 431" />
      <polygon style="fill:none; stroke:rgb(64,64,64);" points=" 340 423 345 424 354 423 363 421 370 418 379 416 388 413 396 411 405 408 409 410 400 423 390 423 382 423 372 425 362 426 353 429 344 431" />
      <polygon style="fill:rgb(64,64,64); stroke:none;" points=" 409 410 400 423 401 432 402 440 403 449 403 458 403 468 403 477 403 485 403 493 403 500 402 508 402 515 402 520 409 543 413 535 416 524 416 517 416 508 417 497 417 489 417 481 417 473 417 465 417 458 417 451 418 444 420 435 423 428 417 418" />
      <polygon style="fill:none; stroke:rgb(64,64,64);" points=" 409 410 400 423 401 432 402 440 403 449 403 458 403 468 403 477 403 485 403 493 403 500 402 508 402 515 402 520 409 543 413 535 416 524 416 517 416 508 417 497 417 489 417 481 417 473 417 465 417 458 417 451 418 444 420 435 423 428 417 418" />
      <polygon style="fill:rgb(64,64,64); stroke:none;" points=" 402 520 409 543 405 548 401 543 398 537 393 529 389 520 385 509 390 512 396 517" />
      <polygon style="fill:none; stroke:rgb(64,64,64);" points=" 402 520 409 543 405 548 401 543 398 537 393 529 389 520 385 509 390 512 396 517" />
      <polygon style="fill:rgb(64,64,64); stroke:none;" points=" 340 423 331 421 329 423 330 426 331 435 333 445 335 454 335 462 336 470 336 478 337 485 336 494 336 503 335 511 334 518 334 528 337 536 339 544 340 543 342 539 345 532 345 525 345 515 345 507 345 499 345 490 345 480 345 474 345 467 344 459 344 450 344 438 344 431" />
      <polygon style="fill:none; stroke:rgb(64,64,64);" points=" 340 423 331 421 329 423 330 426 331 435 333 445 335 454 335 462 336 470 336 478 337 485 336 494 336 503 335 511 334 518 334 528 337 536 339 544 340 543 342 539 345 532 345 525 345 515 345 507 345 499 345 490 345 480 345 474 345 467 344 459 344 450 344 438 344 431" />
      <polygon style="fill:rgb(64,64,64); stroke:none;" points=" 354 423 358 415 362 407 367 398 371 389 377 380 382 372 389 361 381 353 375 350 370 348 366 353 367 358 365 369 363 379 360 389 357 398 354 407 350 415 345 424" />
      <polygon style="fill:none; stroke:rgb(64,64,64);" points=" 354 423 358 415 362 407 367 398 371 389 377 380 382 372 389 361 381 353 375 350 370 348 366 353 367 358 365 369 363 379 360 389 357 398 354 407 350 415 345 424" />
      <path d="M500 335 L428 450" style="fill:none; stroke-width:4; stroke:red;" />
      <circle style="fill:lime; stroke:none;" r="7" cx="500" cy="335" />
      <rect x="602" y="302" width="300" style="fill:none;" height="300" />
      <line x1="602" x2="902" y1="302" style="fill:none;" y2="602" />
      <line x1="902" x2="602" y1="302" style="fill:none;" y2="602" />
      <line x1="752" x2="752" y1="302" style="fill:none;" y2="602" />
      <line x1="602" x2="902" y1="452" style="fill:none;" y2="452" />
      <polygon style="fill:silver; stroke:none;" points=" 762 449 770 452 779 457 788 466 791 474 788 481 782 487 776 481 772 476 765 468 760 458 755 448" />
      <polygon style="fill:none; stroke:silver;" points=" 762 449 770 452 779 457 788 466 791 474 788 481 782 487 776 481 772 476 765 468 760 458 755 448" />
      <polygon style="fill:rgb(64,64,64); stroke:none;" points=" 771 410 766 416 775 416 784 415 793 414 802 413 811 411 816 411 823 410 832 408 843 400 836 395 822 399 811 403 803 405 797 407 795 407 786 409 778 410" />
      <polygon style="fill:none; stroke:rgb(64,64,64);" points=" 771 410 766 416 775 416 784 415 793 414 802 413 811 411 816 411 823 410 832 408 843 400 836 395 822 399 811 403 803 405 797 407 795 407 786 409 778 410" />
      <polygon style="fill:rgb(64,64,64); stroke:none;" points=" 843 400 832 408 832 417 832 425 832 433 833 441 832 451 832 460 831 469 830 478 829 487 828 496 825 507 823 517 819 526 816 535 812 542 816 566 824 559 831 550 837 541 841 528 842 523 843 516 844 507 845 497 845 485 846 470 846 456 848 444 850 433 852 424 855 417 859 411 855 407 849 402" />
      <polygon style="fill:none; stroke:rgb(64,64,64);" points=" 843 400 832 408 832 417 832 425 832 433 833 441 832 451 832 460 831 469 830 478 829 487 828 496 825 507 823 517 819 526 816 535 812 542 816 566 824 559 831 550 837 541 841 528 842 523 843 516 844 507 845 497 845 485 846 470 846 456 848 444 850 433 852 424 855 417 859 411 855 407 849 402" />
      <polygon style="fill:rgb(64,64,64); stroke:none;" points=" 812 542 805 541 797 539 789 536 784 535 778 533 779 533 785 541 792 549 799 559 802 564 806 571 816 566" />
      <polygon style="fill:none; stroke:rgb(64,64,64);" points=" 812 542 805 541 797 539 789 536 784 535 778 533 779 533 785 541 792 549 799 559 802 564 806 571 816 566" />
      <polygon style="fill:rgb(64,64,64); stroke:none;" points=" 771 410 775 403 780 394 786 386 791 377 797 367 800 362 803 355 808 346 804 340 800 335 795 333 791 332 786 336 785 339 782 349 779 359 776 368 772 378 767 387 763 396 757 406 752 416 745 426 739 435 731 447 728 450 737 445 747 438 756 429 760 424 766 416" />
      <polygon style="fill:none; stroke:rgb(64,64,64);" points=" 771 410 775 403 780 394 786 386 791 377 797 367 800 362 803 355 808 346 804 340 800 335 795 333 791 332 786 336 785 339 782 349 779 359 776 368 772 378 767 387 763 396 757 406 752 416 745 426 739 435 731 447 728 450 737 445 747 438 756 429 760 424 766 416" />
      <polygon style="fill:rgb(64,64,64); stroke:none;" points=" 645 515 645 525 655 524 663 522 671 521 681 521 689 520 690 512 685 509 676 511 667 513 658 514 652 515" />
      <polygon style="fill:none; stroke:rgb(64,64,64);" points=" 645 515 645 525 655 524 663 522 671 521 681 521 689 520 690 512 685 509 676 511 667 513 658 514 652 515" />
      <polygon style="fill:rgb(64,64,64); stroke:none;" points=" 645 467 651 466 661 463 670 461 679 459 679 460 684 460 688 464 684 467 677 470 673 471 663 473 653 474 645 474" />
      <polygon style="fill:none; stroke:rgb(64,64,64);" points=" 645 467 651 466 661 463 670 461 679 459 679 460 684 460 688 464 684 467 677 470 673 471 663 473 653 474 645 474" />
      <polygon style="fill:rgb(64,64,64); stroke:none;" points=" 640 423 645 424 654 423 663 421 670 418 679 416 688 413 696 411 705 408 709 410 700 423 690 423 682 423 672 425 662 426 653 429 644 431" />
      <polygon style="fill:none; stroke:rgb(64,64,64);" points=" 640 423 645 424 654 423 663 421 670 418 679 416 688 413 696 411 705 408 709 410 700 423 690 423 682 423 672 425 662 426 653 429 644 431" />
      <polygon style="fill:rgb(64,64,64); stroke:none;" points=" 709 410 700 423 701 432 702 440 703 449 703 458 703 468 703 477 703 485 703 493 703 500 702 508 702 515 702 520 709 543 713 535 716 524 716 517 716 508 717 497 717 489 717 481 717 473 717 465 717 458 717 451 718 444 720 435 723 428 717 418" />
      <polygon style="fill:none; stroke:rgb(64,64,64);" points=" 709 410 700 423 701 432 702 440 703 449 703 458 703 468 703 477 703 485 703 493 703 500 702 508 702 515 702 520 709 543 713 535 716 524 716 517 716 508 717 497 717 489 717 481 717 473 717 465 717 458 717 451 718 444 720 435 723 428 717 418" />
      <polygon style="fill:rgb(64,64,64); stroke:none;" points=" 702 520 709 543 705 548 701 543 698 537 693 529 689 520 685 509 690 512 696 517" />
      <polygon style="fill:none; stroke:rgb(64,64,64);" points=" 702 520 709 543 705 548 701 543 698 537 693 529 689 520 685 509 690 512 696 517" />
      <polygon style="fill:rgb(64,64,64); stroke:none;" points=" 640 423 631 421 629 423 630 426 631 435 633 445 635 454 635 462 636 470 636 478 637 485 636 494 636 503 635 511 634 518 634 528 637 536 639 544 640 543 642 539 645 532 645 525 645 515 645 507 645 499 645 490 645 480 645 474 645 467 644 459 644 450 644 438 644 431" />
      <polygon style="fill:none; stroke:rgb(64,64,64);" points=" 640 423 631 421 629 423 630 426 631 435 633 445 635 454 635 462 636 470 636 478 637 485 636 494 636 503 635 511 634 518 634 528 637 536 639 544 640 543 642 539 645 532 645 525 645 515 645 507 645 499 645 490 645 480 645 474 645 467 644 459 644 450 644 438 644 431" />
      <polygon style="fill:rgb(64,64,64); stroke:none;" points=" 654 423 658 415 662 407 667 398 671 389 677 380 682 372 689 361 681 353 675 350 670 348 666 353 667 358 665 369 663 379 660 389 657 398 654 407 650 415 645 424" />
      <polygon style="fill:none; stroke:rgb(64,64,64);" points=" 654 423 658 415 662 407 667 398 671 389 677 380 682 372 689 361 681 353 675 350 670 348 666 353 667 358 665 369 663 379 660 389 657 398 654 407 650 415 645 424" />
      <path d="M766 416 L843 400 L816 566 L778 533" style="fill:none; stroke-width:4; stroke:red;" />
      <circle style="fill:lime; stroke:none;" r="7" cx="766" cy="416" />
      <rect x="902" y="302" width="300" style="fill:none;" height="300" />
      <line x1="902" x2="1202" y1="302" style="fill:none;" y2="602" />
      <line x1="1202" x2="902" y1="302" style="fill:none;" y2="602" />
      <line x1="1052" x2="1052" y1="302" style="fill:none;" y2="602" />
      <line x1="902" x2="1202" y1="452" style="fill:none;" y2="452" />
      <polygon style="fill:rgb(64,64,64); stroke:none;" points=" 1062 449 1070 452 1079 457 1088 466 1091 474 1088 481 1082 487 1076 481 1072 476 1065 468 1060 458 1055 448" />
      <polygon style="fill:none; stroke:rgb(64,64,64);" points=" 1062 449 1070 452 1079 457 1088 466 1091 474 1088 481 1082 487 1076 481 1072 476 1065 468 1060 458 1055 448" />
      <polygon style="fill:rgb(64,64,64); stroke:none;" points=" 1071 410 1066 416 1075 416 1084 415 1093 414 1102 413 1111 411 1116 411 1123 410 1132 408 1143 400 1136 395 1122 399 1111 403 1103 405 1097 407 1095 407 1086 409 1078 410" />
      <polygon style="fill:none; stroke:rgb(64,64,64);" points=" 1071 410 1066 416 1075 416 1084 415 1093 414 1102 413 1111 411 1116 411 1123 410 1132 408 1143 400 1136 395 1122 399 1111 403 1103 405 1097 407 1095 407 1086 409 1078 410" />
      <polygon style="fill:rgb(64,64,64); stroke:none;" points=" 1143 400 1132 408 1132 417 1132 425 1132 433 1133 441 1132 451 1132 460 1131 469 1130 478 1129 487 1128 496 1125 507 1123 517 1119 526 1116 535 1112 542 1116 566 1124 559 1131 550 1137 541 1141 528 1142 523 1143 516 1144 507 1145 497 1145 485 1146 470 1146 456 1148 444 1150 433 1152 424 1155 417 1159 411 1155 407 1149 402" />
      <polygon style="fill:none; stroke:rgb(64,64,64);" points=" 1143 400 1132 408 1132 417 1132 425 1132 433 1133 441 1132 451 1132 460 1131 469 1130 478 1129 487 1128 496 1125 507 1123 517 1119 526 1116 535 1112 542 1116 566 1124 559 1131 550 1137 541 1141 528 1142 523 1143 516 1144 507 1145 497 1145 485 1146 470 1146 456 1148 444 1150 433 1152 424 1155 417 1159 411 1155 407 1149 402" />
      <polygon style="fill:rgb(64,64,64); stroke:none;" points=" 1112 542 1105 541 1097 539 1089 536 1084 535 1078 533 1079 533 1085 541 1092 549 1099 559 1102 564 1106 571 1116 566" />
      <polygon style="fill:none; stroke:rgb(64,64,64);" points=" 1112 542 1105 541 1097 539 1089 536 1084 535 1078 533 1079 533 1085 541 1092 549 1099 559 1102 564 1106 571 1116 566" />
      <polygon style="fill:rgb(64,64,64); stroke:none;" points=" 1071 410 1075 403 1080 394 1086 386 1091 377 1097 367 1100 362 1103 355 1108 346 1104 340 1100 335 1095 333 1091 332 1086 336 1085 339 1082 349 1079 359 1076 368 1072 378 1067 387 1063 396 1057 406 1052 416 1045 426 1039 435 1031 447 1028 450 1037 445 1047 438 1056 429 1060 424 1066 416" />
      <polygon style="fill:none; stroke:rgb(64,64,64);" points=" 1071 410 1075 403 1080 394 1086 386 1091 377 1097 367 1100 362 1103 355 1108 346 1104 340 1100 335 1095 333 1091 332 1086 336 1085 339 1082 349 1079 359 1076 368 1072 378 1067 387 1063 396 1057 406 1052 416 1045 426 1039 435 1031 447 1028 450 1037 445 1047 438 1056 429 1060 424 1066 416" />
      <polygon style="fill:rgb(64,64,64); stroke:none;" points=" 945 515 945 525 955 524 963 522 971 521 981 521 989 520 990 512 985 509 976 511 967 513 958 514 952 515" />
      <polygon style="fill:none; stroke:rgb(64,64,64);" points=" 945 515 945 525 955 524 963 522 971 521 981 521 989 520 990 512 985 509 976 511 967 513 958 514 952 515" />
      <polygon style="fill:rgb(64,64,64); stroke:none;" points=" 945 467 951 466 961 463 970 461 979 459 979 460 984 460 988 464 984 467 977 470 973 471 963 473 953 474 945 474" />
      <polygon style="fill:none; stroke:rgb(64,64,64);" points=" 945 467 951 466 961 463 970 461 979 459 979 460 984 460 988 464 984 467 977 470 973 471 963 473 953 474 945 474" />
      <polygon style="fill:rgb(64,64,64); stroke:none;" points=" 940 423 945 424 954 423 963 421 970 418 979 416 988 413 996 411 1005 408 1009 410 1000 423 990 423 982 423 972 425 962 426 953 429 944 431" />
      <polygon style="fill:none; stroke:rgb(64,64,64);" points=" 940 423 945 424 954 423 963 421 970 418 979 416 988 413 996 411 1005 408 1009 410 1000 423 990 423 982 423 972 425 962 426 953 429 944 431" />
      <polygon style="fill:rgb(64,64,64); stroke:none;" points=" 1009 410 1000 423 1001 432 1002 440 1003 449 1003 458 1003 468 1003 477 1003 485 1003 493 1003 500 1002 508 1002 515 1002 520 1009 543 1013 535 1016 524 1016 517 1016 508 1017 497 1017 489 1017 481 1017 473 1017 465 1017 458 1017 451 1018 444 1020 435 1023 428 1017 418" />
      <polygon style="fill:none; stroke:rgb(64,64,64);" points=" 1009 410 1000 423 1001 432 1002 440 1003 449 1003 458 1003 468 1003 477 1003 485 1003 493 1003 500 1002 508 1002 515 1002 520 1009 543 1013 535 1016 524 1016 517 1016 508 1017 497 1017 489 1017 481 1017 473 1017 465 1017 458 1017 451 1018 444 1020 435 1023 428 1017 418" />
      <polygon style="fill:rgb(64,64,64); stroke:none;" points=" 1002 520 1009 543 1005 548 1001 543 998 537 993 529 989 520 985 509 990 512 996 517" />
      <polygon style="fill:none; stroke:rgb(64,64,64);" points=" 1002 520 1009 543 1005 548 1001 543 998 537 993 529 989 520 985 509 990 512 996 517" />
      <polygon style="fill:rgb(64,64,64); stroke:none;" points=" 940 423 931 421 929 423 930 426 931 435 933 445 935 454 935 462 936 470 936 478 937 485 936 494 936 503 935 511 934 518 934 528 937 536 939 544 940 543 942 539 945 532 945 525 945 515 945 507 945 499 945 490 945 480 945 474 945 467 944 459 944 450 944 438 944 431" />
      <polygon style="fill:none; stroke:rgb(64,64,64);" points=" 940 423 931 421 929 423 930 426 931 435 933 445 935 454 935 462 936 470 936 478 937 485 936 494 936 503 935 511 934 518 934 528 937 536 939 544 940 543 942 539 945 532 945 525 945 515 945 507 945 499 945 490 945 480 945 474 945 467 944 459 944 450 944 438 944 431" />
      <polygon style="fill:rgb(64,64,64); stroke:none;" points=" 954 423 958 415 962 407 967 398 971 389 977 380 982 372 989 361 981 353 975 350 970 348 966 353 967 358 965 369 963 379 960 389 957 398 954 407 950 415 945 424" />
      <polygon style="fill:none; stroke:rgb(64,64,64);" points=" 954 423 958 415 962 407 967 398 971 389 977 380 982 372 989 361 981 353 975 350 970 348 966 353 967 358 965 369 963 379 960 389 957 398 954 407 950 415 945 424" />
      <path d="M1055 448 L1088 481" style="fill:none; stroke-width:4; stroke:red;" />
      <circle style="fill:lime; stroke:none;" r="7" cx="1055" cy="448" />
    </g>
  </g>
</svg>
