<?xml version="1.0" encoding="UTF-8"?>

<!DOCTYPE svg PUBLIC '-//W3C//DTD SVG 1.0//EN' 'http://www.w3.org/TR/2001/REC-SVG-20010904/DTD/svg10.dtd'>
<svg style="fill-opacity:1; color-rendering:auto; color-interpolation:auto; stroke:black; text-rendering:auto; stroke-linecap:square; stroke-miterlimit:10; stroke-opacity:1; shape-rendering:auto; fill:black; stroke-dasharray:none; font-weight:normal; stroke-width:1; font-family:&apos;Dialog&apos;; font-style:normal; stroke-linejoin:miter; font-size:12; stroke-dashoffset:0; image-rendering:auto;" xmlns="http://www.w3.org/2000/svg" width="1504" xmlns:xlink="http://www.w3.org/1999/xlink" height="604">
  <!--Generated by the Batik Graphics2D SVG Generator-->
  <defs id="genericDefs" />
  <g>
    <g style="fill:rgb(128,128,255); stroke:rgb(128,128,255);">
      <rect x="2" y="2" width="300" style="fill:none;" height="300" />
      <line x1="2" x2="302" y1="2" style="fill:none;" y2="302" />
      <line x1="302" x2="2" y1="2" style="fill:none;" y2="302" />
      <line x1="152" x2="152" y1="2" style="fill:none;" y2="302" />
      <line x1="2" x2="302" y1="152" style="fill:none;" y2="152" />
      <polygon style="fill:black; stroke:none;" points=" 92 200 100 206 108 211 116 216 124 221 132 226 141 233 151 239 161 245 171 250 179 254 188 259 196 263 204 267 212 271 220 270 229 270 238 269 246 268 255 266 264 265 269 263 276 261 284 259 273 257 263 256 252 254 241 252 230 249 219 247 208 245 199 242 189 239 180 236 172 233 163 230 155 226 141 219 133 216 126 212 118 208 110 202 103 199 97 193" />
      <polygon style="fill:none; stroke:black;" points=" 92 200 100 206 108 211 116 216 124 221 132 226 141 233 151 239 161 245 171 250 179 254 188 259 196 263 204 267 212 271 220 270 229 270 238 269 246 268 255 266 264 265 269 263 276 261 284 259 273 257 263 256 252 254 241 252 230 249 219 247 208 245 199 242 189 239 180 236 172 233 163 230 155 226 141 219 133 216 126 212 118 208 110 202 103 199 97 193" />
      <polygon style="fill:black; stroke:none;" points=" 90 164 88 166 88 167 88 169 84 179 81 189 76 198 71 207 65 215 59 223 51 232 43 239 35 246 26 252 15 258 11 260 20 257 30 254 39 250 48 246 57 240 66 233 75 224 83 213 87 207 92 200 98 189 102 183 105 178 99 169" />
      <polygon style="fill:none; stroke:black;" points=" 90 164 88 166 88 167 88 169 84 179 81 189 76 198 71 207 65 215 59 223 51 232 43 239 35 246 26 252 15 258 11 260 20 257 30 254 39 250 48 246 57 240 66 233 75 224 83 213 87 207 92 200 98 189 102 183 105 178 99 169" />
      <polygon style="fill:black; stroke:none;" points=" 155 181 155 188 160 189 167 189 176 189 185 187 194 185 203 181 209 177 203 170 200 169 191 172 182 174 173 177 164 179" />
      <polygon style="fill:none; stroke:black;" points=" 155 181 155 188 160 189 167 189 176 189 185 187 194 185 203 181 209 177 203 170 200 169 191 172 182 174 173 177 164 179" />
      <polygon style="fill:black; stroke:none;" points=" 140 147 140 157 141 165 142 171 142 178 142 186 142 196 142 204 142 210 141 219 155 226 155 188 155 181 155 177 156 171 157 165 158 161 156 152 152 145" />
      <polygon style="fill:none; stroke:black;" points=" 140 147 140 157 141 165 142 171 142 178 142 186 142 196 142 204 142 210 141 219 155 226 155 188 155 181 155 177 156 171 157 165 158 161 156 152 152 145" />
      <polygon style="fill:black; stroke:none;" points=" 32 148 35 146 39 146 47 145 52 145 62 145 76 143 84 143 93 142 103 141 113 140 124 139 136 137 150 135 165 133 179 131 193 129 207 127 221 124 226 125 232 127 238 134 237 136 232 138 226 138 217 139 209 140 203 140 194 141 185 142 177 143 168 144 160 145 152 145 140 147 131 149 123 150 116 151 110 152 98 154 87 155 76 156 65 157 55 157 45 157 38 154" />
      <polygon style="fill:none; stroke:black;" points=" 32 148 35 146 39 146 47 145 52 145 62 145 76 143 84 143 93 142 103 141 113 140 124 139 136 137 150 135 165 133 179 131 193 129 207 127 221 124 226 125 232 127 238 134 237 136 232 138 226 138 217 139 209 140 203 140 194 141 185 142 177 143 168 144 160 145 152 145 140 147 131 149 123 150 116 151 110 152 98 154 87 155 76 156 65 157 55 157 45 157 38 154" />
      <polygon style="fill:black; stroke:none;" points=" 110 101 110 108 161 103 161 96 152 97 143 97 134 98 125 99 118 100" />
      <polygon style="fill:none; stroke:black;" points=" 110 101 110 108 161 103 161 96 152 97 143 97 134 98 125 99 118 100" />
      <polygon style="fill:black; stroke:none;" points=" 106 71 107 77 115 77 125 76 135 74 140 73 147 71 153 67 148 64 142 63 134 66 126 68 118 69 112 70" />
      <polygon style="fill:none; stroke:black;" points=" 106 71 107 77 115 77 125 76 135 74 140 73 147 71 153 67 148 64 142 63 134 66 126 68 118 69 112 70" />
      <polygon style="fill:black; stroke:none;" points=" 98 36 102 45 111 44 121 42 131 41 140 40 150 38 156 38 163 38 172 38 172 37 177 23 171 21 163 25 155 28 147 30 139 33 131 34 123 35 115 36 107 36" />
      <polygon style="fill:none; stroke:black;" points=" 98 36 102 45 111 44 121 42 131 41 140 40 150 38 156 38 163 38 172 38 172 37 177 23 171 21 163 25 155 28 147 30 139 33 131 34 123 35 115 36 107 36" />
      <polygon style="fill:black; stroke:none;" points=" 177 23 172 37 171 46 171 54 170 63 168 72 167 80 164 87 161 96 161 103 164 113 168 108 173 100 177 89 182 76 186 64 190 53 194 45 198 39 191 32 181 25" />
      <polygon style="fill:none; stroke:black;" points=" 177 23 172 37 171 46 171 54 170 63 168 72 167 80 164 87 161 96 161 103 164 113 168 108 173 100 177 89 182 76 186 64 190 53 194 45 198 39 191 32 181 25" />
      <polygon style="fill:black; stroke:none;" points=" 81 36 89 36 98 36 102 45 106 71 107 77 110 101 110 108 109 111 106 116 103 111 100 102 97 91 95 77 92 66 90 56 87 48 84 41" />
      <polygon style="fill:none; stroke:black;" points=" 81 36 89 36 98 36 102 45 106 71 107 77 110 101 110 108 109 111 106 116 103 111 100 102 97 91 95 77 92 66 90 56 87 48 84 41" />
      <rect x="302" y="2" width="300" style="fill:none;" height="300" />
      <line x1="302" x2="602" y1="2" style="fill:none;" y2="302" />
      <line x1="602" x2="302" y1="2" style="fill:none;" y2="302" />
      <line x1="452" x2="452" y1="2" style="fill:none;" y2="302" />
      <line x1="302" x2="602" y1="152" style="fill:none;" y2="152" />
      <polygon style="fill:silver; stroke:none;" points=" 392 200 400 206 408 211 416 216 424 221 432 226 441 233 451 239 461 245 471 250 479 254 488 259 496 263 504 267 512 271 520 270 529 270 538 269 546 268 555 266 564 265 569 263 576 261 584 259 573 257 563 256 552 254 541 252 530 249 519 247 508 245 499 242 489 239 480 236 472 233 463 230 455 226 441 219 433 216 426 212 418 208 410 202 403 199 397 193" />
      <polygon style="fill:none; stroke:silver;" points=" 392 200 400 206 408 211 416 216 424 221 432 226 441 233 451 239 461 245 471 250 479 254 488 259 496 263 504 267 512 271 520 270 529 270 538 269 546 268 555 266 564 265 569 263 576 261 584 259 573 257 563 256 552 254 541 252 530 249 519 247 508 245 499 242 489 239 480 236 472 233 463 230 455 226 441 219 433 216 426 212 418 208 410 202 403 199 397 193" />
      <polygon style="fill:silver; stroke:none;" points=" 390 164 388 166 388 167 388 169 384 179 381 189 376 198 371 207 365 215 359 223 351 232 343 239 335 246 326 252 315 258 311 260 320 257 330 254 339 250 348 246 357 240 366 233 375 224 383 213 387 207 392 200 398 189 402 183 405 178 399 169" />
      <polygon style="fill:none; stroke:silver;" points=" 390 164 388 166 388 167 388 169 384 179 381 189 376 198 371 207 365 215 359 223 351 232 343 239 335 246 326 252 315 258 311 260 320 257 330 254 339 250 348 246 357 240 366 233 375 224 383 213 387 207 392 200 398 189 402 183 405 178 399 169" />
      <polygon style="fill:silver; stroke:none;" points=" 455 181 455 188 460 189 467 189 476 189 485 187 494 185 503 181 509 177 503 170 500 169 491 172 482 174 473 177 464 179" />
      <polygon style="fill:none; stroke:silver;" points=" 455 181 455 188 460 189 467 189 476 189 485 187 494 185 503 181 509 177 503 170 500 169 491 172 482 174 473 177 464 179" />
      <polygon style="fill:silver; stroke:none;" points=" 440 147 440 157 441 165 442 171 442 178 442 186 442 196 442 204 442 210 441 219 455 226 455 188 455 181 455 177 456 171 457 165 458 161 456 152 452 145" />
      <polygon style="fill:none; stroke:silver;" points=" 440 147 440 157 441 165 442 171 442 178 442 186 442 196 442 204 442 210 441 219 455 226 455 188 455 181 455 177 456 171 457 165 458 161 456 152 452 145" />
      <polygon style="fill:silver; stroke:none;" points=" 332 148 335 146 339 146 347 145 352 145 362 145 376 143 384 143 393 142 403 141 413 140 424 139 436 137 450 135 465 133 479 131 493 129 507 127 521 124 526 125 532 127 538 134 537 136 532 138 526 138 517 139 509 140 503 140 494 141 485 142 477 143 468 144 460 145 452 145 440 147 431 149 423 150 416 151 410 152 398 154 387 155 376 156 365 157 355 157 345 157 338 154" />
      <polygon style="fill:none; stroke:silver;" points=" 332 148 335 146 339 146 347 145 352 145 362 145 376 143 384 143 393 142 403 141 413 140 424 139 436 137 450 135 465 133 479 131 493 129 507 127 521 124 526 125 532 127 538 134 537 136 532 138 526 138 517 139 509 140 503 140 494 141 485 142 477 143 468 144 460 145 452 145 440 147 431 149 423 150 416 151 410 152 398 154 387 155 376 156 365 157 355 157 345 157 338 154" />
      <polygon style="fill:silver; stroke:none;" points=" 410 101 410 108 461 103 461 96 452 97 443 97 434 98 425 99 418 100" />
      <polygon style="fill:none; stroke:silver;" points=" 410 101 410 108 461 103 461 96 452 97 443 97 434 98 425 99 418 100" />
      <polygon style="fill:silver; stroke:none;" points=" 406 71 407 77 415 77 425 76 435 74 440 73 447 71 453 67 448 64 442 63 434 66 426 68 418 69 412 70" />
      <polygon style="fill:none; stroke:silver;" points=" 406 71 407 77 415 77 425 76 435 74 440 73 447 71 453 67 448 64 442 63 434 66 426 68 418 69 412 70" />
      <polygon style="fill:silver; stroke:none;" points=" 398 36 402 45 411 44 421 42 431 41 440 40 450 38 456 38 463 38 472 38 472 37 477 23 471 21 463 25 455 28 447 30 439 33 431 34 423 35 415 36 407 36" />
      <polygon style="fill:none; stroke:silver;" points=" 398 36 402 45 411 44 421 42 431 41 440 40 450 38 456 38 463 38 472 38 472 37 477 23 471 21 463 25 455 28 447 30 439 33 431 34 423 35 415 36 407 36" />
      <polygon style="fill:silver; stroke:none;" points=" 477 23 472 37 471 46 471 54 470 63 468 72 467 80 464 87 461 96 461 103 464 113 468 108 473 100 477 89 482 76 486 64 490 53 494 45 498 39 491 32 481 25" />
      <polygon style="fill:none; stroke:silver;" points=" 477 23 472 37 471 46 471 54 470 63 468 72 467 80 464 87 461 96 461 103 464 113 468 108 473 100 477 89 482 76 486 64 490 53 494 45 498 39 491 32 481 25" />
      <polygon style="fill:rgb(64,64,64); stroke:none;" points=" 381 36 389 36 398 36 402 45 406 71 407 77 410 101 410 108 409 111 406 116 403 111 400 102 397 91 395 77 392 66 390 56 387 48 384 41" />
      <polygon style="fill:none; stroke:rgb(64,64,64);" points=" 381 36 389 36 398 36 402 45 406 71 407 77 410 101 410 108 409 111 406 116 403 111 400 102 397 91 395 77 392 66 390 56 387 48 384 41" />
      <path d="M381 36 L406 116" style="fill:none; stroke-width:4; stroke:red;" />
      <circle style="fill:lime; stroke:none;" r="7" cx="381" cy="36" />
      <rect x="602" y="2" width="300" style="fill:none;" height="300" />
      <line x1="602" x2="902" y1="2" style="fill:none;" y2="302" />
      <line x1="902" x2="602" y1="2" style="fill:none;" y2="302" />
      <line x1="752" x2="752" y1="2" style="fill:none;" y2="302" />
      <line x1="602" x2="902" y1="152" style="fill:none;" y2="152" />
      <polygon style="fill:silver; stroke:none;" points=" 692 200 700 206 708 211 716 216 724 221 732 226 741 233 751 239 761 245 771 250 779 254 788 259 796 263 804 267 812 271 820 270 829 270 838 269 846 268 855 266 864 265 869 263 876 261 884 259 873 257 863 256 852 254 841 252 830 249 819 247 808 245 799 242 789 239 780 236 772 233 763 230 755 226 741 219 733 216 726 212 718 208 710 202 703 199 697 193" />
      <polygon style="fill:none; stroke:silver;" points=" 692 200 700 206 708 211 716 216 724 221 732 226 741 233 751 239 761 245 771 250 779 254 788 259 796 263 804 267 812 271 820 270 829 270 838 269 846 268 855 266 864 265 869 263 876 261 884 259 873 257 863 256 852 254 841 252 830 249 819 247 808 245 799 242 789 239 780 236 772 233 763 230 755 226 741 219 733 216 726 212 718 208 710 202 703 199 697 193" />
      <polygon style="fill:silver; stroke:none;" points=" 690 164 688 166 688 167 688 169 684 179 681 189 676 198 671 207 665 215 659 223 651 232 643 239 635 246 626 252 615 258 611 260 620 257 630 254 639 250 648 246 657 240 666 233 675 224 683 213 687 207 692 200 698 189 702 183 705 178 699 169" />
      <polygon style="fill:none; stroke:silver;" points=" 690 164 688 166 688 167 688 169 684 179 681 189 676 198 671 207 665 215 659 223 651 232 643 239 635 246 626 252 615 258 611 260 620 257 630 254 639 250 648 246 657 240 666 233 675 224 683 213 687 207 692 200 698 189 702 183 705 178 699 169" />
      <polygon style="fill:silver; stroke:none;" points=" 755 181 755 188 760 189 767 189 776 189 785 187 794 185 803 181 809 177 803 170 800 169 791 172 782 174 773 177 764 179" />
      <polygon style="fill:none; stroke:silver;" points=" 755 181 755 188 760 189 767 189 776 189 785 187 794 185 803 181 809 177 803 170 800 169 791 172 782 174 773 177 764 179" />
      <polygon style="fill:silver; stroke:none;" points=" 740 147 740 157 741 165 742 171 742 178 742 186 742 196 742 204 742 210 741 219 755 226 755 188 755 181 755 177 756 171 757 165 758 161 756 152 752 145" />
      <polygon style="fill:none; stroke:silver;" points=" 740 147 740 157 741 165 742 171 742 178 742 186 742 196 742 204 742 210 741 219 755 226 755 188 755 181 755 177 756 171 757 165 758 161 756 152 752 145" />
      <polygon style="fill:silver; stroke:none;" points=" 632 148 635 146 639 146 647 145 652 145 662 145 676 143 684 143 693 142 703 141 713 140 724 139 736 137 750 135 765 133 779 131 793 129 807 127 821 124 826 125 832 127 838 134 837 136 832 138 826 138 817 139 809 140 803 140 794 141 785 142 777 143 768 144 760 145 752 145 740 147 731 149 723 150 716 151 710 152 698 154 687 155 676 156 665 157 655 157 645 157 638 154" />
      <polygon style="fill:none; stroke:silver;" points=" 632 148 635 146 639 146 647 145 652 145 662 145 676 143 684 143 693 142 703 141 713 140 724 139 736 137 750 135 765 133 779 131 793 129 807 127 821 124 826 125 832 127 838 134 837 136 832 138 826 138 817 139 809 140 803 140 794 141 785 142 777 143 768 144 760 145 752 145 740 147 731 149 723 150 716 151 710 152 698 154 687 155 676 156 665 157 655 157 645 157 638 154" />
      <polygon style="fill:silver; stroke:none;" points=" 710 101 710 108 761 103 761 96 752 97 743 97 734 98 725 99 718 100" />
      <polygon style="fill:none; stroke:silver;" points=" 710 101 710 108 761 103 761 96 752 97 743 97 734 98 725 99 718 100" />
      <polygon style="fill:silver; stroke:none;" points=" 706 71 707 77 715 77 725 76 735 74 740 73 747 71 753 67 748 64 742 63 734 66 726 68 718 69 712 70" />
      <polygon style="fill:none; stroke:silver;" points=" 706 71 707 77 715 77 725 76 735 74 740 73 747 71 753 67 748 64 742 63 734 66 726 68 718 69 712 70" />
      <polygon style="fill:rgb(64,64,64); stroke:none;" points=" 698 36 702 45 711 44 721 42 731 41 740 40 750 38 756 38 763 38 772 38 772 37 777 23 771 21 763 25 755 28 747 30 739 33 731 34 723 35 715 36 707 36" />
      <polygon style="fill:none; stroke:rgb(64,64,64);" points=" 698 36 702 45 711 44 721 42 731 41 740 40 750 38 756 38 763 38 772 38 772 37 777 23 771 21 763 25 755 28 747 30 739 33 731 34 723 35 715 36 707 36" />
      <polygon style="fill:rgb(64,64,64); stroke:none;" points=" 777 23 772 37 771 46 771 54 770 63 768 72 767 80 764 87 761 96 761 103 764 113 768 108 773 100 777 89 782 76 786 64 790 53 794 45 798 39 791 32 781 25" />
      <polygon style="fill:none; stroke:rgb(64,64,64);" points=" 777 23 772 37 771 46 771 54 770 63 768 72 767 80 764 87 761 96 761 103 764 113 768 108 773 100 777 89 782 76 786 64 790 53 794 45 798 39 791 32 781 25" />
      <polygon style="fill:rgb(64,64,64); stroke:none;" points=" 681 36 689 36 698 36 702 45 706 71 707 77 710 101 710 108 709 111 706 116 703 111 700 102 697 91 695 77 692 66 690 56 687 48 684 41" />
      <polygon style="fill:none; stroke:rgb(64,64,64);" points=" 681 36 689 36 698 36 702 45 706 71 707 77 710 101 710 108 709 111 706 116 703 111 700 102 697 91 695 77 692 66 690 56 687 48 684 41" />
      <path d="M698 36 L777 23 L764 113" style="fill:none; stroke-width:4; stroke:red;" />
      <circle style="fill:lime; stroke:none;" r="7" cx="698" cy="36" />
      <rect x="902" y="2" width="300" style="fill:none;" height="300" />
      <line x1="902" x2="1202" y1="2" style="fill:none;" y2="302" />
      <line x1="1202" x2="902" y1="2" style="fill:none;" y2="302" />
      <line x1="1052" x2="1052" y1="2" style="fill:none;" y2="302" />
      <line x1="902" x2="1202" y1="152" style="fill:none;" y2="152" />
      <polygon style="fill:silver; stroke:none;" points=" 992 200 1000 206 1008 211 1016 216 1024 221 1032 226 1041 233 1051 239 1061 245 1071 250 1079 254 1088 259 1096 263 1104 267 1112 271 1120 270 1129 270 1138 269 1146 268 1155 266 1164 265 1169 263 1176 261 1184 259 1173 257 1163 256 1152 254 1141 252 1130 249 1119 247 1108 245 1099 242 1089 239 1080 236 1072 233 1063 230 1055 226 1041 219 1033 216 1026 212 1018 208 1010 202 1003 199 997 193" />
      <polygon style="fill:none; stroke:silver;" points=" 992 200 1000 206 1008 211 1016 216 1024 221 1032 226 1041 233 1051 239 1061 245 1071 250 1079 254 1088 259 1096 263 1104 267 1112 271 1120 270 1129 270 1138 269 1146 268 1155 266 1164 265 1169 263 1176 261 1184 259 1173 257 1163 256 1152 254 1141 252 1130 249 1119 247 1108 245 1099 242 1089 239 1080 236 1072 233 1063 230 1055 226 1041 219 1033 216 1026 212 1018 208 1010 202 1003 199 997 193" />
      <polygon style="fill:silver; stroke:none;" points=" 990 164 988 166 988 167 988 169 984 179 981 189 976 198 971 207 965 215 959 223 951 232 943 239 935 246 926 252 915 258 911 260 920 257 930 254 939 250 948 246 957 240 966 233 975 224 983 213 987 207 992 200 998 189 1002 183 1005 178 999 169" />
      <polygon style="fill:none; stroke:silver;" points=" 990 164 988 166 988 167 988 169 984 179 981 189 976 198 971 207 965 215 959 223 951 232 943 239 935 246 926 252 915 258 911 260 920 257 930 254 939 250 948 246 957 240 966 233 975 224 983 213 987 207 992 200 998 189 1002 183 1005 178 999 169" />
      <polygon style="fill:silver; stroke:none;" points=" 1055 181 1055 188 1060 189 1067 189 1076 189 1085 187 1094 185 1103 181 1109 177 1103 170 1100 169 1091 172 1082 174 1073 177 1064 179" />
      <polygon style="fill:none; stroke:silver;" points=" 1055 181 1055 188 1060 189 1067 189 1076 189 1085 187 1094 185 1103 181 1109 177 1103 170 1100 169 1091 172 1082 174 1073 177 1064 179" />
      <polygon style="fill:silver; stroke:none;" points=" 1040 147 1040 157 1041 165 1042 171 1042 178 1042 186 1042 196 1042 204 1042 210 1041 219 1055 226 1055 188 1055 181 1055 177 1056 171 1057 165 1058 161 1056 152 1052 145" />
      <polygon style="fill:none; stroke:silver;" points=" 1040 147 1040 157 1041 165 1042 171 1042 178 1042 186 1042 196 1042 204 1042 210 1041 219 1055 226 1055 188 1055 181 1055 177 1056 171 1057 165 1058 161 1056 152 1052 145" />
      <polygon style="fill:silver; stroke:none;" points=" 932 148 935 146 939 146 947 145 952 145 962 145 976 143 984 143 993 142 1003 141 1013 140 1024 139 1036 137 1050 135 1065 133 1079 131 1093 129 1107 127 1121 124 1126 125 1132 127 1138 134 1137 136 1132 138 1126 138 1117 139 1109 140 1103 140 1094 141 1085 142 1077 143 1068 144 1060 145 1052 145 1040 147 1031 149 1023 150 1016 151 1010 152 998 154 987 155 976 156 965 157 955 157 945 157 938 154" />
      <polygon style="fill:none; stroke:silver;" points=" 932 148 935 146 939 146 947 145 952 145 962 145 976 143 984 143 993 142 1003 141 1013 140 1024 139 1036 137 1050 135 1065 133 1079 131 1093 129 1107 127 1121 124 1126 125 1132 127 1138 134 1137 136 1132 138 1126 138 1117 139 1109 140 1103 140 1094 141 1085 142 1077 143 1068 144 1060 145 1052 145 1040 147 1031 149 1023 150 1016 151 1010 152 998 154 987 155 976 156 965 157 955 157 945 157 938 154" />
      <polygon style="fill:silver; stroke:none;" points=" 1010 101 1010 108 1061 103 1061 96 1052 97 1043 97 1034 98 1025 99 1018 100" />
      <polygon style="fill:none; stroke:silver;" points=" 1010 101 1010 108 1061 103 1061 96 1052 97 1043 97 1034 98 1025 99 1018 100" />
      <polygon style="fill:rgb(64,64,64); stroke:none;" points=" 1006 71 1007 77 1015 77 1025 76 1035 74 1040 73 1047 71 1053 67 1048 64 1042 63 1034 66 1026 68 1018 69 1012 70" />
      <polygon style="fill:none; stroke:rgb(64,64,64);" points=" 1006 71 1007 77 1015 77 1025 76 1035 74 1040 73 1047 71 1053 67 1048 64 1042 63 1034 66 1026 68 1018 69 1012 70" />
      <polygon style="fill:rgb(64,64,64); stroke:none;" points=" 998 36 1002 45 1011 44 1021 42 1031 41 1040 40 1050 38 1056 38 1063 38 1072 38 1072 37 1077 23 1071 21 1063 25 1055 28 1047 30 1039 33 1031 34 1023 35 1015 36 1007 36" />
      <polygon style="fill:none; stroke:rgb(64,64,64);" points=" 998 36 1002 45 1011 44 1021 42 1031 41 1040 40 1050 38 1056 38 1063 38 1072 38 1072 37 1077 23 1071 21 1063 25 1055 28 1047 30 1039 33 1031 34 1023 35 1015 36 1007 36" />
      <polygon style="fill:rgb(64,64,64); stroke:none;" points=" 1077 23 1072 37 1071 46 1071 54 1070 63 1068 72 1067 80 1064 87 1061 96 1061 103 1064 113 1068 108 1073 100 1077 89 1082 76 1086 64 1090 53 1094 45 1098 39 1091 32 1081 25" />
      <polygon style="fill:none; stroke:rgb(64,64,64);" points=" 1077 23 1072 37 1071 46 1071 54 1070 63 1068 72 1067 80 1064 87 1061 96 1061 103 1064 113 1068 108 1073 100 1077 89 1082 76 1086 64 1090 53 1094 45 1098 39 1091 32 1081 25" />
      <polygon style="fill:rgb(64,64,64); stroke:none;" points=" 981 36 989 36 998 36 1002 45 1006 71 1007 77 1010 101 1010 108 1009 111 1006 116 1003 111 1000 102 997 91 995 77 992 66 990 56 987 48 984 41" />
      <polygon style="fill:none; stroke:rgb(64,64,64);" points=" 981 36 989 36 998 36 1002 45 1006 71 1007 77 1010 101 1010 108 1009 111 1006 116 1003 111 1000 102 997 91 995 77 992 66 990 56 987 48 984 41" />
      <path d="M1006 71 L1053 67" style="fill:none; stroke-width:4; stroke:red;" />
      <circle style="fill:lime; stroke:none;" r="7" cx="1006" cy="71" />
      <rect x="1202" y="2" width="300" style="fill:none;" height="300" />
      <line x1="1202" x2="1502" y1="2" style="fill:none;" y2="302" />
      <line x1="1502" x2="1202" y1="2" style="fill:none;" y2="302" />
      <line x1="1352" x2="1352" y1="2" style="fill:none;" y2="302" />
      <line x1="1202" x2="1502" y1="152" style="fill:none;" y2="152" />
      <polygon style="fill:silver; stroke:none;" points=" 1292 200 1300 206 1308 211 1316 216 1324 221 1332 226 1341 233 1351 239 1361 245 1371 250 1379 254 1388 259 1396 263 1404 267 1412 271 1420 270 1429 270 1438 269 1446 268 1455 266 1464 265 1469 263 1476 261 1484 259 1473 257 1463 256 1452 254 1441 252 1430 249 1419 247 1408 245 1399 242 1389 239 1380 236 1372 233 1363 230 1355 226 1341 219 1333 216 1326 212 1318 208 1310 202 1303 199 1297 193" />
      <polygon style="fill:none; stroke:silver;" points=" 1292 200 1300 206 1308 211 1316 216 1324 221 1332 226 1341 233 1351 239 1361 245 1371 250 1379 254 1388 259 1396 263 1404 267 1412 271 1420 270 1429 270 1438 269 1446 268 1455 266 1464 265 1469 263 1476 261 1484 259 1473 257 1463 256 1452 254 1441 252 1430 249 1419 247 1408 245 1399 242 1389 239 1380 236 1372 233 1363 230 1355 226 1341 219 1333 216 1326 212 1318 208 1310 202 1303 199 1297 193" />
      <polygon style="fill:silver; stroke:none;" points=" 1290 164 1288 166 1288 167 1288 169 1284 179 1281 189 1276 198 1271 207 1265 215 1259 223 1251 232 1243 239 1235 246 1226 252 1215 258 1211 260 1220 257 1230 254 1239 250 1248 246 1257 240 1266 233 1275 224 1283 213 1287 207 1292 200 1298 189 1302 183 1305 178 1299 169" />
      <polygon style="fill:none; stroke:silver;" points=" 1290 164 1288 166 1288 167 1288 169 1284 179 1281 189 1276 198 1271 207 1265 215 1259 223 1251 232 1243 239 1235 246 1226 252 1215 258 1211 260 1220 257 1230 254 1239 250 1248 246 1257 240 1266 233 1275 224 1283 213 1287 207 1292 200 1298 189 1302 183 1305 178 1299 169" />
      <polygon style="fill:silver; stroke:none;" points=" 1355 181 1355 188 1360 189 1367 189 1376 189 1385 187 1394 185 1403 181 1409 177 1403 170 1400 169 1391 172 1382 174 1373 177 1364 179" />
      <polygon style="fill:none; stroke:silver;" points=" 1355 181 1355 188 1360 189 1367 189 1376 189 1385 187 1394 185 1403 181 1409 177 1403 170 1400 169 1391 172 1382 174 1373 177 1364 179" />
      <polygon style="fill:silver; stroke:none;" points=" 1340 147 1340 157 1341 165 1342 171 1342 178 1342 186 1342 196 1342 204 1342 210 1341 219 1355 226 1355 188 1355 181 1355 177 1356 171 1357 165 1358 161 1356 152 1352 145" />
      <polygon style="fill:none; stroke:silver;" points=" 1340 147 1340 157 1341 165 1342 171 1342 178 1342 186 1342 196 1342 204 1342 210 1341 219 1355 226 1355 188 1355 181 1355 177 1356 171 1357 165 1358 161 1356 152 1352 145" />
      <polygon style="fill:silver; stroke:none;" points=" 1232 148 1235 146 1239 146 1247 145 1252 145 1262 145 1276 143 1284 143 1293 142 1303 141 1313 140 1324 139 1336 137 1350 135 1365 133 1379 131 1393 129 1407 127 1421 124 1426 125 1432 127 1438 134 1437 136 1432 138 1426 138 1417 139 1409 140 1403 140 1394 141 1385 142 1377 143 1368 144 1360 145 1352 145 1340 147 1331 149 1323 150 1316 151 1310 152 1298 154 1287 155 1276 156 1265 157 1255 157 1245 157 1238 154" />
      <polygon style="fill:none; stroke:silver;" points=" 1232 148 1235 146 1239 146 1247 145 1252 145 1262 145 1276 143 1284 143 1293 142 1303 141 1313 140 1324 139 1336 137 1350 135 1365 133 1379 131 1393 129 1407 127 1421 124 1426 125 1432 127 1438 134 1437 136 1432 138 1426 138 1417 139 1409 140 1403 140 1394 141 1385 142 1377 143 1368 144 1360 145 1352 145 1340 147 1331 149 1323 150 1316 151 1310 152 1298 154 1287 155 1276 156 1265 157 1255 157 1245 157 1238 154" />
      <polygon style="fill:rgb(64,64,64); stroke:none;" points=" 1310 101 1310 108 1361 103 1361 96 1352 97 1343 97 1334 98 1325 99 1318 100" />
      <polygon style="fill:none; stroke:rgb(64,64,64);" points=" 1310 101 1310 108 1361 103 1361 96 1352 97 1343 97 1334 98 1325 99 1318 100" />
      <polygon style="fill:rgb(64,64,64); stroke:none;" points=" 1306 71 1307 77 1315 77 1325 76 1335 74 1340 73 1347 71 1353 67 1348 64 1342 63 1334 66 1326 68 1318 69 1312 70" />
      <polygon style="fill:none; stroke:rgb(64,64,64);" points=" 1306 71 1307 77 1315 77 1325 76 1335 74 1340 73 1347 71 1353 67 1348 64 1342 63 1334 66 1326 68 1318 69 1312 70" />
      <polygon style="fill:rgb(64,64,64); stroke:none;" points=" 1298 36 1302 45 1311 44 1321 42 1331 41 1340 40 1350 38 1356 38 1363 38 1372 38 1372 37 1377 23 1371 21 1363 25 1355 28 1347 30 1339 33 1331 34 1323 35 1315 36 1307 36" />
      <polygon style="fill:none; stroke:rgb(64,64,64);" points=" 1298 36 1302 45 1311 44 1321 42 1331 41 1340 40 1350 38 1356 38 1363 38 1372 38 1372 37 1377 23 1371 21 1363 25 1355 28 1347 30 1339 33 1331 34 1323 35 1315 36 1307 36" />
      <polygon style="fill:rgb(64,64,64); stroke:none;" points=" 1377 23 1372 37 1371 46 1371 54 1370 63 1368 72 1367 80 1364 87 1361 96 1361 103 1364 113 1368 108 1373 100 1377 89 1382 76 1386 64 1390 53 1394 45 1398 39 1391 32 1381 25" />
      <polygon style="fill:none; stroke:rgb(64,64,64);" points=" 1377 23 1372 37 1371 46 1371 54 1370 63 1368 72 1367 80 1364 87 1361 96 1361 103 1364 113 1368 108 1373 100 1377 89 1382 76 1386 64 1390 53 1394 45 1398 39 1391 32 1381 25" />
      <polygon style="fill:rgb(64,64,64); stroke:none;" points=" 1281 36 1289 36 1298 36 1302 45 1306 71 1307 77 1310 101 1310 108 1309 111 1306 116 1303 111 1300 102 1297 91 1295 77 1292 66 1290 56 1287 48 1284 41" />
      <polygon style="fill:none; stroke:rgb(64,64,64);" points=" 1281 36 1289 36 1298 36 1302 45 1306 71 1307 77 1310 101 1310 108 1309 111 1306 116 1303 111 1300 102 1297 91 1295 77 1292 66 1290 56 1287 48 1284 41" />
      <path d="M1310 101 L1361 103" style="fill:none; stroke-width:4; stroke:red;" />
      <circle style="fill:lime; stroke:none;" r="7" cx="1310" cy="101" />
      <rect x="2" y="302" width="300" style="fill:none;" height="300" />
      <line x1="2" x2="302" y1="302" style="fill:none;" y2="602" />
      <line x1="302" x2="2" y1="302" style="fill:none;" y2="602" />
      <line x1="152" x2="152" y1="302" style="fill:none;" y2="602" />
      <line x1="2" x2="302" y1="452" style="fill:none;" y2="452" />
      <polygon style="fill:silver; stroke:none;" points=" 92 500 100 506 108 511 116 516 124 521 132 526 141 533 151 539 161 545 171 550 179 554 188 559 196 563 204 567 212 571 220 570 229 570 238 569 246 568 255 566 264 565 269 563 276 561 284 559 273 557 263 556 252 554 241 552 230 549 219 547 208 545 199 542 189 539 180 536 172 533 163 530 155 526 141 519 133 516 126 512 118 508 110 502 103 499 97 493" />
      <polygon style="fill:none; stroke:silver;" points=" 92 500 100 506 108 511 116 516 124 521 132 526 141 533 151 539 161 545 171 550 179 554 188 559 196 563 204 567 212 571 220 570 229 570 238 569 246 568 255 566 264 565 269 563 276 561 284 559 273 557 263 556 252 554 241 552 230 549 219 547 208 545 199 542 189 539 180 536 172 533 163 530 155 526 141 519 133 516 126 512 118 508 110 502 103 499 97 493" />
      <polygon style="fill:silver; stroke:none;" points=" 90 464 88 466 88 467 88 469 84 479 81 489 76 498 71 507 65 515 59 523 51 532 43 539 35 546 26 552 15 558 11 560 20 557 30 554 39 550 48 546 57 540 66 533 75 524 83 513 87 507 92 500 98 489 102 483 105 478 99 469" />
      <polygon style="fill:none; stroke:silver;" points=" 90 464 88 466 88 467 88 469 84 479 81 489 76 498 71 507 65 515 59 523 51 532 43 539 35 546 26 552 15 558 11 560 20 557 30 554 39 550 48 546 57 540 66 533 75 524 83 513 87 507 92 500 98 489 102 483 105 478 99 469" />
      <polygon style="fill:silver; stroke:none;" points=" 155 481 155 488 160 489 167 489 176 489 185 487 194 485 203 481 209 477 203 470 200 469 191 472 182 474 173 477 164 479" />
      <polygon style="fill:none; stroke:silver;" points=" 155 481 155 488 160 489 167 489 176 489 185 487 194 485 203 481 209 477 203 470 200 469 191 472 182 474 173 477 164 479" />
      <polygon style="fill:silver; stroke:none;" points=" 140 447 140 457 141 465 142 471 142 478 142 486 142 496 142 504 142 510 141 519 155 526 155 488 155 481 155 477 156 471 157 465 158 461 156 452 152 445" />
      <polygon style="fill:none; stroke:silver;" points=" 140 447 140 457 141 465 142 471 142 478 142 486 142 496 142 504 142 510 141 519 155 526 155 488 155 481 155 477 156 471 157 465 158 461 156 452 152 445" />
      <polygon style="fill:rgb(64,64,64); stroke:none;" points=" 32 448 35 446 39 446 47 445 52 445 62 445 76 443 84 443 93 442 103 441 113 440 124 439 136 437 150 435 165 433 179 431 193 429 207 427 221 424 226 425 232 427 238 434 237 436 232 438 226 438 217 439 209 440 203 440 194 441 185 442 177 443 168 444 160 445 152 445 140 447 131 449 123 450 116 451 110 452 98 454 87 455 76 456 65 457 55 457 45 457 38 454" />
      <polygon style="fill:none; stroke:rgb(64,64,64);" points=" 32 448 35 446 39 446 47 445 52 445 62 445 76 443 84 443 93 442 103 441 113 440 124 439 136 437 150 435 165 433 179 431 193 429 207 427 221 424 226 425 232 427 238 434 237 436 232 438 226 438 217 439 209 440 203 440 194 441 185 442 177 443 168 444 160 445 152 445 140 447 131 449 123 450 116 451 110 452 98 454 87 455 76 456 65 457 55 457 45 457 38 454" />
      <polygon style="fill:rgb(64,64,64); stroke:none;" points=" 110 401 110 408 161 403 161 396 152 397 143 397 134 398 125 399 118 400" />
      <polygon style="fill:none; stroke:rgb(64,64,64);" points=" 110 401 110 408 161 403 161 396 152 397 143 397 134 398 125 399 118 400" />
      <polygon style="fill:rgb(64,64,64); stroke:none;" points=" 106 371 107 377 115 377 125 376 135 374 140 373 147 371 153 367 148 364 142 363 134 366 126 368 118 369 112 370" />
      <polygon style="fill:none; stroke:rgb(64,64,64);" points=" 106 371 107 377 115 377 125 376 135 374 140 373 147 371 153 367 148 364 142 363 134 366 126 368 118 369 112 370" />
      <polygon style="fill:rgb(64,64,64); stroke:none;" points=" 98 336 102 345 111 344 121 342 131 341 140 340 150 338 156 338 163 338 172 338 172 337 177 323 171 321 163 325 155 328 147 330 139 333 131 334 123 335 115 336 107 336" />
      <polygon style="fill:none; stroke:rgb(64,64,64);" points=" 98 336 102 345 111 344 121 342 131 341 140 340 150 338 156 338 163 338 172 338 172 337 177 323 171 321 163 325 155 328 147 330 139 333 131 334 123 335 115 336 107 336" />
      <polygon style="fill:rgb(64,64,64); stroke:none;" points=" 177 323 172 337 171 346 171 354 170 363 168 372 167 380 164 387 161 396 161 403 164 413 168 408 173 400 177 389 182 376 186 364 190 353 194 345 198 339 191 332 181 325" />
      <polygon style="fill:none; stroke:rgb(64,64,64);" points=" 177 323 172 337 171 346 171 354 170 363 168 372 167 380 164 387 161 396 161 403 164 413 168 408 173 400 177 389 182 376 186 364 190 353 194 345 198 339 191 332 181 325" />
      <polygon style="fill:rgb(64,64,64); stroke:none;" points=" 81 336 89 336 98 336 102 345 106 371 107 377 110 401 110 408 109 411 106 416 103 411 100 402 97 391 95 377 92 366 90 356 87 348 84 341" />
      <polygon style="fill:none; stroke:rgb(64,64,64);" points=" 81 336 89 336 98 336 102 345 106 371 107 377 110 401 110 408 109 411 106 416 103 411 100 402 97 391 95 377 92 366 90 356 87 348 84 341" />
      <path d="M32 448 L238 434" style="fill:none; stroke-width:4; stroke:red;" />
      <circle style="fill:lime; stroke:none;" r="7" cx="32" cy="448" />
      <rect x="302" y="302" width="300" style="fill:none;" height="300" />
      <line x1="302" x2="602" y1="302" style="fill:none;" y2="602" />
      <line x1="602" x2="302" y1="302" style="fill:none;" y2="602" />
      <line x1="452" x2="452" y1="302" style="fill:none;" y2="602" />
      <line x1="302" x2="602" y1="452" style="fill:none;" y2="452" />
      <polygon style="fill:silver; stroke:none;" points=" 392 500 400 506 408 511 416 516 424 521 432 526 441 533 451 539 461 545 471 550 479 554 488 559 496 563 504 567 512 571 520 570 529 570 538 569 546 568 555 566 564 565 569 563 576 561 584 559 573 557 563 556 552 554 541 552 530 549 519 547 508 545 499 542 489 539 480 536 472 533 463 530 455 526 441 519 433 516 426 512 418 508 410 502 403 499 397 493" />
      <polygon style="fill:none; stroke:silver;" points=" 392 500 400 506 408 511 416 516 424 521 432 526 441 533 451 539 461 545 471 550 479 554 488 559 496 563 504 567 512 571 520 570 529 570 538 569 546 568 555 566 564 565 569 563 576 561 584 559 573 557 563 556 552 554 541 552 530 549 519 547 508 545 499 542 489 539 480 536 472 533 463 530 455 526 441 519 433 516 426 512 418 508 410 502 403 499 397 493" />
      <polygon style="fill:silver; stroke:none;" points=" 390 464 388 466 388 467 388 469 384 479 381 489 376 498 371 507 365 515 359 523 351 532 343 539 335 546 326 552 315 558 311 560 320 557 330 554 339 550 348 546 357 540 366 533 375 524 383 513 387 507 392 500 398 489 402 483 405 478 399 469" />
      <polygon style="fill:none; stroke:silver;" points=" 390 464 388 466 388 467 388 469 384 479 381 489 376 498 371 507 365 515 359 523 351 532 343 539 335 546 326 552 315 558 311 560 320 557 330 554 339 550 348 546 357 540 366 533 375 524 383 513 387 507 392 500 398 489 402 483 405 478 399 469" />
      <polygon style="fill:silver; stroke:none;" points=" 455 481 455 488 460 489 467 489 476 489 485 487 494 485 503 481 509 477 503 470 500 469 491 472 482 474 473 477 464 479" />
      <polygon style="fill:none; stroke:silver;" points=" 455 481 455 488 460 489 467 489 476 489 485 487 494 485 503 481 509 477 503 470 500 469 491 472 482 474 473 477 464 479" />
      <polygon style="fill:rgb(64,64,64); stroke:none;" points=" 440 447 440 457 441 465 442 471 442 478 442 486 442 496 442 504 442 510 441 519 455 526 455 488 455 481 455 477 456 471 457 465 458 461 456 452 452 445" />
      <polygon style="fill:none; stroke:rgb(64,64,64);" points=" 440 447 440 457 441 465 442 471 442 478 442 486 442 496 442 504 442 510 441 519 455 526 455 488 455 481 455 477 456 471 457 465 458 461 456 452 452 445" />
      <polygon style="fill:rgb(64,64,64); stroke:none;" points=" 332 448 335 446 339 446 347 445 352 445 362 445 376 443 384 443 393 442 403 441 413 440 424 439 436 437 450 435 465 433 479 431 493 429 507 427 521 424 526 425 532 427 538 434 537 436 532 438 526 438 517 439 509 440 503 440 494 441 485 442 477 443 468 444 460 445 452 445 440 447 431 449 423 450 416 451 410 452 398 454 387 455 376 456 365 457 355 457 345 457 338 454" />
      <polygon style="fill:none; stroke:rgb(64,64,64);" points=" 332 448 335 446 339 446 347 445 352 445 362 445 376 443 384 443 393 442 403 441 413 440 424 439 436 437 450 435 465 433 479 431 493 429 507 427 521 424 526 425 532 427 538 434 537 436 532 438 526 438 517 439 509 440 503 440 494 441 485 442 477 443 468 444 460 445 452 445 440 447 431 449 423 450 416 451 410 452 398 454 387 455 376 456 365 457 355 457 345 457 338 454" />
      <polygon style="fill:rgb(64,64,64); stroke:none;" points=" 410 401 410 408 461 403 461 396 452 397 443 397 434 398 425 399 418 400" />
      <polygon style="fill:none; stroke:rgb(64,64,64);" points=" 410 401 410 408 461 403 461 396 452 397 443 397 434 398 425 399 418 400" />
      <polygon style="fill:rgb(64,64,64); stroke:none;" points=" 406 371 407 377 415 377 425 376 435 374 440 373 447 371 453 367 448 364 442 363 434 366 426 368 418 369 412 370" />
      <polygon style="fill:none; stroke:rgb(64,64,64);" points=" 406 371 407 377 415 377 425 376 435 374 440 373 447 371 453 367 448 364 442 363 434 366 426 368 418 369 412 370" />
      <polygon style="fill:rgb(64,64,64); stroke:none;" points=" 398 336 402 345 411 344 421 342 431 341 440 340 450 338 456 338 463 338 472 338 472 337 477 323 471 321 463 325 455 328 447 330 439 333 431 334 423 335 415 336 407 336" />
      <polygon style="fill:none; stroke:rgb(64,64,64);" points=" 398 336 402 345 411 344 421 342 431 341 440 340 450 338 456 338 463 338 472 338 472 337 477 323 471 321 463 325 455 328 447 330 439 333 431 334 423 335 415 336 407 336" />
      <polygon style="fill:rgb(64,64,64); stroke:none;" points=" 477 323 472 337 471 346 471 354 470 363 468 372 467 380 464 387 461 396 461 403 464 413 468 408 473 400 477 389 482 376 486 364 490 353 494 345 498 339 491 332 481 325" />
      <polygon style="fill:none; stroke:rgb(64,64,64);" points=" 477 323 472 337 471 346 471 354 470 363 468 372 467 380 464 387 461 396 461 403 464 413 468 408 473 400 477 389 482 376 486 364 490 353 494 345 498 339 491 332 481 325" />
      <polygon style="fill:rgb(64,64,64); stroke:none;" points=" 381 336 389 336 398 336 402 345 406 371 407 377 410 401 410 408 409 411 406 416 403 411 400 402 397 391 395 377 392 366 390 356 387 348 384 341" />
      <polygon style="fill:none; stroke:rgb(64,64,64);" points=" 381 336 389 336 398 336 402 345 406 371 407 377 410 401 410 408 409 411 406 416 403 411 400 402 397 391 395 377 392 366 390 356 387 348 384 341" />
      <path d="M452 445 L455 526" style="fill:none; stroke-width:4; stroke:red;" />
      <circle style="fill:lime; stroke:none;" r="7" cx="452" cy="445" />
      <rect x="602" y="302" width="300" style="fill:none;" height="300" />
      <line x1="602" x2="902" y1="302" style="fill:none;" y2="602" />
      <line x1="902" x2="602" y1="302" style="fill:none;" y2="602" />
      <line x1="752" x2="752" y1="302" style="fill:none;" y2="602" />
      <line x1="602" x2="902" y1="452" style="fill:none;" y2="452" />
      <polygon style="fill:silver; stroke:none;" points=" 692 500 700 506 708 511 716 516 724 521 732 526 741 533 751 539 761 545 771 550 779 554 788 559 796 563 804 567 812 571 820 570 829 570 838 569 846 568 855 566 864 565 869 563 876 561 884 559 873 557 863 556 852 554 841 552 830 549 819 547 808 545 799 542 789 539 780 536 772 533 763 530 755 526 741 519 733 516 726 512 718 508 710 502 703 499 697 493" />
      <polygon style="fill:none; stroke:silver;" points=" 692 500 700 506 708 511 716 516 724 521 732 526 741 533 751 539 761 545 771 550 779 554 788 559 796 563 804 567 812 571 820 570 829 570 838 569 846 568 855 566 864 565 869 563 876 561 884 559 873 557 863 556 852 554 841 552 830 549 819 547 808 545 799 542 789 539 780 536 772 533 763 530 755 526 741 519 733 516 726 512 718 508 710 502 703 499 697 493" />
      <polygon style="fill:silver; stroke:none;" points=" 690 464 688 466 688 467 688 469 684 479 681 489 676 498 671 507 665 515 659 523 651 532 643 539 635 546 626 552 615 558 611 560 620 557 630 554 639 550 648 546 657 540 666 533 675 524 683 513 687 507 692 500 698 489 702 483 705 478 699 469" />
      <polygon style="fill:none; stroke:silver;" points=" 690 464 688 466 688 467 688 469 684 479 681 489 676 498 671 507 665 515 659 523 651 532 643 539 635 546 626 552 615 558 611 560 620 557 630 554 639 550 648 546 657 540 666 533 675 524 683 513 687 507 692 500 698 489 702 483 705 478 699 469" />
      <polygon style="fill:rgb(64,64,64); stroke:none;" points=" 755 481 755 488 760 489 767 489 776 489 785 487 794 485 803 481 809 477 803 470 800 469 791 472 782 474 773 477 764 479" />
      <polygon style="fill:none; stroke:rgb(64,64,64);" points=" 755 481 755 488 760 489 767 489 776 489 785 487 794 485 803 481 809 477 803 470 800 469 791 472 782 474 773 477 764 479" />
      <polygon style="fill:rgb(64,64,64); stroke:none;" points=" 740 447 740 457 741 465 742 471 742 478 742 486 742 496 742 504 742 510 741 519 755 526 755 488 755 481 755 477 756 471 757 465 758 461 756 452 752 445" />
      <polygon style="fill:none; stroke:rgb(64,64,64);" points=" 740 447 740 457 741 465 742 471 742 478 742 486 742 496 742 504 742 510 741 519 755 526 755 488 755 481 755 477 756 471 757 465 758 461 756 452 752 445" />
      <polygon style="fill:rgb(64,64,64); stroke:none;" points=" 632 448 635 446 639 446 647 445 652 445 662 445 676 443 684 443 693 442 703 441 713 440 724 439 736 437 750 435 765 433 779 431 793 429 807 427 821 424 826 425 832 427 838 434 837 436 832 438 826 438 817 439 809 440 803 440 794 441 785 442 777 443 768 444 760 445 752 445 740 447 731 449 723 450 716 451 710 452 698 454 687 455 676 456 665 457 655 457 645 457 638 454" />
      <polygon style="fill:none; stroke:rgb(64,64,64);" points=" 632 448 635 446 639 446 647 445 652 445 662 445 676 443 684 443 693 442 703 441 713 440 724 439 736 437 750 435 765 433 779 431 793 429 807 427 821 424 826 425 832 427 838 434 837 436 832 438 826 438 817 439 809 440 803 440 794 441 785 442 777 443 768 444 760 445 752 445 740 447 731 449 723 450 716 451 710 452 698 454 687 455 676 456 665 457 655 457 645 457 638 454" />
      <polygon style="fill:rgb(64,64,64); stroke:none;" points=" 710 401 710 408 761 403 761 396 752 397 743 397 734 398 725 399 718 400" />
      <polygon style="fill:none; stroke:rgb(64,64,64);" points=" 710 401 710 408 761 403 761 396 752 397 743 397 734 398 725 399 718 400" />
      <polygon style="fill:rgb(64,64,64); stroke:none;" points=" 706 371 707 377 715 377 725 376 735 374 740 373 747 371 753 367 748 364 742 363 734 366 726 368 718 369 712 370" />
      <polygon style="fill:none; stroke:rgb(64,64,64);" points=" 706 371 707 377 715 377 725 376 735 374 740 373 747 371 753 367 748 364 742 363 734 366 726 368 718 369 712 370" />
      <polygon style="fill:rgb(64,64,64); stroke:none;" points=" 698 336 702 345 711 344 721 342 731 341 740 340 750 338 756 338 763 338 772 338 772 337 777 323 771 321 763 325 755 328 747 330 739 333 731 334 723 335 715 336 707 336" />
      <polygon style="fill:none; stroke:rgb(64,64,64);" points=" 698 336 702 345 711 344 721 342 731 341 740 340 750 338 756 338 763 338 772 338 772 337 777 323 771 321 763 325 755 328 747 330 739 333 731 334 723 335 715 336 707 336" />
      <polygon style="fill:rgb(64,64,64); stroke:none;" points=" 777 323 772 337 771 346 771 354 770 363 768 372 767 380 764 387 761 396 761 403 764 413 768 408 773 400 777 389 782 376 786 364 790 353 794 345 798 339 791 332 781 325" />
      <polygon style="fill:none; stroke:rgb(64,64,64);" points=" 777 323 772 337 771 346 771 354 770 363 768 372 767 380 764 387 761 396 761 403 764 413 768 408 773 400 777 389 782 376 786 364 790 353 794 345 798 339 791 332 781 325" />
      <polygon style="fill:rgb(64,64,64); stroke:none;" points=" 681 336 689 336 698 336 702 345 706 371 707 377 710 401 710 408 709 411 706 416 703 411 700 402 697 391 695 377 692 366 690 356 687 348 684 341" />
      <polygon style="fill:none; stroke:rgb(64,64,64);" points=" 681 336 689 336 698 336 702 345 706 371 707 377 710 401 710 408 709 411 706 416 703 411 700 402 697 391 695 377 692 366 690 356 687 348 684 341" />
      <path d="M755 481 L809 477" style="fill:none; stroke-width:4; stroke:red;" />
      <circle style="fill:lime; stroke:none;" r="7" cx="755" cy="481" />
      <rect x="902" y="302" width="300" style="fill:none;" height="300" />
      <line x1="902" x2="1202" y1="302" style="fill:none;" y2="602" />
      <line x1="1202" x2="902" y1="302" style="fill:none;" y2="602" />
      <line x1="1052" x2="1052" y1="302" style="fill:none;" y2="602" />
      <line x1="902" x2="1202" y1="452" style="fill:none;" y2="452" />
      <polygon style="fill:silver; stroke:none;" points=" 992 500 1000 506 1008 511 1016 516 1024 521 1032 526 1041 533 1051 539 1061 545 1071 550 1079 554 1088 559 1096 563 1104 567 1112 571 1120 570 1129 570 1138 569 1146 568 1155 566 1164 565 1169 563 1176 561 1184 559 1173 557 1163 556 1152 554 1141 552 1130 549 1119 547 1108 545 1099 542 1089 539 1080 536 1072 533 1063 530 1055 526 1041 519 1033 516 1026 512 1018 508 1010 502 1003 499 997 493" />
      <polygon style="fill:none; stroke:silver;" points=" 992 500 1000 506 1008 511 1016 516 1024 521 1032 526 1041 533 1051 539 1061 545 1071 550 1079 554 1088 559 1096 563 1104 567 1112 571 1120 570 1129 570 1138 569 1146 568 1155 566 1164 565 1169 563 1176 561 1184 559 1173 557 1163 556 1152 554 1141 552 1130 549 1119 547 1108 545 1099 542 1089 539 1080 536 1072 533 1063 530 1055 526 1041 519 1033 516 1026 512 1018 508 1010 502 1003 499 997 493" />
      <polygon style="fill:rgb(64,64,64); stroke:none;" points=" 990 464 988 466 988 467 988 469 984 479 981 489 976 498 971 507 965 515 959 523 951 532 943 539 935 546 926 552 915 558 911 560 920 557 930 554 939 550 948 546 957 540 966 533 975 524 983 513 987 507 992 500 998 489 1002 483 1005 478 999 469" />
      <polygon style="fill:none; stroke:rgb(64,64,64);" points=" 990 464 988 466 988 467 988 469 984 479 981 489 976 498 971 507 965 515 959 523 951 532 943 539 935 546 926 552 915 558 911 560 920 557 930 554 939 550 948 546 957 540 966 533 975 524 983 513 987 507 992 500 998 489 1002 483 1005 478 999 469" />
      <polygon style="fill:rgb(64,64,64); stroke:none;" points=" 1055 481 1055 488 1060 489 1067 489 1076 489 1085 487 1094 485 1103 481 1109 477 1103 470 1100 469 1091 472 1082 474 1073 477 1064 479" />
      <polygon style="fill:none; stroke:rgb(64,64,64);" points=" 1055 481 1055 488 1060 489 1067 489 1076 489 1085 487 1094 485 1103 481 1109 477 1103 470 1100 469 1091 472 1082 474 1073 477 1064 479" />
      <polygon style="fill:rgb(64,64,64); stroke:none;" points=" 1040 447 1040 457 1041 465 1042 471 1042 478 1042 486 1042 496 1042 504 1042 510 1041 519 1055 526 1055 488 1055 481 1055 477 1056 471 1057 465 1058 461 1056 452 1052 445" />
      <polygon style="fill:none; stroke:rgb(64,64,64);" points=" 1040 447 1040 457 1041 465 1042 471 1042 478 1042 486 1042 496 1042 504 1042 510 1041 519 1055 526 1055 488 1055 481 1055 477 1056 471 1057 465 1058 461 1056 452 1052 445" />
      <polygon style="fill:rgb(64,64,64); stroke:none;" points=" 932 448 935 446 939 446 947 445 952 445 962 445 976 443 984 443 993 442 1003 441 1013 440 1024 439 1036 437 1050 435 1065 433 1079 431 1093 429 1107 427 1121 424 1126 425 1132 427 1138 434 1137 436 1132 438 1126 438 1117 439 1109 440 1103 440 1094 441 1085 442 1077 443 1068 444 1060 445 1052 445 1040 447 1031 449 1023 450 1016 451 1010 452 998 454 987 455 976 456 965 457 955 457 945 457 938 454" />
      <polygon style="fill:none; stroke:rgb(64,64,64);" points=" 932 448 935 446 939 446 947 445 952 445 962 445 976 443 984 443 993 442 1003 441 1013 440 1024 439 1036 437 1050 435 1065 433 1079 431 1093 429 1107 427 1121 424 1126 425 1132 427 1138 434 1137 436 1132 438 1126 438 1117 439 1109 440 1103 440 1094 441 1085 442 1077 443 1068 444 1060 445 1052 445 1040 447 1031 449 1023 450 1016 451 1010 452 998 454 987 455 976 456 965 457 955 457 945 457 938 454" />
      <polygon style="fill:rgb(64,64,64); stroke:none;" points=" 1010 401 1010 408 1061 403 1061 396 1052 397 1043 397 1034 398 1025 399 1018 400" />
      <polygon style="fill:none; stroke:rgb(64,64,64);" points=" 1010 401 1010 408 1061 403 1061 396 1052 397 1043 397 1034 398 1025 399 1018 400" />
      <polygon style="fill:rgb(64,64,64); stroke:none;" points=" 1006 371 1007 377 1015 377 1025 376 1035 374 1040 373 1047 371 1053 367 1048 364 1042 363 1034 366 1026 368 1018 369 1012 370" />
      <polygon style="fill:none; stroke:rgb(64,64,64);" points=" 1006 371 1007 377 1015 377 1025 376 1035 374 1040 373 1047 371 1053 367 1048 364 1042 363 1034 366 1026 368 1018 369 1012 370" />
      <polygon style="fill:rgb(64,64,64); stroke:none;" points=" 998 336 1002 345 1011 344 1021 342 1031 341 1040 340 1050 338 1056 338 1063 338 1072 338 1072 337 1077 323 1071 321 1063 325 1055 328 1047 330 1039 333 1031 334 1023 335 1015 336 1007 336" />
      <polygon style="fill:none; stroke:rgb(64,64,64);" points=" 998 336 1002 345 1011 344 1021 342 1031 341 1040 340 1050 338 1056 338 1063 338 1072 338 1072 337 1077 323 1071 321 1063 325 1055 328 1047 330 1039 333 1031 334 1023 335 1015 336 1007 336" />
      <polygon style="fill:rgb(64,64,64); stroke:none;" points=" 1077 323 1072 337 1071 346 1071 354 1070 363 1068 372 1067 380 1064 387 1061 396 1061 403 1064 413 1068 408 1073 400 1077 389 1082 376 1086 364 1090 353 1094 345 1098 339 1091 332 1081 325" />
      <polygon style="fill:none; stroke:rgb(64,64,64);" points=" 1077 323 1072 337 1071 346 1071 354 1070 363 1068 372 1067 380 1064 387 1061 396 1061 403 1064 413 1068 408 1073 400 1077 389 1082 376 1086 364 1090 353 1094 345 1098 339 1091 332 1081 325" />
      <polygon style="fill:rgb(64,64,64); stroke:none;" points=" 981 336 989 336 998 336 1002 345 1006 371 1007 377 1010 401 1010 408 1009 411 1006 416 1003 411 1000 402 997 391 995 377 992 366 990 356 987 348 984 341" />
      <polygon style="fill:none; stroke:rgb(64,64,64);" points=" 981 336 989 336 998 336 1002 345 1006 371 1007 377 1010 401 1010 408 1009 411 1006 416 1003 411 1000 402 997 391 995 377 992 366 990 356 987 348 984 341" />
      <path d="M999 469 L911 560" style="fill:none; stroke-width:4; stroke:red;" />
      <circle style="fill:lime; stroke:none;" r="7" cx="999" cy="469" />
      <rect x="1202" y="302" width="300" style="fill:none;" height="300" />
      <line x1="1202" x2="1502" y1="302" style="fill:none;" y2="602" />
      <line x1="1502" x2="1202" y1="302" style="fill:none;" y2="602" />
      <line x1="1352" x2="1352" y1="302" style="fill:none;" y2="602" />
      <line x1="1202" x2="1502" y1="452" style="fill:none;" y2="452" />
      <polygon style="fill:rgb(64,64,64); stroke:none;" points=" 1292 500 1300 506 1308 511 1316 516 1324 521 1332 526 1341 533 1351 539 1361 545 1371 550 1379 554 1388 559 1396 563 1404 567 1412 571 1420 570 1429 570 1438 569 1446 568 1455 566 1464 565 1469 563 1476 561 1484 559 1473 557 1463 556 1452 554 1441 552 1430 549 1419 547 1408 545 1399 542 1389 539 1380 536 1372 533 1363 530 1355 526 1341 519 1333 516 1326 512 1318 508 1310 502 1303 499 1297 493" />
      <polygon style="fill:none; stroke:rgb(64,64,64);" points=" 1292 500 1300 506 1308 511 1316 516 1324 521 1332 526 1341 533 1351 539 1361 545 1371 550 1379 554 1388 559 1396 563 1404 567 1412 571 1420 570 1429 570 1438 569 1446 568 1455 566 1464 565 1469 563 1476 561 1484 559 1473 557 1463 556 1452 554 1441 552 1430 549 1419 547 1408 545 1399 542 1389 539 1380 536 1372 533 1363 530 1355 526 1341 519 1333 516 1326 512 1318 508 1310 502 1303 499 1297 493" />
      <polygon style="fill:rgb(64,64,64); stroke:none;" points=" 1290 464 1288 466 1288 467 1288 469 1284 479 1281 489 1276 498 1271 507 1265 515 1259 523 1251 532 1243 539 1235 546 1226 552 1215 558 1211 560 1220 557 1230 554 1239 550 1248 546 1257 540 1266 533 1275 524 1283 513 1287 507 1292 500 1298 489 1302 483 1305 478 1299 469" />
      <polygon style="fill:none; stroke:rgb(64,64,64);" points=" 1290 464 1288 466 1288 467 1288 469 1284 479 1281 489 1276 498 1271 507 1265 515 1259 523 1251 532 1243 539 1235 546 1226 552 1215 558 1211 560 1220 557 1230 554 1239 550 1248 546 1257 540 1266 533 1275 524 1283 513 1287 507 1292 500 1298 489 1302 483 1305 478 1299 469" />
      <polygon style="fill:rgb(64,64,64); stroke:none;" points=" 1355 481 1355 488 1360 489 1367 489 1376 489 1385 487 1394 485 1403 481 1409 477 1403 470 1400 469 1391 472 1382 474 1373 477 1364 479" />
      <polygon style="fill:none; stroke:rgb(64,64,64);" points=" 1355 481 1355 488 1360 489 1367 489 1376 489 1385 487 1394 485 1403 481 1409 477 1403 470 1400 469 1391 472 1382 474 1373 477 1364 479" />
      <polygon style="fill:rgb(64,64,64); stroke:none;" points=" 1340 447 1340 457 1341 465 1342 471 1342 478 1342 486 1342 496 1342 504 1342 510 1341 519 1355 526 1355 488 1355 481 1355 477 1356 471 1357 465 1358 461 1356 452 1352 445" />
      <polygon style="fill:none; stroke:rgb(64,64,64);" points=" 1340 447 1340 457 1341 465 1342 471 1342 478 1342 486 1342 496 1342 504 1342 510 1341 519 1355 526 1355 488 1355 481 1355 477 1356 471 1357 465 1358 461 1356 452 1352 445" />
      <polygon style="fill:rgb(64,64,64); stroke:none;" points=" 1232 448 1235 446 1239 446 1247 445 1252 445 1262 445 1276 443 1284 443 1293 442 1303 441 1313 440 1324 439 1336 437 1350 435 1365 433 1379 431 1393 429 1407 427 1421 424 1426 425 1432 427 1438 434 1437 436 1432 438 1426 438 1417 439 1409 440 1403 440 1394 441 1385 442 1377 443 1368 444 1360 445 1352 445 1340 447 1331 449 1323 450 1316 451 1310 452 1298 454 1287 455 1276 456 1265 457 1255 457 1245 457 1238 454" />
      <polygon style="fill:none; stroke:rgb(64,64,64);" points=" 1232 448 1235 446 1239 446 1247 445 1252 445 1262 445 1276 443 1284 443 1293 442 1303 441 1313 440 1324 439 1336 437 1350 435 1365 433 1379 431 1393 429 1407 427 1421 424 1426 425 1432 427 1438 434 1437 436 1432 438 1426 438 1417 439 1409 440 1403 440 1394 441 1385 442 1377 443 1368 444 1360 445 1352 445 1340 447 1331 449 1323 450 1316 451 1310 452 1298 454 1287 455 1276 456 1265 457 1255 457 1245 457 1238 454" />
      <polygon style="fill:rgb(64,64,64); stroke:none;" points=" 1310 401 1310 408 1361 403 1361 396 1352 397 1343 397 1334 398 1325 399 1318 400" />
      <polygon style="fill:none; stroke:rgb(64,64,64);" points=" 1310 401 1310 408 1361 403 1361 396 1352 397 1343 397 1334 398 1325 399 1318 400" />
      <polygon style="fill:rgb(64,64,64); stroke:none;" points=" 1306 371 1307 377 1315 377 1325 376 1335 374 1340 373 1347 371 1353 367 1348 364 1342 363 1334 366 1326 368 1318 369 1312 370" />
      <polygon style="fill:none; stroke:rgb(64,64,64);" points=" 1306 371 1307 377 1315 377 1325 376 1335 374 1340 373 1347 371 1353 367 1348 364 1342 363 1334 366 1326 368 1318 369 1312 370" />
      <polygon style="fill:rgb(64,64,64); stroke:none;" points=" 1298 336 1302 345 1311 344 1321 342 1331 341 1340 340 1350 338 1356 338 1363 338 1372 338 1372 337 1377 323 1371 321 1363 325 1355 328 1347 330 1339 333 1331 334 1323 335 1315 336 1307 336" />
      <polygon style="fill:none; stroke:rgb(64,64,64);" points=" 1298 336 1302 345 1311 344 1321 342 1331 341 1340 340 1350 338 1356 338 1363 338 1372 338 1372 337 1377 323 1371 321 1363 325 1355 328 1347 330 1339 333 1331 334 1323 335 1315 336 1307 336" />
      <polygon style="fill:rgb(64,64,64); stroke:none;" points=" 1377 323 1372 337 1371 346 1371 354 1370 363 1368 372 1367 380 1364 387 1361 396 1361 403 1364 413 1368 408 1373 400 1377 389 1382 376 1386 364 1390 353 1394 345 1398 339 1391 332 1381 325" />
      <polygon style="fill:none; stroke:rgb(64,64,64);" points=" 1377 323 1372 337 1371 346 1371 354 1370 363 1368 372 1367 380 1364 387 1361 396 1361 403 1364 413 1368 408 1373 400 1377 389 1382 376 1386 364 1390 353 1394 345 1398 339 1391 332 1381 325" />
      <polygon style="fill:rgb(64,64,64); stroke:none;" points=" 1281 336 1289 336 1298 336 1302 345 1306 371 1307 377 1310 401 1310 408 1309 411 1306 416 1303 411 1300 402 1297 391 1295 377 1292 366 1290 356 1287 348 1284 341" />
      <polygon style="fill:none; stroke:rgb(64,64,64);" points=" 1281 336 1289 336 1298 336 1302 345 1306 371 1307 377 1310 401 1310 408 1309 411 1306 416 1303 411 1300 402 1297 391 1295 377 1292 366 1290 356 1287 348 1284 341" />
      <path d="M1297 493 L1484 559" style="fill:none; stroke-width:4; stroke:red;" />
      <circle style="fill:lime; stroke:none;" r="7" cx="1297" cy="493" />
    </g>
  </g>
</svg>
