<?xml version="1.0" encoding="UTF-8"?>

<!DOCTYPE svg PUBLIC '-//W3C//DTD SVG 1.0//EN' 'http://www.w3.org/TR/2001/REC-SVG-20010904/DTD/svg10.dtd'>
<svg style="fill-opacity:1; color-rendering:auto; color-interpolation:auto; stroke:black; text-rendering:auto; stroke-linecap:square; stroke-miterlimit:10; stroke-opacity:1; shape-rendering:auto; fill:black; stroke-dasharray:none; font-weight:normal; stroke-width:1; font-family:&apos;Dialog&apos;; font-style:normal; stroke-linejoin:miter; font-size:12; stroke-dashoffset:0; image-rendering:auto;" xmlns="http://www.w3.org/2000/svg" width="1504" xmlns:xlink="http://www.w3.org/1999/xlink" height="304">
  <!--Generated by the Batik Graphics2D SVG Generator-->
  <defs id="genericDefs" />
  <g>
    <g style="fill:rgb(128,128,255); stroke:rgb(128,128,255);">
      <rect x="2" y="2" width="300" style="fill:none;" height="300" />
      <line x1="2" x2="302" y1="2" style="fill:none;" y2="302" />
      <line x1="302" x2="2" y1="2" style="fill:none;" y2="302" />
      <line x1="152" x2="152" y1="2" style="fill:none;" y2="302" />
      <line x1="2" x2="302" y1="152" style="fill:none;" y2="152" />
      <polygon style="fill:black; stroke:none;" points=" 169 136 177 139 185 141 192 143 202 148 212 152 221 157 231 162 240 167 239 168 245 173 251 179 257 189 259 197 258 203 252 207 241 199 232 192 225 185 215 177 205 169 196 161 187 153 178 145" />
      <polygon style="fill:none; stroke:black;" points=" 169 136 177 139 185 141 192 143 202 148 212 152 221 157 231 162 240 167 239 168 245 173 251 179 257 189 259 197 258 203 252 207 241 199 232 192 225 185 215 177 205 169 196 161 187 153 178 145" />
      <polygon style="fill:black; stroke:none;" points=" 135 94 132 99 133 107 138 113 138 112 138 135 137 145 137 155 137 165 136 175 135 186 135 196 133 205 132 214 131 224 130 228 130 233 131 242 135 250 144 257 150 253 152 241 152 234 152 226 152 217 152 206 152 195 153 182 153 168 153 156 153 146 153 139 154 133 154 124 155 114 145 100 139 96" />
      <polygon style="fill:none; stroke:black;" points=" 135 94 132 99 133 107 138 113 138 112 138 135 137 145 137 155 137 165 136 175 135 186 135 196 133 205 132 214 131 224 130 228 130 233 131 242 135 250 144 257 150 253 152 241 152 234 152 226 152 217 152 206 152 195 153 182 153 168 153 156 153 146 153 139 154 133 154 124 155 114 145 100 139 96" />
      <polygon style="fill:black; stroke:none;" points=" 166 64 159 66 157 75 145 100 138 112 131 122 123 131 115 141 107 150 98 159 89 167 80 175 71 183 62 190 53 197 44 203 33 211 27 215 24 216 33 213 43 209 53 204 62 198 72 192 82 185 90 179 98 173 106 166 114 158 123 150 130 143 138 135 155 114 161 108 167 101 173 92 176 87 181 80 176 74 171 68" />
      <polygon style="fill:none; stroke:black;" points=" 166 64 159 66 157 75 145 100 138 112 131 122 123 131 115 141 107 150 98 159 89 167 80 175 71 183 62 190 53 197 44 203 33 211 27 215 24 216 33 213 43 209 53 204 62 198 72 192 82 185 90 179 98 173 106 166 114 158 123 150 130 143 138 135 155 114 161 108 167 101 173 92 176 87 181 80 176 74 171 68" />
      <polygon style="fill:black; stroke:none;" points=" 48 68 51 65 56 65 64 64 67 64 76 63 90 61 100 60 111 58 122 57 132 55 142 54 152 52 163 51 175 49 188 47 200 45 213 43 226 40 234 42 243 46 249 52 252 57 243 61 236 61 230 61 222 60 212 61 203 61 195 61 186 62 176 63 166 64 159 66 150 67 142 68 135 69 129 70 119 72 109 74 99 76 89 78 79 80 69 81 63 79 59 77 50 72" />
      <polygon style="fill:none; stroke:black;" points=" 48 68 51 65 56 65 64 64 67 64 76 63 90 61 100 60 111 58 122 57 132 55 142 54 152 52 163 51 175 49 188 47 200 45 213 43 226 40 234 42 243 46 249 52 252 57 243 61 236 61 230 61 222 60 212 61 203 61 195 61 186 62 176 63 166 64 159 66 150 67 142 68 135 69 129 70 119 72 109 74 99 76 89 78 79 80 69 81 63 79 59 77 50 72" />
      <rect x="302" y="2" width="300" style="fill:none;" height="300" />
      <line x1="302" x2="602" y1="2" style="fill:none;" y2="302" />
      <line x1="602" x2="302" y1="2" style="fill:none;" y2="302" />
      <line x1="452" x2="452" y1="2" style="fill:none;" y2="302" />
      <line x1="302" x2="602" y1="152" style="fill:none;" y2="152" />
      <polygon style="fill:silver; stroke:none;" points=" 469 136 477 139 485 141 492 143 502 148 512 152 521 157 531 162 540 167 539 168 545 173 551 179 557 189 559 197 558 203 552 207 541 199 532 192 525 185 515 177 505 169 496 161 487 153 478 145" />
      <polygon style="fill:none; stroke:silver;" points=" 469 136 477 139 485 141 492 143 502 148 512 152 521 157 531 162 540 167 539 168 545 173 551 179 557 189 559 197 558 203 552 207 541 199 532 192 525 185 515 177 505 169 496 161 487 153 478 145" />
      <polygon style="fill:silver; stroke:none;" points=" 435 94 432 99 433 107 438 113 438 112 438 135 437 145 437 155 437 165 436 175 435 186 435 196 433 205 432 214 431 224 430 228 430 233 431 242 435 250 444 257 450 253 452 241 452 234 452 226 452 217 452 206 452 195 453 182 453 168 453 156 453 146 453 139 454 133 454 124 455 114 445 100 439 96" />
      <polygon style="fill:none; stroke:silver;" points=" 435 94 432 99 433 107 438 113 438 112 438 135 437 145 437 155 437 165 436 175 435 186 435 196 433 205 432 214 431 224 430 228 430 233 431 242 435 250 444 257 450 253 452 241 452 234 452 226 452 217 452 206 452 195 453 182 453 168 453 156 453 146 453 139 454 133 454 124 455 114 445 100 439 96" />
      <polygon style="fill:silver; stroke:none;" points=" 466 64 459 66 457 75 445 100 438 112 431 122 423 131 415 141 407 150 398 159 389 167 380 175 371 183 362 190 353 197 344 203 333 211 327 215 324 216 333 213 343 209 353 204 362 198 372 192 382 185 390 179 398 173 406 166 414 158 423 150 430 143 438 135 455 114 461 108 467 101 473 92 476 87 481 80 476 74 471 68" />
      <polygon style="fill:none; stroke:silver;" points=" 466 64 459 66 457 75 445 100 438 112 431 122 423 131 415 141 407 150 398 159 389 167 380 175 371 183 362 190 353 197 344 203 333 211 327 215 324 216 333 213 343 209 353 204 362 198 372 192 382 185 390 179 398 173 406 166 414 158 423 150 430 143 438 135 455 114 461 108 467 101 473 92 476 87 481 80 476 74 471 68" />
      <polygon style="fill:rgb(64,64,64); stroke:none;" points=" 348 68 351 65 356 65 364 64 367 64 376 63 390 61 400 60 411 58 422 57 432 55 442 54 452 52 463 51 475 49 488 47 500 45 513 43 526 40 534 42 543 46 549 52 552 57 543 61 536 61 530 61 522 60 512 61 503 61 495 61 486 62 476 63 466 64 459 66 450 67 442 68 435 69 429 70 419 72 409 74 399 76 389 78 379 80 369 81 363 79 359 77 350 72" />
      <polygon style="fill:none; stroke:rgb(64,64,64);" points=" 348 68 351 65 356 65 364 64 367 64 376 63 390 61 400 60 411 58 422 57 432 55 442 54 452 52 463 51 475 49 488 47 500 45 513 43 526 40 534 42 543 46 549 52 552 57 543 61 536 61 530 61 522 60 512 61 503 61 495 61 486 62 476 63 466 64 459 66 450 67 442 68 435 69 429 70 419 72 409 74 399 76 389 78 379 80 369 81 363 79 359 77 350 72" />
      <path d="M348 68 L552 57" style="fill:none; stroke-width:4; stroke:red;" />
      <circle style="fill:lime; stroke:none;" r="7" cx="348" cy="68" />
      <rect x="602" y="2" width="300" style="fill:none;" height="300" />
      <line x1="602" x2="902" y1="2" style="fill:none;" y2="302" />
      <line x1="902" x2="602" y1="2" style="fill:none;" y2="302" />
      <line x1="752" x2="752" y1="2" style="fill:none;" y2="302" />
      <line x1="602" x2="902" y1="152" style="fill:none;" y2="152" />
      <polygon style="fill:silver; stroke:none;" points=" 769 136 777 139 785 141 792 143 802 148 812 152 821 157 831 162 840 167 839 168 845 173 851 179 857 189 859 197 858 203 852 207 841 199 832 192 825 185 815 177 805 169 796 161 787 153 778 145" />
      <polygon style="fill:none; stroke:silver;" points=" 769 136 777 139 785 141 792 143 802 148 812 152 821 157 831 162 840 167 839 168 845 173 851 179 857 189 859 197 858 203 852 207 841 199 832 192 825 185 815 177 805 169 796 161 787 153 778 145" />
      <polygon style="fill:silver; stroke:none;" points=" 735 94 732 99 733 107 738 113 738 112 738 135 737 145 737 155 737 165 736 175 735 186 735 196 733 205 732 214 731 224 730 228 730 233 731 242 735 250 744 257 750 253 752 241 752 234 752 226 752 217 752 206 752 195 753 182 753 168 753 156 753 146 753 139 754 133 754 124 755 114 745 100 739 96" />
      <polygon style="fill:none; stroke:silver;" points=" 735 94 732 99 733 107 738 113 738 112 738 135 737 145 737 155 737 165 736 175 735 186 735 196 733 205 732 214 731 224 730 228 730 233 731 242 735 250 744 257 750 253 752 241 752 234 752 226 752 217 752 206 752 195 753 182 753 168 753 156 753 146 753 139 754 133 754 124 755 114 745 100 739 96" />
      <polygon style="fill:rgb(64,64,64); stroke:none;" points=" 766 64 759 66 757 75 745 100 738 112 731 122 723 131 715 141 707 150 698 159 689 167 680 175 671 183 662 190 653 197 644 203 633 211 627 215 624 216 633 213 643 209 653 204 662 198 672 192 682 185 690 179 698 173 706 166 714 158 723 150 730 143 738 135 755 114 761 108 767 101 773 92 776 87 781 80 776 74 771 68" />
      <polygon style="fill:none; stroke:rgb(64,64,64);" points=" 766 64 759 66 757 75 745 100 738 112 731 122 723 131 715 141 707 150 698 159 689 167 680 175 671 183 662 190 653 197 644 203 633 211 627 215 624 216 633 213 643 209 653 204 662 198 672 192 682 185 690 179 698 173 706 166 714 158 723 150 730 143 738 135 755 114 761 108 767 101 773 92 776 87 781 80 776 74 771 68" />
      <polygon style="fill:rgb(64,64,64); stroke:none;" points=" 648 68 651 65 656 65 664 64 667 64 676 63 690 61 700 60 711 58 722 57 732 55 742 54 752 52 763 51 775 49 788 47 800 45 813 43 826 40 834 42 843 46 849 52 852 57 843 61 836 61 830 61 822 60 812 61 803 61 795 61 786 62 776 63 766 64 759 66 750 67 742 68 735 69 729 70 719 72 709 74 699 76 689 78 679 80 669 81 663 79 659 77 650 72" />
      <polygon style="fill:none; stroke:rgb(64,64,64);" points=" 648 68 651 65 656 65 664 64 667 64 676 63 690 61 700 60 711 58 722 57 732 55 742 54 752 52 763 51 775 49 788 47 800 45 813 43 826 40 834 42 843 46 849 52 852 57 843 61 836 61 830 61 822 60 812 61 803 61 795 61 786 62 776 63 766 64 759 66 750 67 742 68 735 69 729 70 719 72 709 74 699 76 689 78 679 80 669 81 663 79 659 77 650 72" />
      <path d="M771 68 L624 216" style="fill:none; stroke-width:4; stroke:red;" />
      <circle style="fill:lime; stroke:none;" r="7" cx="771" cy="68" />
      <rect x="902" y="2" width="300" style="fill:none;" height="300" />
      <line x1="902" x2="1202" y1="2" style="fill:none;" y2="302" />
      <line x1="1202" x2="902" y1="2" style="fill:none;" y2="302" />
      <line x1="1052" x2="1052" y1="2" style="fill:none;" y2="302" />
      <line x1="902" x2="1202" y1="152" style="fill:none;" y2="152" />
      <polygon style="fill:silver; stroke:none;" points=" 1069 136 1077 139 1085 141 1092 143 1102 148 1112 152 1121 157 1131 162 1140 167 1139 168 1145 173 1151 179 1157 189 1159 197 1158 203 1152 207 1141 199 1132 192 1125 185 1115 177 1105 169 1096 161 1087 153 1078 145" />
      <polygon style="fill:none; stroke:silver;" points=" 1069 136 1077 139 1085 141 1092 143 1102 148 1112 152 1121 157 1131 162 1140 167 1139 168 1145 173 1151 179 1157 189 1159 197 1158 203 1152 207 1141 199 1132 192 1125 185 1115 177 1105 169 1096 161 1087 153 1078 145" />
      <polygon style="fill:rgb(64,64,64); stroke:none;" points=" 1035 94 1032 99 1033 107 1038 113 1038 112 1038 135 1037 145 1037 155 1037 165 1036 175 1035 186 1035 196 1033 205 1032 214 1031 224 1030 228 1030 233 1031 242 1035 250 1044 257 1050 253 1052 241 1052 234 1052 226 1052 217 1052 206 1052 195 1053 182 1053 168 1053 156 1053 146 1053 139 1054 133 1054 124 1055 114 1045 100 1039 96" />
      <polygon style="fill:none; stroke:rgb(64,64,64);" points=" 1035 94 1032 99 1033 107 1038 113 1038 112 1038 135 1037 145 1037 155 1037 165 1036 175 1035 186 1035 196 1033 205 1032 214 1031 224 1030 228 1030 233 1031 242 1035 250 1044 257 1050 253 1052 241 1052 234 1052 226 1052 217 1052 206 1052 195 1053 182 1053 168 1053 156 1053 146 1053 139 1054 133 1054 124 1055 114 1045 100 1039 96" />
      <polygon style="fill:rgb(64,64,64); stroke:none;" points=" 1066 64 1059 66 1057 75 1045 100 1038 112 1031 122 1023 131 1015 141 1007 150 998 159 989 167 980 175 971 183 962 190 953 197 944 203 933 211 927 215 924 216 933 213 943 209 953 204 962 198 972 192 982 185 990 179 998 173 1006 166 1014 158 1023 150 1030 143 1038 135 1055 114 1061 108 1067 101 1073 92 1076 87 1081 80 1076 74 1071 68" />
      <polygon style="fill:none; stroke:rgb(64,64,64);" points=" 1066 64 1059 66 1057 75 1045 100 1038 112 1031 122 1023 131 1015 141 1007 150 998 159 989 167 980 175 971 183 962 190 953 197 944 203 933 211 927 215 924 216 933 213 943 209 953 204 962 198 972 192 982 185 990 179 998 173 1006 166 1014 158 1023 150 1030 143 1038 135 1055 114 1061 108 1067 101 1073 92 1076 87 1081 80 1076 74 1071 68" />
      <polygon style="fill:rgb(64,64,64); stroke:none;" points=" 948 68 951 65 956 65 964 64 967 64 976 63 990 61 1000 60 1011 58 1022 57 1032 55 1042 54 1052 52 1063 51 1075 49 1088 47 1100 45 1113 43 1126 40 1134 42 1143 46 1149 52 1152 57 1143 61 1136 61 1130 61 1122 60 1112 61 1103 61 1095 61 1086 62 1076 63 1066 64 1059 66 1050 67 1042 68 1035 69 1029 70 1019 72 1009 74 999 76 989 78 979 80 969 81 963 79 959 77 950 72" />
      <polygon style="fill:none; stroke:rgb(64,64,64);" points=" 948 68 951 65 956 65 964 64 967 64 976 63 990 61 1000 60 1011 58 1022 57 1032 55 1042 54 1052 52 1063 51 1075 49 1088 47 1100 45 1113 43 1126 40 1134 42 1143 46 1149 52 1152 57 1143 61 1136 61 1130 61 1122 60 1112 61 1103 61 1095 61 1086 62 1076 63 1066 64 1059 66 1050 67 1042 68 1035 69 1029 70 1019 72 1009 74 999 76 989 78 979 80 969 81 963 79 959 77 950 72" />
      <path d="M1035 94 L1044 257" style="fill:none; stroke-width:4; stroke:red;" />
      <circle style="fill:lime; stroke:none;" r="7" cx="1035" cy="94" />
      <rect x="1202" y="2" width="300" style="fill:none;" height="300" />
      <line x1="1202" x2="1502" y1="2" style="fill:none;" y2="302" />
      <line x1="1502" x2="1202" y1="2" style="fill:none;" y2="302" />
      <line x1="1352" x2="1352" y1="2" style="fill:none;" y2="302" />
      <line x1="1202" x2="1502" y1="152" style="fill:none;" y2="152" />
      <polygon style="fill:rgb(64,64,64); stroke:none;" points=" 1369 136 1377 139 1385 141 1392 143 1402 148 1412 152 1421 157 1431 162 1440 167 1439 168 1445 173 1451 179 1457 189 1459 197 1458 203 1452 207 1441 199 1432 192 1425 185 1415 177 1405 169 1396 161 1387 153 1378 145" />
      <polygon style="fill:none; stroke:rgb(64,64,64);" points=" 1369 136 1377 139 1385 141 1392 143 1402 148 1412 152 1421 157 1431 162 1440 167 1439 168 1445 173 1451 179 1457 189 1459 197 1458 203 1452 207 1441 199 1432 192 1425 185 1415 177 1405 169 1396 161 1387 153 1378 145" />
      <polygon style="fill:rgb(64,64,64); stroke:none;" points=" 1335 94 1332 99 1333 107 1338 113 1338 112 1338 135 1337 145 1337 155 1337 165 1336 175 1335 186 1335 196 1333 205 1332 214 1331 224 1330 228 1330 233 1331 242 1335 250 1344 257 1350 253 1352 241 1352 234 1352 226 1352 217 1352 206 1352 195 1353 182 1353 168 1353 156 1353 146 1353 139 1354 133 1354 124 1355 114 1345 100 1339 96" />
      <polygon style="fill:none; stroke:rgb(64,64,64);" points=" 1335 94 1332 99 1333 107 1338 113 1338 112 1338 135 1337 145 1337 155 1337 165 1336 175 1335 186 1335 196 1333 205 1332 214 1331 224 1330 228 1330 233 1331 242 1335 250 1344 257 1350 253 1352 241 1352 234 1352 226 1352 217 1352 206 1352 195 1353 182 1353 168 1353 156 1353 146 1353 139 1354 133 1354 124 1355 114 1345 100 1339 96" />
      <polygon style="fill:rgb(64,64,64); stroke:none;" points=" 1366 64 1359 66 1357 75 1345 100 1338 112 1331 122 1323 131 1315 141 1307 150 1298 159 1289 167 1280 175 1271 183 1262 190 1253 197 1244 203 1233 211 1227 215 1224 216 1233 213 1243 209 1253 204 1262 198 1272 192 1282 185 1290 179 1298 173 1306 166 1314 158 1323 150 1330 143 1338 135 1355 114 1361 108 1367 101 1373 92 1376 87 1381 80 1376 74 1371 68" />
      <polygon style="fill:none; stroke:rgb(64,64,64);" points=" 1366 64 1359 66 1357 75 1345 100 1338 112 1331 122 1323 131 1315 141 1307 150 1298 159 1289 167 1280 175 1271 183 1262 190 1253 197 1244 203 1233 211 1227 215 1224 216 1233 213 1243 209 1253 204 1262 198 1272 192 1282 185 1290 179 1298 173 1306 166 1314 158 1323 150 1330 143 1338 135 1355 114 1361 108 1367 101 1373 92 1376 87 1381 80 1376 74 1371 68" />
      <polygon style="fill:rgb(64,64,64); stroke:none;" points=" 1248 68 1251 65 1256 65 1264 64 1267 64 1276 63 1290 61 1300 60 1311 58 1322 57 1332 55 1342 54 1352 52 1363 51 1375 49 1388 47 1400 45 1413 43 1426 40 1434 42 1443 46 1449 52 1452 57 1443 61 1436 61 1430 61 1422 60 1412 61 1403 61 1395 61 1386 62 1376 63 1366 64 1359 66 1350 67 1342 68 1335 69 1329 70 1319 72 1309 74 1299 76 1289 78 1279 80 1269 81 1263 79 1259 77 1250 72" />
      <polygon style="fill:none; stroke:rgb(64,64,64);" points=" 1248 68 1251 65 1256 65 1264 64 1267 64 1276 63 1290 61 1300 60 1311 58 1322 57 1332 55 1342 54 1352 52 1363 51 1375 49 1388 47 1400 45 1413 43 1426 40 1434 42 1443 46 1449 52 1452 57 1443 61 1436 61 1430 61 1422 60 1412 61 1403 61 1395 61 1386 62 1376 63 1366 64 1359 66 1350 67 1342 68 1335 69 1329 70 1319 72 1309 74 1299 76 1289 78 1279 80 1269 81 1263 79 1259 77 1250 72" />
      <path d="M1369 136 L1458 203" style="fill:none; stroke-width:4; stroke:red;" />
      <circle style="fill:lime; stroke:none;" r="7" cx="1369" cy="136" />
    </g>
  </g>
</svg>
