<?xml version="1.0" encoding="UTF-8"?>

<!DOCTYPE svg PUBLIC '-//W3C//DTD SVG 1.0//EN' 'http://www.w3.org/TR/2001/REC-SVG-20010904/DTD/svg10.dtd'>
<svg style="fill-opacity:1; color-rendering:auto; color-interpolation:auto; stroke:black; text-rendering:auto; stroke-linecap:square; stroke-miterlimit:10; stroke-opacity:1; shape-rendering:auto; fill:black; stroke-dasharray:none; font-weight:normal; stroke-width:1; font-family:&apos;Dialog&apos;; font-style:normal; stroke-linejoin:miter; font-size:12; stroke-dashoffset:0; image-rendering:auto;" xmlns="http://www.w3.org/2000/svg" width="2104" xmlns:xlink="http://www.w3.org/1999/xlink" height="304">
  <!--Generated by the Batik Graphics2D SVG Generator-->
  <defs id="genericDefs" />
  <g>
    <g style="fill:rgb(128,128,255); stroke:rgb(128,128,255);">
      <rect x="2" y="2" width="300" style="fill:none;" height="300" />
      <line x1="2" x2="302" y1="2" style="fill:none;" y2="302" />
      <line x1="302" x2="2" y1="2" style="fill:none;" y2="302" />
      <line x1="152" x2="152" y1="2" style="fill:none;" y2="302" />
      <line x1="2" x2="302" y1="152" style="fill:none;" y2="152" />
      <polygon style="fill:black; stroke:none;" points=" 114 200 122 199 128 198 137 197 146 195 157 193 162 194 167 198 160 205 151 206 141 206 132 207 123 207 114 207" />
      <polygon style="fill:none; stroke:black;" points=" 114 200 122 199 128 198 137 197 146 195 157 193 162 194 167 198 160 205 151 206 141 206 132 207 123 207 114 207" />
      <polygon style="fill:black; stroke:none;" points=" 116 159 124 158 130 157 138 156 148 154 159 152 163 154 168 158 162 162 154 164 146 165 139 165 132 165 127 165 122 165 116 164" />
      <polygon style="fill:none; stroke:black;" points=" 116 159 124 158 130 157 138 156 148 154 159 152 163 154 168 158 162 162 154 164 146 165 139 165 132 165 127 165 122 165 116 164" />
      <polygon style="fill:black; stroke:none;" points=" 109 119 116 126 122 126 129 125 138 123 149 122 159 120 166 120 172 119 176 119 181 119 192 107 183 104 174 107 164 110 155 112 144 115 134 117 123 118 117 119" />
      <polygon style="fill:none; stroke:black;" points=" 109 119 116 126 122 126 129 125 138 123 149 122 159 120 166 120 172 119 176 119 181 119 192 107 183 104 174 107 164 110 155 112 144 115 134 117 123 118 117 119" />
      <polygon style="fill:black; stroke:none;" points=" 192 107 181 119 182 130 183 139 185 149 185 158 186 167 187 175 187 184 188 192 188 201 188 210 188 219 189 228 188 237 188 244 188 253 193 282 198 274 202 266 203 258 204 250 205 240 205 233 205 226 203 215 203 207 203 202 202 196 202 189 202 179 201 170 201 162 201 155 201 146 202 136 204 128 207 119 201 113" />
      <polygon style="fill:none; stroke:black;" points=" 192 107 181 119 182 130 183 139 185 149 185 158 186 167 187 175 187 184 188 192 188 201 188 210 188 219 189 228 188 237 188 244 188 253 193 282 198 274 202 266 203 258 204 250 205 240 205 233 205 226 203 215 203 207 203 202 202 196 202 189 202 179 201 170 201 162 201 155 201 146 202 136 204 128 207 119 201 113" />
      <polygon style="fill:black; stroke:none;" points=" 188 253 180 252 173 252 167 251 159 248 186 290 193 282" />
      <polygon style="fill:none; stroke:black;" points=" 188 253 180 252 173 252 167 251 159 248 186 290 193 282" />
      <polygon style="fill:black; stroke:none;" points=" 109 119 104 128 103 139 103 149 103 159 102 169 101 180 100 190 98 199 97 208 96 216 95 223 94 230 91 243 90 247 90 252 90 258 91 264 95 269 102 264 104 255 107 246 109 237 112 226 113 218 114 207 114 200 114 192 115 184 116 178 116 171 116 164 116 159 116 126" />
      <polygon style="fill:none; stroke:black;" points=" 109 119 104 128 103 139 103 149 103 159 102 169 101 180 100 190 98 199 97 208 96 216 95 223 94 230 91 243 90 247 90 252 90 258 91 264 95 269 102 264 104 255 107 246 109 237 112 226 113 218 114 207 114 200 114 192 115 184 116 178 116 171 116 164 116 159 116 126" />
      <polygon style="fill:black; stroke:none;" points=" 138 64 140 58 144 50 147 42 152 32 154 26 159 18 151 12 141 7 137 6 131 5 130 14 130 22 129 30 127 39 126 47 123 56 121 66 116 78 110 91 104 103 97 115 89 127 81 139 72 151 64 161 55 171 47 181 37 190 28 199 14 212 9 216 18 211 28 205 38 198 48 190 58 181 66 173 75 164 83 154 92 144 98 136 104 128 109 119 114 111 119 101 125 90 128 83 133 74" />
      <polygon style="fill:none; stroke:black;" points=" 138 64 140 58 144 50 147 42 152 32 154 26 159 18 151 12 141 7 137 6 131 5 130 14 130 22 129 30 127 39 126 47 123 56 121 66 116 78 110 91 104 103 97 115 89 127 81 139 72 151 64 161 55 171 47 181 37 190 28 199 14 212 9 216 18 211 28 205 38 198 48 190 58 181 66 173 75 164 83 154 92 144 98 136 104 128 109 119 114 111 119 101 125 90 128 83 133 74" />
      <polygon style="fill:black; stroke:none;" points=" 121 66 111 68 101 69 90 70 80 72 69 73 58 74 49 75 40 76 30 76 23 80 32 86 40 90 47 89 55 88 63 86 72 85 81 83 92 81 98 81 106 80 116 78 133 74 142 73 151 72 160 72 169 71 178 70 186 70 195 70 205 70 214 70 225 69 231 69 240 69 248 69 256 70 257 69 266 68 269 63 267 58 263 53 255 49 248 47 241 48 233 49 225 50 216 52 205 54 195 55 184 57 174 58 166 60 159 61 154 61 146 63 138 64" />
      <polygon style="fill:none; stroke:black;" points=" 121 66 111 68 101 69 90 70 80 72 69 73 58 74 49 75 40 76 30 76 23 80 32 86 40 90 47 89 55 88 63 86 72 85 81 83 92 81 98 81 106 80 116 78 133 74 142 73 151 72 160 72 169 71 178 70 186 70 195 70 205 70 214 70 225 69 231 69 240 69 248 69 256 70 257 69 266 68 269 63 267 58 263 53 255 49 248 47 241 48 233 49 225 50 216 52 205 54 195 55 184 57 174 58 166 60 159 61 154 61 146 63 138 64" />
      <rect x="302" y="2" width="300" style="fill:none;" height="300" />
      <line x1="302" x2="602" y1="2" style="fill:none;" y2="302" />
      <line x1="602" x2="302" y1="2" style="fill:none;" y2="302" />
      <line x1="452" x2="452" y1="2" style="fill:none;" y2="302" />
      <line x1="302" x2="602" y1="152" style="fill:none;" y2="152" />
      <polygon style="fill:silver; stroke:none;" points=" 414 200 422 199 428 198 437 197 446 195 457 193 462 194 467 198 460 205 451 206 441 206 432 207 423 207 414 207" />
      <polygon style="fill:none; stroke:silver;" points=" 414 200 422 199 428 198 437 197 446 195 457 193 462 194 467 198 460 205 451 206 441 206 432 207 423 207 414 207" />
      <polygon style="fill:silver; stroke:none;" points=" 416 159 424 158 430 157 438 156 448 154 459 152 463 154 468 158 462 162 454 164 446 165 439 165 432 165 427 165 422 165 416 164" />
      <polygon style="fill:none; stroke:silver;" points=" 416 159 424 158 430 157 438 156 448 154 459 152 463 154 468 158 462 162 454 164 446 165 439 165 432 165 427 165 422 165 416 164" />
      <polygon style="fill:silver; stroke:none;" points=" 409 119 416 126 422 126 429 125 438 123 449 122 459 120 466 120 472 119 476 119 481 119 492 107 483 104 474 107 464 110 455 112 444 115 434 117 423 118 417 119" />
      <polygon style="fill:none; stroke:silver;" points=" 409 119 416 126 422 126 429 125 438 123 449 122 459 120 466 120 472 119 476 119 481 119 492 107 483 104 474 107 464 110 455 112 444 115 434 117 423 118 417 119" />
      <polygon style="fill:silver; stroke:none;" points=" 492 107 481 119 482 130 483 139 485 149 485 158 486 167 487 175 487 184 488 192 488 201 488 210 488 219 489 228 488 237 488 244 488 253 493 282 498 274 502 266 503 258 504 250 505 240 505 233 505 226 503 215 503 207 503 202 502 196 502 189 502 179 501 170 501 162 501 155 501 146 502 136 504 128 507 119 501 113" />
      <polygon style="fill:none; stroke:silver;" points=" 492 107 481 119 482 130 483 139 485 149 485 158 486 167 487 175 487 184 488 192 488 201 488 210 488 219 489 228 488 237 488 244 488 253 493 282 498 274 502 266 503 258 504 250 505 240 505 233 505 226 503 215 503 207 503 202 502 196 502 189 502 179 501 170 501 162 501 155 501 146 502 136 504 128 507 119 501 113" />
      <polygon style="fill:silver; stroke:none;" points=" 488 253 480 252 473 252 467 251 459 248 486 290 493 282" />
      <polygon style="fill:none; stroke:silver;" points=" 488 253 480 252 473 252 467 251 459 248 486 290 493 282" />
      <polygon style="fill:silver; stroke:none;" points=" 409 119 404 128 403 139 403 149 403 159 402 169 401 180 400 190 398 199 397 208 396 216 395 223 394 230 391 243 390 247 390 252 390 258 391 264 395 269 402 264 404 255 407 246 409 237 412 226 413 218 414 207 414 200 414 192 415 184 416 178 416 171 416 164 416 159 416 126" />
      <polygon style="fill:none; stroke:silver;" points=" 409 119 404 128 403 139 403 149 403 159 402 169 401 180 400 190 398 199 397 208 396 216 395 223 394 230 391 243 390 247 390 252 390 258 391 264 395 269 402 264 404 255 407 246 409 237 412 226 413 218 414 207 414 200 414 192 415 184 416 178 416 171 416 164 416 159 416 126" />
      <polygon style="fill:silver; stroke:none;" points=" 438 64 440 58 444 50 447 42 452 32 454 26 459 18 451 12 441 7 437 6 431 5 430 14 430 22 429 30 427 39 426 47 423 56 421 66 416 78 410 91 404 103 397 115 389 127 381 139 372 151 364 161 355 171 347 181 337 190 328 199 314 212 309 216 318 211 328 205 338 198 348 190 358 181 366 173 375 164 383 154 392 144 398 136 404 128 409 119 414 111 419 101 425 90 428 83 433 74" />
      <polygon style="fill:none; stroke:silver;" points=" 438 64 440 58 444 50 447 42 452 32 454 26 459 18 451 12 441 7 437 6 431 5 430 14 430 22 429 30 427 39 426 47 423 56 421 66 416 78 410 91 404 103 397 115 389 127 381 139 372 151 364 161 355 171 347 181 337 190 328 199 314 212 309 216 318 211 328 205 338 198 348 190 358 181 366 173 375 164 383 154 392 144 398 136 404 128 409 119 414 111 419 101 425 90 428 83 433 74" />
      <polygon style="fill:rgb(64,64,64); stroke:none;" points=" 421 66 411 68 401 69 390 70 380 72 369 73 358 74 349 75 340 76 330 76 323 80 332 86 340 90 347 89 355 88 363 86 372 85 381 83 392 81 398 81 406 80 416 78 433 74 442 73 451 72 460 72 469 71 478 70 486 70 495 70 505 70 514 70 525 69 531 69 540 69 548 69 556 70 557 69 566 68 569 63 567 58 563 53 555 49 548 47 541 48 533 49 525 50 516 52 505 54 495 55 484 57 474 58 466 60 459 61 454 61 446 63 438 64" />
      <polygon style="fill:none; stroke:rgb(64,64,64);" points=" 421 66 411 68 401 69 390 70 380 72 369 73 358 74 349 75 340 76 330 76 323 80 332 86 340 90 347 89 355 88 363 86 372 85 381 83 392 81 398 81 406 80 416 78 433 74 442 73 451 72 460 72 469 71 478 70 486 70 495 70 505 70 514 70 525 69 531 69 540 69 548 69 556 70 557 69 566 68 569 63 567 58 563 53 555 49 548 47 541 48 533 49 525 50 516 52 505 54 495 55 484 57 474 58 466 60 459 61 454 61 446 63 438 64" />
      <path d="M323 80 L569 63" style="fill:none; stroke-width:4; stroke:red;" />
      <circle style="fill:lime; stroke:none;" r="7" cx="323" cy="80" />
      <rect x="602" y="2" width="300" style="fill:none;" height="300" />
      <line x1="602" x2="902" y1="2" style="fill:none;" y2="302" />
      <line x1="902" x2="602" y1="2" style="fill:none;" y2="302" />
      <line x1="752" x2="752" y1="2" style="fill:none;" y2="302" />
      <line x1="602" x2="902" y1="152" style="fill:none;" y2="152" />
      <polygon style="fill:silver; stroke:none;" points=" 714 200 722 199 728 198 737 197 746 195 757 193 762 194 767 198 760 205 751 206 741 206 732 207 723 207 714 207" />
      <polygon style="fill:none; stroke:silver;" points=" 714 200 722 199 728 198 737 197 746 195 757 193 762 194 767 198 760 205 751 206 741 206 732 207 723 207 714 207" />
      <polygon style="fill:silver; stroke:none;" points=" 716 159 724 158 730 157 738 156 748 154 759 152 763 154 768 158 762 162 754 164 746 165 739 165 732 165 727 165 722 165 716 164" />
      <polygon style="fill:none; stroke:silver;" points=" 716 159 724 158 730 157 738 156 748 154 759 152 763 154 768 158 762 162 754 164 746 165 739 165 732 165 727 165 722 165 716 164" />
      <polygon style="fill:silver; stroke:none;" points=" 709 119 716 126 722 126 729 125 738 123 749 122 759 120 766 120 772 119 776 119 781 119 792 107 783 104 774 107 764 110 755 112 744 115 734 117 723 118 717 119" />
      <polygon style="fill:none; stroke:silver;" points=" 709 119 716 126 722 126 729 125 738 123 749 122 759 120 766 120 772 119 776 119 781 119 792 107 783 104 774 107 764 110 755 112 744 115 734 117 723 118 717 119" />
      <polygon style="fill:silver; stroke:none;" points=" 792 107 781 119 782 130 783 139 785 149 785 158 786 167 787 175 787 184 788 192 788 201 788 210 788 219 789 228 788 237 788 244 788 253 793 282 798 274 802 266 803 258 804 250 805 240 805 233 805 226 803 215 803 207 803 202 802 196 802 189 802 179 801 170 801 162 801 155 801 146 802 136 804 128 807 119 801 113" />
      <polygon style="fill:none; stroke:silver;" points=" 792 107 781 119 782 130 783 139 785 149 785 158 786 167 787 175 787 184 788 192 788 201 788 210 788 219 789 228 788 237 788 244 788 253 793 282 798 274 802 266 803 258 804 250 805 240 805 233 805 226 803 215 803 207 803 202 802 196 802 189 802 179 801 170 801 162 801 155 801 146 802 136 804 128 807 119 801 113" />
      <polygon style="fill:silver; stroke:none;" points=" 788 253 780 252 773 252 767 251 759 248 786 290 793 282" />
      <polygon style="fill:none; stroke:silver;" points=" 788 253 780 252 773 252 767 251 759 248 786 290 793 282" />
      <polygon style="fill:silver; stroke:none;" points=" 709 119 704 128 703 139 703 149 703 159 702 169 701 180 700 190 698 199 697 208 696 216 695 223 694 230 691 243 690 247 690 252 690 258 691 264 695 269 702 264 704 255 707 246 709 237 712 226 713 218 714 207 714 200 714 192 715 184 716 178 716 171 716 164 716 159 716 126" />
      <polygon style="fill:none; stroke:silver;" points=" 709 119 704 128 703 139 703 149 703 159 702 169 701 180 700 190 698 199 697 208 696 216 695 223 694 230 691 243 690 247 690 252 690 258 691 264 695 269 702 264 704 255 707 246 709 237 712 226 713 218 714 207 714 200 714 192 715 184 716 178 716 171 716 164 716 159 716 126" />
      <polygon style="fill:rgb(64,64,64); stroke:none;" points=" 738 64 740 58 744 50 747 42 752 32 754 26 759 18 751 12 741 7 737 6 731 5 730 14 730 22 729 30 727 39 726 47 723 56 721 66 716 78 710 91 704 103 697 115 689 127 681 139 672 151 664 161 655 171 647 181 637 190 628 199 614 212 609 216 618 211 628 205 638 198 648 190 658 181 666 173 675 164 683 154 692 144 698 136 704 128 709 119 714 111 719 101 725 90 728 83 733 74" />
      <polygon style="fill:none; stroke:rgb(64,64,64);" points=" 738 64 740 58 744 50 747 42 752 32 754 26 759 18 751 12 741 7 737 6 731 5 730 14 730 22 729 30 727 39 726 47 723 56 721 66 716 78 710 91 704 103 697 115 689 127 681 139 672 151 664 161 655 171 647 181 637 190 628 199 614 212 609 216 618 211 628 205 638 198 648 190 658 181 666 173 675 164 683 154 692 144 698 136 704 128 709 119 714 111 719 101 725 90 728 83 733 74" />
      <polygon style="fill:rgb(64,64,64); stroke:none;" points=" 721 66 711 68 701 69 690 70 680 72 669 73 658 74 649 75 640 76 630 76 623 80 632 86 640 90 647 89 655 88 663 86 672 85 681 83 692 81 698 81 706 80 716 78 733 74 742 73 751 72 760 72 769 71 778 70 786 70 795 70 805 70 814 70 825 69 831 69 840 69 848 69 856 70 857 69 866 68 869 63 867 58 863 53 855 49 848 47 841 48 833 49 825 50 816 52 805 54 795 55 784 57 774 58 766 60 759 61 754 61 746 63 738 64" />
      <polygon style="fill:none; stroke:rgb(64,64,64);" points=" 721 66 711 68 701 69 690 70 680 72 669 73 658 74 649 75 640 76 630 76 623 80 632 86 640 90 647 89 655 88 663 86 672 85 681 83 692 81 698 81 706 80 716 78 733 74 742 73 751 72 760 72 769 71 778 70 786 70 795 70 805 70 814 70 825 69 831 69 840 69 848 69 856 70 857 69 866 68 869 63 867 58 863 53 855 49 848 47 841 48 833 49 825 50 816 52 805 54 795 55 784 57 774 58 766 60 759 61 754 61 746 63 738 64" />
      <path d="M759 18 L609 216" style="fill:none; stroke-width:4; stroke:red;" />
      <circle style="fill:lime; stroke:none;" r="7" cx="759" cy="18" />
      <rect x="902" y="2" width="300" style="fill:none;" height="300" />
      <line x1="902" x2="1202" y1="2" style="fill:none;" y2="302" />
      <line x1="1202" x2="902" y1="2" style="fill:none;" y2="302" />
      <line x1="1052" x2="1052" y1="2" style="fill:none;" y2="302" />
      <line x1="902" x2="1202" y1="152" style="fill:none;" y2="152" />
      <polygon style="fill:silver; stroke:none;" points=" 1014 200 1022 199 1028 198 1037 197 1046 195 1057 193 1062 194 1067 198 1060 205 1051 206 1041 206 1032 207 1023 207 1014 207" />
      <polygon style="fill:none; stroke:silver;" points=" 1014 200 1022 199 1028 198 1037 197 1046 195 1057 193 1062 194 1067 198 1060 205 1051 206 1041 206 1032 207 1023 207 1014 207" />
      <polygon style="fill:silver; stroke:none;" points=" 1016 159 1024 158 1030 157 1038 156 1048 154 1059 152 1063 154 1068 158 1062 162 1054 164 1046 165 1039 165 1032 165 1027 165 1022 165 1016 164" />
      <polygon style="fill:none; stroke:silver;" points=" 1016 159 1024 158 1030 157 1038 156 1048 154 1059 152 1063 154 1068 158 1062 162 1054 164 1046 165 1039 165 1032 165 1027 165 1022 165 1016 164" />
      <polygon style="fill:silver; stroke:none;" points=" 1009 119 1016 126 1022 126 1029 125 1038 123 1049 122 1059 120 1066 120 1072 119 1076 119 1081 119 1092 107 1083 104 1074 107 1064 110 1055 112 1044 115 1034 117 1023 118 1017 119" />
      <polygon style="fill:none; stroke:silver;" points=" 1009 119 1016 126 1022 126 1029 125 1038 123 1049 122 1059 120 1066 120 1072 119 1076 119 1081 119 1092 107 1083 104 1074 107 1064 110 1055 112 1044 115 1034 117 1023 118 1017 119" />
      <polygon style="fill:silver; stroke:none;" points=" 1092 107 1081 119 1082 130 1083 139 1085 149 1085 158 1086 167 1087 175 1087 184 1088 192 1088 201 1088 210 1088 219 1089 228 1088 237 1088 244 1088 253 1093 282 1098 274 1102 266 1103 258 1104 250 1105 240 1105 233 1105 226 1103 215 1103 207 1103 202 1102 196 1102 189 1102 179 1101 170 1101 162 1101 155 1101 146 1102 136 1104 128 1107 119 1101 113" />
      <polygon style="fill:none; stroke:silver;" points=" 1092 107 1081 119 1082 130 1083 139 1085 149 1085 158 1086 167 1087 175 1087 184 1088 192 1088 201 1088 210 1088 219 1089 228 1088 237 1088 244 1088 253 1093 282 1098 274 1102 266 1103 258 1104 250 1105 240 1105 233 1105 226 1103 215 1103 207 1103 202 1102 196 1102 189 1102 179 1101 170 1101 162 1101 155 1101 146 1102 136 1104 128 1107 119 1101 113" />
      <polygon style="fill:silver; stroke:none;" points=" 1088 253 1080 252 1073 252 1067 251 1059 248 1086 290 1093 282" />
      <polygon style="fill:none; stroke:silver;" points=" 1088 253 1080 252 1073 252 1067 251 1059 248 1086 290 1093 282" />
      <polygon style="fill:rgb(64,64,64); stroke:none;" points=" 1009 119 1004 128 1003 139 1003 149 1003 159 1002 169 1001 180 1000 190 998 199 997 208 996 216 995 223 994 230 991 243 990 247 990 252 990 258 991 264 995 269 1002 264 1004 255 1007 246 1009 237 1012 226 1013 218 1014 207 1014 200 1014 192 1015 184 1016 178 1016 171 1016 164 1016 159 1016 126" />
      <polygon style="fill:none; stroke:rgb(64,64,64);" points=" 1009 119 1004 128 1003 139 1003 149 1003 159 1002 169 1001 180 1000 190 998 199 997 208 996 216 995 223 994 230 991 243 990 247 990 252 990 258 991 264 995 269 1002 264 1004 255 1007 246 1009 237 1012 226 1013 218 1014 207 1014 200 1014 192 1015 184 1016 178 1016 171 1016 164 1016 159 1016 126" />
      <polygon style="fill:rgb(64,64,64); stroke:none;" points=" 1038 64 1040 58 1044 50 1047 42 1052 32 1054 26 1059 18 1051 12 1041 7 1037 6 1031 5 1030 14 1030 22 1029 30 1027 39 1026 47 1023 56 1021 66 1016 78 1010 91 1004 103 997 115 989 127 981 139 972 151 964 161 955 171 947 181 937 190 928 199 914 212 909 216 918 211 928 205 938 198 948 190 958 181 966 173 975 164 983 154 992 144 998 136 1004 128 1009 119 1014 111 1019 101 1025 90 1028 83 1033 74" />
      <polygon style="fill:none; stroke:rgb(64,64,64);" points=" 1038 64 1040 58 1044 50 1047 42 1052 32 1054 26 1059 18 1051 12 1041 7 1037 6 1031 5 1030 14 1030 22 1029 30 1027 39 1026 47 1023 56 1021 66 1016 78 1010 91 1004 103 997 115 989 127 981 139 972 151 964 161 955 171 947 181 937 190 928 199 914 212 909 216 918 211 928 205 938 198 948 190 958 181 966 173 975 164 983 154 992 144 998 136 1004 128 1009 119 1014 111 1019 101 1025 90 1028 83 1033 74" />
      <polygon style="fill:rgb(64,64,64); stroke:none;" points=" 1021 66 1011 68 1001 69 990 70 980 72 969 73 958 74 949 75 940 76 930 76 923 80 932 86 940 90 947 89 955 88 963 86 972 85 981 83 992 81 998 81 1006 80 1016 78 1033 74 1042 73 1051 72 1060 72 1069 71 1078 70 1086 70 1095 70 1105 70 1114 70 1125 69 1131 69 1140 69 1148 69 1156 70 1157 69 1166 68 1169 63 1167 58 1163 53 1155 49 1148 47 1141 48 1133 49 1125 50 1116 52 1105 54 1095 55 1084 57 1074 58 1066 60 1059 61 1054 61 1046 63 1038 64" />
      <polygon style="fill:none; stroke:rgb(64,64,64);" points=" 1021 66 1011 68 1001 69 990 70 980 72 969 73 958 74 949 75 940 76 930 76 923 80 932 86 940 90 947 89 955 88 963 86 972 85 981 83 992 81 998 81 1006 80 1016 78 1033 74 1042 73 1051 72 1060 72 1069 71 1078 70 1086 70 1095 70 1105 70 1114 70 1125 69 1131 69 1140 69 1148 69 1156 70 1157 69 1166 68 1169 63 1167 58 1163 53 1155 49 1148 47 1141 48 1133 49 1125 50 1116 52 1105 54 1095 55 1084 57 1074 58 1066 60 1059 61 1054 61 1046 63 1038 64" />
      <path d="M1009 119 L995 269" style="fill:none; stroke-width:4; stroke:red;" />
      <circle style="fill:lime; stroke:none;" r="7" cx="1009" cy="119" />
      <rect x="1202" y="2" width="300" style="fill:none;" height="300" />
      <line x1="1202" x2="1502" y1="2" style="fill:none;" y2="302" />
      <line x1="1502" x2="1202" y1="2" style="fill:none;" y2="302" />
      <line x1="1352" x2="1352" y1="2" style="fill:none;" y2="302" />
      <line x1="1202" x2="1502" y1="152" style="fill:none;" y2="152" />
      <polygon style="fill:silver; stroke:none;" points=" 1314 200 1322 199 1328 198 1337 197 1346 195 1357 193 1362 194 1367 198 1360 205 1351 206 1341 206 1332 207 1323 207 1314 207" />
      <polygon style="fill:none; stroke:silver;" points=" 1314 200 1322 199 1328 198 1337 197 1346 195 1357 193 1362 194 1367 198 1360 205 1351 206 1341 206 1332 207 1323 207 1314 207" />
      <polygon style="fill:silver; stroke:none;" points=" 1316 159 1324 158 1330 157 1338 156 1348 154 1359 152 1363 154 1368 158 1362 162 1354 164 1346 165 1339 165 1332 165 1327 165 1322 165 1316 164" />
      <polygon style="fill:none; stroke:silver;" points=" 1316 159 1324 158 1330 157 1338 156 1348 154 1359 152 1363 154 1368 158 1362 162 1354 164 1346 165 1339 165 1332 165 1327 165 1322 165 1316 164" />
      <polygon style="fill:rgb(64,64,64); stroke:none;" points=" 1309 119 1316 126 1322 126 1329 125 1338 123 1349 122 1359 120 1366 120 1372 119 1376 119 1381 119 1392 107 1383 104 1374 107 1364 110 1355 112 1344 115 1334 117 1323 118 1317 119" />
      <polygon style="fill:none; stroke:rgb(64,64,64);" points=" 1309 119 1316 126 1322 126 1329 125 1338 123 1349 122 1359 120 1366 120 1372 119 1376 119 1381 119 1392 107 1383 104 1374 107 1364 110 1355 112 1344 115 1334 117 1323 118 1317 119" />
      <polygon style="fill:rgb(64,64,64); stroke:none;" points=" 1392 107 1381 119 1382 130 1383 139 1385 149 1385 158 1386 167 1387 175 1387 184 1388 192 1388 201 1388 210 1388 219 1389 228 1388 237 1388 244 1388 253 1393 282 1398 274 1402 266 1403 258 1404 250 1405 240 1405 233 1405 226 1403 215 1403 207 1403 202 1402 196 1402 189 1402 179 1401 170 1401 162 1401 155 1401 146 1402 136 1404 128 1407 119 1401 113" />
      <polygon style="fill:none; stroke:rgb(64,64,64);" points=" 1392 107 1381 119 1382 130 1383 139 1385 149 1385 158 1386 167 1387 175 1387 184 1388 192 1388 201 1388 210 1388 219 1389 228 1388 237 1388 244 1388 253 1393 282 1398 274 1402 266 1403 258 1404 250 1405 240 1405 233 1405 226 1403 215 1403 207 1403 202 1402 196 1402 189 1402 179 1401 170 1401 162 1401 155 1401 146 1402 136 1404 128 1407 119 1401 113" />
      <polygon style="fill:rgb(64,64,64); stroke:none;" points=" 1388 253 1380 252 1373 252 1367 251 1359 248 1386 290 1393 282" />
      <polygon style="fill:none; stroke:rgb(64,64,64);" points=" 1388 253 1380 252 1373 252 1367 251 1359 248 1386 290 1393 282" />
      <polygon style="fill:rgb(64,64,64); stroke:none;" points=" 1309 119 1304 128 1303 139 1303 149 1303 159 1302 169 1301 180 1300 190 1298 199 1297 208 1296 216 1295 223 1294 230 1291 243 1290 247 1290 252 1290 258 1291 264 1295 269 1302 264 1304 255 1307 246 1309 237 1312 226 1313 218 1314 207 1314 200 1314 192 1315 184 1316 178 1316 171 1316 164 1316 159 1316 126" />
      <polygon style="fill:none; stroke:rgb(64,64,64);" points=" 1309 119 1304 128 1303 139 1303 149 1303 159 1302 169 1301 180 1300 190 1298 199 1297 208 1296 216 1295 223 1294 230 1291 243 1290 247 1290 252 1290 258 1291 264 1295 269 1302 264 1304 255 1307 246 1309 237 1312 226 1313 218 1314 207 1314 200 1314 192 1315 184 1316 178 1316 171 1316 164 1316 159 1316 126" />
      <polygon style="fill:rgb(64,64,64); stroke:none;" points=" 1338 64 1340 58 1344 50 1347 42 1352 32 1354 26 1359 18 1351 12 1341 7 1337 6 1331 5 1330 14 1330 22 1329 30 1327 39 1326 47 1323 56 1321 66 1316 78 1310 91 1304 103 1297 115 1289 127 1281 139 1272 151 1264 161 1255 171 1247 181 1237 190 1228 199 1214 212 1209 216 1218 211 1228 205 1238 198 1248 190 1258 181 1266 173 1275 164 1283 154 1292 144 1298 136 1304 128 1309 119 1314 111 1319 101 1325 90 1328 83 1333 74" />
      <polygon style="fill:none; stroke:rgb(64,64,64);" points=" 1338 64 1340 58 1344 50 1347 42 1352 32 1354 26 1359 18 1351 12 1341 7 1337 6 1331 5 1330 14 1330 22 1329 30 1327 39 1326 47 1323 56 1321 66 1316 78 1310 91 1304 103 1297 115 1289 127 1281 139 1272 151 1264 161 1255 171 1247 181 1237 190 1228 199 1214 212 1209 216 1218 211 1228 205 1238 198 1248 190 1258 181 1266 173 1275 164 1283 154 1292 144 1298 136 1304 128 1309 119 1314 111 1319 101 1325 90 1328 83 1333 74" />
      <polygon style="fill:rgb(64,64,64); stroke:none;" points=" 1321 66 1311 68 1301 69 1290 70 1280 72 1269 73 1258 74 1249 75 1240 76 1230 76 1223 80 1232 86 1240 90 1247 89 1255 88 1263 86 1272 85 1281 83 1292 81 1298 81 1306 80 1316 78 1333 74 1342 73 1351 72 1360 72 1369 71 1378 70 1386 70 1395 70 1405 70 1414 70 1425 69 1431 69 1440 69 1448 69 1456 70 1457 69 1466 68 1469 63 1467 58 1463 53 1455 49 1448 47 1441 48 1433 49 1425 50 1416 52 1405 54 1395 55 1384 57 1374 58 1366 60 1359 61 1354 61 1346 63 1338 64" />
      <polygon style="fill:none; stroke:rgb(64,64,64);" points=" 1321 66 1311 68 1301 69 1290 70 1280 72 1269 73 1258 74 1249 75 1240 76 1230 76 1223 80 1232 86 1240 90 1247 89 1255 88 1263 86 1272 85 1281 83 1292 81 1298 81 1306 80 1316 78 1333 74 1342 73 1351 72 1360 72 1369 71 1378 70 1386 70 1395 70 1405 70 1414 70 1425 69 1431 69 1440 69 1448 69 1456 70 1457 69 1466 68 1469 63 1467 58 1463 53 1455 49 1448 47 1441 48 1433 49 1425 50 1416 52 1405 54 1395 55 1384 57 1374 58 1366 60 1359 61 1354 61 1346 63 1338 64" />
      <path d="M1309 119 L1392 107 L1393 282 L1359 248" style="fill:none; stroke-width:4; stroke:red;" />
      <circle style="fill:lime; stroke:none;" r="7" cx="1309" cy="119" />
      <rect x="1502" y="2" width="300" style="fill:none;" height="300" />
      <line x1="1502" x2="1802" y1="2" style="fill:none;" y2="302" />
      <line x1="1802" x2="1502" y1="2" style="fill:none;" y2="302" />
      <line x1="1652" x2="1652" y1="2" style="fill:none;" y2="302" />
      <line x1="1502" x2="1802" y1="152" style="fill:none;" y2="152" />
      <polygon style="fill:silver; stroke:none;" points=" 1614 200 1622 199 1628 198 1637 197 1646 195 1657 193 1662 194 1667 198 1660 205 1651 206 1641 206 1632 207 1623 207 1614 207" />
      <polygon style="fill:none; stroke:silver;" points=" 1614 200 1622 199 1628 198 1637 197 1646 195 1657 193 1662 194 1667 198 1660 205 1651 206 1641 206 1632 207 1623 207 1614 207" />
      <polygon style="fill:rgb(64,64,64); stroke:none;" points=" 1616 159 1624 158 1630 157 1638 156 1648 154 1659 152 1663 154 1668 158 1662 162 1654 164 1646 165 1639 165 1632 165 1627 165 1622 165 1616 164" />
      <polygon style="fill:none; stroke:rgb(64,64,64);" points=" 1616 159 1624 158 1630 157 1638 156 1648 154 1659 152 1663 154 1668 158 1662 162 1654 164 1646 165 1639 165 1632 165 1627 165 1622 165 1616 164" />
      <polygon style="fill:rgb(64,64,64); stroke:none;" points=" 1609 119 1616 126 1622 126 1629 125 1638 123 1649 122 1659 120 1666 120 1672 119 1676 119 1681 119 1692 107 1683 104 1674 107 1664 110 1655 112 1644 115 1634 117 1623 118 1617 119" />
      <polygon style="fill:none; stroke:rgb(64,64,64);" points=" 1609 119 1616 126 1622 126 1629 125 1638 123 1649 122 1659 120 1666 120 1672 119 1676 119 1681 119 1692 107 1683 104 1674 107 1664 110 1655 112 1644 115 1634 117 1623 118 1617 119" />
      <polygon style="fill:rgb(64,64,64); stroke:none;" points=" 1692 107 1681 119 1682 130 1683 139 1685 149 1685 158 1686 167 1687 175 1687 184 1688 192 1688 201 1688 210 1688 219 1689 228 1688 237 1688 244 1688 253 1693 282 1698 274 1702 266 1703 258 1704 250 1705 240 1705 233 1705 226 1703 215 1703 207 1703 202 1702 196 1702 189 1702 179 1701 170 1701 162 1701 155 1701 146 1702 136 1704 128 1707 119 1701 113" />
      <polygon style="fill:none; stroke:rgb(64,64,64);" points=" 1692 107 1681 119 1682 130 1683 139 1685 149 1685 158 1686 167 1687 175 1687 184 1688 192 1688 201 1688 210 1688 219 1689 228 1688 237 1688 244 1688 253 1693 282 1698 274 1702 266 1703 258 1704 250 1705 240 1705 233 1705 226 1703 215 1703 207 1703 202 1702 196 1702 189 1702 179 1701 170 1701 162 1701 155 1701 146 1702 136 1704 128 1707 119 1701 113" />
      <polygon style="fill:rgb(64,64,64); stroke:none;" points=" 1688 253 1680 252 1673 252 1667 251 1659 248 1686 290 1693 282" />
      <polygon style="fill:none; stroke:rgb(64,64,64);" points=" 1688 253 1680 252 1673 252 1667 251 1659 248 1686 290 1693 282" />
      <polygon style="fill:rgb(64,64,64); stroke:none;" points=" 1609 119 1604 128 1603 139 1603 149 1603 159 1602 169 1601 180 1600 190 1598 199 1597 208 1596 216 1595 223 1594 230 1591 243 1590 247 1590 252 1590 258 1591 264 1595 269 1602 264 1604 255 1607 246 1609 237 1612 226 1613 218 1614 207 1614 200 1614 192 1615 184 1616 178 1616 171 1616 164 1616 159 1616 126" />
      <polygon style="fill:none; stroke:rgb(64,64,64);" points=" 1609 119 1604 128 1603 139 1603 149 1603 159 1602 169 1601 180 1600 190 1598 199 1597 208 1596 216 1595 223 1594 230 1591 243 1590 247 1590 252 1590 258 1591 264 1595 269 1602 264 1604 255 1607 246 1609 237 1612 226 1613 218 1614 207 1614 200 1614 192 1615 184 1616 178 1616 171 1616 164 1616 159 1616 126" />
      <polygon style="fill:rgb(64,64,64); stroke:none;" points=" 1638 64 1640 58 1644 50 1647 42 1652 32 1654 26 1659 18 1651 12 1641 7 1637 6 1631 5 1630 14 1630 22 1629 30 1627 39 1626 47 1623 56 1621 66 1616 78 1610 91 1604 103 1597 115 1589 127 1581 139 1572 151 1564 161 1555 171 1547 181 1537 190 1528 199 1514 212 1509 216 1518 211 1528 205 1538 198 1548 190 1558 181 1566 173 1575 164 1583 154 1592 144 1598 136 1604 128 1609 119 1614 111 1619 101 1625 90 1628 83 1633 74" />
      <polygon style="fill:none; stroke:rgb(64,64,64);" points=" 1638 64 1640 58 1644 50 1647 42 1652 32 1654 26 1659 18 1651 12 1641 7 1637 6 1631 5 1630 14 1630 22 1629 30 1627 39 1626 47 1623 56 1621 66 1616 78 1610 91 1604 103 1597 115 1589 127 1581 139 1572 151 1564 161 1555 171 1547 181 1537 190 1528 199 1514 212 1509 216 1518 211 1528 205 1538 198 1548 190 1558 181 1566 173 1575 164 1583 154 1592 144 1598 136 1604 128 1609 119 1614 111 1619 101 1625 90 1628 83 1633 74" />
      <polygon style="fill:rgb(64,64,64); stroke:none;" points=" 1621 66 1611 68 1601 69 1590 70 1580 72 1569 73 1558 74 1549 75 1540 76 1530 76 1523 80 1532 86 1540 90 1547 89 1555 88 1563 86 1572 85 1581 83 1592 81 1598 81 1606 80 1616 78 1633 74 1642 73 1651 72 1660 72 1669 71 1678 70 1686 70 1695 70 1705 70 1714 70 1725 69 1731 69 1740 69 1748 69 1756 70 1757 69 1766 68 1769 63 1767 58 1763 53 1755 49 1748 47 1741 48 1733 49 1725 50 1716 52 1705 54 1695 55 1684 57 1674 58 1666 60 1659 61 1654 61 1646 63 1638 64" />
      <polygon style="fill:none; stroke:rgb(64,64,64);" points=" 1621 66 1611 68 1601 69 1590 70 1580 72 1569 73 1558 74 1549 75 1540 76 1530 76 1523 80 1532 86 1540 90 1547 89 1555 88 1563 86 1572 85 1581 83 1592 81 1598 81 1606 80 1616 78 1633 74 1642 73 1651 72 1660 72 1669 71 1678 70 1686 70 1695 70 1705 70 1714 70 1725 69 1731 69 1740 69 1748 69 1756 70 1757 69 1766 68 1769 63 1767 58 1763 53 1755 49 1748 47 1741 48 1733 49 1725 50 1716 52 1705 54 1695 55 1684 57 1674 58 1666 60 1659 61 1654 61 1646 63 1638 64" />
      <path d="M1616 159 L1668 158" style="fill:none; stroke-width:4; stroke:red;" />
      <circle style="fill:lime; stroke:none;" r="7" cx="1616" cy="159" />
      <rect x="1802" y="2" width="300" style="fill:none;" height="300" />
      <line x1="1802" x2="2102" y1="2" style="fill:none;" y2="302" />
      <line x1="2102" x2="1802" y1="2" style="fill:none;" y2="302" />
      <line x1="1952" x2="1952" y1="2" style="fill:none;" y2="302" />
      <line x1="1802" x2="2102" y1="152" style="fill:none;" y2="152" />
      <polygon style="fill:rgb(64,64,64); stroke:none;" points=" 1914 200 1922 199 1928 198 1937 197 1946 195 1957 193 1962 194 1967 198 1960 205 1951 206 1941 206 1932 207 1923 207 1914 207" />
      <polygon style="fill:none; stroke:rgb(64,64,64);" points=" 1914 200 1922 199 1928 198 1937 197 1946 195 1957 193 1962 194 1967 198 1960 205 1951 206 1941 206 1932 207 1923 207 1914 207" />
      <polygon style="fill:rgb(64,64,64); stroke:none;" points=" 1916 159 1924 158 1930 157 1938 156 1948 154 1959 152 1963 154 1968 158 1962 162 1954 164 1946 165 1939 165 1932 165 1927 165 1922 165 1916 164" />
      <polygon style="fill:none; stroke:rgb(64,64,64);" points=" 1916 159 1924 158 1930 157 1938 156 1948 154 1959 152 1963 154 1968 158 1962 162 1954 164 1946 165 1939 165 1932 165 1927 165 1922 165 1916 164" />
      <polygon style="fill:rgb(64,64,64); stroke:none;" points=" 1909 119 1916 126 1922 126 1929 125 1938 123 1949 122 1959 120 1966 120 1972 119 1976 119 1981 119 1992 107 1983 104 1974 107 1964 110 1955 112 1944 115 1934 117 1923 118 1917 119" />
      <polygon style="fill:none; stroke:rgb(64,64,64);" points=" 1909 119 1916 126 1922 126 1929 125 1938 123 1949 122 1959 120 1966 120 1972 119 1976 119 1981 119 1992 107 1983 104 1974 107 1964 110 1955 112 1944 115 1934 117 1923 118 1917 119" />
      <polygon style="fill:rgb(64,64,64); stroke:none;" points=" 1992 107 1981 119 1982 130 1983 139 1985 149 1985 158 1986 167 1987 175 1987 184 1988 192 1988 201 1988 210 1988 219 1989 228 1988 237 1988 244 1988 253 1993 282 1998 274 2002 266 2003 258 2004 250 2005 240 2005 233 2005 226 2003 215 2003 207 2003 202 2002 196 2002 189 2002 179 2001 170 2001 162 2001 155 2001 146 2002 136 2004 128 2007 119 2001 113" />
      <polygon style="fill:none; stroke:rgb(64,64,64);" points=" 1992 107 1981 119 1982 130 1983 139 1985 149 1985 158 1986 167 1987 175 1987 184 1988 192 1988 201 1988 210 1988 219 1989 228 1988 237 1988 244 1988 253 1993 282 1998 274 2002 266 2003 258 2004 250 2005 240 2005 233 2005 226 2003 215 2003 207 2003 202 2002 196 2002 189 2002 179 2001 170 2001 162 2001 155 2001 146 2002 136 2004 128 2007 119 2001 113" />
      <polygon style="fill:rgb(64,64,64); stroke:none;" points=" 1988 253 1980 252 1973 252 1967 251 1959 248 1986 290 1993 282" />
      <polygon style="fill:none; stroke:rgb(64,64,64);" points=" 1988 253 1980 252 1973 252 1967 251 1959 248 1986 290 1993 282" />
      <polygon style="fill:rgb(64,64,64); stroke:none;" points=" 1909 119 1904 128 1903 139 1903 149 1903 159 1902 169 1901 180 1900 190 1898 199 1897 208 1896 216 1895 223 1894 230 1891 243 1890 247 1890 252 1890 258 1891 264 1895 269 1902 264 1904 255 1907 246 1909 237 1912 226 1913 218 1914 207 1914 200 1914 192 1915 184 1916 178 1916 171 1916 164 1916 159 1916 126" />
      <polygon style="fill:none; stroke:rgb(64,64,64);" points=" 1909 119 1904 128 1903 139 1903 149 1903 159 1902 169 1901 180 1900 190 1898 199 1897 208 1896 216 1895 223 1894 230 1891 243 1890 247 1890 252 1890 258 1891 264 1895 269 1902 264 1904 255 1907 246 1909 237 1912 226 1913 218 1914 207 1914 200 1914 192 1915 184 1916 178 1916 171 1916 164 1916 159 1916 126" />
      <polygon style="fill:rgb(64,64,64); stroke:none;" points=" 1938 64 1940 58 1944 50 1947 42 1952 32 1954 26 1959 18 1951 12 1941 7 1937 6 1931 5 1930 14 1930 22 1929 30 1927 39 1926 47 1923 56 1921 66 1916 78 1910 91 1904 103 1897 115 1889 127 1881 139 1872 151 1864 161 1855 171 1847 181 1837 190 1828 199 1814 212 1809 216 1818 211 1828 205 1838 198 1848 190 1858 181 1866 173 1875 164 1883 154 1892 144 1898 136 1904 128 1909 119 1914 111 1919 101 1925 90 1928 83 1933 74" />
      <polygon style="fill:none; stroke:rgb(64,64,64);" points=" 1938 64 1940 58 1944 50 1947 42 1952 32 1954 26 1959 18 1951 12 1941 7 1937 6 1931 5 1930 14 1930 22 1929 30 1927 39 1926 47 1923 56 1921 66 1916 78 1910 91 1904 103 1897 115 1889 127 1881 139 1872 151 1864 161 1855 171 1847 181 1837 190 1828 199 1814 212 1809 216 1818 211 1828 205 1838 198 1848 190 1858 181 1866 173 1875 164 1883 154 1892 144 1898 136 1904 128 1909 119 1914 111 1919 101 1925 90 1928 83 1933 74" />
      <polygon style="fill:rgb(64,64,64); stroke:none;" points=" 1921 66 1911 68 1901 69 1890 70 1880 72 1869 73 1858 74 1849 75 1840 76 1830 76 1823 80 1832 86 1840 90 1847 89 1855 88 1863 86 1872 85 1881 83 1892 81 1898 81 1906 80 1916 78 1933 74 1942 73 1951 72 1960 72 1969 71 1978 70 1986 70 1995 70 2005 70 2014 70 2025 69 2031 69 2040 69 2048 69 2056 70 2057 69 2066 68 2069 63 2067 58 2063 53 2055 49 2048 47 2041 48 2033 49 2025 50 2016 52 2005 54 1995 55 1984 57 1974 58 1966 60 1959 61 1954 61 1946 63 1938 64" />
      <polygon style="fill:none; stroke:rgb(64,64,64);" points=" 1921 66 1911 68 1901 69 1890 70 1880 72 1869 73 1858 74 1849 75 1840 76 1830 76 1823 80 1832 86 1840 90 1847 89 1855 88 1863 86 1872 85 1881 83 1892 81 1898 81 1906 80 1916 78 1933 74 1942 73 1951 72 1960 72 1969 71 1978 70 1986 70 1995 70 2005 70 2014 70 2025 69 2031 69 2040 69 2048 69 2056 70 2057 69 2066 68 2069 63 2067 58 2063 53 2055 49 2048 47 2041 48 2033 49 2025 50 2016 52 2005 54 1995 55 1984 57 1974 58 1966 60 1959 61 1954 61 1946 63 1938 64" />
      <path d="M1914 200 L1967 198" style="fill:none; stroke-width:4; stroke:red;" />
      <circle style="fill:lime; stroke:none;" r="7" cx="1914" cy="200" />
    </g>
  </g>
</svg>
