<?xml version="1.0" encoding="UTF-8"?>

<!DOCTYPE svg PUBLIC '-//W3C//DTD SVG 1.0//EN' 'http://www.w3.org/TR/2001/REC-SVG-20010904/DTD/svg10.dtd'>
<svg style="fill-opacity:1; color-rendering:auto; color-interpolation:auto; stroke:black; text-rendering:auto; stroke-linecap:square; stroke-miterlimit:10; stroke-opacity:1; shape-rendering:auto; fill:black; stroke-dasharray:none; font-weight:normal; stroke-width:1; font-family:&apos;Dialog&apos;; font-style:normal; stroke-linejoin:miter; font-size:12; stroke-dashoffset:0; image-rendering:auto;" xmlns="http://www.w3.org/2000/svg" width="2104" xmlns:xlink="http://www.w3.org/1999/xlink" height="304">
  <!--Generated by the Batik Graphics2D SVG Generator-->
  <defs id="genericDefs" />
  <g>
    <g style="fill:rgb(128,128,255); stroke:rgb(128,128,255);">
      <rect x="2" y="2" width="300" style="fill:none;" height="300" />
      <line x1="2" x2="302" y1="2" style="fill:none;" y2="302" />
      <line x1="302" x2="2" y1="2" style="fill:none;" y2="302" />
      <line x1="152" x2="152" y1="2" style="fill:none;" y2="302" />
      <line x1="2" x2="302" y1="152" style="fill:none;" y2="152" />
      <polygon style="fill:black; stroke:none;" points=" 85 235 231 235 248 219 264 240 85 241" />
      <polygon style="fill:none; stroke:black;" points=" 85 235 231 235 248 219 264 240 85 241" />
      <polygon style="fill:black; stroke:none;" points=" 166 88 166 236 178 236 178 106 188 98 166 88" />
      <polygon style="fill:none; stroke:black;" points=" 166 88 166 236 178 236 178 106 188 98 166 88" />
      <polygon style="fill:black; stroke:none;" points=" 106 151 218 151 228 136 246 156 120 156 114 160 106 152" />
      <polygon style="fill:none; stroke:black;" points=" 106 151 218 151 228 136 246 156 120 156 114 160 106 152" />
      <polygon style="fill:black; stroke:none;" points=" 73 116 73 267 84 261 84 133 91 128 73 116" />
      <polygon style="fill:none; stroke:black;" points=" 73 116 73 267 84 261 84 133 91 128 73 116" />
      <polygon style="fill:black; stroke:none;" points=" 134 18 126 37 116 58 100 86 86 109 80 119 72 130 58 150 43 166 30 180 15 194 18 197 34 186 51 170 63 156 73 145 88 124 99 108 111 91 120 75 130 61 137 47 141 39 146 34 155 30 134 18" />
      <polygon style="fill:none; stroke:black;" points=" 134 18 126 37 116 58 100 86 86 109 80 119 72 130 58 150 43 166 30 180 15 194 18 197 34 186 51 170 63 156 73 145 88 124 99 108 111 91 120 75 130 61 137 47 141 39 146 34 155 30 134 18" />
      <polygon style="fill:black; stroke:none;" points=" 25 69 226 69 238 54 256 74 41 74 32 76 25 69" />
      <polygon style="fill:none; stroke:black;" points=" 25 69 226 69 238 54 256 74 41 74 32 76 25 69" />
      <rect x="302" y="2" width="300" style="fill:none;" height="300" />
      <line x1="302" x2="602" y1="2" style="fill:none;" y2="302" />
      <line x1="602" x2="302" y1="2" style="fill:none;" y2="302" />
      <line x1="452" x2="452" y1="2" style="fill:none;" y2="302" />
      <line x1="302" x2="602" y1="152" style="fill:none;" y2="152" />
      <polygon style="fill:silver; stroke:none;" points=" 385 235 531 235 548 219 564 240 385 241" />
      <polygon style="fill:none; stroke:silver;" points=" 385 235 531 235 548 219 564 240 385 241" />
      <polygon style="fill:silver; stroke:none;" points=" 466 88 466 236 478 236 478 106 488 98 466 88" />
      <polygon style="fill:none; stroke:silver;" points=" 466 88 466 236 478 236 478 106 488 98 466 88" />
      <polygon style="fill:silver; stroke:none;" points=" 406 151 518 151 528 136 546 156 420 156 414 160 406 152" />
      <polygon style="fill:none; stroke:silver;" points=" 406 151 518 151 528 136 546 156 420 156 414 160 406 152" />
      <polygon style="fill:silver; stroke:none;" points=" 373 116 373 267 384 261 384 133 391 128 373 116" />
      <polygon style="fill:none; stroke:silver;" points=" 373 116 373 267 384 261 384 133 391 128 373 116" />
      <polygon style="fill:silver; stroke:none;" points=" 434 18 426 37 416 58 400 86 386 109 380 119 372 130 358 150 343 166 330 180 315 194 318 197 334 186 351 170 363 156 373 145 388 124 399 108 411 91 420 75 430 61 437 47 441 39 446 34 455 30 434 18" />
      <polygon style="fill:none; stroke:silver;" points=" 434 18 426 37 416 58 400 86 386 109 380 119 372 130 358 150 343 166 330 180 315 194 318 197 334 186 351 170 363 156 373 145 388 124 399 108 411 91 420 75 430 61 437 47 441 39 446 34 455 30 434 18" />
      <polygon style="fill:rgb(64,64,64); stroke:none;" points=" 325 69 526 69 538 54 556 74 341 74 332 76 325 69" />
      <polygon style="fill:none; stroke:rgb(64,64,64);" points=" 325 69 526 69 538 54 556 74 341 74 332 76 325 69" />
      <path d="M325 69 L556 74" style="fill:none; stroke-width:4; stroke:red;" />
      <circle style="fill:lime; stroke:none;" r="7" cx="325" cy="69" />
      <rect x="602" y="2" width="300" style="fill:none;" height="300" />
      <line x1="602" x2="902" y1="2" style="fill:none;" y2="302" />
      <line x1="902" x2="602" y1="2" style="fill:none;" y2="302" />
      <line x1="752" x2="752" y1="2" style="fill:none;" y2="302" />
      <line x1="602" x2="902" y1="152" style="fill:none;" y2="152" />
      <polygon style="fill:silver; stroke:none;" points=" 685 235 831 235 848 219 864 240 685 241" />
      <polygon style="fill:none; stroke:silver;" points=" 685 235 831 235 848 219 864 240 685 241" />
      <polygon style="fill:silver; stroke:none;" points=" 766 88 766 236 778 236 778 106 788 98 766 88" />
      <polygon style="fill:none; stroke:silver;" points=" 766 88 766 236 778 236 778 106 788 98 766 88" />
      <polygon style="fill:silver; stroke:none;" points=" 706 151 818 151 828 136 846 156 720 156 714 160 706 152" />
      <polygon style="fill:none; stroke:silver;" points=" 706 151 818 151 828 136 846 156 720 156 714 160 706 152" />
      <polygon style="fill:silver; stroke:none;" points=" 673 116 673 267 684 261 684 133 691 128 673 116" />
      <polygon style="fill:none; stroke:silver;" points=" 673 116 673 267 684 261 684 133 691 128 673 116" />
      <polygon style="fill:rgb(64,64,64); stroke:none;" points=" 734 18 726 37 716 58 700 86 686 109 680 119 672 130 658 150 643 166 630 180 615 194 618 197 634 186 651 170 663 156 673 145 688 124 699 108 711 91 720 75 730 61 737 47 741 39 746 34 755 30 734 18" />
      <polygon style="fill:none; stroke:rgb(64,64,64);" points=" 734 18 726 37 716 58 700 86 686 109 680 119 672 130 658 150 643 166 630 180 615 194 618 197 634 186 651 170 663 156 673 145 688 124 699 108 711 91 720 75 730 61 737 47 741 39 746 34 755 30 734 18" />
      <polygon style="fill:rgb(64,64,64); stroke:none;" points=" 625 69 826 69 838 54 856 74 641 74 632 76 625 69" />
      <polygon style="fill:none; stroke:rgb(64,64,64);" points=" 625 69 826 69 838 54 856 74 641 74 632 76 625 69" />
      <path d="M755 30 L615 194" style="fill:none; stroke-width:4; stroke:red;" />
      <circle style="fill:lime; stroke:none;" r="7" cx="755" cy="30" />
      <rect x="902" y="2" width="300" style="fill:none;" height="300" />
      <line x1="902" x2="1202" y1="2" style="fill:none;" y2="302" />
      <line x1="1202" x2="902" y1="2" style="fill:none;" y2="302" />
      <line x1="1052" x2="1052" y1="2" style="fill:none;" y2="302" />
      <line x1="902" x2="1202" y1="152" style="fill:none;" y2="152" />
      <polygon style="fill:silver; stroke:none;" points=" 985 235 1131 235 1148 219 1164 240 985 241" />
      <polygon style="fill:none; stroke:silver;" points=" 985 235 1131 235 1148 219 1164 240 985 241" />
      <polygon style="fill:silver; stroke:none;" points=" 1066 88 1066 236 1078 236 1078 106 1088 98 1066 88" />
      <polygon style="fill:none; stroke:silver;" points=" 1066 88 1066 236 1078 236 1078 106 1088 98 1066 88" />
      <polygon style="fill:silver; stroke:none;" points=" 1006 151 1118 151 1128 136 1146 156 1020 156 1014 160 1006 152" />
      <polygon style="fill:none; stroke:silver;" points=" 1006 151 1118 151 1128 136 1146 156 1020 156 1014 160 1006 152" />
      <polygon style="fill:rgb(64,64,64); stroke:none;" points=" 973 116 973 267 984 261 984 133 991 128 973 116" />
      <polygon style="fill:none; stroke:rgb(64,64,64);" points=" 973 116 973 267 984 261 984 133 991 128 973 116" />
      <polygon style="fill:rgb(64,64,64); stroke:none;" points=" 1034 18 1026 37 1016 58 1000 86 986 109 980 119 972 130 958 150 943 166 930 180 915 194 918 197 934 186 951 170 963 156 973 145 988 124 999 108 1011 91 1020 75 1030 61 1037 47 1041 39 1046 34 1055 30 1034 18" />
      <polygon style="fill:none; stroke:rgb(64,64,64);" points=" 1034 18 1026 37 1016 58 1000 86 986 109 980 119 972 130 958 150 943 166 930 180 915 194 918 197 934 186 951 170 963 156 973 145 988 124 999 108 1011 91 1020 75 1030 61 1037 47 1041 39 1046 34 1055 30 1034 18" />
      <polygon style="fill:rgb(64,64,64); stroke:none;" points=" 925 69 1126 69 1138 54 1156 74 941 74 932 76 925 69" />
      <polygon style="fill:none; stroke:rgb(64,64,64);" points=" 925 69 1126 69 1138 54 1156 74 941 74 932 76 925 69" />
      <path d="M973 116 L973 267" style="fill:none; stroke-width:4; stroke:red;" />
      <circle style="fill:lime; stroke:none;" r="7" cx="973" cy="116" />
      <rect x="1202" y="2" width="300" style="fill:none;" height="300" />
      <line x1="1202" x2="1502" y1="2" style="fill:none;" y2="302" />
      <line x1="1502" x2="1202" y1="2" style="fill:none;" y2="302" />
      <line x1="1352" x2="1352" y1="2" style="fill:none;" y2="302" />
      <line x1="1202" x2="1502" y1="152" style="fill:none;" y2="152" />
      <polygon style="fill:silver; stroke:none;" points=" 1285 235 1431 235 1448 219 1464 240 1285 241" />
      <polygon style="fill:none; stroke:silver;" points=" 1285 235 1431 235 1448 219 1464 240 1285 241" />
      <polygon style="fill:silver; stroke:none;" points=" 1366 88 1366 236 1378 236 1378 106 1388 98 1366 88" />
      <polygon style="fill:none; stroke:silver;" points=" 1366 88 1366 236 1378 236 1378 106 1388 98 1366 88" />
      <polygon style="fill:rgb(64,64,64); stroke:none;" points=" 1306 151 1418 151 1428 136 1446 156 1320 156 1314 160 1306 152" />
      <polygon style="fill:none; stroke:rgb(64,64,64);" points=" 1306 151 1418 151 1428 136 1446 156 1320 156 1314 160 1306 152" />
      <polygon style="fill:rgb(64,64,64); stroke:none;" points=" 1273 116 1273 267 1284 261 1284 133 1291 128 1273 116" />
      <polygon style="fill:none; stroke:rgb(64,64,64);" points=" 1273 116 1273 267 1284 261 1284 133 1291 128 1273 116" />
      <polygon style="fill:rgb(64,64,64); stroke:none;" points=" 1334 18 1326 37 1316 58 1300 86 1286 109 1280 119 1272 130 1258 150 1243 166 1230 180 1215 194 1218 197 1234 186 1251 170 1263 156 1273 145 1288 124 1299 108 1311 91 1320 75 1330 61 1337 47 1341 39 1346 34 1355 30 1334 18" />
      <polygon style="fill:none; stroke:rgb(64,64,64);" points=" 1334 18 1326 37 1316 58 1300 86 1286 109 1280 119 1272 130 1258 150 1243 166 1230 180 1215 194 1218 197 1234 186 1251 170 1263 156 1273 145 1288 124 1299 108 1311 91 1320 75 1330 61 1337 47 1341 39 1346 34 1355 30 1334 18" />
      <polygon style="fill:rgb(64,64,64); stroke:none;" points=" 1225 69 1426 69 1438 54 1456 74 1241 74 1232 76 1225 69" />
      <polygon style="fill:none; stroke:rgb(64,64,64);" points=" 1225 69 1426 69 1438 54 1456 74 1241 74 1232 76 1225 69" />
      <path d="M1306 151 L1446 156" style="fill:none; stroke-width:4; stroke:red;" />
      <circle style="fill:lime; stroke:none;" r="7" cx="1306" cy="151" />
      <rect x="1502" y="2" width="300" style="fill:none;" height="300" />
      <line x1="1502" x2="1802" y1="2" style="fill:none;" y2="302" />
      <line x1="1802" x2="1502" y1="2" style="fill:none;" y2="302" />
      <line x1="1652" x2="1652" y1="2" style="fill:none;" y2="302" />
      <line x1="1502" x2="1802" y1="152" style="fill:none;" y2="152" />
      <polygon style="fill:silver; stroke:none;" points=" 1585 235 1731 235 1748 219 1764 240 1585 241" />
      <polygon style="fill:none; stroke:silver;" points=" 1585 235 1731 235 1748 219 1764 240 1585 241" />
      <polygon style="fill:rgb(64,64,64); stroke:none;" points=" 1666 88 1666 236 1678 236 1678 106 1688 98 1666 88" />
      <polygon style="fill:none; stroke:rgb(64,64,64);" points=" 1666 88 1666 236 1678 236 1678 106 1688 98 1666 88" />
      <polygon style="fill:rgb(64,64,64); stroke:none;" points=" 1606 151 1718 151 1728 136 1746 156 1620 156 1614 160 1606 152" />
      <polygon style="fill:none; stroke:rgb(64,64,64);" points=" 1606 151 1718 151 1728 136 1746 156 1620 156 1614 160 1606 152" />
      <polygon style="fill:rgb(64,64,64); stroke:none;" points=" 1573 116 1573 267 1584 261 1584 133 1591 128 1573 116" />
      <polygon style="fill:none; stroke:rgb(64,64,64);" points=" 1573 116 1573 267 1584 261 1584 133 1591 128 1573 116" />
      <polygon style="fill:rgb(64,64,64); stroke:none;" points=" 1634 18 1626 37 1616 58 1600 86 1586 109 1580 119 1572 130 1558 150 1543 166 1530 180 1515 194 1518 197 1534 186 1551 170 1563 156 1573 145 1588 124 1599 108 1611 91 1620 75 1630 61 1637 47 1641 39 1646 34 1655 30 1634 18" />
      <polygon style="fill:none; stroke:rgb(64,64,64);" points=" 1634 18 1626 37 1616 58 1600 86 1586 109 1580 119 1572 130 1558 150 1543 166 1530 180 1515 194 1518 197 1534 186 1551 170 1563 156 1573 145 1588 124 1599 108 1611 91 1620 75 1630 61 1637 47 1641 39 1646 34 1655 30 1634 18" />
      <polygon style="fill:rgb(64,64,64); stroke:none;" points=" 1525 69 1726 69 1738 54 1756 74 1541 74 1532 76 1525 69" />
      <polygon style="fill:none; stroke:rgb(64,64,64);" points=" 1525 69 1726 69 1738 54 1756 74 1541 74 1532 76 1525 69" />
      <path d="M1666 88 L1666 236" style="fill:none; stroke-width:4; stroke:red;" />
      <circle style="fill:lime; stroke:none;" r="7" cx="1666" cy="88" />
      <rect x="1802" y="2" width="300" style="fill:none;" height="300" />
      <line x1="1802" x2="2102" y1="2" style="fill:none;" y2="302" />
      <line x1="2102" x2="1802" y1="2" style="fill:none;" y2="302" />
      <line x1="1952" x2="1952" y1="2" style="fill:none;" y2="302" />
      <line x1="1802" x2="2102" y1="152" style="fill:none;" y2="152" />
      <polygon style="fill:rgb(64,64,64); stroke:none;" points=" 1885 235 2031 235 2048 219 2064 240 1885 241" />
      <polygon style="fill:none; stroke:rgb(64,64,64);" points=" 1885 235 2031 235 2048 219 2064 240 1885 241" />
      <polygon style="fill:rgb(64,64,64); stroke:none;" points=" 1966 88 1966 236 1978 236 1978 106 1988 98 1966 88" />
      <polygon style="fill:none; stroke:rgb(64,64,64);" points=" 1966 88 1966 236 1978 236 1978 106 1988 98 1966 88" />
      <polygon style="fill:rgb(64,64,64); stroke:none;" points=" 1906 151 2018 151 2028 136 2046 156 1920 156 1914 160 1906 152" />
      <polygon style="fill:none; stroke:rgb(64,64,64);" points=" 1906 151 2018 151 2028 136 2046 156 1920 156 1914 160 1906 152" />
      <polygon style="fill:rgb(64,64,64); stroke:none;" points=" 1873 116 1873 267 1884 261 1884 133 1891 128 1873 116" />
      <polygon style="fill:none; stroke:rgb(64,64,64);" points=" 1873 116 1873 267 1884 261 1884 133 1891 128 1873 116" />
      <polygon style="fill:rgb(64,64,64); stroke:none;" points=" 1934 18 1926 37 1916 58 1900 86 1886 109 1880 119 1872 130 1858 150 1843 166 1830 180 1815 194 1818 197 1834 186 1851 170 1863 156 1873 145 1888 124 1899 108 1911 91 1920 75 1930 61 1937 47 1941 39 1946 34 1955 30 1934 18" />
      <polygon style="fill:none; stroke:rgb(64,64,64);" points=" 1934 18 1926 37 1916 58 1900 86 1886 109 1880 119 1872 130 1858 150 1843 166 1830 180 1815 194 1818 197 1834 186 1851 170 1863 156 1873 145 1888 124 1899 108 1911 91 1920 75 1930 61 1937 47 1941 39 1946 34 1955 30 1934 18" />
      <polygon style="fill:rgb(64,64,64); stroke:none;" points=" 1825 69 2026 69 2038 54 2056 74 1841 74 1832 76 1825 69" />
      <polygon style="fill:none; stroke:rgb(64,64,64);" points=" 1825 69 2026 69 2038 54 2056 74 1841 74 1832 76 1825 69" />
      <path d="M1885 235 L2064 240" style="fill:none; stroke-width:4; stroke:red;" />
      <circle style="fill:lime; stroke:none;" r="7" cx="1885" cy="235" />
    </g>
  </g>
</svg>
