<?xml version="1.0" encoding="UTF-8"?>

<!DOCTYPE svg PUBLIC '-//W3C//DTD SVG 1.0//EN' 'http://www.w3.org/TR/2001/REC-SVG-20010904/DTD/svg10.dtd'>
<svg style="fill-opacity:1; color-rendering:auto; color-interpolation:auto; stroke:black; text-rendering:auto; stroke-linecap:square; stroke-miterlimit:10; stroke-opacity:1; shape-rendering:auto; fill:black; stroke-dasharray:none; font-weight:normal; stroke-width:1; font-family:&apos;Dialog&apos;; font-style:normal; stroke-linejoin:miter; font-size:12; stroke-dashoffset:0; image-rendering:auto;" xmlns="http://www.w3.org/2000/svg" width="904" xmlns:xlink="http://www.w3.org/1999/xlink" height="304">
  <!--Generated by the Batik Graphics2D SVG Generator-->
  <defs id="genericDefs" />
  <g>
    <g style="fill:rgb(128,128,255); stroke:rgb(128,128,255);">
      <rect x="2" y="2" width="300" style="fill:none;" height="300" />
      <line x1="2" x2="302" y1="2" style="fill:none;" y2="302" />
      <line x1="302" x2="2" y1="2" style="fill:none;" y2="302" />
      <line x1="152" x2="152" y1="2" style="fill:none;" y2="302" />
      <line x1="2" x2="302" y1="152" style="fill:none;" y2="152" />
      <polygon style="fill:black; stroke:none;" points=" 248 221 237 216 227 211 218 206 210 201 204 195 195 188 187 181 178 172 170 163 161 153 152 144 144 134 137 126 130 117 124 109 120 118 135 139 148 158 161 175 172 190 183 203 192 214 203 228 212 238 219 244 223 247 230 249 239 249 244 249 252 249 261 248 273 247 286 245 295 243 298 241 295 239 288 236 277 231 261 225" />
      <polygon style="fill:none; stroke:black;" points=" 248 221 237 216 227 211 218 206 210 201 204 195 195 188 187 181 178 172 170 163 161 153 152 144 144 134 137 126 130 117 124 109 120 118 135 139 148 158 161 175 172 190 183 203 192 214 203 228 212 238 219 244 223 247 230 249 239 249 244 249 252 249 261 248 273 247 286 245 295 243 298 241 295 239 288 236 277 231 261 225" />
      <polygon style="fill:black; stroke:none;" points=" 101 174 94 183 87 192 79 200 69 210 60 218 52 225 44 230 37 234 26 240 18 245 13 247 6 247 5 247 10 242 24 231 31 226 40 218 50 209 60 199 71 186 79 176 88 165 95 154 102 144 107 134 113 123 117 113 121 104 124 95 127 87 129 80 131 73 132 62 132 55 131 50 130 44 134 44 141 46 147 50 154 54 158 63 156 67 154 74 151 83 147 95 143 104 139 113 135 122 130 131 125 140 120 148 114 157 108 166" />
      <polygon style="fill:none; stroke:black;" points=" 101 174 94 183 87 192 79 200 69 210 60 218 52 225 44 230 37 234 26 240 18 245 13 247 6 247 5 247 10 242 24 231 31 226 40 218 50 209 60 199 71 186 79 176 88 165 95 154 102 144 107 134 113 123 117 113 121 104 124 95 127 87 129 80 131 73 132 62 132 55 131 50 130 44 134 44 141 46 147 50 154 54 158 63 156 67 154 74 151 83 147 95 143 104 139 113 135 122 130 131 125 140 120 148 114 157 108 166" />
      <rect x="302" y="2" width="300" style="fill:none;" height="300" />
      <line x1="302" x2="602" y1="2" style="fill:none;" y2="302" />
      <line x1="602" x2="302" y1="2" style="fill:none;" y2="302" />
      <line x1="452" x2="452" y1="2" style="fill:none;" y2="302" />
      <line x1="302" x2="602" y1="152" style="fill:none;" y2="152" />
      <polygon style="fill:silver; stroke:none;" points=" 548 221 537 216 527 211 518 206 510 201 504 195 495 188 487 181 478 172 470 163 461 153 452 144 444 134 437 126 430 117 424 109 420 118 435 139 448 158 461 175 472 190 483 203 492 214 503 228 512 238 519 244 523 247 530 249 539 249 544 249 552 249 561 248 573 247 586 245 595 243 598 241 595 239 588 236 577 231 561 225" />
      <polygon style="fill:none; stroke:silver;" points=" 548 221 537 216 527 211 518 206 510 201 504 195 495 188 487 181 478 172 470 163 461 153 452 144 444 134 437 126 430 117 424 109 420 118 435 139 448 158 461 175 472 190 483 203 492 214 503 228 512 238 519 244 523 247 530 249 539 249 544 249 552 249 561 248 573 247 586 245 595 243 598 241 595 239 588 236 577 231 561 225" />
      <polygon style="fill:rgb(64,64,64); stroke:none;" points=" 401 174 394 183 387 192 379 200 369 210 360 218 352 225 344 230 337 234 326 240 318 245 313 247 306 247 305 247 310 242 324 231 331 226 340 218 350 209 360 199 371 186 379 176 388 165 395 154 402 144 407 134 413 123 417 113 421 104 424 95 427 87 429 80 431 73 432 62 432 55 431 50 430 44 434 44 441 46 447 50 454 54 458 63 456 67 454 74 451 83 447 95 443 104 439 113 435 122 430 131 425 140 420 148 414 157 408 166" />
      <polygon style="fill:none; stroke:rgb(64,64,64);" points=" 401 174 394 183 387 192 379 200 369 210 360 218 352 225 344 230 337 234 326 240 318 245 313 247 306 247 305 247 310 242 324 231 331 226 340 218 350 209 360 199 371 186 379 176 388 165 395 154 402 144 407 134 413 123 417 113 421 104 424 95 427 87 429 80 431 73 432 62 432 55 431 50 430 44 434 44 441 46 447 50 454 54 458 63 456 67 454 74 451 83 447 95 443 104 439 113 435 122 430 131 425 140 420 148 414 157 408 166" />
      <path d="M454 54 L305 247" style="fill:none; stroke-width:4; stroke:red;" />
      <circle style="fill:lime; stroke:none;" r="7" cx="454" cy="54" />
      <rect x="602" y="2" width="300" style="fill:none;" height="300" />
      <line x1="602" x2="902" y1="2" style="fill:none;" y2="302" />
      <line x1="902" x2="602" y1="2" style="fill:none;" y2="302" />
      <line x1="752" x2="752" y1="2" style="fill:none;" y2="302" />
      <line x1="602" x2="902" y1="152" style="fill:none;" y2="152" />
      <polygon style="fill:rgb(64,64,64); stroke:none;" points=" 848 221 837 216 827 211 818 206 810 201 804 195 795 188 787 181 778 172 770 163 761 153 752 144 744 134 737 126 730 117 724 109 720 118 735 139 748 158 761 175 772 190 783 203 792 214 803 228 812 238 819 244 823 247 830 249 839 249 844 249 852 249 861 248 873 247 886 245 895 243 898 241 895 239 888 236 877 231 861 225" />
      <polygon style="fill:none; stroke:rgb(64,64,64);" points=" 848 221 837 216 827 211 818 206 810 201 804 195 795 188 787 181 778 172 770 163 761 153 752 144 744 134 737 126 730 117 724 109 720 118 735 139 748 158 761 175 772 190 783 203 792 214 803 228 812 238 819 244 823 247 830 249 839 249 844 249 852 249 861 248 873 247 886 245 895 243 898 241 895 239 888 236 877 231 861 225" />
      <polygon style="fill:rgb(64,64,64); stroke:none;" points=" 701 174 694 183 687 192 679 200 669 210 660 218 652 225 644 230 637 234 626 240 618 245 613 247 606 247 605 247 610 242 624 231 631 226 640 218 650 209 660 199 671 186 679 176 688 165 695 154 702 144 707 134 713 123 717 113 721 104 724 95 727 87 729 80 731 73 732 62 732 55 731 50 730 44 734 44 741 46 747 50 754 54 758 63 756 67 754 74 751 83 747 95 743 104 739 113 735 122 730 131 725 140 720 148 714 157 708 166" />
      <polygon style="fill:none; stroke:rgb(64,64,64);" points=" 701 174 694 183 687 192 679 200 669 210 660 218 652 225 644 230 637 234 626 240 618 245 613 247 606 247 605 247 610 242 624 231 631 226 640 218 650 209 660 199 671 186 679 176 688 165 695 154 702 144 707 134 713 123 717 113 721 104 724 95 727 87 729 80 731 73 732 62 732 55 731 50 730 44 734 44 741 46 747 50 754 54 758 63 756 67 754 74 751 83 747 95 743 104 739 113 735 122 730 131 725 140 720 148 714 157 708 166" />
      <path d="M724 109 L898 241" style="fill:none; stroke-width:4; stroke:red;" />
      <circle style="fill:lime; stroke:none;" r="7" cx="724" cy="109" />
    </g>
  </g>
</svg>
