<?xml version="1.0" encoding="UTF-8"?>

<!DOCTYPE svg PUBLIC '-//W3C//DTD SVG 1.0//EN' 'http://www.w3.org/TR/2001/REC-SVG-20010904/DTD/svg10.dtd'>
<svg style="fill-opacity:1; color-rendering:auto; color-interpolation:auto; stroke:black; text-rendering:auto; stroke-linecap:square; stroke-miterlimit:10; stroke-opacity:1; shape-rendering:auto; fill:black; stroke-dasharray:none; font-weight:normal; stroke-width:1; font-family:&apos;Dialog&apos;; font-style:normal; stroke-linejoin:miter; font-size:12; stroke-dashoffset:0; image-rendering:auto;" xmlns="http://www.w3.org/2000/svg" width="1504" xmlns:xlink="http://www.w3.org/1999/xlink" height="604">
  <!--Generated by the Batik Graphics2D SVG Generator-->
  <defs id="genericDefs" />
  <g>
    <g style="fill:rgb(128,128,255); stroke:rgb(128,128,255);">
      <rect x="2" y="2" width="300" style="fill:none;" height="300" />
      <line x1="2" x2="302" y1="2" style="fill:none;" y2="302" />
      <line x1="302" x2="2" y1="2" style="fill:none;" y2="302" />
      <line x1="152" x2="152" y1="2" style="fill:none;" y2="302" />
      <line x1="2" x2="302" y1="152" style="fill:none;" y2="152" />
      <polygon style="fill:black; stroke:none;" points=" 234 251 248 284 253 275 256 266 257 259 258 251 259 243 258 238 258 228 258 215 257 198 256 178 256 153 255 129 254 109 254 91 254 77 254 66 254 58 254 48 254 41 256 36 259 29 252 22 245 17 238 14 229 14 231 23 233 29 235 35 237 43 237 49 238 56 238 65 239 77 239 90 240 105 240 121 241 135 241 148 241 159 241 170 242 178 242 188 242 198 242 207 242 216 242 224 241 237 239 245 238 249" />
      <polygon style="fill:none; stroke:black;" points=" 234 251 248 284 253 275 256 266 257 259 258 251 259 243 258 238 258 228 258 215 257 198 256 178 256 153 255 129 254 109 254 91 254 77 254 66 254 58 254 48 254 41 256 36 259 29 252 22 245 17 238 14 229 14 231 23 233 29 235 35 237 43 237 49 238 56 238 65 239 77 239 90 240 105 240 121 241 135 241 148 241 159 241 170 242 178 242 188 242 198 242 207 242 216 242 224 241 237 239 245 238 249" />
      <polygon style="fill:black; stroke:none;" points=" 234 251 226 250 214 248 215 247 203 244 196 243 194 244 197 250 211 259 221 266 228 274 232 281 234 289 238 292 242 290 248 284 253 275" />
      <polygon style="fill:none; stroke:black;" points=" 234 251 226 250 214 248 215 247 203 244 196 243 194 244 197 250 211 259 221 266 228 274 232 281 234 289 238 292 242 290 248 284 253 275" />
      <polygon style="fill:black; stroke:none;" points=" 202 132 201 117 201 105 201 94 201 87 201 81 201 79 201 78 198 75 191 71 183 70 179 71 181 78 184 86 187 97 188 107 189 116 190 125 189 133 189 141 188 150 187 160 185 170 185 179 185 187 187 193 190 202 193 205 195 202 199 193 199 188 200 181 201 172 201 161 201 148" />
      <polygon style="fill:none; stroke:black;" points=" 202 132 201 117 201 105 201 94 201 87 201 81 201 79 201 78 198 75 191 71 183 70 179 71 181 78 184 86 187 97 188 107 189 116 190 125 189 133 189 141 188 150 187 160 185 170 185 179 185 187 187 193 190 202 193 205 195 202 199 193 199 188 200 181 201 172 201 161 201 148" />
      <polygon style="fill:black; stroke:none;" points=" 125 223 112 229 96 234 79 240 66 245 55 249 46 251 41 253 38 253 32 251 25 245 19 238 17 232 20 227 23 228 30 228 36 230 43 229 47 229 54 227 64 225 77 222 86 220 95 218 105 215 114 213 124 211 134 208 150 205 159 204 163 204 156 211 152 213 145 216 137 219" />
      <polygon style="fill:none; stroke:black;" points=" 125 223 112 229 96 234 79 240 66 245 55 249 46 251 41 253 38 253 32 251 25 245 19 238 17 232 20 227 23 228 30 228 36 230 43 229 47 229 54 227 64 225 77 222 86 220 95 218 105 215 114 213 124 211 134 208 150 205 159 204 163 204 156 211 152 213 145 216 137 219" />
      <polygon style="fill:black; stroke:none;" points=" 111 148 112 143 109 140 102 135 91 128 92 142 93 157 94 172 94 188 94 204 95 221 107 221 107 205 107 191 107 179 108 170 109 163 110 157" />
      <polygon style="fill:none; stroke:black;" points=" 111 148 112 143 109 140 102 135 91 128 92 142 93 157 94 172 94 188 94 204 95 221 107 221 107 205 107 191 107 179 108 170 109 163 110 157" />
      <polygon style="fill:black; stroke:none;" points=" 131 161 125 162 117 164 106 167 92 170 74 175 62 178 56 181 54 183 55 183 61 187 64 188 70 187 79 186 91 183 106 179 120 176 131 173 139 171 144 169 146 167 141 163 134 160" />
      <polygon style="fill:none; stroke:black;" points=" 131 161 125 162 117 164 106 167 92 170 74 175 62 178 56 181 54 183 55 183 61 187 64 188 70 187 79 186 91 183 106 179 120 176 131 173 139 171 144 169 146 167 141 163 134 160" />
      <polygon style="fill:black; stroke:none;" points=" 147 104 142 100 136 95 127 91 125 95 128 104 131 112 134 120 139 126 145 134 151 136 154 134 156 126 155 118 154 112" />
      <polygon style="fill:none; stroke:black;" points=" 147 104 142 100 136 95 127 91 125 95 128 104 131 112 134 120 139 126 145 134 151 136 154 134 156 126 155 118 154 112" />
      <polygon style="fill:black; stroke:none;" points=" 36 132 35 132 43 126 50 123 60 115 66 108 72 100 79 90 85 78 87 71 89 64 98 65 107 72 111 78 108 82 101 90 89 101 77 113 70 121" />
      <polygon style="fill:none; stroke:black;" points=" 36 132 35 132 43 126 50 123 60 115 66 108 72 100 79 90 85 78 87 71 89 64 98 65 107 72 111 78 108 82 101 90 89 101 77 113 70 121" />
      <polygon style="fill:black; stroke:none;" points=" 36 132 70 121 69 123 76 124 82 124 91 122 103 119 111 118 119 117 127 116 135 116 143 115 143 123 136 124 128 125 117 127 105 129 94 131 84 133 76 135 68 138 62 140 49 146 43 148 38 142 36 137" />
      <polygon style="fill:none; stroke:black;" points=" 36 132 70 121 69 123 76 124 82 124 91 122 103 119 111 118 119 117 127 116 135 116 143 115 143 123 136 124 128 125 117 127 105 129 94 131 84 133 76 135 68 138 62 140 49 146 43 148 38 142 36 137" />
      <polygon style="fill:black; stroke:none;" points=" 74 56 66 58 60 59 56 60 49 61 45 61 45 67 45 66 52 71 56 72 63 71 73 70 86 68 97 67 107 65 117 63 126 61 135 58 150 54 154 49 149 46 141 43 136 43 129 43 120 44 110 46 98 49 85 53" />
      <polygon style="fill:none; stroke:black;" points=" 74 56 66 58 60 59 56 60 49 61 45 61 45 67 45 66 52 71 56 72 63 71 73 70 86 68 97 67 107 65 117 63 126 61 135 58 150 54 154 49 149 46 141 43 136 43 129 43 120 44 110 46 98 49 85 53" />
      <rect x="302" y="2" width="300" style="fill:none;" height="300" />
      <line x1="302" x2="602" y1="2" style="fill:none;" y2="302" />
      <line x1="602" x2="302" y1="2" style="fill:none;" y2="302" />
      <line x1="452" x2="452" y1="2" style="fill:none;" y2="302" />
      <line x1="302" x2="602" y1="152" style="fill:none;" y2="152" />
      <polygon style="fill:silver; stroke:none;" points=" 534 251 548 284 553 275 556 266 557 259 558 251 559 243 558 238 558 228 558 215 557 198 556 178 556 153 555 129 554 109 554 91 554 77 554 66 554 58 554 48 554 41 556 36 559 29 552 22 545 17 538 14 529 14 531 23 533 29 535 35 537 43 537 49 538 56 538 65 539 77 539 90 540 105 540 121 541 135 541 148 541 159 541 170 542 178 542 188 542 198 542 207 542 216 542 224 541 237 539 245 538 249" />
      <polygon style="fill:none; stroke:silver;" points=" 534 251 548 284 553 275 556 266 557 259 558 251 559 243 558 238 558 228 558 215 557 198 556 178 556 153 555 129 554 109 554 91 554 77 554 66 554 58 554 48 554 41 556 36 559 29 552 22 545 17 538 14 529 14 531 23 533 29 535 35 537 43 537 49 538 56 538 65 539 77 539 90 540 105 540 121 541 135 541 148 541 159 541 170 542 178 542 188 542 198 542 207 542 216 542 224 541 237 539 245 538 249" />
      <polygon style="fill:silver; stroke:none;" points=" 534 251 526 250 514 248 515 247 503 244 496 243 494 244 497 250 511 259 521 266 528 274 532 281 534 289 538 292 542 290 548 284 553 275" />
      <polygon style="fill:none; stroke:silver;" points=" 534 251 526 250 514 248 515 247 503 244 496 243 494 244 497 250 511 259 521 266 528 274 532 281 534 289 538 292 542 290 548 284 553 275" />
      <polygon style="fill:silver; stroke:none;" points=" 502 132 501 117 501 105 501 94 501 87 501 81 501 79 501 78 498 75 491 71 483 70 479 71 481 78 484 86 487 97 488 107 489 116 490 125 489 133 489 141 488 150 487 160 485 170 485 179 485 187 487 193 490 202 493 205 495 202 499 193 499 188 500 181 501 172 501 161 501 148" />
      <polygon style="fill:none; stroke:silver;" points=" 502 132 501 117 501 105 501 94 501 87 501 81 501 79 501 78 498 75 491 71 483 70 479 71 481 78 484 86 487 97 488 107 489 116 490 125 489 133 489 141 488 150 487 160 485 170 485 179 485 187 487 193 490 202 493 205 495 202 499 193 499 188 500 181 501 172 501 161 501 148" />
      <polygon style="fill:silver; stroke:none;" points=" 425 223 412 229 396 234 379 240 366 245 355 249 346 251 341 253 338 253 332 251 325 245 319 238 317 232 320 227 323 228 330 228 336 230 343 229 347 229 354 227 364 225 377 222 386 220 395 218 405 215 414 213 424 211 434 208 450 205 459 204 463 204 456 211 452 213 445 216 437 219" />
      <polygon style="fill:none; stroke:silver;" points=" 425 223 412 229 396 234 379 240 366 245 355 249 346 251 341 253 338 253 332 251 325 245 319 238 317 232 320 227 323 228 330 228 336 230 343 229 347 229 354 227 364 225 377 222 386 220 395 218 405 215 414 213 424 211 434 208 450 205 459 204 463 204 456 211 452 213 445 216 437 219" />
      <polygon style="fill:silver; stroke:none;" points=" 411 148 412 143 409 140 402 135 391 128 392 142 393 157 394 172 394 188 394 204 395 221 407 221 407 205 407 191 407 179 408 170 409 163 410 157" />
      <polygon style="fill:none; stroke:silver;" points=" 411 148 412 143 409 140 402 135 391 128 392 142 393 157 394 172 394 188 394 204 395 221 407 221 407 205 407 191 407 179 408 170 409 163 410 157" />
      <polygon style="fill:silver; stroke:none;" points=" 431 161 425 162 417 164 406 167 392 170 374 175 362 178 356 181 354 183 355 183 361 187 364 188 370 187 379 186 391 183 406 179 420 176 431 173 439 171 444 169 446 167 441 163 434 160" />
      <polygon style="fill:none; stroke:silver;" points=" 431 161 425 162 417 164 406 167 392 170 374 175 362 178 356 181 354 183 355 183 361 187 364 188 370 187 379 186 391 183 406 179 420 176 431 173 439 171 444 169 446 167 441 163 434 160" />
      <polygon style="fill:silver; stroke:none;" points=" 447 104 442 100 436 95 427 91 425 95 428 104 431 112 434 120 439 126 445 134 451 136 454 134 456 126 455 118 454 112" />
      <polygon style="fill:none; stroke:silver;" points=" 447 104 442 100 436 95 427 91 425 95 428 104 431 112 434 120 439 126 445 134 451 136 454 134 456 126 455 118 454 112" />
      <polygon style="fill:silver; stroke:none;" points=" 336 132 335 132 343 126 350 123 360 115 366 108 372 100 379 90 385 78 387 71 389 64 398 65 407 72 411 78 408 82 401 90 389 101 377 113 370 121" />
      <polygon style="fill:none; stroke:silver;" points=" 336 132 335 132 343 126 350 123 360 115 366 108 372 100 379 90 385 78 387 71 389 64 398 65 407 72 411 78 408 82 401 90 389 101 377 113 370 121" />
      <polygon style="fill:silver; stroke:none;" points=" 336 132 370 121 369 123 376 124 382 124 391 122 403 119 411 118 419 117 427 116 435 116 443 115 443 123 436 124 428 125 417 127 405 129 394 131 384 133 376 135 368 138 362 140 349 146 343 148 338 142 336 137" />
      <polygon style="fill:none; stroke:silver;" points=" 336 132 370 121 369 123 376 124 382 124 391 122 403 119 411 118 419 117 427 116 435 116 443 115 443 123 436 124 428 125 417 127 405 129 394 131 384 133 376 135 368 138 362 140 349 146 343 148 338 142 336 137" />
      <polygon style="fill:rgb(64,64,64); stroke:none;" points=" 374 56 366 58 360 59 356 60 349 61 345 61 345 67 345 66 352 71 356 72 363 71 373 70 386 68 397 67 407 65 417 63 426 61 435 58 450 54 454 49 449 46 441 43 436 43 429 43 420 44 410 46 398 49 385 53" />
      <polygon style="fill:none; stroke:rgb(64,64,64);" points=" 374 56 366 58 360 59 356 60 349 61 345 61 345 67 345 66 352 71 356 72 363 71 373 70 386 68 397 67 407 65 417 63 426 61 435 58 450 54 454 49 449 46 441 43 436 43 429 43 420 44 410 46 398 49 385 53" />
      <path d="M345 61 L454 49" style="fill:none; stroke-width:4; stroke:red;" />
      <circle style="fill:lime; stroke:none;" r="7" cx="345" cy="61" />
      <rect x="602" y="2" width="300" style="fill:none;" height="300" />
      <line x1="602" x2="902" y1="2" style="fill:none;" y2="302" />
      <line x1="902" x2="602" y1="2" style="fill:none;" y2="302" />
      <line x1="752" x2="752" y1="2" style="fill:none;" y2="302" />
      <line x1="602" x2="902" y1="152" style="fill:none;" y2="152" />
      <polygon style="fill:silver; stroke:none;" points=" 834 251 848 284 853 275 856 266 857 259 858 251 859 243 858 238 858 228 858 215 857 198 856 178 856 153 855 129 854 109 854 91 854 77 854 66 854 58 854 48 854 41 856 36 859 29 852 22 845 17 838 14 829 14 831 23 833 29 835 35 837 43 837 49 838 56 838 65 839 77 839 90 840 105 840 121 841 135 841 148 841 159 841 170 842 178 842 188 842 198 842 207 842 216 842 224 841 237 839 245 838 249" />
      <polygon style="fill:none; stroke:silver;" points=" 834 251 848 284 853 275 856 266 857 259 858 251 859 243 858 238 858 228 858 215 857 198 856 178 856 153 855 129 854 109 854 91 854 77 854 66 854 58 854 48 854 41 856 36 859 29 852 22 845 17 838 14 829 14 831 23 833 29 835 35 837 43 837 49 838 56 838 65 839 77 839 90 840 105 840 121 841 135 841 148 841 159 841 170 842 178 842 188 842 198 842 207 842 216 842 224 841 237 839 245 838 249" />
      <polygon style="fill:silver; stroke:none;" points=" 834 251 826 250 814 248 815 247 803 244 796 243 794 244 797 250 811 259 821 266 828 274 832 281 834 289 838 292 842 290 848 284 853 275" />
      <polygon style="fill:none; stroke:silver;" points=" 834 251 826 250 814 248 815 247 803 244 796 243 794 244 797 250 811 259 821 266 828 274 832 281 834 289 838 292 842 290 848 284 853 275" />
      <polygon style="fill:silver; stroke:none;" points=" 802 132 801 117 801 105 801 94 801 87 801 81 801 79 801 78 798 75 791 71 783 70 779 71 781 78 784 86 787 97 788 107 789 116 790 125 789 133 789 141 788 150 787 160 785 170 785 179 785 187 787 193 790 202 793 205 795 202 799 193 799 188 800 181 801 172 801 161 801 148" />
      <polygon style="fill:none; stroke:silver;" points=" 802 132 801 117 801 105 801 94 801 87 801 81 801 79 801 78 798 75 791 71 783 70 779 71 781 78 784 86 787 97 788 107 789 116 790 125 789 133 789 141 788 150 787 160 785 170 785 179 785 187 787 193 790 202 793 205 795 202 799 193 799 188 800 181 801 172 801 161 801 148" />
      <polygon style="fill:silver; stroke:none;" points=" 725 223 712 229 696 234 679 240 666 245 655 249 646 251 641 253 638 253 632 251 625 245 619 238 617 232 620 227 623 228 630 228 636 230 643 229 647 229 654 227 664 225 677 222 686 220 695 218 705 215 714 213 724 211 734 208 750 205 759 204 763 204 756 211 752 213 745 216 737 219" />
      <polygon style="fill:none; stroke:silver;" points=" 725 223 712 229 696 234 679 240 666 245 655 249 646 251 641 253 638 253 632 251 625 245 619 238 617 232 620 227 623 228 630 228 636 230 643 229 647 229 654 227 664 225 677 222 686 220 695 218 705 215 714 213 724 211 734 208 750 205 759 204 763 204 756 211 752 213 745 216 737 219" />
      <polygon style="fill:silver; stroke:none;" points=" 711 148 712 143 709 140 702 135 691 128 692 142 693 157 694 172 694 188 694 204 695 221 707 221 707 205 707 191 707 179 708 170 709 163 710 157" />
      <polygon style="fill:none; stroke:silver;" points=" 711 148 712 143 709 140 702 135 691 128 692 142 693 157 694 172 694 188 694 204 695 221 707 221 707 205 707 191 707 179 708 170 709 163 710 157" />
      <polygon style="fill:silver; stroke:none;" points=" 731 161 725 162 717 164 706 167 692 170 674 175 662 178 656 181 654 183 655 183 661 187 664 188 670 187 679 186 691 183 706 179 720 176 731 173 739 171 744 169 746 167 741 163 734 160" />
      <polygon style="fill:none; stroke:silver;" points=" 731 161 725 162 717 164 706 167 692 170 674 175 662 178 656 181 654 183 655 183 661 187 664 188 670 187 679 186 691 183 706 179 720 176 731 173 739 171 744 169 746 167 741 163 734 160" />
      <polygon style="fill:silver; stroke:none;" points=" 747 104 742 100 736 95 727 91 725 95 728 104 731 112 734 120 739 126 745 134 751 136 754 134 756 126 755 118 754 112" />
      <polygon style="fill:none; stroke:silver;" points=" 747 104 742 100 736 95 727 91 725 95 728 104 731 112 734 120 739 126 745 134 751 136 754 134 756 126 755 118 754 112" />
      <polygon style="fill:rgb(64,64,64); stroke:none;" points=" 636 132 635 132 643 126 650 123 660 115 666 108 672 100 679 90 685 78 687 71 689 64 698 65 707 72 711 78 708 82 701 90 689 101 677 113 670 121" />
      <polygon style="fill:none; stroke:rgb(64,64,64);" points=" 636 132 635 132 643 126 650 123 660 115 666 108 672 100 679 90 685 78 687 71 689 64 698 65 707 72 711 78 708 82 701 90 689 101 677 113 670 121" />
      <polygon style="fill:rgb(64,64,64); stroke:none;" points=" 636 132 670 121 669 123 676 124 682 124 691 122 703 119 711 118 719 117 727 116 735 116 743 115 743 123 736 124 728 125 717 127 705 129 694 131 684 133 676 135 668 138 662 140 649 146 643 148 638 142 636 137" />
      <polygon style="fill:none; stroke:rgb(64,64,64);" points=" 636 132 670 121 669 123 676 124 682 124 691 122 703 119 711 118 719 117 727 116 735 116 743 115 743 123 736 124 728 125 717 127 705 129 694 131 684 133 676 135 668 138 662 140 649 146 643 148 638 142 636 137" />
      <polygon style="fill:rgb(64,64,64); stroke:none;" points=" 674 56 666 58 660 59 656 60 649 61 645 61 645 67 645 66 652 71 656 72 663 71 673 70 686 68 697 67 707 65 717 63 726 61 735 58 750 54 754 49 749 46 741 43 736 43 729 43 720 44 710 46 698 49 685 53" />
      <polygon style="fill:none; stroke:rgb(64,64,64);" points=" 674 56 666 58 660 59 656 60 649 61 645 61 645 67 645 66 652 71 656 72 663 71 673 70 686 68 697 67 707 65 717 63 726 61 735 58 750 54 754 49 749 46 741 43 736 43 729 43 720 44 710 46 698 49 685 53" />
      <path d="M707 72 L635 132 L743 115" style="fill:none; stroke-width:4; stroke:red;" />
      <circle style="fill:lime; stroke:none;" r="7" cx="707" cy="72" />
      <rect x="902" y="2" width="300" style="fill:none;" height="300" />
      <line x1="902" x2="1202" y1="2" style="fill:none;" y2="302" />
      <line x1="1202" x2="902" y1="2" style="fill:none;" y2="302" />
      <line x1="1052" x2="1052" y1="2" style="fill:none;" y2="302" />
      <line x1="902" x2="1202" y1="152" style="fill:none;" y2="152" />
      <polygon style="fill:silver; stroke:none;" points=" 1134 251 1148 284 1153 275 1156 266 1157 259 1158 251 1159 243 1158 238 1158 228 1158 215 1157 198 1156 178 1156 153 1155 129 1154 109 1154 91 1154 77 1154 66 1154 58 1154 48 1154 41 1156 36 1159 29 1152 22 1145 17 1138 14 1129 14 1131 23 1133 29 1135 35 1137 43 1137 49 1138 56 1138 65 1139 77 1139 90 1140 105 1140 121 1141 135 1141 148 1141 159 1141 170 1142 178 1142 188 1142 198 1142 207 1142 216 1142 224 1141 237 1139 245 1138 249" />
      <polygon style="fill:none; stroke:silver;" points=" 1134 251 1148 284 1153 275 1156 266 1157 259 1158 251 1159 243 1158 238 1158 228 1158 215 1157 198 1156 178 1156 153 1155 129 1154 109 1154 91 1154 77 1154 66 1154 58 1154 48 1154 41 1156 36 1159 29 1152 22 1145 17 1138 14 1129 14 1131 23 1133 29 1135 35 1137 43 1137 49 1138 56 1138 65 1139 77 1139 90 1140 105 1140 121 1141 135 1141 148 1141 159 1141 170 1142 178 1142 188 1142 198 1142 207 1142 216 1142 224 1141 237 1139 245 1138 249" />
      <polygon style="fill:silver; stroke:none;" points=" 1134 251 1126 250 1114 248 1115 247 1103 244 1096 243 1094 244 1097 250 1111 259 1121 266 1128 274 1132 281 1134 289 1138 292 1142 290 1148 284 1153 275" />
      <polygon style="fill:none; stroke:silver;" points=" 1134 251 1126 250 1114 248 1115 247 1103 244 1096 243 1094 244 1097 250 1111 259 1121 266 1128 274 1132 281 1134 289 1138 292 1142 290 1148 284 1153 275" />
      <polygon style="fill:silver; stroke:none;" points=" 1102 132 1101 117 1101 105 1101 94 1101 87 1101 81 1101 79 1101 78 1098 75 1091 71 1083 70 1079 71 1081 78 1084 86 1087 97 1088 107 1089 116 1090 125 1089 133 1089 141 1088 150 1087 160 1085 170 1085 179 1085 187 1087 193 1090 202 1093 205 1095 202 1099 193 1099 188 1100 181 1101 172 1101 161 1101 148" />
      <polygon style="fill:none; stroke:silver;" points=" 1102 132 1101 117 1101 105 1101 94 1101 87 1101 81 1101 79 1101 78 1098 75 1091 71 1083 70 1079 71 1081 78 1084 86 1087 97 1088 107 1089 116 1090 125 1089 133 1089 141 1088 150 1087 160 1085 170 1085 179 1085 187 1087 193 1090 202 1093 205 1095 202 1099 193 1099 188 1100 181 1101 172 1101 161 1101 148" />
      <polygon style="fill:silver; stroke:none;" points=" 1025 223 1012 229 996 234 979 240 966 245 955 249 946 251 941 253 938 253 932 251 925 245 919 238 917 232 920 227 923 228 930 228 936 230 943 229 947 229 954 227 964 225 977 222 986 220 995 218 1005 215 1014 213 1024 211 1034 208 1050 205 1059 204 1063 204 1056 211 1052 213 1045 216 1037 219" />
      <polygon style="fill:none; stroke:silver;" points=" 1025 223 1012 229 996 234 979 240 966 245 955 249 946 251 941 253 938 253 932 251 925 245 919 238 917 232 920 227 923 228 930 228 936 230 943 229 947 229 954 227 964 225 977 222 986 220 995 218 1005 215 1014 213 1024 211 1034 208 1050 205 1059 204 1063 204 1056 211 1052 213 1045 216 1037 219" />
      <polygon style="fill:silver; stroke:none;" points=" 1011 148 1012 143 1009 140 1002 135 991 128 992 142 993 157 994 172 994 188 994 204 995 221 1007 221 1007 205 1007 191 1007 179 1008 170 1009 163 1010 157" />
      <polygon style="fill:none; stroke:silver;" points=" 1011 148 1012 143 1009 140 1002 135 991 128 992 142 993 157 994 172 994 188 994 204 995 221 1007 221 1007 205 1007 191 1007 179 1008 170 1009 163 1010 157" />
      <polygon style="fill:silver; stroke:none;" points=" 1031 161 1025 162 1017 164 1006 167 992 170 974 175 962 178 956 181 954 183 955 183 961 187 964 188 970 187 979 186 991 183 1006 179 1020 176 1031 173 1039 171 1044 169 1046 167 1041 163 1034 160" />
      <polygon style="fill:none; stroke:silver;" points=" 1031 161 1025 162 1017 164 1006 167 992 170 974 175 962 178 956 181 954 183 955 183 961 187 964 188 970 187 979 186 991 183 1006 179 1020 176 1031 173 1039 171 1044 169 1046 167 1041 163 1034 160" />
      <polygon style="fill:rgb(64,64,64); stroke:none;" points=" 1047 104 1042 100 1036 95 1027 91 1025 95 1028 104 1031 112 1034 120 1039 126 1045 134 1051 136 1054 134 1056 126 1055 118 1054 112" />
      <polygon style="fill:none; stroke:rgb(64,64,64);" points=" 1047 104 1042 100 1036 95 1027 91 1025 95 1028 104 1031 112 1034 120 1039 126 1045 134 1051 136 1054 134 1056 126 1055 118 1054 112" />
      <polygon style="fill:rgb(64,64,64); stroke:none;" points=" 936 132 935 132 943 126 950 123 960 115 966 108 972 100 979 90 985 78 987 71 989 64 998 65 1007 72 1011 78 1008 82 1001 90 989 101 977 113 970 121" />
      <polygon style="fill:none; stroke:rgb(64,64,64);" points=" 936 132 935 132 943 126 950 123 960 115 966 108 972 100 979 90 985 78 987 71 989 64 998 65 1007 72 1011 78 1008 82 1001 90 989 101 977 113 970 121" />
      <polygon style="fill:rgb(64,64,64); stroke:none;" points=" 936 132 970 121 969 123 976 124 982 124 991 122 1003 119 1011 118 1019 117 1027 116 1035 116 1043 115 1043 123 1036 124 1028 125 1017 127 1005 129 994 131 984 133 976 135 968 138 962 140 949 146 943 148 938 142 936 137" />
      <polygon style="fill:none; stroke:rgb(64,64,64);" points=" 936 132 970 121 969 123 976 124 982 124 991 122 1003 119 1011 118 1019 117 1027 116 1035 116 1043 115 1043 123 1036 124 1028 125 1017 127 1005 129 994 131 984 133 976 135 968 138 962 140 949 146 943 148 938 142 936 137" />
      <polygon style="fill:rgb(64,64,64); stroke:none;" points=" 974 56 966 58 960 59 956 60 949 61 945 61 945 67 945 66 952 71 956 72 963 71 973 70 986 68 997 67 1007 65 1017 63 1026 61 1035 58 1050 54 1054 49 1049 46 1041 43 1036 43 1029 43 1020 44 1010 46 998 49 985 53" />
      <polygon style="fill:none; stroke:rgb(64,64,64);" points=" 974 56 966 58 960 59 956 60 949 61 945 61 945 67 945 66 952 71 956 72 963 71 973 70 986 68 997 67 1007 65 1017 63 1026 61 1035 58 1050 54 1054 49 1049 46 1041 43 1036 43 1029 43 1020 44 1010 46 998 49 985 53" />
      <path d="M1027 91 L1054 134" style="fill:none; stroke-width:4; stroke:red;" />
      <circle style="fill:lime; stroke:none;" r="7" cx="1027" cy="91" />
      <rect x="1202" y="2" width="300" style="fill:none;" height="300" />
      <line x1="1202" x2="1502" y1="2" style="fill:none;" y2="302" />
      <line x1="1502" x2="1202" y1="2" style="fill:none;" y2="302" />
      <line x1="1352" x2="1352" y1="2" style="fill:none;" y2="302" />
      <line x1="1202" x2="1502" y1="152" style="fill:none;" y2="152" />
      <polygon style="fill:silver; stroke:none;" points=" 1434 251 1448 284 1453 275 1456 266 1457 259 1458 251 1459 243 1458 238 1458 228 1458 215 1457 198 1456 178 1456 153 1455 129 1454 109 1454 91 1454 77 1454 66 1454 58 1454 48 1454 41 1456 36 1459 29 1452 22 1445 17 1438 14 1429 14 1431 23 1433 29 1435 35 1437 43 1437 49 1438 56 1438 65 1439 77 1439 90 1440 105 1440 121 1441 135 1441 148 1441 159 1441 170 1442 178 1442 188 1442 198 1442 207 1442 216 1442 224 1441 237 1439 245 1438 249" />
      <polygon style="fill:none; stroke:silver;" points=" 1434 251 1448 284 1453 275 1456 266 1457 259 1458 251 1459 243 1458 238 1458 228 1458 215 1457 198 1456 178 1456 153 1455 129 1454 109 1454 91 1454 77 1454 66 1454 58 1454 48 1454 41 1456 36 1459 29 1452 22 1445 17 1438 14 1429 14 1431 23 1433 29 1435 35 1437 43 1437 49 1438 56 1438 65 1439 77 1439 90 1440 105 1440 121 1441 135 1441 148 1441 159 1441 170 1442 178 1442 188 1442 198 1442 207 1442 216 1442 224 1441 237 1439 245 1438 249" />
      <polygon style="fill:silver; stroke:none;" points=" 1434 251 1426 250 1414 248 1415 247 1403 244 1396 243 1394 244 1397 250 1411 259 1421 266 1428 274 1432 281 1434 289 1438 292 1442 290 1448 284 1453 275" />
      <polygon style="fill:none; stroke:silver;" points=" 1434 251 1426 250 1414 248 1415 247 1403 244 1396 243 1394 244 1397 250 1411 259 1421 266 1428 274 1432 281 1434 289 1438 292 1442 290 1448 284 1453 275" />
      <polygon style="fill:silver; stroke:none;" points=" 1402 132 1401 117 1401 105 1401 94 1401 87 1401 81 1401 79 1401 78 1398 75 1391 71 1383 70 1379 71 1381 78 1384 86 1387 97 1388 107 1389 116 1390 125 1389 133 1389 141 1388 150 1387 160 1385 170 1385 179 1385 187 1387 193 1390 202 1393 205 1395 202 1399 193 1399 188 1400 181 1401 172 1401 161 1401 148" />
      <polygon style="fill:none; stroke:silver;" points=" 1402 132 1401 117 1401 105 1401 94 1401 87 1401 81 1401 79 1401 78 1398 75 1391 71 1383 70 1379 71 1381 78 1384 86 1387 97 1388 107 1389 116 1390 125 1389 133 1389 141 1388 150 1387 160 1385 170 1385 179 1385 187 1387 193 1390 202 1393 205 1395 202 1399 193 1399 188 1400 181 1401 172 1401 161 1401 148" />
      <polygon style="fill:silver; stroke:none;" points=" 1325 223 1312 229 1296 234 1279 240 1266 245 1255 249 1246 251 1241 253 1238 253 1232 251 1225 245 1219 238 1217 232 1220 227 1223 228 1230 228 1236 230 1243 229 1247 229 1254 227 1264 225 1277 222 1286 220 1295 218 1305 215 1314 213 1324 211 1334 208 1350 205 1359 204 1363 204 1356 211 1352 213 1345 216 1337 219" />
      <polygon style="fill:none; stroke:silver;" points=" 1325 223 1312 229 1296 234 1279 240 1266 245 1255 249 1246 251 1241 253 1238 253 1232 251 1225 245 1219 238 1217 232 1220 227 1223 228 1230 228 1236 230 1243 229 1247 229 1254 227 1264 225 1277 222 1286 220 1295 218 1305 215 1314 213 1324 211 1334 208 1350 205 1359 204 1363 204 1356 211 1352 213 1345 216 1337 219" />
      <polygon style="fill:silver; stroke:none;" points=" 1311 148 1312 143 1309 140 1302 135 1291 128 1292 142 1293 157 1294 172 1294 188 1294 204 1295 221 1307 221 1307 205 1307 191 1307 179 1308 170 1309 163 1310 157" />
      <polygon style="fill:none; stroke:silver;" points=" 1311 148 1312 143 1309 140 1302 135 1291 128 1292 142 1293 157 1294 172 1294 188 1294 204 1295 221 1307 221 1307 205 1307 191 1307 179 1308 170 1309 163 1310 157" />
      <polygon style="fill:rgb(64,64,64); stroke:none;" points=" 1331 161 1325 162 1317 164 1306 167 1292 170 1274 175 1262 178 1256 181 1254 183 1255 183 1261 187 1264 188 1270 187 1279 186 1291 183 1306 179 1320 176 1331 173 1339 171 1344 169 1346 167 1341 163 1334 160" />
      <polygon style="fill:none; stroke:rgb(64,64,64);" points=" 1331 161 1325 162 1317 164 1306 167 1292 170 1274 175 1262 178 1256 181 1254 183 1255 183 1261 187 1264 188 1270 187 1279 186 1291 183 1306 179 1320 176 1331 173 1339 171 1344 169 1346 167 1341 163 1334 160" />
      <polygon style="fill:rgb(64,64,64); stroke:none;" points=" 1347 104 1342 100 1336 95 1327 91 1325 95 1328 104 1331 112 1334 120 1339 126 1345 134 1351 136 1354 134 1356 126 1355 118 1354 112" />
      <polygon style="fill:none; stroke:rgb(64,64,64);" points=" 1347 104 1342 100 1336 95 1327 91 1325 95 1328 104 1331 112 1334 120 1339 126 1345 134 1351 136 1354 134 1356 126 1355 118 1354 112" />
      <polygon style="fill:rgb(64,64,64); stroke:none;" points=" 1236 132 1235 132 1243 126 1250 123 1260 115 1266 108 1272 100 1279 90 1285 78 1287 71 1289 64 1298 65 1307 72 1311 78 1308 82 1301 90 1289 101 1277 113 1270 121" />
      <polygon style="fill:none; stroke:rgb(64,64,64);" points=" 1236 132 1235 132 1243 126 1250 123 1260 115 1266 108 1272 100 1279 90 1285 78 1287 71 1289 64 1298 65 1307 72 1311 78 1308 82 1301 90 1289 101 1277 113 1270 121" />
      <polygon style="fill:rgb(64,64,64); stroke:none;" points=" 1236 132 1270 121 1269 123 1276 124 1282 124 1291 122 1303 119 1311 118 1319 117 1327 116 1335 116 1343 115 1343 123 1336 124 1328 125 1317 127 1305 129 1294 131 1284 133 1276 135 1268 138 1262 140 1249 146 1243 148 1238 142 1236 137" />
      <polygon style="fill:none; stroke:rgb(64,64,64);" points=" 1236 132 1270 121 1269 123 1276 124 1282 124 1291 122 1303 119 1311 118 1319 117 1327 116 1335 116 1343 115 1343 123 1336 124 1328 125 1317 127 1305 129 1294 131 1284 133 1276 135 1268 138 1262 140 1249 146 1243 148 1238 142 1236 137" />
      <polygon style="fill:rgb(64,64,64); stroke:none;" points=" 1274 56 1266 58 1260 59 1256 60 1249 61 1245 61 1245 67 1245 66 1252 71 1256 72 1263 71 1273 70 1286 68 1297 67 1307 65 1317 63 1326 61 1335 58 1350 54 1354 49 1349 46 1341 43 1336 43 1329 43 1320 44 1310 46 1298 49 1285 53" />
      <polygon style="fill:none; stroke:rgb(64,64,64);" points=" 1274 56 1266 58 1260 59 1256 60 1249 61 1245 61 1245 67 1245 66 1252 71 1256 72 1263 71 1273 70 1286 68 1297 67 1307 65 1317 63 1326 61 1335 58 1350 54 1354 49 1349 46 1341 43 1336 43 1329 43 1320 44 1310 46 1298 49 1285 53" />
      <path d="M1254 183 L1346 167" style="fill:none; stroke-width:4; stroke:red;" />
      <circle style="fill:lime; stroke:none;" r="7" cx="1254" cy="183" />
      <rect x="2" y="302" width="300" style="fill:none;" height="300" />
      <line x1="2" x2="302" y1="302" style="fill:none;" y2="602" />
      <line x1="302" x2="2" y1="302" style="fill:none;" y2="602" />
      <line x1="152" x2="152" y1="302" style="fill:none;" y2="602" />
      <line x1="2" x2="302" y1="452" style="fill:none;" y2="452" />
      <polygon style="fill:silver; stroke:none;" points=" 234 551 248 584 253 575 256 566 257 559 258 551 259 543 258 538 258 528 258 515 257 498 256 478 256 453 255 429 254 409 254 391 254 377 254 366 254 358 254 348 254 341 256 336 259 329 252 322 245 317 238 314 229 314 231 323 233 329 235 335 237 343 237 349 238 356 238 365 239 377 239 390 240 405 240 421 241 435 241 448 241 459 241 470 242 478 242 488 242 498 242 507 242 516 242 524 241 537 239 545 238 549" />
      <polygon style="fill:none; stroke:silver;" points=" 234 551 248 584 253 575 256 566 257 559 258 551 259 543 258 538 258 528 258 515 257 498 256 478 256 453 255 429 254 409 254 391 254 377 254 366 254 358 254 348 254 341 256 336 259 329 252 322 245 317 238 314 229 314 231 323 233 329 235 335 237 343 237 349 238 356 238 365 239 377 239 390 240 405 240 421 241 435 241 448 241 459 241 470 242 478 242 488 242 498 242 507 242 516 242 524 241 537 239 545 238 549" />
      <polygon style="fill:silver; stroke:none;" points=" 234 551 226 550 214 548 215 547 203 544 196 543 194 544 197 550 211 559 221 566 228 574 232 581 234 589 238 592 242 590 248 584 253 575" />
      <polygon style="fill:none; stroke:silver;" points=" 234 551 226 550 214 548 215 547 203 544 196 543 194 544 197 550 211 559 221 566 228 574 232 581 234 589 238 592 242 590 248 584 253 575" />
      <polygon style="fill:silver; stroke:none;" points=" 202 432 201 417 201 405 201 394 201 387 201 381 201 379 201 378 198 375 191 371 183 370 179 371 181 378 184 386 187 397 188 407 189 416 190 425 189 433 189 441 188 450 187 460 185 470 185 479 185 487 187 493 190 502 193 505 195 502 199 493 199 488 200 481 201 472 201 461 201 448" />
      <polygon style="fill:none; stroke:silver;" points=" 202 432 201 417 201 405 201 394 201 387 201 381 201 379 201 378 198 375 191 371 183 370 179 371 181 378 184 386 187 397 188 407 189 416 190 425 189 433 189 441 188 450 187 460 185 470 185 479 185 487 187 493 190 502 193 505 195 502 199 493 199 488 200 481 201 472 201 461 201 448" />
      <polygon style="fill:silver; stroke:none;" points=" 125 523 112 529 96 534 79 540 66 545 55 549 46 551 41 553 38 553 32 551 25 545 19 538 17 532 20 527 23 528 30 528 36 530 43 529 47 529 54 527 64 525 77 522 86 520 95 518 105 515 114 513 124 511 134 508 150 505 159 504 163 504 156 511 152 513 145 516 137 519" />
      <polygon style="fill:none; stroke:silver;" points=" 125 523 112 529 96 534 79 540 66 545 55 549 46 551 41 553 38 553 32 551 25 545 19 538 17 532 20 527 23 528 30 528 36 530 43 529 47 529 54 527 64 525 77 522 86 520 95 518 105 515 114 513 124 511 134 508 150 505 159 504 163 504 156 511 152 513 145 516 137 519" />
      <polygon style="fill:rgb(64,64,64); stroke:none;" points=" 111 448 112 443 109 440 102 435 91 428 92 442 93 457 94 472 94 488 94 504 95 521 107 521 107 505 107 491 107 479 108 470 109 463 110 457" />
      <polygon style="fill:none; stroke:rgb(64,64,64);" points=" 111 448 112 443 109 440 102 435 91 428 92 442 93 457 94 472 94 488 94 504 95 521 107 521 107 505 107 491 107 479 108 470 109 463 110 457" />
      <polygon style="fill:rgb(64,64,64); stroke:none;" points=" 131 461 125 462 117 464 106 467 92 470 74 475 62 478 56 481 54 483 55 483 61 487 64 488 70 487 79 486 91 483 106 479 120 476 131 473 139 471 144 469 146 467 141 463 134 460" />
      <polygon style="fill:none; stroke:rgb(64,64,64);" points=" 131 461 125 462 117 464 106 467 92 470 74 475 62 478 56 481 54 483 55 483 61 487 64 488 70 487 79 486 91 483 106 479 120 476 131 473 139 471 144 469 146 467 141 463 134 460" />
      <polygon style="fill:rgb(64,64,64); stroke:none;" points=" 147 404 142 400 136 395 127 391 125 395 128 404 131 412 134 420 139 426 145 434 151 436 154 434 156 426 155 418 154 412" />
      <polygon style="fill:none; stroke:rgb(64,64,64);" points=" 147 404 142 400 136 395 127 391 125 395 128 404 131 412 134 420 139 426 145 434 151 436 154 434 156 426 155 418 154 412" />
      <polygon style="fill:rgb(64,64,64); stroke:none;" points=" 36 432 35 432 43 426 50 423 60 415 66 408 72 400 79 390 85 378 87 371 89 364 98 365 107 372 111 378 108 382 101 390 89 401 77 413 70 421" />
      <polygon style="fill:none; stroke:rgb(64,64,64);" points=" 36 432 35 432 43 426 50 423 60 415 66 408 72 400 79 390 85 378 87 371 89 364 98 365 107 372 111 378 108 382 101 390 89 401 77 413 70 421" />
      <polygon style="fill:rgb(64,64,64); stroke:none;" points=" 36 432 70 421 69 423 76 424 82 424 91 422 103 419 111 418 119 417 127 416 135 416 143 415 143 423 136 424 128 425 117 427 105 429 94 431 84 433 76 435 68 438 62 440 49 446 43 448 38 442 36 437" />
      <polygon style="fill:none; stroke:rgb(64,64,64);" points=" 36 432 70 421 69 423 76 424 82 424 91 422 103 419 111 418 119 417 127 416 135 416 143 415 143 423 136 424 128 425 117 427 105 429 94 431 84 433 76 435 68 438 62 440 49 446 43 448 38 442 36 437" />
      <polygon style="fill:rgb(64,64,64); stroke:none;" points=" 74 356 66 358 60 359 56 360 49 361 45 361 45 367 45 366 52 371 56 372 63 371 73 370 86 368 97 367 107 365 117 363 126 361 135 358 150 354 154 349 149 346 141 343 136 343 129 343 120 344 110 346 98 349 85 353" />
      <polygon style="fill:none; stroke:rgb(64,64,64);" points=" 74 356 66 358 60 359 56 360 49 361 45 361 45 367 45 366 52 371 56 372 63 371 73 370 86 368 97 367 107 365 117 363 126 361 135 358 150 354 154 349 149 346 141 343 136 343 129 343 120 344 110 346 98 349 85 353" />
      <path d="M91 428 L95 521" style="fill:none; stroke-width:4; stroke:red;" />
      <circle style="fill:lime; stroke:none;" r="7" cx="91" cy="428" />
      <rect x="302" y="302" width="300" style="fill:none;" height="300" />
      <line x1="302" x2="602" y1="302" style="fill:none;" y2="602" />
      <line x1="602" x2="302" y1="302" style="fill:none;" y2="602" />
      <line x1="452" x2="452" y1="302" style="fill:none;" y2="602" />
      <line x1="302" x2="602" y1="452" style="fill:none;" y2="452" />
      <polygon style="fill:silver; stroke:none;" points=" 534 551 548 584 553 575 556 566 557 559 558 551 559 543 558 538 558 528 558 515 557 498 556 478 556 453 555 429 554 409 554 391 554 377 554 366 554 358 554 348 554 341 556 336 559 329 552 322 545 317 538 314 529 314 531 323 533 329 535 335 537 343 537 349 538 356 538 365 539 377 539 390 540 405 540 421 541 435 541 448 541 459 541 470 542 478 542 488 542 498 542 507 542 516 542 524 541 537 539 545 538 549" />
      <polygon style="fill:none; stroke:silver;" points=" 534 551 548 584 553 575 556 566 557 559 558 551 559 543 558 538 558 528 558 515 557 498 556 478 556 453 555 429 554 409 554 391 554 377 554 366 554 358 554 348 554 341 556 336 559 329 552 322 545 317 538 314 529 314 531 323 533 329 535 335 537 343 537 349 538 356 538 365 539 377 539 390 540 405 540 421 541 435 541 448 541 459 541 470 542 478 542 488 542 498 542 507 542 516 542 524 541 537 539 545 538 549" />
      <polygon style="fill:silver; stroke:none;" points=" 534 551 526 550 514 548 515 547 503 544 496 543 494 544 497 550 511 559 521 566 528 574 532 581 534 589 538 592 542 590 548 584 553 575" />
      <polygon style="fill:none; stroke:silver;" points=" 534 551 526 550 514 548 515 547 503 544 496 543 494 544 497 550 511 559 521 566 528 574 532 581 534 589 538 592 542 590 548 584 553 575" />
      <polygon style="fill:silver; stroke:none;" points=" 502 432 501 417 501 405 501 394 501 387 501 381 501 379 501 378 498 375 491 371 483 370 479 371 481 378 484 386 487 397 488 407 489 416 490 425 489 433 489 441 488 450 487 460 485 470 485 479 485 487 487 493 490 502 493 505 495 502 499 493 499 488 500 481 501 472 501 461 501 448" />
      <polygon style="fill:none; stroke:silver;" points=" 502 432 501 417 501 405 501 394 501 387 501 381 501 379 501 378 498 375 491 371 483 370 479 371 481 378 484 386 487 397 488 407 489 416 490 425 489 433 489 441 488 450 487 460 485 470 485 479 485 487 487 493 490 502 493 505 495 502 499 493 499 488 500 481 501 472 501 461 501 448" />
      <polygon style="fill:rgb(64,64,64); stroke:none;" points=" 425 523 412 529 396 534 379 540 366 545 355 549 346 551 341 553 338 553 332 551 325 545 319 538 317 532 320 527 323 528 330 528 336 530 343 529 347 529 354 527 364 525 377 522 386 520 395 518 405 515 414 513 424 511 434 508 450 505 459 504 463 504 456 511 452 513 445 516 437 519" />
      <polygon style="fill:none; stroke:rgb(64,64,64);" points=" 425 523 412 529 396 534 379 540 366 545 355 549 346 551 341 553 338 553 332 551 325 545 319 538 317 532 320 527 323 528 330 528 336 530 343 529 347 529 354 527 364 525 377 522 386 520 395 518 405 515 414 513 424 511 434 508 450 505 459 504 463 504 456 511 452 513 445 516 437 519" />
      <polygon style="fill:rgb(64,64,64); stroke:none;" points=" 411 448 412 443 409 440 402 435 391 428 392 442 393 457 394 472 394 488 394 504 395 521 407 521 407 505 407 491 407 479 408 470 409 463 410 457" />
      <polygon style="fill:none; stroke:rgb(64,64,64);" points=" 411 448 412 443 409 440 402 435 391 428 392 442 393 457 394 472 394 488 394 504 395 521 407 521 407 505 407 491 407 479 408 470 409 463 410 457" />
      <polygon style="fill:rgb(64,64,64); stroke:none;" points=" 431 461 425 462 417 464 406 467 392 470 374 475 362 478 356 481 354 483 355 483 361 487 364 488 370 487 379 486 391 483 406 479 420 476 431 473 439 471 444 469 446 467 441 463 434 460" />
      <polygon style="fill:none; stroke:rgb(64,64,64);" points=" 431 461 425 462 417 464 406 467 392 470 374 475 362 478 356 481 354 483 355 483 361 487 364 488 370 487 379 486 391 483 406 479 420 476 431 473 439 471 444 469 446 467 441 463 434 460" />
      <polygon style="fill:rgb(64,64,64); stroke:none;" points=" 447 404 442 400 436 395 427 391 425 395 428 404 431 412 434 420 439 426 445 434 451 436 454 434 456 426 455 418 454 412" />
      <polygon style="fill:none; stroke:rgb(64,64,64);" points=" 447 404 442 400 436 395 427 391 425 395 428 404 431 412 434 420 439 426 445 434 451 436 454 434 456 426 455 418 454 412" />
      <polygon style="fill:rgb(64,64,64); stroke:none;" points=" 336 432 335 432 343 426 350 423 360 415 366 408 372 400 379 390 385 378 387 371 389 364 398 365 407 372 411 378 408 382 401 390 389 401 377 413 370 421" />
      <polygon style="fill:none; stroke:rgb(64,64,64);" points=" 336 432 335 432 343 426 350 423 360 415 366 408 372 400 379 390 385 378 387 371 389 364 398 365 407 372 411 378 408 382 401 390 389 401 377 413 370 421" />
      <polygon style="fill:rgb(64,64,64); stroke:none;" points=" 336 432 370 421 369 423 376 424 382 424 391 422 403 419 411 418 419 417 427 416 435 416 443 415 443 423 436 424 428 425 417 427 405 429 394 431 384 433 376 435 368 438 362 440 349 446 343 448 338 442 336 437" />
      <polygon style="fill:none; stroke:rgb(64,64,64);" points=" 336 432 370 421 369 423 376 424 382 424 391 422 403 419 411 418 419 417 427 416 435 416 443 415 443 423 436 424 428 425 417 427 405 429 394 431 384 433 376 435 368 438 362 440 349 446 343 448 338 442 336 437" />
      <polygon style="fill:rgb(64,64,64); stroke:none;" points=" 374 356 366 358 360 359 356 360 349 361 345 361 345 367 345 366 352 371 356 372 363 371 373 370 386 368 397 367 407 365 417 363 426 361 435 358 450 354 454 349 449 346 441 343 436 343 429 343 420 344 410 346 398 349 385 353" />
      <polygon style="fill:none; stroke:rgb(64,64,64);" points=" 374 356 366 358 360 359 356 360 349 361 345 361 345 367 345 366 352 371 356 372 363 371 373 370 386 368 397 367 407 365 417 363 426 361 435 358 450 354 454 349 449 346 441 343 436 343 429 343 420 344 410 346 398 349 385 353" />
      <path d="M325 545 L463 504" style="fill:none; stroke-width:4; stroke:red;" />
      <circle style="fill:lime; stroke:none;" r="7" cx="325" cy="545" />
      <rect x="602" y="302" width="300" style="fill:none;" height="300" />
      <line x1="602" x2="902" y1="302" style="fill:none;" y2="602" />
      <line x1="902" x2="602" y1="302" style="fill:none;" y2="602" />
      <line x1="752" x2="752" y1="302" style="fill:none;" y2="602" />
      <line x1="602" x2="902" y1="452" style="fill:none;" y2="452" />
      <polygon style="fill:silver; stroke:none;" points=" 834 551 848 584 853 575 856 566 857 559 858 551 859 543 858 538 858 528 858 515 857 498 856 478 856 453 855 429 854 409 854 391 854 377 854 366 854 358 854 348 854 341 856 336 859 329 852 322 845 317 838 314 829 314 831 323 833 329 835 335 837 343 837 349 838 356 838 365 839 377 839 390 840 405 840 421 841 435 841 448 841 459 841 470 842 478 842 488 842 498 842 507 842 516 842 524 841 537 839 545 838 549" />
      <polygon style="fill:none; stroke:silver;" points=" 834 551 848 584 853 575 856 566 857 559 858 551 859 543 858 538 858 528 858 515 857 498 856 478 856 453 855 429 854 409 854 391 854 377 854 366 854 358 854 348 854 341 856 336 859 329 852 322 845 317 838 314 829 314 831 323 833 329 835 335 837 343 837 349 838 356 838 365 839 377 839 390 840 405 840 421 841 435 841 448 841 459 841 470 842 478 842 488 842 498 842 507 842 516 842 524 841 537 839 545 838 549" />
      <polygon style="fill:silver; stroke:none;" points=" 834 551 826 550 814 548 815 547 803 544 796 543 794 544 797 550 811 559 821 566 828 574 832 581 834 589 838 592 842 590 848 584 853 575" />
      <polygon style="fill:none; stroke:silver;" points=" 834 551 826 550 814 548 815 547 803 544 796 543 794 544 797 550 811 559 821 566 828 574 832 581 834 589 838 592 842 590 848 584 853 575" />
      <polygon style="fill:rgb(64,64,64); stroke:none;" points=" 802 432 801 417 801 405 801 394 801 387 801 381 801 379 801 378 798 375 791 371 783 370 779 371 781 378 784 386 787 397 788 407 789 416 790 425 789 433 789 441 788 450 787 460 785 470 785 479 785 487 787 493 790 502 793 505 795 502 799 493 799 488 800 481 801 472 801 461 801 448" />
      <polygon style="fill:none; stroke:rgb(64,64,64);" points=" 802 432 801 417 801 405 801 394 801 387 801 381 801 379 801 378 798 375 791 371 783 370 779 371 781 378 784 386 787 397 788 407 789 416 790 425 789 433 789 441 788 450 787 460 785 470 785 479 785 487 787 493 790 502 793 505 795 502 799 493 799 488 800 481 801 472 801 461 801 448" />
      <polygon style="fill:rgb(64,64,64); stroke:none;" points=" 725 523 712 529 696 534 679 540 666 545 655 549 646 551 641 553 638 553 632 551 625 545 619 538 617 532 620 527 623 528 630 528 636 530 643 529 647 529 654 527 664 525 677 522 686 520 695 518 705 515 714 513 724 511 734 508 750 505 759 504 763 504 756 511 752 513 745 516 737 519" />
      <polygon style="fill:none; stroke:rgb(64,64,64);" points=" 725 523 712 529 696 534 679 540 666 545 655 549 646 551 641 553 638 553 632 551 625 545 619 538 617 532 620 527 623 528 630 528 636 530 643 529 647 529 654 527 664 525 677 522 686 520 695 518 705 515 714 513 724 511 734 508 750 505 759 504 763 504 756 511 752 513 745 516 737 519" />
      <polygon style="fill:rgb(64,64,64); stroke:none;" points=" 711 448 712 443 709 440 702 435 691 428 692 442 693 457 694 472 694 488 694 504 695 521 707 521 707 505 707 491 707 479 708 470 709 463 710 457" />
      <polygon style="fill:none; stroke:rgb(64,64,64);" points=" 711 448 712 443 709 440 702 435 691 428 692 442 693 457 694 472 694 488 694 504 695 521 707 521 707 505 707 491 707 479 708 470 709 463 710 457" />
      <polygon style="fill:rgb(64,64,64); stroke:none;" points=" 731 461 725 462 717 464 706 467 692 470 674 475 662 478 656 481 654 483 655 483 661 487 664 488 670 487 679 486 691 483 706 479 720 476 731 473 739 471 744 469 746 467 741 463 734 460" />
      <polygon style="fill:none; stroke:rgb(64,64,64);" points=" 731 461 725 462 717 464 706 467 692 470 674 475 662 478 656 481 654 483 655 483 661 487 664 488 670 487 679 486 691 483 706 479 720 476 731 473 739 471 744 469 746 467 741 463 734 460" />
      <polygon style="fill:rgb(64,64,64); stroke:none;" points=" 747 404 742 400 736 395 727 391 725 395 728 404 731 412 734 420 739 426 745 434 751 436 754 434 756 426 755 418 754 412" />
      <polygon style="fill:none; stroke:rgb(64,64,64);" points=" 747 404 742 400 736 395 727 391 725 395 728 404 731 412 734 420 739 426 745 434 751 436 754 434 756 426 755 418 754 412" />
      <polygon style="fill:rgb(64,64,64); stroke:none;" points=" 636 432 635 432 643 426 650 423 660 415 666 408 672 400 679 390 685 378 687 371 689 364 698 365 707 372 711 378 708 382 701 390 689 401 677 413 670 421" />
      <polygon style="fill:none; stroke:rgb(64,64,64);" points=" 636 432 635 432 643 426 650 423 660 415 666 408 672 400 679 390 685 378 687 371 689 364 698 365 707 372 711 378 708 382 701 390 689 401 677 413 670 421" />
      <polygon style="fill:rgb(64,64,64); stroke:none;" points=" 636 432 670 421 669 423 676 424 682 424 691 422 703 419 711 418 719 417 727 416 735 416 743 415 743 423 736 424 728 425 717 427 705 429 694 431 684 433 676 435 668 438 662 440 649 446 643 448 638 442 636 437" />
      <polygon style="fill:none; stroke:rgb(64,64,64);" points=" 636 432 670 421 669 423 676 424 682 424 691 422 703 419 711 418 719 417 727 416 735 416 743 415 743 423 736 424 728 425 717 427 705 429 694 431 684 433 676 435 668 438 662 440 649 446 643 448 638 442 636 437" />
      <polygon style="fill:rgb(64,64,64); stroke:none;" points=" 674 356 666 358 660 359 656 360 649 361 645 361 645 367 645 366 652 371 656 372 663 371 673 370 686 368 697 367 707 365 717 363 726 361 735 358 750 354 754 349 749 346 741 343 736 343 729 343 720 344 710 346 698 349 685 353" />
      <polygon style="fill:none; stroke:rgb(64,64,64);" points=" 674 356 666 358 660 359 656 360 649 361 645 361 645 367 645 366 652 371 656 372 663 371 673 370 686 368 697 367 707 365 717 363 726 361 735 358 750 354 754 349 749 346 741 343 736 343 729 343 720 344 710 346 698 349 685 353" />
      <path d="M783 370 L793 505" style="fill:none; stroke-width:4; stroke:red;" />
      <circle style="fill:lime; stroke:none;" r="7" cx="783" cy="370" />
      <rect x="902" y="302" width="300" style="fill:none;" height="300" />
      <line x1="902" x2="1202" y1="302" style="fill:none;" y2="602" />
      <line x1="1202" x2="902" y1="302" style="fill:none;" y2="602" />
      <line x1="1052" x2="1052" y1="302" style="fill:none;" y2="602" />
      <line x1="902" x2="1202" y1="452" style="fill:none;" y2="452" />
      <polygon style="fill:rgb(64,64,64); stroke:none;" points=" 1134 551 1148 584 1153 575 1156 566 1157 559 1158 551 1159 543 1158 538 1158 528 1158 515 1157 498 1156 478 1156 453 1155 429 1154 409 1154 391 1154 377 1154 366 1154 358 1154 348 1154 341 1156 336 1159 329 1152 322 1145 317 1138 314 1129 314 1131 323 1133 329 1135 335 1137 343 1137 349 1138 356 1138 365 1139 377 1139 390 1140 405 1140 421 1141 435 1141 448 1141 459 1141 470 1142 478 1142 488 1142 498 1142 507 1142 516 1142 524 1141 537 1139 545 1138 549" />
      <polygon style="fill:none; stroke:rgb(64,64,64);" points=" 1134 551 1148 584 1153 575 1156 566 1157 559 1158 551 1159 543 1158 538 1158 528 1158 515 1157 498 1156 478 1156 453 1155 429 1154 409 1154 391 1154 377 1154 366 1154 358 1154 348 1154 341 1156 336 1159 329 1152 322 1145 317 1138 314 1129 314 1131 323 1133 329 1135 335 1137 343 1137 349 1138 356 1138 365 1139 377 1139 390 1140 405 1140 421 1141 435 1141 448 1141 459 1141 470 1142 478 1142 488 1142 498 1142 507 1142 516 1142 524 1141 537 1139 545 1138 549" />
      <polygon style="fill:rgb(64,64,64); stroke:none;" points=" 1134 551 1126 550 1114 548 1115 547 1103 544 1096 543 1094 544 1097 550 1111 559 1121 566 1128 574 1132 581 1134 589 1138 592 1142 590 1148 584 1153 575" />
      <polygon style="fill:none; stroke:rgb(64,64,64);" points=" 1134 551 1126 550 1114 548 1115 547 1103 544 1096 543 1094 544 1097 550 1111 559 1121 566 1128 574 1132 581 1134 589 1138 592 1142 590 1148 584 1153 575" />
      <polygon style="fill:rgb(64,64,64); stroke:none;" points=" 1102 432 1101 417 1101 405 1101 394 1101 387 1101 381 1101 379 1101 378 1098 375 1091 371 1083 370 1079 371 1081 378 1084 386 1087 397 1088 407 1089 416 1090 425 1089 433 1089 441 1088 450 1087 460 1085 470 1085 479 1085 487 1087 493 1090 502 1093 505 1095 502 1099 493 1099 488 1100 481 1101 472 1101 461 1101 448" />
      <polygon style="fill:none; stroke:rgb(64,64,64);" points=" 1102 432 1101 417 1101 405 1101 394 1101 387 1101 381 1101 379 1101 378 1098 375 1091 371 1083 370 1079 371 1081 378 1084 386 1087 397 1088 407 1089 416 1090 425 1089 433 1089 441 1088 450 1087 460 1085 470 1085 479 1085 487 1087 493 1090 502 1093 505 1095 502 1099 493 1099 488 1100 481 1101 472 1101 461 1101 448" />
      <polygon style="fill:rgb(64,64,64); stroke:none;" points=" 1025 523 1012 529 996 534 979 540 966 545 955 549 946 551 941 553 938 553 932 551 925 545 919 538 917 532 920 527 923 528 930 528 936 530 943 529 947 529 954 527 964 525 977 522 986 520 995 518 1005 515 1014 513 1024 511 1034 508 1050 505 1059 504 1063 504 1056 511 1052 513 1045 516 1037 519" />
      <polygon style="fill:none; stroke:rgb(64,64,64);" points=" 1025 523 1012 529 996 534 979 540 966 545 955 549 946 551 941 553 938 553 932 551 925 545 919 538 917 532 920 527 923 528 930 528 936 530 943 529 947 529 954 527 964 525 977 522 986 520 995 518 1005 515 1014 513 1024 511 1034 508 1050 505 1059 504 1063 504 1056 511 1052 513 1045 516 1037 519" />
      <polygon style="fill:rgb(64,64,64); stroke:none;" points=" 1011 448 1012 443 1009 440 1002 435 991 428 992 442 993 457 994 472 994 488 994 504 995 521 1007 521 1007 505 1007 491 1007 479 1008 470 1009 463 1010 457" />
      <polygon style="fill:none; stroke:rgb(64,64,64);" points=" 1011 448 1012 443 1009 440 1002 435 991 428 992 442 993 457 994 472 994 488 994 504 995 521 1007 521 1007 505 1007 491 1007 479 1008 470 1009 463 1010 457" />
      <polygon style="fill:rgb(64,64,64); stroke:none;" points=" 1031 461 1025 462 1017 464 1006 467 992 470 974 475 962 478 956 481 954 483 955 483 961 487 964 488 970 487 979 486 991 483 1006 479 1020 476 1031 473 1039 471 1044 469 1046 467 1041 463 1034 460" />
      <polygon style="fill:none; stroke:rgb(64,64,64);" points=" 1031 461 1025 462 1017 464 1006 467 992 470 974 475 962 478 956 481 954 483 955 483 961 487 964 488 970 487 979 486 991 483 1006 479 1020 476 1031 473 1039 471 1044 469 1046 467 1041 463 1034 460" />
      <polygon style="fill:rgb(64,64,64); stroke:none;" points=" 1047 404 1042 400 1036 395 1027 391 1025 395 1028 404 1031 412 1034 420 1039 426 1045 434 1051 436 1054 434 1056 426 1055 418 1054 412" />
      <polygon style="fill:none; stroke:rgb(64,64,64);" points=" 1047 404 1042 400 1036 395 1027 391 1025 395 1028 404 1031 412 1034 420 1039 426 1045 434 1051 436 1054 434 1056 426 1055 418 1054 412" />
      <polygon style="fill:rgb(64,64,64); stroke:none;" points=" 936 432 935 432 943 426 950 423 960 415 966 408 972 400 979 390 985 378 987 371 989 364 998 365 1007 372 1011 378 1008 382 1001 390 989 401 977 413 970 421" />
      <polygon style="fill:none; stroke:rgb(64,64,64);" points=" 936 432 935 432 943 426 950 423 960 415 966 408 972 400 979 390 985 378 987 371 989 364 998 365 1007 372 1011 378 1008 382 1001 390 989 401 977 413 970 421" />
      <polygon style="fill:rgb(64,64,64); stroke:none;" points=" 936 432 970 421 969 423 976 424 982 424 991 422 1003 419 1011 418 1019 417 1027 416 1035 416 1043 415 1043 423 1036 424 1028 425 1017 427 1005 429 994 431 984 433 976 435 968 438 962 440 949 446 943 448 938 442 936 437" />
      <polygon style="fill:none; stroke:rgb(64,64,64);" points=" 936 432 970 421 969 423 976 424 982 424 991 422 1003 419 1011 418 1019 417 1027 416 1035 416 1043 415 1043 423 1036 424 1028 425 1017 427 1005 429 994 431 984 433 976 435 968 438 962 440 949 446 943 448 938 442 936 437" />
      <polygon style="fill:rgb(64,64,64); stroke:none;" points=" 974 356 966 358 960 359 956 360 949 361 945 361 945 367 945 366 952 371 956 372 963 371 973 370 986 368 997 367 1007 365 1017 363 1026 361 1035 358 1050 354 1054 349 1049 346 1041 343 1036 343 1029 343 1020 344 1010 346 998 349 985 353" />
      <polygon style="fill:none; stroke:rgb(64,64,64);" points=" 974 356 966 358 960 359 956 360 949 361 945 361 945 367 945 366 952 371 956 372 963 371 973 370 986 368 997 367 1007 365 1017 363 1026 361 1035 358 1050 354 1054 349 1049 346 1041 343 1036 343 1029 343 1020 344 1010 346 998 349 985 353" />
      <path d="M1138 314 L1148 584 L1094 544" style="fill:none; stroke-width:4; stroke:red;" />
      <circle style="fill:lime; stroke:none;" r="7" cx="1138" cy="314" />
    </g>
  </g>
</svg>
