<?xml version="1.0" encoding="UTF-8"?>

<!DOCTYPE svg PUBLIC '-//W3C//DTD SVG 1.0//EN' 'http://www.w3.org/TR/2001/REC-SVG-20010904/DTD/svg10.dtd'>
<svg style="fill-opacity:1; color-rendering:auto; color-interpolation:auto; stroke:black; text-rendering:auto; stroke-linecap:square; stroke-miterlimit:10; stroke-opacity:1; shape-rendering:auto; fill:black; stroke-dasharray:none; font-weight:normal; stroke-width:1; font-family:&apos;Dialog&apos;; font-style:normal; stroke-linejoin:miter; font-size:12; stroke-dashoffset:0; image-rendering:auto;" xmlns="http://www.w3.org/2000/svg" width="1504" xmlns:xlink="http://www.w3.org/1999/xlink" height="304">
  <!--Generated by the Batik Graphics2D SVG Generator-->
  <defs id="genericDefs" />
  <g>
    <g style="fill:rgb(128,128,255); stroke:rgb(128,128,255);">
      <rect x="2" y="2" width="300" style="fill:none;" height="300" />
      <line x1="2" x2="302" y1="2" style="fill:none;" y2="302" />
      <line x1="302" x2="2" y1="2" style="fill:none;" y2="302" />
      <line x1="152" x2="152" y1="2" style="fill:none;" y2="302" />
      <line x1="2" x2="302" y1="152" style="fill:none;" y2="152" />
      <polygon style="fill:black; stroke:none;" points=" 210 177 222 184 233 193 244 203 254 214 259 226 258 236 254 243 251 243 246 242 243 233 239 224 234 214 229 206 222 197 218 192 208 182" />
      <polygon style="fill:none; stroke:black;" points=" 210 177 222 184 233 193 244 203 254 214 259 226 258 236 254 243 251 243 246 242 243 233 239 224 234 214 229 206 222 197 218 192 208 182" />
      <polygon style="fill:black; stroke:none;" points=" 213 29 212 44 211 71 209 98 207 124 204 144 201 161 198 171 195 181 191 189 186 195 181 201 173 210 161 218 154 224 144 231 134 236 123 242 114 246 104 250 96 253 88 257 91 259 110 254 121 249 138 244 149 238 159 232 172 223 183 214 194 203 203 190 207 182 210 176 213 161 217 144 219 129 220 112 222 98 223 86 224 71 226 47 234 41 213 29" />
      <polygon style="fill:none; stroke:black;" points=" 213 29 212 44 211 71 209 98 207 124 204 144 201 161 198 171 195 181 191 189 186 195 181 201 173 210 161 218 154 224 144 231 134 236 123 242 114 246 104 250 96 253 88 257 91 259 110 254 121 249 138 244 149 238 159 232 172 223 183 214 194 203 203 190 207 182 210 176 213 161 217 144 219 129 220 112 222 98 223 86 224 71 226 47 234 41 213 29" />
      <polygon style="fill:black; stroke:none;" points=" 114 33 126 42 138 53 146 64 149 76 146 87 143 91 135 92 133 82 131 69 126 58 121 48 118 42 111 35" />
      <polygon style="fill:none; stroke:black;" points=" 114 33 126 42 138 53 146 64 149 76 146 87 143 91 135 92 133 82 131 69 126 58 121 48 118 42 111 35" />
      <polygon style="fill:black; stroke:none;" points=" 53 32 53 211 65 209 65 53 75 43 54 33" />
      <polygon style="fill:none; stroke:black;" points=" 53 32 53 211 65 209 65 53 75 43 54 33" />
      <polygon style="fill:black; stroke:none;" points=" 53 211 42 222 56 239 68 224 64 209" />
      <polygon style="fill:none; stroke:black;" points=" 53 211 42 222 56 239 68 224 64 209" />
      <polygon style="fill:black; stroke:none;" points=" 68 223 146 164 144 162 64 211 65 226" />
      <polygon style="fill:none; stroke:black;" points=" 68 223 146 164 144 162 64 211 65 226" />
      <rect x="302" y="2" width="300" style="fill:none;" height="300" />
      <line x1="302" x2="602" y1="2" style="fill:none;" y2="302" />
      <line x1="602" x2="302" y1="2" style="fill:none;" y2="302" />
      <line x1="452" x2="452" y1="2" style="fill:none;" y2="302" />
      <line x1="302" x2="602" y1="152" style="fill:none;" y2="152" />
      <polygon style="fill:silver; stroke:none;" points=" 510 177 522 184 533 193 544 203 554 214 559 226 558 236 554 243 551 243 546 242 543 233 539 224 534 214 529 206 522 197 518 192 508 182" />
      <polygon style="fill:none; stroke:silver;" points=" 510 177 522 184 533 193 544 203 554 214 559 226 558 236 554 243 551 243 546 242 543 233 539 224 534 214 529 206 522 197 518 192 508 182" />
      <polygon style="fill:silver; stroke:none;" points=" 513 29 512 44 511 71 509 98 507 124 504 144 501 161 498 171 495 181 491 189 486 195 481 201 473 210 461 218 454 224 444 231 434 236 423 242 414 246 404 250 396 253 388 257 391 259 410 254 421 249 438 244 449 238 459 232 472 223 483 214 494 203 503 190 507 182 510 176 513 161 517 144 519 129 520 112 522 98 523 86 524 71 526 47 534 41 513 29" />
      <polygon style="fill:none; stroke:silver;" points=" 513 29 512 44 511 71 509 98 507 124 504 144 501 161 498 171 495 181 491 189 486 195 481 201 473 210 461 218 454 224 444 231 434 236 423 242 414 246 404 250 396 253 388 257 391 259 410 254 421 249 438 244 449 238 459 232 472 223 483 214 494 203 503 190 507 182 510 176 513 161 517 144 519 129 520 112 522 98 523 86 524 71 526 47 534 41 513 29" />
      <polygon style="fill:silver; stroke:none;" points=" 414 33 426 42 438 53 446 64 449 76 446 87 443 91 435 92 433 82 431 69 426 58 421 48 418 42 411 35" />
      <polygon style="fill:none; stroke:silver;" points=" 414 33 426 42 438 53 446 64 449 76 446 87 443 91 435 92 433 82 431 69 426 58 421 48 418 42 411 35" />
      <polygon style="fill:rgb(64,64,64); stroke:none;" points=" 353 32 353 211 365 209 365 53 375 43 354 33" />
      <polygon style="fill:none; stroke:rgb(64,64,64);" points=" 353 32 353 211 365 209 365 53 375 43 354 33" />
      <polygon style="fill:rgb(64,64,64); stroke:none;" points=" 353 211 342 222 356 239 368 224 364 209" />
      <polygon style="fill:none; stroke:rgb(64,64,64);" points=" 353 211 342 222 356 239 368 224 364 209" />
      <polygon style="fill:rgb(64,64,64); stroke:none;" points=" 368 223 446 164 444 162 364 211 365 226" />
      <polygon style="fill:none; stroke:rgb(64,64,64);" points=" 368 223 446 164 444 162 364 211 365 226" />
      <path d="M353 32 L353 211 L356 239 L446 164" style="fill:none; stroke-width:4; stroke:red;" />
      <circle style="fill:lime; stroke:none;" r="7" cx="353" cy="32" />
      <rect x="602" y="2" width="300" style="fill:none;" height="300" />
      <line x1="602" x2="902" y1="2" style="fill:none;" y2="302" />
      <line x1="902" x2="602" y1="2" style="fill:none;" y2="302" />
      <line x1="752" x2="752" y1="2" style="fill:none;" y2="302" />
      <line x1="602" x2="902" y1="152" style="fill:none;" y2="152" />
      <polygon style="fill:silver; stroke:none;" points=" 810 177 822 184 833 193 844 203 854 214 859 226 858 236 854 243 851 243 846 242 843 233 839 224 834 214 829 206 822 197 818 192 808 182" />
      <polygon style="fill:none; stroke:silver;" points=" 810 177 822 184 833 193 844 203 854 214 859 226 858 236 854 243 851 243 846 242 843 233 839 224 834 214 829 206 822 197 818 192 808 182" />
      <polygon style="fill:silver; stroke:none;" points=" 813 29 812 44 811 71 809 98 807 124 804 144 801 161 798 171 795 181 791 189 786 195 781 201 773 210 761 218 754 224 744 231 734 236 723 242 714 246 704 250 696 253 688 257 691 259 710 254 721 249 738 244 749 238 759 232 772 223 783 214 794 203 803 190 807 182 810 176 813 161 817 144 819 129 820 112 822 98 823 86 824 71 826 47 834 41 813 29" />
      <polygon style="fill:none; stroke:silver;" points=" 813 29 812 44 811 71 809 98 807 124 804 144 801 161 798 171 795 181 791 189 786 195 781 201 773 210 761 218 754 224 744 231 734 236 723 242 714 246 704 250 696 253 688 257 691 259 710 254 721 249 738 244 749 238 759 232 772 223 783 214 794 203 803 190 807 182 810 176 813 161 817 144 819 129 820 112 822 98 823 86 824 71 826 47 834 41 813 29" />
      <polygon style="fill:rgb(64,64,64); stroke:none;" points=" 714 33 726 42 738 53 746 64 749 76 746 87 743 91 735 92 733 82 731 69 726 58 721 48 718 42 711 35" />
      <polygon style="fill:none; stroke:rgb(64,64,64);" points=" 714 33 726 42 738 53 746 64 749 76 746 87 743 91 735 92 733 82 731 69 726 58 721 48 718 42 711 35" />
      <polygon style="fill:rgb(64,64,64); stroke:none;" points=" 653 32 653 211 665 209 665 53 675 43 654 33" />
      <polygon style="fill:none; stroke:rgb(64,64,64);" points=" 653 32 653 211 665 209 665 53 675 43 654 33" />
      <polygon style="fill:rgb(64,64,64); stroke:none;" points=" 653 211 642 222 656 239 668 224 664 209" />
      <polygon style="fill:none; stroke:rgb(64,64,64);" points=" 653 211 642 222 656 239 668 224 664 209" />
      <polygon style="fill:rgb(64,64,64); stroke:none;" points=" 668 223 746 164 744 162 664 211 665 226" />
      <polygon style="fill:none; stroke:rgb(64,64,64);" points=" 668 223 746 164 744 162 664 211 665 226" />
      <path d="M711 35 L743 91" style="fill:none; stroke-width:4; stroke:red;" />
      <circle style="fill:lime; stroke:none;" r="7" cx="711" cy="35" />
      <rect x="902" y="2" width="300" style="fill:none;" height="300" />
      <line x1="902" x2="1202" y1="2" style="fill:none;" y2="302" />
      <line x1="1202" x2="902" y1="2" style="fill:none;" y2="302" />
      <line x1="1052" x2="1052" y1="2" style="fill:none;" y2="302" />
      <line x1="902" x2="1202" y1="152" style="fill:none;" y2="152" />
      <polygon style="fill:silver; stroke:none;" points=" 1110 177 1122 184 1133 193 1144 203 1154 214 1159 226 1158 236 1154 243 1151 243 1146 242 1143 233 1139 224 1134 214 1129 206 1122 197 1118 192 1108 182" />
      <polygon style="fill:none; stroke:silver;" points=" 1110 177 1122 184 1133 193 1144 203 1154 214 1159 226 1158 236 1154 243 1151 243 1146 242 1143 233 1139 224 1134 214 1129 206 1122 197 1118 192 1108 182" />
      <polygon style="fill:rgb(64,64,64); stroke:none;" points=" 1113 29 1112 44 1111 71 1109 98 1107 124 1104 144 1101 161 1098 171 1095 181 1091 189 1086 195 1081 201 1073 210 1061 218 1054 224 1044 231 1034 236 1023 242 1014 246 1004 250 996 253 988 257 991 259 1010 254 1021 249 1038 244 1049 238 1059 232 1072 223 1083 214 1094 203 1103 190 1107 182 1110 176 1113 161 1117 144 1119 129 1120 112 1122 98 1123 86 1124 71 1126 47 1134 41 1113 29" />
      <polygon style="fill:none; stroke:rgb(64,64,64);" points=" 1113 29 1112 44 1111 71 1109 98 1107 124 1104 144 1101 161 1098 171 1095 181 1091 189 1086 195 1081 201 1073 210 1061 218 1054 224 1044 231 1034 236 1023 242 1014 246 1004 250 996 253 988 257 991 259 1010 254 1021 249 1038 244 1049 238 1059 232 1072 223 1083 214 1094 203 1103 190 1107 182 1110 176 1113 161 1117 144 1119 129 1120 112 1122 98 1123 86 1124 71 1126 47 1134 41 1113 29" />
      <polygon style="fill:rgb(64,64,64); stroke:none;" points=" 1014 33 1026 42 1038 53 1046 64 1049 76 1046 87 1043 91 1035 92 1033 82 1031 69 1026 58 1021 48 1018 42 1011 35" />
      <polygon style="fill:none; stroke:rgb(64,64,64);" points=" 1014 33 1026 42 1038 53 1046 64 1049 76 1046 87 1043 91 1035 92 1033 82 1031 69 1026 58 1021 48 1018 42 1011 35" />
      <polygon style="fill:rgb(64,64,64); stroke:none;" points=" 953 32 953 211 965 209 965 53 975 43 954 33" />
      <polygon style="fill:none; stroke:rgb(64,64,64);" points=" 953 32 953 211 965 209 965 53 975 43 954 33" />
      <polygon style="fill:rgb(64,64,64); stroke:none;" points=" 953 211 942 222 956 239 968 224 964 209" />
      <polygon style="fill:none; stroke:rgb(64,64,64);" points=" 953 211 942 222 956 239 968 224 964 209" />
      <polygon style="fill:rgb(64,64,64); stroke:none;" points=" 968 223 1046 164 1044 162 964 211 965 226" />
      <polygon style="fill:none; stroke:rgb(64,64,64);" points=" 968 223 1046 164 1044 162 964 211 965 226" />
      <path d="M1134 41 L988 257" style="fill:none; stroke-width:4; stroke:red;" />
      <circle style="fill:lime; stroke:none;" r="7" cx="1134" cy="41" />
      <rect x="1202" y="2" width="300" style="fill:none;" height="300" />
      <line x1="1202" x2="1502" y1="2" style="fill:none;" y2="302" />
      <line x1="1502" x2="1202" y1="2" style="fill:none;" y2="302" />
      <line x1="1352" x2="1352" y1="2" style="fill:none;" y2="302" />
      <line x1="1202" x2="1502" y1="152" style="fill:none;" y2="152" />
      <polygon style="fill:rgb(64,64,64); stroke:none;" points=" 1410 177 1422 184 1433 193 1444 203 1454 214 1459 226 1458 236 1454 243 1451 243 1446 242 1443 233 1439 224 1434 214 1429 206 1422 197 1418 192 1408 182" />
      <polygon style="fill:none; stroke:rgb(64,64,64);" points=" 1410 177 1422 184 1433 193 1444 203 1454 214 1459 226 1458 236 1454 243 1451 243 1446 242 1443 233 1439 224 1434 214 1429 206 1422 197 1418 192 1408 182" />
      <polygon style="fill:rgb(64,64,64); stroke:none;" points=" 1413 29 1412 44 1411 71 1409 98 1407 124 1404 144 1401 161 1398 171 1395 181 1391 189 1386 195 1381 201 1373 210 1361 218 1354 224 1344 231 1334 236 1323 242 1314 246 1304 250 1296 253 1288 257 1291 259 1310 254 1321 249 1338 244 1349 238 1359 232 1372 223 1383 214 1394 203 1403 190 1407 182 1410 176 1413 161 1417 144 1419 129 1420 112 1422 98 1423 86 1424 71 1426 47 1434 41 1413 29" />
      <polygon style="fill:none; stroke:rgb(64,64,64);" points=" 1413 29 1412 44 1411 71 1409 98 1407 124 1404 144 1401 161 1398 171 1395 181 1391 189 1386 195 1381 201 1373 210 1361 218 1354 224 1344 231 1334 236 1323 242 1314 246 1304 250 1296 253 1288 257 1291 259 1310 254 1321 249 1338 244 1349 238 1359 232 1372 223 1383 214 1394 203 1403 190 1407 182 1410 176 1413 161 1417 144 1419 129 1420 112 1422 98 1423 86 1424 71 1426 47 1434 41 1413 29" />
      <polygon style="fill:rgb(64,64,64); stroke:none;" points=" 1314 33 1326 42 1338 53 1346 64 1349 76 1346 87 1343 91 1335 92 1333 82 1331 69 1326 58 1321 48 1318 42 1311 35" />
      <polygon style="fill:none; stroke:rgb(64,64,64);" points=" 1314 33 1326 42 1338 53 1346 64 1349 76 1346 87 1343 91 1335 92 1333 82 1331 69 1326 58 1321 48 1318 42 1311 35" />
      <polygon style="fill:rgb(64,64,64); stroke:none;" points=" 1253 32 1253 211 1265 209 1265 53 1275 43 1254 33" />
      <polygon style="fill:none; stroke:rgb(64,64,64);" points=" 1253 32 1253 211 1265 209 1265 53 1275 43 1254 33" />
      <polygon style="fill:rgb(64,64,64); stroke:none;" points=" 1253 211 1242 222 1256 239 1268 224 1264 209" />
      <polygon style="fill:none; stroke:rgb(64,64,64);" points=" 1253 211 1242 222 1256 239 1268 224 1264 209" />
      <polygon style="fill:rgb(64,64,64); stroke:none;" points=" 1268 223 1346 164 1344 162 1264 211 1265 226" />
      <polygon style="fill:none; stroke:rgb(64,64,64);" points=" 1268 223 1346 164 1344 162 1264 211 1265 226" />
      <path d="M1410 177 L1454 243" style="fill:none; stroke-width:4; stroke:red;" />
      <circle style="fill:lime; stroke:none;" r="7" cx="1410" cy="177" />
    </g>
  </g>
</svg>
