<?xml version="1.0" encoding="UTF-8"?>

<!DOCTYPE svg PUBLIC '-//W3C//DTD SVG 1.0//EN' 'http://www.w3.org/TR/2001/REC-SVG-20010904/DTD/svg10.dtd'>
<svg style="fill-opacity:1; color-rendering:auto; color-interpolation:auto; stroke:black; text-rendering:auto; stroke-linecap:square; stroke-miterlimit:10; stroke-opacity:1; shape-rendering:auto; fill:black; stroke-dasharray:none; font-weight:normal; stroke-width:1; font-family:&apos;Dialog&apos;; font-style:normal; stroke-linejoin:miter; font-size:12; stroke-dashoffset:0; image-rendering:auto;" xmlns="http://www.w3.org/2000/svg" width="2404" xmlns:xlink="http://www.w3.org/1999/xlink" height="304">
  <!--Generated by the Batik Graphics2D SVG Generator-->
  <defs id="genericDefs" />
  <g>
    <g style="fill:rgb(128,128,255); stroke:rgb(128,128,255);">
      <rect x="2" y="2" width="300" style="fill:none;" height="300" />
      <line x1="2" x2="302" y1="2" style="fill:none;" y2="302" />
      <line x1="302" x2="2" y1="2" style="fill:none;" y2="302" />
      <line x1="152" x2="152" y1="2" style="fill:none;" y2="302" />
      <line x1="2" x2="302" y1="152" style="fill:none;" y2="152" />
      <polygon style="fill:black; stroke:none;" points=" 19 250 59 210 72 210 63 215 58 221 47 235 41 245 34 259 19 251" />
      <polygon style="fill:none; stroke:black;" points=" 19 250 59 210 72 210 63 215 58 221 47 235 41 245 34 259 19 251" />
      <polygon style="fill:black; stroke:none;" points=" 66 212 71 220 76 227 83 236 89 242 97 248 107 253 114 255 123 258 129 259 130 248 119 246 109 243 101 239 96 237 89 233 84 228 79 223 76 217 72 209 66 211" />
      <polygon style="fill:none; stroke:black;" points=" 66 212 71 220 76 227 83 236 89 242 97 248 107 253 114 255 123 258 129 259 130 248 119 246 109 243 101 239 96 237 89 233 84 228 79 223 76 217 72 209 66 211" />
      <polygon style="fill:black; stroke:none;" points=" 128 248 140 248 193 248 227 246 249 244 268 242 269 244 263 246 257 249 252 251 248 254 245 260 156 261 142 259 129 259 123 258" />
      <polygon style="fill:none; stroke:black;" points=" 128 248 140 248 193 248 227 246 249 244 268 242 269 244 263 246 257 249 252 251 248 254 245 260 156 261 142 259 129 259 123 258" />
      <polygon style="fill:black; stroke:none;" points=" 17 123 57 123 65 112 84 124 59 127 31 128 25 130 18 123" />
      <polygon style="fill:none; stroke:black;" points=" 17 123 57 123 65 112 84 124 59 127 31 128 25 130 18 123" />
      <polygon style="fill:black; stroke:none;" points=" 59 128 59 209 72 209 72 132 84 124 59 126" />
      <polygon style="fill:none; stroke:black;" points=" 59 128 59 209 72 209 72 132 84 124 59 126" />
      <polygon style="fill:black; stroke:none;" points=" 38 35 53 43 68 53 74 61 79 68 79 74 76 79 73 84 69 84 66 79 63 71 59 64 55 58 51 52 47 48 36 36" />
      <polygon style="fill:none; stroke:black;" points=" 38 35 53 43 68 53 74 61 79 68 79 74 76 79 73 84 69 84 66 79 63 71 59 64 55 58 51 52 47 48 36 36" />
      <polygon style="fill:black; stroke:none;" points=" 114 113 134 125 150 136 165 147 186 164 196 174 207 186 215 196 220 204 226 212 233 213 236 209 236 203 234 196 231 191 223 182 214 174 204 165 195 158 190 154 180 147 168 138 156 132 147 126 139 121 129 116 121 113 115 109" />
      <polygon style="fill:none; stroke:black;" points=" 114 113 134 125 150 136 165 147 186 164 196 174 207 186 215 196 220 204 226 212 233 213 236 209 236 203 234 196 231 191 223 182 214 174 204 165 195 158 190 154 180 147 168 138 156 132 147 126 139 121 129 116 121 113 115 109" />
      <polygon style="fill:black; stroke:none;" points=" 214 81 212 96 208 111 204 125 199 138 193 147 183 163 176 174 168 183 160 190 150 197 140 204 129 211 121 216 114 219 107 223 96 226 95 223 109 216 124 206 135 199 148 188 155 181 162 173 170 163 176 155 181 146 187 133 191 123 195 111 197 99 201 79 214 80" />
      <polygon style="fill:none; stroke:black;" points=" 214 81 212 96 208 111 204 125 199 138 193 147 183 163 176 174 168 183 160 190 150 197 140 204 129 211 121 216 114 219 107 223 96 226 95 223 109 216 124 206 135 199 148 188 155 181 162 173 170 163 176 155 181 146 187 133 191 123 195 111 197 99 201 79 214 80" />
      <polygon style="fill:black; stroke:none;" points=" 96 75 234 74 242 60 263 80 117 80 103 84 96 75" />
      <polygon style="fill:none; stroke:black;" points=" 96 75 234 74 242 60 263 80 117 80 103 84 96 75" />
      <polygon style="fill:black; stroke:none;" points=" 151 21 164 27 173 33 181 39 188 48 188 56 185 63 181 67 177 66 174 59 171 50 168 44 164 38 160 32 150 23" />
      <polygon style="fill:none; stroke:black;" points=" 151 21 164 27 173 33 181 39 188 48 188 56 185 63 181 67 177 66 174 59 171 50 168 44 164 38 160 32 150 23" />
      <rect x="302" y="2" width="300" style="fill:none;" height="300" />
      <line x1="302" x2="602" y1="2" style="fill:none;" y2="302" />
      <line x1="602" x2="302" y1="2" style="fill:none;" y2="302" />
      <line x1="452" x2="452" y1="2" style="fill:none;" y2="302" />
      <line x1="302" x2="602" y1="152" style="fill:none;" y2="152" />
      <polygon style="fill:silver; stroke:none;" points=" 319 250 359 210 372 210 363 215 358 221 347 235 341 245 334 259 319 251" />
      <polygon style="fill:none; stroke:silver;" points=" 319 250 359 210 372 210 363 215 358 221 347 235 341 245 334 259 319 251" />
      <polygon style="fill:silver; stroke:none;" points=" 366 212 371 220 376 227 383 236 389 242 397 248 407 253 414 255 423 258 429 259 430 248 419 246 409 243 401 239 396 237 389 233 384 228 379 223 376 217 372 209 366 211" />
      <polygon style="fill:none; stroke:silver;" points=" 366 212 371 220 376 227 383 236 389 242 397 248 407 253 414 255 423 258 429 259 430 248 419 246 409 243 401 239 396 237 389 233 384 228 379 223 376 217 372 209 366 211" />
      <polygon style="fill:silver; stroke:none;" points=" 428 248 440 248 493 248 527 246 549 244 568 242 569 244 563 246 557 249 552 251 548 254 545 260 456 261 442 259 429 259 423 258" />
      <polygon style="fill:none; stroke:silver;" points=" 428 248 440 248 493 248 527 246 549 244 568 242 569 244 563 246 557 249 552 251 548 254 545 260 456 261 442 259 429 259 423 258" />
      <polygon style="fill:silver; stroke:none;" points=" 317 123 357 123 365 112 384 124 359 127 331 128 325 130 318 123" />
      <polygon style="fill:none; stroke:silver;" points=" 317 123 357 123 365 112 384 124 359 127 331 128 325 130 318 123" />
      <polygon style="fill:silver; stroke:none;" points=" 359 128 359 209 372 209 372 132 384 124 359 126" />
      <polygon style="fill:none; stroke:silver;" points=" 359 128 359 209 372 209 372 132 384 124 359 126" />
      <polygon style="fill:silver; stroke:none;" points=" 338 35 353 43 368 53 374 61 379 68 379 74 376 79 373 84 369 84 366 79 363 71 359 64 355 58 351 52 347 48 336 36" />
      <polygon style="fill:none; stroke:silver;" points=" 338 35 353 43 368 53 374 61 379 68 379 74 376 79 373 84 369 84 366 79 363 71 359 64 355 58 351 52 347 48 336 36" />
      <polygon style="fill:silver; stroke:none;" points=" 414 113 434 125 450 136 465 147 486 164 496 174 507 186 515 196 520 204 526 212 533 213 536 209 536 203 534 196 531 191 523 182 514 174 504 165 495 158 490 154 480 147 468 138 456 132 447 126 439 121 429 116 421 113 415 109" />
      <polygon style="fill:none; stroke:silver;" points=" 414 113 434 125 450 136 465 147 486 164 496 174 507 186 515 196 520 204 526 212 533 213 536 209 536 203 534 196 531 191 523 182 514 174 504 165 495 158 490 154 480 147 468 138 456 132 447 126 439 121 429 116 421 113 415 109" />
      <polygon style="fill:silver; stroke:none;" points=" 514 81 512 96 508 111 504 125 499 138 493 147 483 163 476 174 468 183 460 190 450 197 440 204 429 211 421 216 414 219 407 223 396 226 395 223 409 216 424 206 435 199 448 188 455 181 462 173 470 163 476 155 481 146 487 133 491 123 495 111 497 99 501 79 514 80" />
      <polygon style="fill:none; stroke:silver;" points=" 514 81 512 96 508 111 504 125 499 138 493 147 483 163 476 174 468 183 460 190 450 197 440 204 429 211 421 216 414 219 407 223 396 226 395 223 409 216 424 206 435 199 448 188 455 181 462 173 470 163 476 155 481 146 487 133 491 123 495 111 497 99 501 79 514 80" />
      <polygon style="fill:silver; stroke:none;" points=" 396 75 534 74 542 60 563 80 417 80 403 84 396 75" />
      <polygon style="fill:none; stroke:silver;" points=" 396 75 534 74 542 60 563 80 417 80 403 84 396 75" />
      <polygon style="fill:rgb(64,64,64); stroke:none;" points=" 451 21 464 27 473 33 481 39 488 48 488 56 485 63 481 67 477 66 474 59 471 50 468 44 464 38 460 32 450 23" />
      <polygon style="fill:none; stroke:rgb(64,64,64);" points=" 451 21 464 27 473 33 481 39 488 48 488 56 485 63 481 67 477 66 474 59 471 50 468 44 464 38 460 32 450 23" />
      <path d="M451 21 L485 63" style="fill:none; stroke-width:4; stroke:red;" />
      <circle style="fill:lime; stroke:none;" r="7" cx="451" cy="21" />
      <rect x="602" y="2" width="300" style="fill:none;" height="300" />
      <line x1="602" x2="902" y1="2" style="fill:none;" y2="302" />
      <line x1="902" x2="602" y1="2" style="fill:none;" y2="302" />
      <line x1="752" x2="752" y1="2" style="fill:none;" y2="302" />
      <line x1="602" x2="902" y1="152" style="fill:none;" y2="152" />
      <polygon style="fill:silver; stroke:none;" points=" 619 250 659 210 672 210 663 215 658 221 647 235 641 245 634 259 619 251" />
      <polygon style="fill:none; stroke:silver;" points=" 619 250 659 210 672 210 663 215 658 221 647 235 641 245 634 259 619 251" />
      <polygon style="fill:silver; stroke:none;" points=" 666 212 671 220 676 227 683 236 689 242 697 248 707 253 714 255 723 258 729 259 730 248 719 246 709 243 701 239 696 237 689 233 684 228 679 223 676 217 672 209 666 211" />
      <polygon style="fill:none; stroke:silver;" points=" 666 212 671 220 676 227 683 236 689 242 697 248 707 253 714 255 723 258 729 259 730 248 719 246 709 243 701 239 696 237 689 233 684 228 679 223 676 217 672 209 666 211" />
      <polygon style="fill:silver; stroke:none;" points=" 728 248 740 248 793 248 827 246 849 244 868 242 869 244 863 246 857 249 852 251 848 254 845 260 756 261 742 259 729 259 723 258" />
      <polygon style="fill:none; stroke:silver;" points=" 728 248 740 248 793 248 827 246 849 244 868 242 869 244 863 246 857 249 852 251 848 254 845 260 756 261 742 259 729 259 723 258" />
      <polygon style="fill:silver; stroke:none;" points=" 617 123 657 123 665 112 684 124 659 127 631 128 625 130 618 123" />
      <polygon style="fill:none; stroke:silver;" points=" 617 123 657 123 665 112 684 124 659 127 631 128 625 130 618 123" />
      <polygon style="fill:silver; stroke:none;" points=" 659 128 659 209 672 209 672 132 684 124 659 126" />
      <polygon style="fill:none; stroke:silver;" points=" 659 128 659 209 672 209 672 132 684 124 659 126" />
      <polygon style="fill:silver; stroke:none;" points=" 638 35 653 43 668 53 674 61 679 68 679 74 676 79 673 84 669 84 666 79 663 71 659 64 655 58 651 52 647 48 636 36" />
      <polygon style="fill:none; stroke:silver;" points=" 638 35 653 43 668 53 674 61 679 68 679 74 676 79 673 84 669 84 666 79 663 71 659 64 655 58 651 52 647 48 636 36" />
      <polygon style="fill:silver; stroke:none;" points=" 714 113 734 125 750 136 765 147 786 164 796 174 807 186 815 196 820 204 826 212 833 213 836 209 836 203 834 196 831 191 823 182 814 174 804 165 795 158 790 154 780 147 768 138 756 132 747 126 739 121 729 116 721 113 715 109" />
      <polygon style="fill:none; stroke:silver;" points=" 714 113 734 125 750 136 765 147 786 164 796 174 807 186 815 196 820 204 826 212 833 213 836 209 836 203 834 196 831 191 823 182 814 174 804 165 795 158 790 154 780 147 768 138 756 132 747 126 739 121 729 116 721 113 715 109" />
      <polygon style="fill:silver; stroke:none;" points=" 814 81 812 96 808 111 804 125 799 138 793 147 783 163 776 174 768 183 760 190 750 197 740 204 729 211 721 216 714 219 707 223 696 226 695 223 709 216 724 206 735 199 748 188 755 181 762 173 770 163 776 155 781 146 787 133 791 123 795 111 797 99 801 79 814 80" />
      <polygon style="fill:none; stroke:silver;" points=" 814 81 812 96 808 111 804 125 799 138 793 147 783 163 776 174 768 183 760 190 750 197 740 204 729 211 721 216 714 219 707 223 696 226 695 223 709 216 724 206 735 199 748 188 755 181 762 173 770 163 776 155 781 146 787 133 791 123 795 111 797 99 801 79 814 80" />
      <polygon style="fill:rgb(64,64,64); stroke:none;" points=" 696 75 834 74 842 60 863 80 717 80 703 84 696 75" />
      <polygon style="fill:none; stroke:rgb(64,64,64);" points=" 696 75 834 74 842 60 863 80 717 80 703 84 696 75" />
      <polygon style="fill:rgb(64,64,64); stroke:none;" points=" 751 21 764 27 773 33 781 39 788 48 788 56 785 63 781 67 777 66 774 59 771 50 768 44 764 38 760 32 750 23" />
      <polygon style="fill:none; stroke:rgb(64,64,64);" points=" 751 21 764 27 773 33 781 39 788 48 788 56 785 63 781 67 777 66 774 59 771 50 768 44 764 38 760 32 750 23" />
      <path d="M696 75 L863 80" style="fill:none; stroke-width:4; stroke:red;" />
      <circle style="fill:lime; stroke:none;" r="7" cx="696" cy="75" />
      <rect x="902" y="2" width="300" style="fill:none;" height="300" />
      <line x1="902" x2="1202" y1="2" style="fill:none;" y2="302" />
      <line x1="1202" x2="902" y1="2" style="fill:none;" y2="302" />
      <line x1="1052" x2="1052" y1="2" style="fill:none;" y2="302" />
      <line x1="902" x2="1202" y1="152" style="fill:none;" y2="152" />
      <polygon style="fill:silver; stroke:none;" points=" 919 250 959 210 972 210 963 215 958 221 947 235 941 245 934 259 919 251" />
      <polygon style="fill:none; stroke:silver;" points=" 919 250 959 210 972 210 963 215 958 221 947 235 941 245 934 259 919 251" />
      <polygon style="fill:silver; stroke:none;" points=" 966 212 971 220 976 227 983 236 989 242 997 248 1007 253 1014 255 1023 258 1029 259 1030 248 1019 246 1009 243 1001 239 996 237 989 233 984 228 979 223 976 217 972 209 966 211" />
      <polygon style="fill:none; stroke:silver;" points=" 966 212 971 220 976 227 983 236 989 242 997 248 1007 253 1014 255 1023 258 1029 259 1030 248 1019 246 1009 243 1001 239 996 237 989 233 984 228 979 223 976 217 972 209 966 211" />
      <polygon style="fill:silver; stroke:none;" points=" 1028 248 1040 248 1093 248 1127 246 1149 244 1168 242 1169 244 1163 246 1157 249 1152 251 1148 254 1145 260 1056 261 1042 259 1029 259 1023 258" />
      <polygon style="fill:none; stroke:silver;" points=" 1028 248 1040 248 1093 248 1127 246 1149 244 1168 242 1169 244 1163 246 1157 249 1152 251 1148 254 1145 260 1056 261 1042 259 1029 259 1023 258" />
      <polygon style="fill:silver; stroke:none;" points=" 917 123 957 123 965 112 984 124 959 127 931 128 925 130 918 123" />
      <polygon style="fill:none; stroke:silver;" points=" 917 123 957 123 965 112 984 124 959 127 931 128 925 130 918 123" />
      <polygon style="fill:silver; stroke:none;" points=" 959 128 959 209 972 209 972 132 984 124 959 126" />
      <polygon style="fill:none; stroke:silver;" points=" 959 128 959 209 972 209 972 132 984 124 959 126" />
      <polygon style="fill:silver; stroke:none;" points=" 938 35 953 43 968 53 974 61 979 68 979 74 976 79 973 84 969 84 966 79 963 71 959 64 955 58 951 52 947 48 936 36" />
      <polygon style="fill:none; stroke:silver;" points=" 938 35 953 43 968 53 974 61 979 68 979 74 976 79 973 84 969 84 966 79 963 71 959 64 955 58 951 52 947 48 936 36" />
      <polygon style="fill:silver; stroke:none;" points=" 1014 113 1034 125 1050 136 1065 147 1086 164 1096 174 1107 186 1115 196 1120 204 1126 212 1133 213 1136 209 1136 203 1134 196 1131 191 1123 182 1114 174 1104 165 1095 158 1090 154 1080 147 1068 138 1056 132 1047 126 1039 121 1029 116 1021 113 1015 109" />
      <polygon style="fill:none; stroke:silver;" points=" 1014 113 1034 125 1050 136 1065 147 1086 164 1096 174 1107 186 1115 196 1120 204 1126 212 1133 213 1136 209 1136 203 1134 196 1131 191 1123 182 1114 174 1104 165 1095 158 1090 154 1080 147 1068 138 1056 132 1047 126 1039 121 1029 116 1021 113 1015 109" />
      <polygon style="fill:rgb(64,64,64); stroke:none;" points=" 1114 81 1112 96 1108 111 1104 125 1099 138 1093 147 1083 163 1076 174 1068 183 1060 190 1050 197 1040 204 1029 211 1021 216 1014 219 1007 223 996 226 995 223 1009 216 1024 206 1035 199 1048 188 1055 181 1062 173 1070 163 1076 155 1081 146 1087 133 1091 123 1095 111 1097 99 1101 79 1114 80" />
      <polygon style="fill:none; stroke:rgb(64,64,64);" points=" 1114 81 1112 96 1108 111 1104 125 1099 138 1093 147 1083 163 1076 174 1068 183 1060 190 1050 197 1040 204 1029 211 1021 216 1014 219 1007 223 996 226 995 223 1009 216 1024 206 1035 199 1048 188 1055 181 1062 173 1070 163 1076 155 1081 146 1087 133 1091 123 1095 111 1097 99 1101 79 1114 80" />
      <polygon style="fill:rgb(64,64,64); stroke:none;" points=" 996 75 1134 74 1142 60 1163 80 1017 80 1003 84 996 75" />
      <polygon style="fill:none; stroke:rgb(64,64,64);" points=" 996 75 1134 74 1142 60 1163 80 1017 80 1003 84 996 75" />
      <polygon style="fill:rgb(64,64,64); stroke:none;" points=" 1051 21 1064 27 1073 33 1081 39 1088 48 1088 56 1085 63 1081 67 1077 66 1074 59 1071 50 1068 44 1064 38 1060 32 1050 23" />
      <polygon style="fill:none; stroke:rgb(64,64,64);" points=" 1051 21 1064 27 1073 33 1081 39 1088 48 1088 56 1085 63 1081 67 1077 66 1074 59 1071 50 1068 44 1064 38 1060 32 1050 23" />
      <path d="M1114 80 L996 226" style="fill:none; stroke-width:4; stroke:red;" />
      <circle style="fill:lime; stroke:none;" r="7" cx="1114" cy="80" />
      <rect x="1202" y="2" width="300" style="fill:none;" height="300" />
      <line x1="1202" x2="1502" y1="2" style="fill:none;" y2="302" />
      <line x1="1502" x2="1202" y1="2" style="fill:none;" y2="302" />
      <line x1="1352" x2="1352" y1="2" style="fill:none;" y2="302" />
      <line x1="1202" x2="1502" y1="152" style="fill:none;" y2="152" />
      <polygon style="fill:silver; stroke:none;" points=" 1219 250 1259 210 1272 210 1263 215 1258 221 1247 235 1241 245 1234 259 1219 251" />
      <polygon style="fill:none; stroke:silver;" points=" 1219 250 1259 210 1272 210 1263 215 1258 221 1247 235 1241 245 1234 259 1219 251" />
      <polygon style="fill:silver; stroke:none;" points=" 1266 212 1271 220 1276 227 1283 236 1289 242 1297 248 1307 253 1314 255 1323 258 1329 259 1330 248 1319 246 1309 243 1301 239 1296 237 1289 233 1284 228 1279 223 1276 217 1272 209 1266 211" />
      <polygon style="fill:none; stroke:silver;" points=" 1266 212 1271 220 1276 227 1283 236 1289 242 1297 248 1307 253 1314 255 1323 258 1329 259 1330 248 1319 246 1309 243 1301 239 1296 237 1289 233 1284 228 1279 223 1276 217 1272 209 1266 211" />
      <polygon style="fill:silver; stroke:none;" points=" 1328 248 1340 248 1393 248 1427 246 1449 244 1468 242 1469 244 1463 246 1457 249 1452 251 1448 254 1445 260 1356 261 1342 259 1329 259 1323 258" />
      <polygon style="fill:none; stroke:silver;" points=" 1328 248 1340 248 1393 248 1427 246 1449 244 1468 242 1469 244 1463 246 1457 249 1452 251 1448 254 1445 260 1356 261 1342 259 1329 259 1323 258" />
      <polygon style="fill:silver; stroke:none;" points=" 1217 123 1257 123 1265 112 1284 124 1259 127 1231 128 1225 130 1218 123" />
      <polygon style="fill:none; stroke:silver;" points=" 1217 123 1257 123 1265 112 1284 124 1259 127 1231 128 1225 130 1218 123" />
      <polygon style="fill:silver; stroke:none;" points=" 1259 128 1259 209 1272 209 1272 132 1284 124 1259 126" />
      <polygon style="fill:none; stroke:silver;" points=" 1259 128 1259 209 1272 209 1272 132 1284 124 1259 126" />
      <polygon style="fill:silver; stroke:none;" points=" 1238 35 1253 43 1268 53 1274 61 1279 68 1279 74 1276 79 1273 84 1269 84 1266 79 1263 71 1259 64 1255 58 1251 52 1247 48 1236 36" />
      <polygon style="fill:none; stroke:silver;" points=" 1238 35 1253 43 1268 53 1274 61 1279 68 1279 74 1276 79 1273 84 1269 84 1266 79 1263 71 1259 64 1255 58 1251 52 1247 48 1236 36" />
      <polygon style="fill:rgb(64,64,64); stroke:none;" points=" 1314 113 1334 125 1350 136 1365 147 1386 164 1396 174 1407 186 1415 196 1420 204 1426 212 1433 213 1436 209 1436 203 1434 196 1431 191 1423 182 1414 174 1404 165 1395 158 1390 154 1380 147 1368 138 1356 132 1347 126 1339 121 1329 116 1321 113 1315 109" />
      <polygon style="fill:none; stroke:rgb(64,64,64);" points=" 1314 113 1334 125 1350 136 1365 147 1386 164 1396 174 1407 186 1415 196 1420 204 1426 212 1433 213 1436 209 1436 203 1434 196 1431 191 1423 182 1414 174 1404 165 1395 158 1390 154 1380 147 1368 138 1356 132 1347 126 1339 121 1329 116 1321 113 1315 109" />
      <polygon style="fill:rgb(64,64,64); stroke:none;" points=" 1414 81 1412 96 1408 111 1404 125 1399 138 1393 147 1383 163 1376 174 1368 183 1360 190 1350 197 1340 204 1329 211 1321 216 1314 219 1307 223 1296 226 1295 223 1309 216 1324 206 1335 199 1348 188 1355 181 1362 173 1370 163 1376 155 1381 146 1387 133 1391 123 1395 111 1397 99 1401 79 1414 80" />
      <polygon style="fill:none; stroke:rgb(64,64,64);" points=" 1414 81 1412 96 1408 111 1404 125 1399 138 1393 147 1383 163 1376 174 1368 183 1360 190 1350 197 1340 204 1329 211 1321 216 1314 219 1307 223 1296 226 1295 223 1309 216 1324 206 1335 199 1348 188 1355 181 1362 173 1370 163 1376 155 1381 146 1387 133 1391 123 1395 111 1397 99 1401 79 1414 80" />
      <polygon style="fill:rgb(64,64,64); stroke:none;" points=" 1296 75 1434 74 1442 60 1463 80 1317 80 1303 84 1296 75" />
      <polygon style="fill:none; stroke:rgb(64,64,64);" points=" 1296 75 1434 74 1442 60 1463 80 1317 80 1303 84 1296 75" />
      <polygon style="fill:rgb(64,64,64); stroke:none;" points=" 1351 21 1364 27 1373 33 1381 39 1388 48 1388 56 1385 63 1381 67 1377 66 1374 59 1371 50 1368 44 1364 38 1360 32 1350 23" />
      <polygon style="fill:none; stroke:rgb(64,64,64);" points=" 1351 21 1364 27 1373 33 1381 39 1388 48 1388 56 1385 63 1381 67 1377 66 1374 59 1371 50 1368 44 1364 38 1360 32 1350 23" />
      <path d="M1315 109 L1433 213" style="fill:none; stroke-width:4; stroke:red;" />
      <circle style="fill:lime; stroke:none;" r="7" cx="1315" cy="109" />
      <rect x="1502" y="2" width="300" style="fill:none;" height="300" />
      <line x1="1502" x2="1802" y1="2" style="fill:none;" y2="302" />
      <line x1="1802" x2="1502" y1="2" style="fill:none;" y2="302" />
      <line x1="1652" x2="1652" y1="2" style="fill:none;" y2="302" />
      <line x1="1502" x2="1802" y1="152" style="fill:none;" y2="152" />
      <polygon style="fill:silver; stroke:none;" points=" 1519 250 1559 210 1572 210 1563 215 1558 221 1547 235 1541 245 1534 259 1519 251" />
      <polygon style="fill:none; stroke:silver;" points=" 1519 250 1559 210 1572 210 1563 215 1558 221 1547 235 1541 245 1534 259 1519 251" />
      <polygon style="fill:silver; stroke:none;" points=" 1566 212 1571 220 1576 227 1583 236 1589 242 1597 248 1607 253 1614 255 1623 258 1629 259 1630 248 1619 246 1609 243 1601 239 1596 237 1589 233 1584 228 1579 223 1576 217 1572 209 1566 211" />
      <polygon style="fill:none; stroke:silver;" points=" 1566 212 1571 220 1576 227 1583 236 1589 242 1597 248 1607 253 1614 255 1623 258 1629 259 1630 248 1619 246 1609 243 1601 239 1596 237 1589 233 1584 228 1579 223 1576 217 1572 209 1566 211" />
      <polygon style="fill:silver; stroke:none;" points=" 1628 248 1640 248 1693 248 1727 246 1749 244 1768 242 1769 244 1763 246 1757 249 1752 251 1748 254 1745 260 1656 261 1642 259 1629 259 1623 258" />
      <polygon style="fill:none; stroke:silver;" points=" 1628 248 1640 248 1693 248 1727 246 1749 244 1768 242 1769 244 1763 246 1757 249 1752 251 1748 254 1745 260 1656 261 1642 259 1629 259 1623 258" />
      <polygon style="fill:silver; stroke:none;" points=" 1517 123 1557 123 1565 112 1584 124 1559 127 1531 128 1525 130 1518 123" />
      <polygon style="fill:none; stroke:silver;" points=" 1517 123 1557 123 1565 112 1584 124 1559 127 1531 128 1525 130 1518 123" />
      <polygon style="fill:silver; stroke:none;" points=" 1559 128 1559 209 1572 209 1572 132 1584 124 1559 126" />
      <polygon style="fill:none; stroke:silver;" points=" 1559 128 1559 209 1572 209 1572 132 1584 124 1559 126" />
      <polygon style="fill:rgb(64,64,64); stroke:none;" points=" 1538 35 1553 43 1568 53 1574 61 1579 68 1579 74 1576 79 1573 84 1569 84 1566 79 1563 71 1559 64 1555 58 1551 52 1547 48 1536 36" />
      <polygon style="fill:none; stroke:rgb(64,64,64);" points=" 1538 35 1553 43 1568 53 1574 61 1579 68 1579 74 1576 79 1573 84 1569 84 1566 79 1563 71 1559 64 1555 58 1551 52 1547 48 1536 36" />
      <polygon style="fill:rgb(64,64,64); stroke:none;" points=" 1614 113 1634 125 1650 136 1665 147 1686 164 1696 174 1707 186 1715 196 1720 204 1726 212 1733 213 1736 209 1736 203 1734 196 1731 191 1723 182 1714 174 1704 165 1695 158 1690 154 1680 147 1668 138 1656 132 1647 126 1639 121 1629 116 1621 113 1615 109" />
      <polygon style="fill:none; stroke:rgb(64,64,64);" points=" 1614 113 1634 125 1650 136 1665 147 1686 164 1696 174 1707 186 1715 196 1720 204 1726 212 1733 213 1736 209 1736 203 1734 196 1731 191 1723 182 1714 174 1704 165 1695 158 1690 154 1680 147 1668 138 1656 132 1647 126 1639 121 1629 116 1621 113 1615 109" />
      <polygon style="fill:rgb(64,64,64); stroke:none;" points=" 1714 81 1712 96 1708 111 1704 125 1699 138 1693 147 1683 163 1676 174 1668 183 1660 190 1650 197 1640 204 1629 211 1621 216 1614 219 1607 223 1596 226 1595 223 1609 216 1624 206 1635 199 1648 188 1655 181 1662 173 1670 163 1676 155 1681 146 1687 133 1691 123 1695 111 1697 99 1701 79 1714 80" />
      <polygon style="fill:none; stroke:rgb(64,64,64);" points=" 1714 81 1712 96 1708 111 1704 125 1699 138 1693 147 1683 163 1676 174 1668 183 1660 190 1650 197 1640 204 1629 211 1621 216 1614 219 1607 223 1596 226 1595 223 1609 216 1624 206 1635 199 1648 188 1655 181 1662 173 1670 163 1676 155 1681 146 1687 133 1691 123 1695 111 1697 99 1701 79 1714 80" />
      <polygon style="fill:rgb(64,64,64); stroke:none;" points=" 1596 75 1734 74 1742 60 1763 80 1617 80 1603 84 1596 75" />
      <polygon style="fill:none; stroke:rgb(64,64,64);" points=" 1596 75 1734 74 1742 60 1763 80 1617 80 1603 84 1596 75" />
      <polygon style="fill:rgb(64,64,64); stroke:none;" points=" 1651 21 1664 27 1673 33 1681 39 1688 48 1688 56 1685 63 1681 67 1677 66 1674 59 1671 50 1668 44 1664 38 1660 32 1650 23" />
      <polygon style="fill:none; stroke:rgb(64,64,64);" points=" 1651 21 1664 27 1673 33 1681 39 1688 48 1688 56 1685 63 1681 67 1677 66 1674 59 1671 50 1668 44 1664 38 1660 32 1650 23" />
      <path d="M1536 36 L1573 84" style="fill:none; stroke-width:4; stroke:red;" />
      <circle style="fill:lime; stroke:none;" r="7" cx="1536" cy="36" />
      <rect x="1802" y="2" width="300" style="fill:none;" height="300" />
      <line x1="1802" x2="2102" y1="2" style="fill:none;" y2="302" />
      <line x1="2102" x2="1802" y1="2" style="fill:none;" y2="302" />
      <line x1="1952" x2="1952" y1="2" style="fill:none;" y2="302" />
      <line x1="1802" x2="2102" y1="152" style="fill:none;" y2="152" />
      <polygon style="fill:silver; stroke:none;" points=" 1819 250 1859 210 1872 210 1863 215 1858 221 1847 235 1841 245 1834 259 1819 251" />
      <polygon style="fill:none; stroke:silver;" points=" 1819 250 1859 210 1872 210 1863 215 1858 221 1847 235 1841 245 1834 259 1819 251" />
      <polygon style="fill:silver; stroke:none;" points=" 1866 212 1871 220 1876 227 1883 236 1889 242 1897 248 1907 253 1914 255 1923 258 1929 259 1930 248 1919 246 1909 243 1901 239 1896 237 1889 233 1884 228 1879 223 1876 217 1872 209 1866 211" />
      <polygon style="fill:none; stroke:silver;" points=" 1866 212 1871 220 1876 227 1883 236 1889 242 1897 248 1907 253 1914 255 1923 258 1929 259 1930 248 1919 246 1909 243 1901 239 1896 237 1889 233 1884 228 1879 223 1876 217 1872 209 1866 211" />
      <polygon style="fill:silver; stroke:none;" points=" 1928 248 1940 248 1993 248 2027 246 2049 244 2068 242 2069 244 2063 246 2057 249 2052 251 2048 254 2045 260 1956 261 1942 259 1929 259 1923 258" />
      <polygon style="fill:none; stroke:silver;" points=" 1928 248 1940 248 1993 248 2027 246 2049 244 2068 242 2069 244 2063 246 2057 249 2052 251 2048 254 2045 260 1956 261 1942 259 1929 259 1923 258" />
      <polygon style="fill:rgb(64,64,64); stroke:none;" points=" 1817 123 1857 123 1865 112 1884 124 1859 127 1831 128 1825 130 1818 123" />
      <polygon style="fill:none; stroke:rgb(64,64,64);" points=" 1817 123 1857 123 1865 112 1884 124 1859 127 1831 128 1825 130 1818 123" />
      <polygon style="fill:rgb(64,64,64); stroke:none;" points=" 1859 128 1859 209 1872 209 1872 132 1884 124 1859 126" />
      <polygon style="fill:none; stroke:rgb(64,64,64);" points=" 1859 128 1859 209 1872 209 1872 132 1884 124 1859 126" />
      <polygon style="fill:rgb(64,64,64); stroke:none;" points=" 1838 35 1853 43 1868 53 1874 61 1879 68 1879 74 1876 79 1873 84 1869 84 1866 79 1863 71 1859 64 1855 58 1851 52 1847 48 1836 36" />
      <polygon style="fill:none; stroke:rgb(64,64,64);" points=" 1838 35 1853 43 1868 53 1874 61 1879 68 1879 74 1876 79 1873 84 1869 84 1866 79 1863 71 1859 64 1855 58 1851 52 1847 48 1836 36" />
      <polygon style="fill:rgb(64,64,64); stroke:none;" points=" 1914 113 1934 125 1950 136 1965 147 1986 164 1996 174 2007 186 2015 196 2020 204 2026 212 2033 213 2036 209 2036 203 2034 196 2031 191 2023 182 2014 174 2004 165 1995 158 1990 154 1980 147 1968 138 1956 132 1947 126 1939 121 1929 116 1921 113 1915 109" />
      <polygon style="fill:none; stroke:rgb(64,64,64);" points=" 1914 113 1934 125 1950 136 1965 147 1986 164 1996 174 2007 186 2015 196 2020 204 2026 212 2033 213 2036 209 2036 203 2034 196 2031 191 2023 182 2014 174 2004 165 1995 158 1990 154 1980 147 1968 138 1956 132 1947 126 1939 121 1929 116 1921 113 1915 109" />
      <polygon style="fill:rgb(64,64,64); stroke:none;" points=" 2014 81 2012 96 2008 111 2004 125 1999 138 1993 147 1983 163 1976 174 1968 183 1960 190 1950 197 1940 204 1929 211 1921 216 1914 219 1907 223 1896 226 1895 223 1909 216 1924 206 1935 199 1948 188 1955 181 1962 173 1970 163 1976 155 1981 146 1987 133 1991 123 1995 111 1997 99 2001 79 2014 80" />
      <polygon style="fill:none; stroke:rgb(64,64,64);" points=" 2014 81 2012 96 2008 111 2004 125 1999 138 1993 147 1983 163 1976 174 1968 183 1960 190 1950 197 1940 204 1929 211 1921 216 1914 219 1907 223 1896 226 1895 223 1909 216 1924 206 1935 199 1948 188 1955 181 1962 173 1970 163 1976 155 1981 146 1987 133 1991 123 1995 111 1997 99 2001 79 2014 80" />
      <polygon style="fill:rgb(64,64,64); stroke:none;" points=" 1896 75 2034 74 2042 60 2063 80 1917 80 1903 84 1896 75" />
      <polygon style="fill:none; stroke:rgb(64,64,64);" points=" 1896 75 2034 74 2042 60 2063 80 1917 80 1903 84 1896 75" />
      <polygon style="fill:rgb(64,64,64); stroke:none;" points=" 1951 21 1964 27 1973 33 1981 39 1988 48 1988 56 1985 63 1981 67 1977 66 1974 59 1971 50 1968 44 1964 38 1960 32 1950 23" />
      <polygon style="fill:none; stroke:rgb(64,64,64);" points=" 1951 21 1964 27 1973 33 1981 39 1988 48 1988 56 1985 63 1981 67 1977 66 1974 59 1971 50 1968 44 1964 38 1960 32 1950 23" />
      <path d="M1817 123 L1884 124 L1859 209" style="fill:none; stroke-width:4; stroke:red;" />
      <circle style="fill:lime; stroke:none;" r="7" cx="1817" cy="123" />
      <rect x="2102" y="2" width="300" style="fill:none;" height="300" />
      <line x1="2102" x2="2402" y1="2" style="fill:none;" y2="302" />
      <line x1="2402" x2="2102" y1="2" style="fill:none;" y2="302" />
      <line x1="2252" x2="2252" y1="2" style="fill:none;" y2="302" />
      <line x1="2102" x2="2402" y1="152" style="fill:none;" y2="152" />
      <polygon style="fill:rgb(64,64,64); stroke:none;" points=" 2119 250 2159 210 2172 210 2163 215 2158 221 2147 235 2141 245 2134 259 2119 251" />
      <polygon style="fill:none; stroke:rgb(64,64,64);" points=" 2119 250 2159 210 2172 210 2163 215 2158 221 2147 235 2141 245 2134 259 2119 251" />
      <polygon style="fill:rgb(64,64,64); stroke:none;" points=" 2166 212 2171 220 2176 227 2183 236 2189 242 2197 248 2207 253 2214 255 2223 258 2229 259 2230 248 2219 246 2209 243 2201 239 2196 237 2189 233 2184 228 2179 223 2176 217 2172 209 2166 211" />
      <polygon style="fill:none; stroke:rgb(64,64,64);" points=" 2166 212 2171 220 2176 227 2183 236 2189 242 2197 248 2207 253 2214 255 2223 258 2229 259 2230 248 2219 246 2209 243 2201 239 2196 237 2189 233 2184 228 2179 223 2176 217 2172 209 2166 211" />
      <polygon style="fill:rgb(64,64,64); stroke:none;" points=" 2228 248 2240 248 2293 248 2327 246 2349 244 2368 242 2369 244 2363 246 2357 249 2352 251 2348 254 2345 260 2256 261 2242 259 2229 259 2223 258" />
      <polygon style="fill:none; stroke:rgb(64,64,64);" points=" 2228 248 2240 248 2293 248 2327 246 2349 244 2368 242 2369 244 2363 246 2357 249 2352 251 2348 254 2345 260 2256 261 2242 259 2229 259 2223 258" />
      <polygon style="fill:rgb(64,64,64); stroke:none;" points=" 2117 123 2157 123 2165 112 2184 124 2159 127 2131 128 2125 130 2118 123" />
      <polygon style="fill:none; stroke:rgb(64,64,64);" points=" 2117 123 2157 123 2165 112 2184 124 2159 127 2131 128 2125 130 2118 123" />
      <polygon style="fill:rgb(64,64,64); stroke:none;" points=" 2159 128 2159 209 2172 209 2172 132 2184 124 2159 126" />
      <polygon style="fill:none; stroke:rgb(64,64,64);" points=" 2159 128 2159 209 2172 209 2172 132 2184 124 2159 126" />
      <polygon style="fill:rgb(64,64,64); stroke:none;" points=" 2138 35 2153 43 2168 53 2174 61 2179 68 2179 74 2176 79 2173 84 2169 84 2166 79 2163 71 2159 64 2155 58 2151 52 2147 48 2136 36" />
      <polygon style="fill:none; stroke:rgb(64,64,64);" points=" 2138 35 2153 43 2168 53 2174 61 2179 68 2179 74 2176 79 2173 84 2169 84 2166 79 2163 71 2159 64 2155 58 2151 52 2147 48 2136 36" />
      <polygon style="fill:rgb(64,64,64); stroke:none;" points=" 2214 113 2234 125 2250 136 2265 147 2286 164 2296 174 2307 186 2315 196 2320 204 2326 212 2333 213 2336 209 2336 203 2334 196 2331 191 2323 182 2314 174 2304 165 2295 158 2290 154 2280 147 2268 138 2256 132 2247 126 2239 121 2229 116 2221 113 2215 109" />
      <polygon style="fill:none; stroke:rgb(64,64,64);" points=" 2214 113 2234 125 2250 136 2265 147 2286 164 2296 174 2307 186 2315 196 2320 204 2326 212 2333 213 2336 209 2336 203 2334 196 2331 191 2323 182 2314 174 2304 165 2295 158 2290 154 2280 147 2268 138 2256 132 2247 126 2239 121 2229 116 2221 113 2215 109" />
      <polygon style="fill:rgb(64,64,64); stroke:none;" points=" 2314 81 2312 96 2308 111 2304 125 2299 138 2293 147 2283 163 2276 174 2268 183 2260 190 2250 197 2240 204 2229 211 2221 216 2214 219 2207 223 2196 226 2195 223 2209 216 2224 206 2235 199 2248 188 2255 181 2262 173 2270 163 2276 155 2281 146 2287 133 2291 123 2295 111 2297 99 2301 79 2314 80" />
      <polygon style="fill:none; stroke:rgb(64,64,64);" points=" 2314 81 2312 96 2308 111 2304 125 2299 138 2293 147 2283 163 2276 174 2268 183 2260 190 2250 197 2240 204 2229 211 2221 216 2214 219 2207 223 2196 226 2195 223 2209 216 2224 206 2235 199 2248 188 2255 181 2262 173 2270 163 2276 155 2281 146 2287 133 2291 123 2295 111 2297 99 2301 79 2314 80" />
      <polygon style="fill:rgb(64,64,64); stroke:none;" points=" 2196 75 2334 74 2342 60 2363 80 2217 80 2203 84 2196 75" />
      <polygon style="fill:none; stroke:rgb(64,64,64);" points=" 2196 75 2334 74 2342 60 2363 80 2217 80 2203 84 2196 75" />
      <polygon style="fill:rgb(64,64,64); stroke:none;" points=" 2251 21 2264 27 2273 33 2281 39 2288 48 2288 56 2285 63 2281 67 2277 66 2274 59 2271 50 2268 44 2264 38 2260 32 2250 23" />
      <polygon style="fill:none; stroke:rgb(64,64,64);" points=" 2251 21 2264 27 2273 33 2281 39 2288 48 2288 56 2285 63 2281 67 2277 66 2274 59 2271 50 2268 44 2264 38 2260 32 2250 23" />
      <path d="M2119 251 L2172 210 L2229 259 L2369 244" style="fill:none; stroke-width:4; stroke:red;" />
      <circle style="fill:lime; stroke:none;" r="7" cx="2119" cy="251" />
    </g>
  </g>
</svg>
