<?xml version="1.0" encoding="UTF-8"?>

<!DOCTYPE svg PUBLIC '-//W3C//DTD SVG 1.0//EN' 'http://www.w3.org/TR/2001/REC-SVG-20010904/DTD/svg10.dtd'>
<svg style="fill-opacity:1; color-rendering:auto; color-interpolation:auto; stroke:black; text-rendering:auto; stroke-linecap:square; stroke-miterlimit:10; stroke-opacity:1; shape-rendering:auto; fill:black; stroke-dasharray:none; font-weight:normal; stroke-width:1; font-family:&apos;Dialog&apos;; font-style:normal; stroke-linejoin:miter; font-size:12; stroke-dashoffset:0; image-rendering:auto;" xmlns="http://www.w3.org/2000/svg" width="904" xmlns:xlink="http://www.w3.org/1999/xlink" height="304">
  <!--Generated by the Batik Graphics2D SVG Generator-->
  <defs id="genericDefs" />
  <g>
    <g style="fill:rgb(128,128,255); stroke:rgb(128,128,255);">
      <rect x="2" y="2" width="300" style="fill:none;" height="300" />
      <line x1="2" x2="302" y1="2" style="fill:none;" y2="302" />
      <line x1="302" x2="2" y1="2" style="fill:none;" y2="302" />
      <line x1="152" x2="152" y1="2" style="fill:none;" y2="302" />
      <line x1="2" x2="302" y1="152" style="fill:none;" y2="152" />
      <polygon style="fill:black; stroke:none;" points=" 140 233 156 260 161 249 163 241 164 232 165 221 165 216 165 208 165 200 164 189 163 178 163 164 161 149 160 137 158 127 156 120 155 115 149 108 141 103 134 101 131 102 131 107 136 113 139 119 141 127 143 135 144 144 145 153 146 163 147 174 147 184 147 193 147 201 147 209 147 215 144 228" />
      <polygon style="fill:none; stroke:black;" points=" 140 233 156 260 161 249 163 241 164 232 165 221 165 216 165 208 165 200 164 189 163 178 163 164 161 149 160 137 158 127 156 120 155 115 149 108 141 103 134 101 131 102 131 107 136 113 139 119 141 127 143 135 144 144 145 153 146 163 147 174 147 184 147 193 147 201 147 209 147 215 144 228" />
      <polygon style="fill:black; stroke:none;" points=" 140 233 135 234 127 234 116 232 105 231 98 230 96 231 100 236 115 244 125 251 132 258 136 264 137 271 140 274 144 272 150 268 156 260" />
      <polygon style="fill:none; stroke:black;" points=" 140 233 135 234 127 234 116 232 105 231 98 230 96 231 100 236 115 244 125 251 132 258 136 264 137 271 140 274 144 272 150 268 156 260" />
      <polygon style="fill:black; stroke:none;" points=" 207 32 195 51 188 49 184 50 177 51 166 53 153 56 142 58 133 60 124 62 116 64 108 66 101 67 89 70 80 71 75 71 68 69 62 65 56 61 52 55 71 54 89 52 105 51 119 49 131 48 141 46 150 45 159 43 167 42 174 41 181 39 192 36 199 33 198 34" />
      <polygon style="fill:none; stroke:black;" points=" 207 32 195 51 188 49 184 50 177 51 166 53 153 56 142 58 133 60 124 62 116 64 108 66 101 67 89 70 80 71 75 71 68 69 62 65 56 61 52 55 71 54 89 52 105 51 119 49 131 48 141 46 150 45 159 43 167 42 174 41 181 39 192 36 199 33 198 34" />
      <polygon style="fill:black; stroke:none;" points=" 207 32 195 51 194 54 190 59 183 67 172 79 159 94 143 111 150 118 168 102 183 88 197 77 207 69 216 64 222 61 232 59 236 56 233 52 224 43 213 36" />
      <polygon style="fill:none; stroke:black;" points=" 207 32 195 51 194 54 190 59 183 67 172 79 159 94 143 111 150 118 168 102 183 88 197 77 207 69 216 64 222 61 232 59 236 56 233 52 224 43 213 36" />
      <rect x="302" y="2" width="300" style="fill:none;" height="300" />
      <line x1="302" x2="602" y1="2" style="fill:none;" y2="302" />
      <line x1="602" x2="302" y1="2" style="fill:none;" y2="302" />
      <line x1="452" x2="452" y1="2" style="fill:none;" y2="302" />
      <line x1="302" x2="602" y1="152" style="fill:none;" y2="152" />
      <polygon style="fill:silver; stroke:none;" points=" 440 233 456 260 461 249 463 241 464 232 465 221 465 216 465 208 465 200 464 189 463 178 463 164 461 149 460 137 458 127 456 120 455 115 449 108 441 103 434 101 431 102 431 107 436 113 439 119 441 127 443 135 444 144 445 153 446 163 447 174 447 184 447 193 447 201 447 209 447 215 444 228" />
      <polygon style="fill:none; stroke:silver;" points=" 440 233 456 260 461 249 463 241 464 232 465 221 465 216 465 208 465 200 464 189 463 178 463 164 461 149 460 137 458 127 456 120 455 115 449 108 441 103 434 101 431 102 431 107 436 113 439 119 441 127 443 135 444 144 445 153 446 163 447 174 447 184 447 193 447 201 447 209 447 215 444 228" />
      <polygon style="fill:silver; stroke:none;" points=" 440 233 435 234 427 234 416 232 405 231 398 230 396 231 400 236 415 244 425 251 432 258 436 264 437 271 440 274 444 272 450 268 456 260" />
      <polygon style="fill:none; stroke:silver;" points=" 440 233 435 234 427 234 416 232 405 231 398 230 396 231 400 236 415 244 425 251 432 258 436 264 437 271 440 274 444 272 450 268 456 260" />
      <polygon style="fill:rgb(64,64,64); stroke:none;" points=" 507 32 495 51 488 49 484 50 477 51 466 53 453 56 442 58 433 60 424 62 416 64 408 66 401 67 389 70 380 71 375 71 368 69 362 65 356 61 352 55 371 54 389 52 405 51 419 49 431 48 441 46 450 45 459 43 467 42 474 41 481 39 492 36 499 33 498 34" />
      <polygon style="fill:none; stroke:rgb(64,64,64);" points=" 507 32 495 51 488 49 484 50 477 51 466 53 453 56 442 58 433 60 424 62 416 64 408 66 401 67 389 70 380 71 375 71 368 69 362 65 356 61 352 55 371 54 389 52 405 51 419 49 431 48 441 46 450 45 459 43 467 42 474 41 481 39 492 36 499 33 498 34" />
      <polygon style="fill:rgb(64,64,64); stroke:none;" points=" 507 32 495 51 494 54 490 59 483 67 472 79 459 94 443 111 450 118 468 102 483 88 497 77 507 69 516 64 522 61 532 59 536 56 533 52 524 43 513 36" />
      <polygon style="fill:none; stroke:rgb(64,64,64);" points=" 507 32 495 51 494 54 490 59 483 67 472 79 459 94 443 111 450 118 468 102 483 88 497 77 507 69 516 64 522 61 532 59 536 56 533 52 524 43 513 36" />
      <path d="M352 55 L507 32 L443 111" style="fill:none; stroke-width:4; stroke:red;" />
      <circle style="fill:lime; stroke:none;" r="7" cx="352" cy="55" />
      <rect x="602" y="2" width="300" style="fill:none;" height="300" />
      <line x1="602" x2="902" y1="2" style="fill:none;" y2="302" />
      <line x1="902" x2="602" y1="2" style="fill:none;" y2="302" />
      <line x1="752" x2="752" y1="2" style="fill:none;" y2="302" />
      <line x1="602" x2="902" y1="152" style="fill:none;" y2="152" />
      <polygon style="fill:rgb(64,64,64); stroke:none;" points=" 740 233 756 260 761 249 763 241 764 232 765 221 765 216 765 208 765 200 764 189 763 178 763 164 761 149 760 137 758 127 756 120 755 115 749 108 741 103 734 101 731 102 731 107 736 113 739 119 741 127 743 135 744 144 745 153 746 163 747 174 747 184 747 193 747 201 747 209 747 215 744 228" />
      <polygon style="fill:none; stroke:rgb(64,64,64);" points=" 740 233 756 260 761 249 763 241 764 232 765 221 765 216 765 208 765 200 764 189 763 178 763 164 761 149 760 137 758 127 756 120 755 115 749 108 741 103 734 101 731 102 731 107 736 113 739 119 741 127 743 135 744 144 745 153 746 163 747 174 747 184 747 193 747 201 747 209 747 215 744 228" />
      <polygon style="fill:rgb(64,64,64); stroke:none;" points=" 740 233 735 234 727 234 716 232 705 231 698 230 696 231 700 236 715 244 725 251 732 258 736 264 737 271 740 274 744 272 750 268 756 260" />
      <polygon style="fill:none; stroke:rgb(64,64,64);" points=" 740 233 735 234 727 234 716 232 705 231 698 230 696 231 700 236 715 244 725 251 732 258 736 264 737 271 740 274 744 272 750 268 756 260" />
      <polygon style="fill:rgb(64,64,64); stroke:none;" points=" 807 32 795 51 788 49 784 50 777 51 766 53 753 56 742 58 733 60 724 62 716 64 708 66 701 67 689 70 680 71 675 71 668 69 662 65 656 61 652 55 671 54 689 52 705 51 719 49 731 48 741 46 750 45 759 43 767 42 774 41 781 39 792 36 799 33 798 34" />
      <polygon style="fill:none; stroke:rgb(64,64,64);" points=" 807 32 795 51 788 49 784 50 777 51 766 53 753 56 742 58 733 60 724 62 716 64 708 66 701 67 689 70 680 71 675 71 668 69 662 65 656 61 652 55 671 54 689 52 705 51 719 49 731 48 741 46 750 45 759 43 767 42 774 41 781 39 792 36 799 33 798 34" />
      <polygon style="fill:rgb(64,64,64); stroke:none;" points=" 807 32 795 51 794 54 790 59 783 67 772 79 759 94 743 111 750 118 768 102 783 88 797 77 807 69 816 64 822 61 832 59 836 56 833 52 824 43 813 36" />
      <polygon style="fill:none; stroke:rgb(64,64,64);" points=" 807 32 795 51 794 54 790 59 783 67 772 79 759 94 743 111 750 118 768 102 783 88 797 77 807 69 816 64 822 61 832 59 836 56 833 52 824 43 813 36" />
      <path d="M734 101 L756 260 L696 231" style="fill:none; stroke-width:4; stroke:red;" />
      <circle style="fill:lime; stroke:none;" r="7" cx="734" cy="101" />
    </g>
  </g>
</svg>
