<?xml version="1.0" encoding="UTF-8"?>

<!DOCTYPE svg PUBLIC '-//W3C//DTD SVG 1.0//EN' 'http://www.w3.org/TR/2001/REC-SVG-20010904/DTD/svg10.dtd'>
<svg style="fill-opacity:1; color-rendering:auto; color-interpolation:auto; stroke:black; text-rendering:auto; stroke-linecap:square; stroke-miterlimit:10; stroke-opacity:1; shape-rendering:auto; fill:black; stroke-dasharray:none; font-weight:normal; stroke-width:1; font-family:&apos;Dialog&apos;; font-style:normal; stroke-linejoin:miter; font-size:12; stroke-dashoffset:0; image-rendering:auto;" xmlns="http://www.w3.org/2000/svg" width="1504" xmlns:xlink="http://www.w3.org/1999/xlink" height="304">
  <!--Generated by the Batik Graphics2D SVG Generator-->
  <defs id="genericDefs" />
  <g>
    <g style="fill:rgb(128,128,255); stroke:rgb(128,128,255);">
      <rect x="2" y="2" width="300" style="fill:none;" height="300" />
      <line x1="2" x2="302" y1="2" style="fill:none;" y2="302" />
      <line x1="302" x2="2" y1="2" style="fill:none;" y2="302" />
      <line x1="152" x2="152" y1="2" style="fill:none;" y2="302" />
      <line x1="2" x2="302" y1="152" style="fill:none;" y2="152" />
      <polygon style="fill:black; stroke:none;" points=" 130 12 125 16 126 19 128 28 130 37 132 46 132 55 132 64 132 74 133 85 133 93 133 150 133 159 129 240 129 245 129 252 129 262 130 272 133 281 138 290 141 282 143 275 146 268 147 260 147 252 148 243 147 235 147 226 147 218 147 209 147 157 147 148 148 92 148 81 148 72 149 63 150 54 153 44 154 38 157 30 154 24 147 18 138 14" />
      <polygon style="fill:none; stroke:black;" points=" 130 12 125 16 126 19 128 28 130 37 132 46 132 55 132 64 132 74 133 85 133 93 133 150 133 159 129 240 129 245 129 252 129 262 130 272 133 281 138 290 141 282 143 275 146 268 147 260 147 252 148 243 147 235 147 226 147 218 147 209 147 157 147 148 148 92 148 81 148 72 149 63 150 54 153 44 154 38 157 30 154 24 147 18 138 14" />
      <polygon style="fill:black; stroke:none;" points=" 81 155 81 164 133 159 147 157 155 157 163 157 172 157 181 156 190 155 199 154 206 154 213 154 222 152 223 149 220 141 217 140 203 140 194 142 185 144 176 146 166 147 157 148 152 148 147 148 133 150 123 152 114 153 105 154 97 154 90 155" />
      <polygon style="fill:none; stroke:black;" points=" 81 155 81 164 133 159 147 157 155 157 163 157 172 157 181 156 190 155 199 154 206 154 213 154 222 152 223 149 220 141 217 140 203 140 194 142 185 144 176 146 166 147 157 148 152 148 147 148 133 150 123 152 114 153 105 154 97 154 90 155" />
      <polygon style="fill:black; stroke:none;" points=" 64 89 74 98 133 93 148 92 212 86 226 72 221 69 212 72 202 74 192 76 182 78 172 79 165 80 157 81 148 81 133 85 124 87 116 88 108 88 100 89 92 89 84 89 74 89" />
      <polygon style="fill:none; stroke:black;" points=" 64 89 74 98 133 93 148 92 212 86 226 72 221 69 212 72 202 74 192 76 182 78 172 79 165 80 157 81 148 81 133 85 124 87 116 88 108 88 100 89 92 89 84 89 74 89" />
      <polygon style="fill:black; stroke:none;" points=" 212 86 226 72 235 77 243 83 252 88 251 89 245 97 241 104 233 115 227 124 221 133 217 140 203 140 205 132 208 125 209 116 211 107 211 97" />
      <polygon style="fill:none; stroke:black;" points=" 212 86 226 72 235 77 243 83 252 88 251 89 245 97 241 104 233 115 227 124 221 133 217 140 203 140 205 132 208 125 209 116 211 107 211 97" />
      <polygon style="fill:black; stroke:none;" points=" 45 86 64 89 74 98 81 155 81 164 80 173 74 181 72 176 70 169 67 159 65 148 62 133 59 121 56 110 53 101 49 93" />
      <polygon style="fill:none; stroke:black;" points=" 45 86 64 89 74 98 81 155 81 164 80 173 74 181 72 176 70 169 67 159 65 148 62 133 59 121 56 110 53 101 49 93" />
      <rect x="302" y="2" width="300" style="fill:none;" height="300" />
      <line x1="302" x2="602" y1="2" style="fill:none;" y2="302" />
      <line x1="602" x2="302" y1="2" style="fill:none;" y2="302" />
      <line x1="452" x2="452" y1="2" style="fill:none;" y2="302" />
      <line x1="302" x2="602" y1="152" style="fill:none;" y2="152" />
      <polygon style="fill:silver; stroke:none;" points=" 430 12 425 16 426 19 428 28 430 37 432 46 432 55 432 64 432 74 433 85 433 93 433 150 433 159 429 240 429 245 429 252 429 262 430 272 433 281 438 290 441 282 443 275 446 268 447 260 447 252 448 243 447 235 447 226 447 218 447 209 447 157 447 148 448 92 448 81 448 72 449 63 450 54 453 44 454 38 457 30 454 24 447 18 438 14" />
      <polygon style="fill:none; stroke:silver;" points=" 430 12 425 16 426 19 428 28 430 37 432 46 432 55 432 64 432 74 433 85 433 93 433 150 433 159 429 240 429 245 429 252 429 262 430 272 433 281 438 290 441 282 443 275 446 268 447 260 447 252 448 243 447 235 447 226 447 218 447 209 447 157 447 148 448 92 448 81 448 72 449 63 450 54 453 44 454 38 457 30 454 24 447 18 438 14" />
      <polygon style="fill:silver; stroke:none;" points=" 381 155 381 164 433 159 447 157 455 157 463 157 472 157 481 156 490 155 499 154 506 154 513 154 522 152 523 149 520 141 517 140 503 140 494 142 485 144 476 146 466 147 457 148 452 148 447 148 433 150 423 152 414 153 405 154 397 154 390 155" />
      <polygon style="fill:none; stroke:silver;" points=" 381 155 381 164 433 159 447 157 455 157 463 157 472 157 481 156 490 155 499 154 506 154 513 154 522 152 523 149 520 141 517 140 503 140 494 142 485 144 476 146 466 147 457 148 452 148 447 148 433 150 423 152 414 153 405 154 397 154 390 155" />
      <polygon style="fill:silver; stroke:none;" points=" 364 89 374 98 433 93 448 92 512 86 526 72 521 69 512 72 502 74 492 76 482 78 472 79 465 80 457 81 448 81 433 85 424 87 416 88 408 88 400 89 392 89 384 89 374 89" />
      <polygon style="fill:none; stroke:silver;" points=" 364 89 374 98 433 93 448 92 512 86 526 72 521 69 512 72 502 74 492 76 482 78 472 79 465 80 457 81 448 81 433 85 424 87 416 88 408 88 400 89 392 89 384 89 374 89" />
      <polygon style="fill:silver; stroke:none;" points=" 512 86 526 72 535 77 543 83 552 88 551 89 545 97 541 104 533 115 527 124 521 133 517 140 503 140 505 132 508 125 509 116 511 107 511 97" />
      <polygon style="fill:none; stroke:silver;" points=" 512 86 526 72 535 77 543 83 552 88 551 89 545 97 541 104 533 115 527 124 521 133 517 140 503 140 505 132 508 125 509 116 511 107 511 97" />
      <polygon style="fill:rgb(64,64,64); stroke:none;" points=" 345 86 364 89 374 98 381 155 381 164 380 173 374 181 372 176 370 169 367 159 365 148 362 133 359 121 356 110 353 101 349 93" />
      <polygon style="fill:none; stroke:rgb(64,64,64);" points=" 345 86 364 89 374 98 381 155 381 164 380 173 374 181 372 176 370 169 367 159 365 148 362 133 359 121 356 110 353 101 349 93" />
      <path d="M345 86 L374 181" style="fill:none; stroke-width:4; stroke:red;" />
      <circle style="fill:lime; stroke:none;" r="7" cx="345" cy="86" />
      <rect x="602" y="2" width="300" style="fill:none;" height="300" />
      <line x1="602" x2="902" y1="2" style="fill:none;" y2="302" />
      <line x1="902" x2="602" y1="2" style="fill:none;" y2="302" />
      <line x1="752" x2="752" y1="2" style="fill:none;" y2="302" />
      <line x1="602" x2="902" y1="152" style="fill:none;" y2="152" />
      <polygon style="fill:silver; stroke:none;" points=" 730 12 725 16 726 19 728 28 730 37 732 46 732 55 732 64 732 74 733 85 733 93 733 150 733 159 729 240 729 245 729 252 729 262 730 272 733 281 738 290 741 282 743 275 746 268 747 260 747 252 748 243 747 235 747 226 747 218 747 209 747 157 747 148 748 92 748 81 748 72 749 63 750 54 753 44 754 38 757 30 754 24 747 18 738 14" />
      <polygon style="fill:none; stroke:silver;" points=" 730 12 725 16 726 19 728 28 730 37 732 46 732 55 732 64 732 74 733 85 733 93 733 150 733 159 729 240 729 245 729 252 729 262 730 272 733 281 738 290 741 282 743 275 746 268 747 260 747 252 748 243 747 235 747 226 747 218 747 209 747 157 747 148 748 92 748 81 748 72 749 63 750 54 753 44 754 38 757 30 754 24 747 18 738 14" />
      <polygon style="fill:silver; stroke:none;" points=" 681 155 681 164 733 159 747 157 755 157 763 157 772 157 781 156 790 155 799 154 806 154 813 154 822 152 823 149 820 141 817 140 803 140 794 142 785 144 776 146 766 147 757 148 752 148 747 148 733 150 723 152 714 153 705 154 697 154 690 155" />
      <polygon style="fill:none; stroke:silver;" points=" 681 155 681 164 733 159 747 157 755 157 763 157 772 157 781 156 790 155 799 154 806 154 813 154 822 152 823 149 820 141 817 140 803 140 794 142 785 144 776 146 766 147 757 148 752 148 747 148 733 150 723 152 714 153 705 154 697 154 690 155" />
      <polygon style="fill:rgb(64,64,64); stroke:none;" points=" 664 89 674 98 733 93 748 92 812 86 826 72 821 69 812 72 802 74 792 76 782 78 772 79 765 80 757 81 748 81 733 85 724 87 716 88 708 88 700 89 692 89 684 89 674 89" />
      <polygon style="fill:none; stroke:rgb(64,64,64);" points=" 664 89 674 98 733 93 748 92 812 86 826 72 821 69 812 72 802 74 792 76 782 78 772 79 765 80 757 81 748 81 733 85 724 87 716 88 708 88 700 89 692 89 684 89 674 89" />
      <polygon style="fill:rgb(64,64,64); stroke:none;" points=" 812 86 826 72 835 77 843 83 852 88 851 89 845 97 841 104 833 115 827 124 821 133 817 140 803 140 805 132 808 125 809 116 811 107 811 97" />
      <polygon style="fill:none; stroke:rgb(64,64,64);" points=" 812 86 826 72 835 77 843 83 852 88 851 89 845 97 841 104 833 115 827 124 821 133 817 140 803 140 805 132 808 125 809 116 811 107 811 97" />
      <polygon style="fill:rgb(64,64,64); stroke:none;" points=" 645 86 664 89 674 98 681 155 681 164 680 173 674 181 672 176 670 169 667 159 665 148 662 133 659 121 656 110 653 101 649 93" />
      <polygon style="fill:none; stroke:rgb(64,64,64);" points=" 645 86 664 89 674 98 681 155 681 164 680 173 674 181 672 176 670 169 667 159 665 148 662 133 659 121 656 110 653 101 649 93" />
      <path d="M664 89 L826 72 L817 140" style="fill:none; stroke-width:4; stroke:red;" />
      <circle style="fill:lime; stroke:none;" r="7" cx="664" cy="89" />
      <rect x="902" y="2" width="300" style="fill:none;" height="300" />
      <line x1="902" x2="1202" y1="2" style="fill:none;" y2="302" />
      <line x1="1202" x2="902" y1="2" style="fill:none;" y2="302" />
      <line x1="1052" x2="1052" y1="2" style="fill:none;" y2="302" />
      <line x1="902" x2="1202" y1="152" style="fill:none;" y2="152" />
      <polygon style="fill:silver; stroke:none;" points=" 1030 12 1025 16 1026 19 1028 28 1030 37 1032 46 1032 55 1032 64 1032 74 1033 85 1033 93 1033 150 1033 159 1029 240 1029 245 1029 252 1029 262 1030 272 1033 281 1038 290 1041 282 1043 275 1046 268 1047 260 1047 252 1048 243 1047 235 1047 226 1047 218 1047 209 1047 157 1047 148 1048 92 1048 81 1048 72 1049 63 1050 54 1053 44 1054 38 1057 30 1054 24 1047 18 1038 14" />
      <polygon style="fill:none; stroke:silver;" points=" 1030 12 1025 16 1026 19 1028 28 1030 37 1032 46 1032 55 1032 64 1032 74 1033 85 1033 93 1033 150 1033 159 1029 240 1029 245 1029 252 1029 262 1030 272 1033 281 1038 290 1041 282 1043 275 1046 268 1047 260 1047 252 1048 243 1047 235 1047 226 1047 218 1047 209 1047 157 1047 148 1048 92 1048 81 1048 72 1049 63 1050 54 1053 44 1054 38 1057 30 1054 24 1047 18 1038 14" />
      <polygon style="fill:rgb(64,64,64); stroke:none;" points=" 981 155 981 164 1033 159 1047 157 1055 157 1063 157 1072 157 1081 156 1090 155 1099 154 1106 154 1113 154 1122 152 1123 149 1120 141 1117 140 1103 140 1094 142 1085 144 1076 146 1066 147 1057 148 1052 148 1047 148 1033 150 1023 152 1014 153 1005 154 997 154 990 155" />
      <polygon style="fill:none; stroke:rgb(64,64,64);" points=" 981 155 981 164 1033 159 1047 157 1055 157 1063 157 1072 157 1081 156 1090 155 1099 154 1106 154 1113 154 1122 152 1123 149 1120 141 1117 140 1103 140 1094 142 1085 144 1076 146 1066 147 1057 148 1052 148 1047 148 1033 150 1023 152 1014 153 1005 154 997 154 990 155" />
      <polygon style="fill:rgb(64,64,64); stroke:none;" points=" 964 89 974 98 1033 93 1048 92 1112 86 1126 72 1121 69 1112 72 1102 74 1092 76 1082 78 1072 79 1065 80 1057 81 1048 81 1033 85 1024 87 1016 88 1008 88 1000 89 992 89 984 89 974 89" />
      <polygon style="fill:none; stroke:rgb(64,64,64);" points=" 964 89 974 98 1033 93 1048 92 1112 86 1126 72 1121 69 1112 72 1102 74 1092 76 1082 78 1072 79 1065 80 1057 81 1048 81 1033 85 1024 87 1016 88 1008 88 1000 89 992 89 984 89 974 89" />
      <polygon style="fill:rgb(64,64,64); stroke:none;" points=" 1112 86 1126 72 1135 77 1143 83 1152 88 1151 89 1145 97 1141 104 1133 115 1127 124 1121 133 1117 140 1103 140 1105 132 1108 125 1109 116 1111 107 1111 97" />
      <polygon style="fill:none; stroke:rgb(64,64,64);" points=" 1112 86 1126 72 1135 77 1143 83 1152 88 1151 89 1145 97 1141 104 1133 115 1127 124 1121 133 1117 140 1103 140 1105 132 1108 125 1109 116 1111 107 1111 97" />
      <polygon style="fill:rgb(64,64,64); stroke:none;" points=" 945 86 964 89 974 98 981 155 981 164 980 173 974 181 972 176 970 169 967 159 965 148 962 133 959 121 956 110 953 101 949 93" />
      <polygon style="fill:none; stroke:rgb(64,64,64);" points=" 945 86 964 89 974 98 981 155 981 164 980 173 974 181 972 176 970 169 967 159 965 148 962 133 959 121 956 110 953 101 949 93" />
      <path d="M981 155 L1123 149" style="fill:none; stroke-width:4; stroke:red;" />
      <circle style="fill:lime; stroke:none;" r="7" cx="981" cy="155" />
      <rect x="1202" y="2" width="300" style="fill:none;" height="300" />
      <line x1="1202" x2="1502" y1="2" style="fill:none;" y2="302" />
      <line x1="1502" x2="1202" y1="2" style="fill:none;" y2="302" />
      <line x1="1352" x2="1352" y1="2" style="fill:none;" y2="302" />
      <line x1="1202" x2="1502" y1="152" style="fill:none;" y2="152" />
      <polygon style="fill:rgb(64,64,64); stroke:none;" points=" 1330 12 1325 16 1326 19 1328 28 1330 37 1332 46 1332 55 1332 64 1332 74 1333 85 1333 93 1333 150 1333 159 1329 240 1329 245 1329 252 1329 262 1330 272 1333 281 1338 290 1341 282 1343 275 1346 268 1347 260 1347 252 1348 243 1347 235 1347 226 1347 218 1347 209 1347 157 1347 148 1348 92 1348 81 1348 72 1349 63 1350 54 1353 44 1354 38 1357 30 1354 24 1347 18 1338 14" />
      <polygon style="fill:none; stroke:rgb(64,64,64);" points=" 1330 12 1325 16 1326 19 1328 28 1330 37 1332 46 1332 55 1332 64 1332 74 1333 85 1333 93 1333 150 1333 159 1329 240 1329 245 1329 252 1329 262 1330 272 1333 281 1338 290 1341 282 1343 275 1346 268 1347 260 1347 252 1348 243 1347 235 1347 226 1347 218 1347 209 1347 157 1347 148 1348 92 1348 81 1348 72 1349 63 1350 54 1353 44 1354 38 1357 30 1354 24 1347 18 1338 14" />
      <polygon style="fill:rgb(64,64,64); stroke:none;" points=" 1281 155 1281 164 1333 159 1347 157 1355 157 1363 157 1372 157 1381 156 1390 155 1399 154 1406 154 1413 154 1422 152 1423 149 1420 141 1417 140 1403 140 1394 142 1385 144 1376 146 1366 147 1357 148 1352 148 1347 148 1333 150 1323 152 1314 153 1305 154 1297 154 1290 155" />
      <polygon style="fill:none; stroke:rgb(64,64,64);" points=" 1281 155 1281 164 1333 159 1347 157 1355 157 1363 157 1372 157 1381 156 1390 155 1399 154 1406 154 1413 154 1422 152 1423 149 1420 141 1417 140 1403 140 1394 142 1385 144 1376 146 1366 147 1357 148 1352 148 1347 148 1333 150 1323 152 1314 153 1305 154 1297 154 1290 155" />
      <polygon style="fill:rgb(64,64,64); stroke:none;" points=" 1264 89 1274 98 1333 93 1348 92 1412 86 1426 72 1421 69 1412 72 1402 74 1392 76 1382 78 1372 79 1365 80 1357 81 1348 81 1333 85 1324 87 1316 88 1308 88 1300 89 1292 89 1284 89 1274 89" />
      <polygon style="fill:none; stroke:rgb(64,64,64);" points=" 1264 89 1274 98 1333 93 1348 92 1412 86 1426 72 1421 69 1412 72 1402 74 1392 76 1382 78 1372 79 1365 80 1357 81 1348 81 1333 85 1324 87 1316 88 1308 88 1300 89 1292 89 1284 89 1274 89" />
      <polygon style="fill:rgb(64,64,64); stroke:none;" points=" 1412 86 1426 72 1435 77 1443 83 1452 88 1451 89 1445 97 1441 104 1433 115 1427 124 1421 133 1417 140 1403 140 1405 132 1408 125 1409 116 1411 107 1411 97" />
      <polygon style="fill:none; stroke:rgb(64,64,64);" points=" 1412 86 1426 72 1435 77 1443 83 1452 88 1451 89 1445 97 1441 104 1433 115 1427 124 1421 133 1417 140 1403 140 1405 132 1408 125 1409 116 1411 107 1411 97" />
      <polygon style="fill:rgb(64,64,64); stroke:none;" points=" 1245 86 1264 89 1274 98 1281 155 1281 164 1280 173 1274 181 1272 176 1270 169 1267 159 1265 148 1262 133 1259 121 1256 110 1253 101 1249 93" />
      <polygon style="fill:none; stroke:rgb(64,64,64);" points=" 1245 86 1264 89 1274 98 1281 155 1281 164 1280 173 1274 181 1272 176 1270 169 1267 159 1265 148 1262 133 1259 121 1256 110 1253 101 1249 93" />
      <path d="M1330 12 L1338 290" style="fill:none; stroke-width:4; stroke:red;" />
      <circle style="fill:lime; stroke:none;" r="7" cx="1330" cy="12" />
    </g>
  </g>
</svg>
