<?xml version="1.0" encoding="UTF-8"?>

<!DOCTYPE svg PUBLIC '-//W3C//DTD SVG 1.0//EN' 'http://www.w3.org/TR/2001/REC-SVG-20010904/DTD/svg10.dtd'>
<svg style="fill-opacity:1; color-rendering:auto; color-interpolation:auto; stroke:black; text-rendering:auto; stroke-linecap:square; stroke-miterlimit:10; stroke-opacity:1; shape-rendering:auto; fill:black; stroke-dasharray:none; font-weight:normal; stroke-width:1; font-family:&apos;Dialog&apos;; font-style:normal; stroke-linejoin:miter; font-size:12; stroke-dashoffset:0; image-rendering:auto;" xmlns="http://www.w3.org/2000/svg" width="1804" xmlns:xlink="http://www.w3.org/1999/xlink" height="604">
  <!--Generated by the Batik Graphics2D SVG Generator-->
  <defs id="genericDefs" />
  <g>
    <g style="fill:rgb(128,128,255); stroke:rgb(128,128,255);">
      <rect x="2" y="2" width="300" style="fill:none;" height="300" />
      <line x1="2" x2="302" y1="2" style="fill:none;" y2="302" />
      <line x1="302" x2="2" y1="2" style="fill:none;" y2="302" />
      <line x1="152" x2="152" y1="2" style="fill:none;" y2="302" />
      <line x1="2" x2="302" y1="152" style="fill:none;" y2="152" />
      <polygon style="fill:black; stroke:none;" points=" 150 215 162 218 172 219 182 222 194 226 204 229 213 232 221 236 228 240 233 244 236 251 236 258 234 262 231 263 226 261 219 254 212 249 204 243 196 239 188 234 179 229 169 226 161 222 150 218" />
      <polygon style="fill:none; stroke:black;" points=" 150 215 162 218 172 219 182 222 194 226 204 229 213 232 221 236 228 240 233 244 236 251 236 258 234 262 231 263 226 261 219 254 212 249 204 243 196 239 188 234 179 229 169 226 161 222 150 218" />
      <polygon style="fill:black; stroke:none;" points=" 131 166 130 181 129 193 127 203 124 211 121 217 117 223 112 228 108 232 101 237 93 241 84 246 76 249 66 253 56 257 44 261 36 264 28 266 30 269 41 268 51 266 61 263 73 259 83 256 94 252 102 248 112 241 119 236 126 229 131 223 135 214 138 205 141 197 142 190 144 181 150 177" />
      <polygon style="fill:none; stroke:black;" points=" 131 166 130 181 129 193 127 203 124 211 121 217 117 223 112 228 108 232 101 237 93 241 84 246 76 249 66 253 56 257 44 261 36 264 28 266 30 269 41 268 51 266 61 263 73 259 83 256 94 252 102 248 112 241 119 236 126 229 131 223 135 214 138 205 141 197 142 190 144 181 150 177" />
      <polygon style="fill:black; stroke:none;" points=" 83 149 85 150 191 150 198 141 217 154 194 156 83 156" />
      <polygon style="fill:none; stroke:black;" points=" 83 149 85 150 191 150 198 141 217 154 194 156 83 156" />
      <polygon style="fill:black; stroke:none;" points=" 194 156 194 219 208 215 208 161 216 154" />
      <polygon style="fill:none; stroke:black;" points=" 194 156 194 219 208 215 208 161 216 154" />
      <polygon style="fill:black; stroke:none;" points=" 70 142 70 226 83 219 83 148 70 142" />
      <polygon style="fill:none; stroke:black;" points=" 70 142 70 226 83 219 83 148 70 142" />
      <polygon style="fill:black; stroke:none;" points=" 170 83 176 91 181 99 189 108 197 114 205 119 213 124 222 130 233 135 241 139 246 134 254 129 264 128 265 124 254 123 241 120 231 117 221 114 212 111 201 105 193 99 186 93 181 88 174 79" />
      <polygon style="fill:none; stroke:black;" points=" 170 83 176 91 181 99 189 108 197 114 205 119 213 124 222 130 233 135 241 139 246 134 254 129 264 128 265 124 254 123 241 120 231 117 221 114 212 111 201 105 193 99 186 93 181 88 174 79" />
      <polygon style="fill:black; stroke:none;" points=" 163 64 158 77 152 88 144 96 138 104 126 112 114 119 101 124 90 129 79 132 71 136 73 139 84 136 98 133 113 128 126 123 137 116 147 109 156 101 164 93 168 85 172 79 182 74" />
      <polygon style="fill:none; stroke:black;" points=" 163 64 158 77 152 88 144 96 138 104 126 112 114 119 101 124 90 129 79 132 71 136 73 139 84 136 98 133 113 128 126 123 137 116 147 109 156 101 164 93 168 85 172 79 182 74" />
      <polygon style="fill:black; stroke:none;" points=" 134 53 224 53 232 44 251 61 224 59 129 59" />
      <polygon style="fill:none; stroke:black;" points=" 134 53 224 53 232 44 251 61 224 59 129 59" />
      <polygon style="fill:black; stroke:none;" points=" 226 59 219 68 214 75 208 86 210 88 216 83 228 72 233 67 239 63 244 61 251 61" />
      <polygon style="fill:none; stroke:black;" points=" 226 59 219 68 214 75 208 86 210 88 216 83 228 72 233 67 239 63 244 61 251 61" />
      <polygon style="fill:black; stroke:none;" points=" 138 18 128 38 121 53 113 67 104 78 98 87 91 98 93 99 104 89 113 79 121 69 128 61 136 50 143 40 147 34 158 29" />
      <polygon style="fill:none; stroke:black;" points=" 138 18 128 38 121 53 113 67 104 78 98 87 91 98 93 99 104 89 113 79 121 69 128 61 136 50 143 40 147 34 158 29" />
      <polygon style="fill:black; stroke:none;" points=" 26 87 32 83 39 79 47 76 53 76 56 78 56 83 51 84 46 86 39 88 34 89 28 89 25 89" />
      <polygon style="fill:none; stroke:black;" points=" 26 87 32 83 39 79 47 76 53 76 56 78 56 83 51 84 46 86 39 88 34 89 28 89 25 89" />
      <polygon style="fill:black; stroke:none;" points=" 33 31 45 33 56 36 64 40 69 47 70 54 68 59 64 61 59 56 54 49 49 44 42 39 36 35 33 33" />
      <polygon style="fill:none; stroke:black;" points=" 33 31 45 33 56 36 64 40 69 47 70 54 68 59 64 61 59 56 54 49 49 44 42 39 36 35 33 33" />
      <rect x="302" y="2" width="300" style="fill:none;" height="300" />
      <line x1="302" x2="602" y1="2" style="fill:none;" y2="302" />
      <line x1="602" x2="302" y1="2" style="fill:none;" y2="302" />
      <line x1="452" x2="452" y1="2" style="fill:none;" y2="302" />
      <line x1="302" x2="602" y1="152" style="fill:none;" y2="152" />
      <polygon style="fill:silver; stroke:none;" points=" 450 215 462 218 472 219 482 222 494 226 504 229 513 232 521 236 528 240 533 244 536 251 536 258 534 262 531 263 526 261 519 254 512 249 504 243 496 239 488 234 479 229 469 226 461 222 450 218" />
      <polygon style="fill:none; stroke:silver;" points=" 450 215 462 218 472 219 482 222 494 226 504 229 513 232 521 236 528 240 533 244 536 251 536 258 534 262 531 263 526 261 519 254 512 249 504 243 496 239 488 234 479 229 469 226 461 222 450 218" />
      <polygon style="fill:silver; stroke:none;" points=" 431 166 430 181 429 193 427 203 424 211 421 217 417 223 412 228 408 232 401 237 393 241 384 246 376 249 366 253 356 257 344 261 336 264 328 266 330 269 341 268 351 266 361 263 373 259 383 256 394 252 402 248 412 241 419 236 426 229 431 223 435 214 438 205 441 197 442 190 444 181 450 177" />
      <polygon style="fill:none; stroke:silver;" points=" 431 166 430 181 429 193 427 203 424 211 421 217 417 223 412 228 408 232 401 237 393 241 384 246 376 249 366 253 356 257 344 261 336 264 328 266 330 269 341 268 351 266 361 263 373 259 383 256 394 252 402 248 412 241 419 236 426 229 431 223 435 214 438 205 441 197 442 190 444 181 450 177" />
      <polygon style="fill:silver; stroke:none;" points=" 383 149 385 150 491 150 498 141 517 154 494 156 383 156" />
      <polygon style="fill:none; stroke:silver;" points=" 383 149 385 150 491 150 498 141 517 154 494 156 383 156" />
      <polygon style="fill:silver; stroke:none;" points=" 494 156 494 219 508 215 508 161 516 154" />
      <polygon style="fill:none; stroke:silver;" points=" 494 156 494 219 508 215 508 161 516 154" />
      <polygon style="fill:silver; stroke:none;" points=" 370 142 370 226 383 219 383 148 370 142" />
      <polygon style="fill:none; stroke:silver;" points=" 370 142 370 226 383 219 383 148 370 142" />
      <polygon style="fill:silver; stroke:none;" points=" 470 83 476 91 481 99 489 108 497 114 505 119 513 124 522 130 533 135 541 139 546 134 554 129 564 128 565 124 554 123 541 120 531 117 521 114 512 111 501 105 493 99 486 93 481 88 474 79" />
      <polygon style="fill:none; stroke:silver;" points=" 470 83 476 91 481 99 489 108 497 114 505 119 513 124 522 130 533 135 541 139 546 134 554 129 564 128 565 124 554 123 541 120 531 117 521 114 512 111 501 105 493 99 486 93 481 88 474 79" />
      <polygon style="fill:silver; stroke:none;" points=" 463 64 458 77 452 88 444 96 438 104 426 112 414 119 401 124 390 129 379 132 371 136 373 139 384 136 398 133 413 128 426 123 437 116 447 109 456 101 464 93 468 85 472 79 482 74" />
      <polygon style="fill:none; stroke:silver;" points=" 463 64 458 77 452 88 444 96 438 104 426 112 414 119 401 124 390 129 379 132 371 136 373 139 384 136 398 133 413 128 426 123 437 116 447 109 456 101 464 93 468 85 472 79 482 74" />
      <polygon style="fill:silver; stroke:none;" points=" 434 53 524 53 532 44 551 61 524 59 429 59" />
      <polygon style="fill:none; stroke:silver;" points=" 434 53 524 53 532 44 551 61 524 59 429 59" />
      <polygon style="fill:silver; stroke:none;" points=" 526 59 519 68 514 75 508 86 510 88 516 83 528 72 533 67 539 63 544 61 551 61" />
      <polygon style="fill:none; stroke:silver;" points=" 526 59 519 68 514 75 508 86 510 88 516 83 528 72 533 67 539 63 544 61 551 61" />
      <polygon style="fill:silver; stroke:none;" points=" 438 18 428 38 421 53 413 67 404 78 398 87 391 98 393 99 404 89 413 79 421 69 428 61 436 50 443 40 447 34 458 29" />
      <polygon style="fill:none; stroke:silver;" points=" 438 18 428 38 421 53 413 67 404 78 398 87 391 98 393 99 404 89 413 79 421 69 428 61 436 50 443 40 447 34 458 29" />
      <polygon style="fill:silver; stroke:none;" points=" 326 87 332 83 339 79 347 76 353 76 356 78 356 83 351 84 346 86 339 88 334 89 328 89 325 89" />
      <polygon style="fill:none; stroke:silver;" points=" 326 87 332 83 339 79 347 76 353 76 356 78 356 83 351 84 346 86 339 88 334 89 328 89 325 89" />
      <polygon style="fill:rgb(64,64,64); stroke:none;" points=" 333 31 345 33 356 36 364 40 369 47 370 54 368 59 364 61 359 56 354 49 349 44 342 39 336 35 333 33" />
      <polygon style="fill:none; stroke:rgb(64,64,64);" points=" 333 31 345 33 356 36 364 40 369 47 370 54 368 59 364 61 359 56 354 49 349 44 342 39 336 35 333 33" />
      <path d="M333 31 L368 59" style="fill:none; stroke-width:4; stroke:red;" />
      <circle style="fill:lime; stroke:none;" r="7" cx="333" cy="31" />
      <rect x="602" y="2" width="300" style="fill:none;" height="300" />
      <line x1="602" x2="902" y1="2" style="fill:none;" y2="302" />
      <line x1="902" x2="602" y1="2" style="fill:none;" y2="302" />
      <line x1="752" x2="752" y1="2" style="fill:none;" y2="302" />
      <line x1="602" x2="902" y1="152" style="fill:none;" y2="152" />
      <polygon style="fill:silver; stroke:none;" points=" 750 215 762 218 772 219 782 222 794 226 804 229 813 232 821 236 828 240 833 244 836 251 836 258 834 262 831 263 826 261 819 254 812 249 804 243 796 239 788 234 779 229 769 226 761 222 750 218" />
      <polygon style="fill:none; stroke:silver;" points=" 750 215 762 218 772 219 782 222 794 226 804 229 813 232 821 236 828 240 833 244 836 251 836 258 834 262 831 263 826 261 819 254 812 249 804 243 796 239 788 234 779 229 769 226 761 222 750 218" />
      <polygon style="fill:silver; stroke:none;" points=" 731 166 730 181 729 193 727 203 724 211 721 217 717 223 712 228 708 232 701 237 693 241 684 246 676 249 666 253 656 257 644 261 636 264 628 266 630 269 641 268 651 266 661 263 673 259 683 256 694 252 702 248 712 241 719 236 726 229 731 223 735 214 738 205 741 197 742 190 744 181 750 177" />
      <polygon style="fill:none; stroke:silver;" points=" 731 166 730 181 729 193 727 203 724 211 721 217 717 223 712 228 708 232 701 237 693 241 684 246 676 249 666 253 656 257 644 261 636 264 628 266 630 269 641 268 651 266 661 263 673 259 683 256 694 252 702 248 712 241 719 236 726 229 731 223 735 214 738 205 741 197 742 190 744 181 750 177" />
      <polygon style="fill:silver; stroke:none;" points=" 683 149 685 150 791 150 798 141 817 154 794 156 683 156" />
      <polygon style="fill:none; stroke:silver;" points=" 683 149 685 150 791 150 798 141 817 154 794 156 683 156" />
      <polygon style="fill:silver; stroke:none;" points=" 794 156 794 219 808 215 808 161 816 154" />
      <polygon style="fill:none; stroke:silver;" points=" 794 156 794 219 808 215 808 161 816 154" />
      <polygon style="fill:silver; stroke:none;" points=" 670 142 670 226 683 219 683 148 670 142" />
      <polygon style="fill:none; stroke:silver;" points=" 670 142 670 226 683 219 683 148 670 142" />
      <polygon style="fill:silver; stroke:none;" points=" 770 83 776 91 781 99 789 108 797 114 805 119 813 124 822 130 833 135 841 139 846 134 854 129 864 128 865 124 854 123 841 120 831 117 821 114 812 111 801 105 793 99 786 93 781 88 774 79" />
      <polygon style="fill:none; stroke:silver;" points=" 770 83 776 91 781 99 789 108 797 114 805 119 813 124 822 130 833 135 841 139 846 134 854 129 864 128 865 124 854 123 841 120 831 117 821 114 812 111 801 105 793 99 786 93 781 88 774 79" />
      <polygon style="fill:silver; stroke:none;" points=" 763 64 758 77 752 88 744 96 738 104 726 112 714 119 701 124 690 129 679 132 671 136 673 139 684 136 698 133 713 128 726 123 737 116 747 109 756 101 764 93 768 85 772 79 782 74" />
      <polygon style="fill:none; stroke:silver;" points=" 763 64 758 77 752 88 744 96 738 104 726 112 714 119 701 124 690 129 679 132 671 136 673 139 684 136 698 133 713 128 726 123 737 116 747 109 756 101 764 93 768 85 772 79 782 74" />
      <polygon style="fill:silver; stroke:none;" points=" 734 53 824 53 832 44 851 61 824 59 729 59" />
      <polygon style="fill:none; stroke:silver;" points=" 734 53 824 53 832 44 851 61 824 59 729 59" />
      <polygon style="fill:silver; stroke:none;" points=" 826 59 819 68 814 75 808 86 810 88 816 83 828 72 833 67 839 63 844 61 851 61" />
      <polygon style="fill:none; stroke:silver;" points=" 826 59 819 68 814 75 808 86 810 88 816 83 828 72 833 67 839 63 844 61 851 61" />
      <polygon style="fill:silver; stroke:none;" points=" 738 18 728 38 721 53 713 67 704 78 698 87 691 98 693 99 704 89 713 79 721 69 728 61 736 50 743 40 747 34 758 29" />
      <polygon style="fill:none; stroke:silver;" points=" 738 18 728 38 721 53 713 67 704 78 698 87 691 98 693 99 704 89 713 79 721 69 728 61 736 50 743 40 747 34 758 29" />
      <polygon style="fill:rgb(64,64,64); stroke:none;" points=" 626 87 632 83 639 79 647 76 653 76 656 78 656 83 651 84 646 86 639 88 634 89 628 89 625 89" />
      <polygon style="fill:none; stroke:rgb(64,64,64);" points=" 626 87 632 83 639 79 647 76 653 76 656 78 656 83 651 84 646 86 639 88 634 89 628 89 625 89" />
      <polygon style="fill:rgb(64,64,64); stroke:none;" points=" 633 31 645 33 656 36 664 40 669 47 670 54 668 59 664 61 659 56 654 49 649 44 642 39 636 35 633 33" />
      <polygon style="fill:none; stroke:rgb(64,64,64);" points=" 633 31 645 33 656 36 664 40 669 47 670 54 668 59 664 61 659 56 654 49 649 44 642 39 636 35 633 33" />
      <path d="M625 89 L656 78" style="fill:none; stroke-width:4; stroke:red;" />
      <circle style="fill:lime; stroke:none;" r="7" cx="625" cy="89" />
      <rect x="902" y="2" width="300" style="fill:none;" height="300" />
      <line x1="902" x2="1202" y1="2" style="fill:none;" y2="302" />
      <line x1="1202" x2="902" y1="2" style="fill:none;" y2="302" />
      <line x1="1052" x2="1052" y1="2" style="fill:none;" y2="302" />
      <line x1="902" x2="1202" y1="152" style="fill:none;" y2="152" />
      <polygon style="fill:silver; stroke:none;" points=" 1050 215 1062 218 1072 219 1082 222 1094 226 1104 229 1113 232 1121 236 1128 240 1133 244 1136 251 1136 258 1134 262 1131 263 1126 261 1119 254 1112 249 1104 243 1096 239 1088 234 1079 229 1069 226 1061 222 1050 218" />
      <polygon style="fill:none; stroke:silver;" points=" 1050 215 1062 218 1072 219 1082 222 1094 226 1104 229 1113 232 1121 236 1128 240 1133 244 1136 251 1136 258 1134 262 1131 263 1126 261 1119 254 1112 249 1104 243 1096 239 1088 234 1079 229 1069 226 1061 222 1050 218" />
      <polygon style="fill:silver; stroke:none;" points=" 1031 166 1030 181 1029 193 1027 203 1024 211 1021 217 1017 223 1012 228 1008 232 1001 237 993 241 984 246 976 249 966 253 956 257 944 261 936 264 928 266 930 269 941 268 951 266 961 263 973 259 983 256 994 252 1002 248 1012 241 1019 236 1026 229 1031 223 1035 214 1038 205 1041 197 1042 190 1044 181 1050 177" />
      <polygon style="fill:none; stroke:silver;" points=" 1031 166 1030 181 1029 193 1027 203 1024 211 1021 217 1017 223 1012 228 1008 232 1001 237 993 241 984 246 976 249 966 253 956 257 944 261 936 264 928 266 930 269 941 268 951 266 961 263 973 259 983 256 994 252 1002 248 1012 241 1019 236 1026 229 1031 223 1035 214 1038 205 1041 197 1042 190 1044 181 1050 177" />
      <polygon style="fill:silver; stroke:none;" points=" 983 149 985 150 1091 150 1098 141 1117 154 1094 156 983 156" />
      <polygon style="fill:none; stroke:silver;" points=" 983 149 985 150 1091 150 1098 141 1117 154 1094 156 983 156" />
      <polygon style="fill:silver; stroke:none;" points=" 1094 156 1094 219 1108 215 1108 161 1116 154" />
      <polygon style="fill:none; stroke:silver;" points=" 1094 156 1094 219 1108 215 1108 161 1116 154" />
      <polygon style="fill:silver; stroke:none;" points=" 970 142 970 226 983 219 983 148 970 142" />
      <polygon style="fill:none; stroke:silver;" points=" 970 142 970 226 983 219 983 148 970 142" />
      <polygon style="fill:silver; stroke:none;" points=" 1070 83 1076 91 1081 99 1089 108 1097 114 1105 119 1113 124 1122 130 1133 135 1141 139 1146 134 1154 129 1164 128 1165 124 1154 123 1141 120 1131 117 1121 114 1112 111 1101 105 1093 99 1086 93 1081 88 1074 79" />
      <polygon style="fill:none; stroke:silver;" points=" 1070 83 1076 91 1081 99 1089 108 1097 114 1105 119 1113 124 1122 130 1133 135 1141 139 1146 134 1154 129 1164 128 1165 124 1154 123 1141 120 1131 117 1121 114 1112 111 1101 105 1093 99 1086 93 1081 88 1074 79" />
      <polygon style="fill:silver; stroke:none;" points=" 1063 64 1058 77 1052 88 1044 96 1038 104 1026 112 1014 119 1001 124 990 129 979 132 971 136 973 139 984 136 998 133 1013 128 1026 123 1037 116 1047 109 1056 101 1064 93 1068 85 1072 79 1082 74" />
      <polygon style="fill:none; stroke:silver;" points=" 1063 64 1058 77 1052 88 1044 96 1038 104 1026 112 1014 119 1001 124 990 129 979 132 971 136 973 139 984 136 998 133 1013 128 1026 123 1037 116 1047 109 1056 101 1064 93 1068 85 1072 79 1082 74" />
      <polygon style="fill:silver; stroke:none;" points=" 1034 53 1124 53 1132 44 1151 61 1124 59 1029 59" />
      <polygon style="fill:none; stroke:silver;" points=" 1034 53 1124 53 1132 44 1151 61 1124 59 1029 59" />
      <polygon style="fill:silver; stroke:none;" points=" 1126 59 1119 68 1114 75 1108 86 1110 88 1116 83 1128 72 1133 67 1139 63 1144 61 1151 61" />
      <polygon style="fill:none; stroke:silver;" points=" 1126 59 1119 68 1114 75 1108 86 1110 88 1116 83 1128 72 1133 67 1139 63 1144 61 1151 61" />
      <polygon style="fill:rgb(64,64,64); stroke:none;" points=" 1038 18 1028 38 1021 53 1013 67 1004 78 998 87 991 98 993 99 1004 89 1013 79 1021 69 1028 61 1036 50 1043 40 1047 34 1058 29" />
      <polygon style="fill:none; stroke:rgb(64,64,64);" points=" 1038 18 1028 38 1021 53 1013 67 1004 78 998 87 991 98 993 99 1004 89 1013 79 1021 69 1028 61 1036 50 1043 40 1047 34 1058 29" />
      <polygon style="fill:rgb(64,64,64); stroke:none;" points=" 926 87 932 83 939 79 947 76 953 76 956 78 956 83 951 84 946 86 939 88 934 89 928 89 925 89" />
      <polygon style="fill:none; stroke:rgb(64,64,64);" points=" 926 87 932 83 939 79 947 76 953 76 956 78 956 83 951 84 946 86 939 88 934 89 928 89 925 89" />
      <polygon style="fill:rgb(64,64,64); stroke:none;" points=" 933 31 945 33 956 36 964 40 969 47 970 54 968 59 964 61 959 56 954 49 949 44 942 39 936 35 933 33" />
      <polygon style="fill:none; stroke:rgb(64,64,64);" points=" 933 31 945 33 956 36 964 40 969 47 970 54 968 59 964 61 959 56 954 49 949 44 942 39 936 35 933 33" />
      <path d="M1058 29 L991 98" style="fill:none; stroke-width:4; stroke:red;" />
      <circle style="fill:lime; stroke:none;" r="7" cx="1058" cy="29" />
      <rect x="1202" y="2" width="300" style="fill:none;" height="300" />
      <line x1="1202" x2="1502" y1="2" style="fill:none;" y2="302" />
      <line x1="1502" x2="1202" y1="2" style="fill:none;" y2="302" />
      <line x1="1352" x2="1352" y1="2" style="fill:none;" y2="302" />
      <line x1="1202" x2="1502" y1="152" style="fill:none;" y2="152" />
      <polygon style="fill:silver; stroke:none;" points=" 1350 215 1362 218 1372 219 1382 222 1394 226 1404 229 1413 232 1421 236 1428 240 1433 244 1436 251 1436 258 1434 262 1431 263 1426 261 1419 254 1412 249 1404 243 1396 239 1388 234 1379 229 1369 226 1361 222 1350 218" />
      <polygon style="fill:none; stroke:silver;" points=" 1350 215 1362 218 1372 219 1382 222 1394 226 1404 229 1413 232 1421 236 1428 240 1433 244 1436 251 1436 258 1434 262 1431 263 1426 261 1419 254 1412 249 1404 243 1396 239 1388 234 1379 229 1369 226 1361 222 1350 218" />
      <polygon style="fill:silver; stroke:none;" points=" 1331 166 1330 181 1329 193 1327 203 1324 211 1321 217 1317 223 1312 228 1308 232 1301 237 1293 241 1284 246 1276 249 1266 253 1256 257 1244 261 1236 264 1228 266 1230 269 1241 268 1251 266 1261 263 1273 259 1283 256 1294 252 1302 248 1312 241 1319 236 1326 229 1331 223 1335 214 1338 205 1341 197 1342 190 1344 181 1350 177" />
      <polygon style="fill:none; stroke:silver;" points=" 1331 166 1330 181 1329 193 1327 203 1324 211 1321 217 1317 223 1312 228 1308 232 1301 237 1293 241 1284 246 1276 249 1266 253 1256 257 1244 261 1236 264 1228 266 1230 269 1241 268 1251 266 1261 263 1273 259 1283 256 1294 252 1302 248 1312 241 1319 236 1326 229 1331 223 1335 214 1338 205 1341 197 1342 190 1344 181 1350 177" />
      <polygon style="fill:silver; stroke:none;" points=" 1283 149 1285 150 1391 150 1398 141 1417 154 1394 156 1283 156" />
      <polygon style="fill:none; stroke:silver;" points=" 1283 149 1285 150 1391 150 1398 141 1417 154 1394 156 1283 156" />
      <polygon style="fill:silver; stroke:none;" points=" 1394 156 1394 219 1408 215 1408 161 1416 154" />
      <polygon style="fill:none; stroke:silver;" points=" 1394 156 1394 219 1408 215 1408 161 1416 154" />
      <polygon style="fill:silver; stroke:none;" points=" 1270 142 1270 226 1283 219 1283 148 1270 142" />
      <polygon style="fill:none; stroke:silver;" points=" 1270 142 1270 226 1283 219 1283 148 1270 142" />
      <polygon style="fill:silver; stroke:none;" points=" 1370 83 1376 91 1381 99 1389 108 1397 114 1405 119 1413 124 1422 130 1433 135 1441 139 1446 134 1454 129 1464 128 1465 124 1454 123 1441 120 1431 117 1421 114 1412 111 1401 105 1393 99 1386 93 1381 88 1374 79" />
      <polygon style="fill:none; stroke:silver;" points=" 1370 83 1376 91 1381 99 1389 108 1397 114 1405 119 1413 124 1422 130 1433 135 1441 139 1446 134 1454 129 1464 128 1465 124 1454 123 1441 120 1431 117 1421 114 1412 111 1401 105 1393 99 1386 93 1381 88 1374 79" />
      <polygon style="fill:silver; stroke:none;" points=" 1363 64 1358 77 1352 88 1344 96 1338 104 1326 112 1314 119 1301 124 1290 129 1279 132 1271 136 1273 139 1284 136 1298 133 1313 128 1326 123 1337 116 1347 109 1356 101 1364 93 1368 85 1372 79 1382 74" />
      <polygon style="fill:none; stroke:silver;" points=" 1363 64 1358 77 1352 88 1344 96 1338 104 1326 112 1314 119 1301 124 1290 129 1279 132 1271 136 1273 139 1284 136 1298 133 1313 128 1326 123 1337 116 1347 109 1356 101 1364 93 1368 85 1372 79 1382 74" />
      <polygon style="fill:rgb(64,64,64); stroke:none;" points=" 1334 53 1424 53 1432 44 1451 61 1424 59 1329 59" />
      <polygon style="fill:none; stroke:rgb(64,64,64);" points=" 1334 53 1424 53 1432 44 1451 61 1424 59 1329 59" />
      <polygon style="fill:rgb(64,64,64); stroke:none;" points=" 1426 59 1419 68 1414 75 1408 86 1410 88 1416 83 1428 72 1433 67 1439 63 1444 61 1451 61" />
      <polygon style="fill:none; stroke:rgb(64,64,64);" points=" 1426 59 1419 68 1414 75 1408 86 1410 88 1416 83 1428 72 1433 67 1439 63 1444 61 1451 61" />
      <polygon style="fill:rgb(64,64,64); stroke:none;" points=" 1338 18 1328 38 1321 53 1313 67 1304 78 1298 87 1291 98 1293 99 1304 89 1313 79 1321 69 1328 61 1336 50 1343 40 1347 34 1358 29" />
      <polygon style="fill:none; stroke:rgb(64,64,64);" points=" 1338 18 1328 38 1321 53 1313 67 1304 78 1298 87 1291 98 1293 99 1304 89 1313 79 1321 69 1328 61 1336 50 1343 40 1347 34 1358 29" />
      <polygon style="fill:rgb(64,64,64); stroke:none;" points=" 1226 87 1232 83 1239 79 1247 76 1253 76 1256 78 1256 83 1251 84 1246 86 1239 88 1234 89 1228 89 1225 89" />
      <polygon style="fill:none; stroke:rgb(64,64,64);" points=" 1226 87 1232 83 1239 79 1247 76 1253 76 1256 78 1256 83 1251 84 1246 86 1239 88 1234 89 1228 89 1225 89" />
      <polygon style="fill:rgb(64,64,64); stroke:none;" points=" 1233 31 1245 33 1256 36 1264 40 1269 47 1270 54 1268 59 1264 61 1259 56 1254 49 1249 44 1242 39 1236 35 1233 33" />
      <polygon style="fill:none; stroke:rgb(64,64,64);" points=" 1233 31 1245 33 1256 36 1264 40 1269 47 1270 54 1268 59 1264 61 1259 56 1254 49 1249 44 1242 39 1236 35 1233 33" />
      <path d="M1329 59 L1451 61 L1408 86" style="fill:none; stroke-width:4; stroke:red;" />
      <circle style="fill:lime; stroke:none;" r="7" cx="1329" cy="59" />
      <rect x="1502" y="2" width="300" style="fill:none;" height="300" />
      <line x1="1502" x2="1802" y1="2" style="fill:none;" y2="302" />
      <line x1="1802" x2="1502" y1="2" style="fill:none;" y2="302" />
      <line x1="1652" x2="1652" y1="2" style="fill:none;" y2="302" />
      <line x1="1502" x2="1802" y1="152" style="fill:none;" y2="152" />
      <polygon style="fill:silver; stroke:none;" points=" 1650 215 1662 218 1672 219 1682 222 1694 226 1704 229 1713 232 1721 236 1728 240 1733 244 1736 251 1736 258 1734 262 1731 263 1726 261 1719 254 1712 249 1704 243 1696 239 1688 234 1679 229 1669 226 1661 222 1650 218" />
      <polygon style="fill:none; stroke:silver;" points=" 1650 215 1662 218 1672 219 1682 222 1694 226 1704 229 1713 232 1721 236 1728 240 1733 244 1736 251 1736 258 1734 262 1731 263 1726 261 1719 254 1712 249 1704 243 1696 239 1688 234 1679 229 1669 226 1661 222 1650 218" />
      <polygon style="fill:silver; stroke:none;" points=" 1631 166 1630 181 1629 193 1627 203 1624 211 1621 217 1617 223 1612 228 1608 232 1601 237 1593 241 1584 246 1576 249 1566 253 1556 257 1544 261 1536 264 1528 266 1530 269 1541 268 1551 266 1561 263 1573 259 1583 256 1594 252 1602 248 1612 241 1619 236 1626 229 1631 223 1635 214 1638 205 1641 197 1642 190 1644 181 1650 177" />
      <polygon style="fill:none; stroke:silver;" points=" 1631 166 1630 181 1629 193 1627 203 1624 211 1621 217 1617 223 1612 228 1608 232 1601 237 1593 241 1584 246 1576 249 1566 253 1556 257 1544 261 1536 264 1528 266 1530 269 1541 268 1551 266 1561 263 1573 259 1583 256 1594 252 1602 248 1612 241 1619 236 1626 229 1631 223 1635 214 1638 205 1641 197 1642 190 1644 181 1650 177" />
      <polygon style="fill:silver; stroke:none;" points=" 1583 149 1585 150 1691 150 1698 141 1717 154 1694 156 1583 156" />
      <polygon style="fill:none; stroke:silver;" points=" 1583 149 1585 150 1691 150 1698 141 1717 154 1694 156 1583 156" />
      <polygon style="fill:silver; stroke:none;" points=" 1694 156 1694 219 1708 215 1708 161 1716 154" />
      <polygon style="fill:none; stroke:silver;" points=" 1694 156 1694 219 1708 215 1708 161 1716 154" />
      <polygon style="fill:silver; stroke:none;" points=" 1570 142 1570 226 1583 219 1583 148 1570 142" />
      <polygon style="fill:none; stroke:silver;" points=" 1570 142 1570 226 1583 219 1583 148 1570 142" />
      <polygon style="fill:silver; stroke:none;" points=" 1670 83 1676 91 1681 99 1689 108 1697 114 1705 119 1713 124 1722 130 1733 135 1741 139 1746 134 1754 129 1764 128 1765 124 1754 123 1741 120 1731 117 1721 114 1712 111 1701 105 1693 99 1686 93 1681 88 1674 79" />
      <polygon style="fill:none; stroke:silver;" points=" 1670 83 1676 91 1681 99 1689 108 1697 114 1705 119 1713 124 1722 130 1733 135 1741 139 1746 134 1754 129 1764 128 1765 124 1754 123 1741 120 1731 117 1721 114 1712 111 1701 105 1693 99 1686 93 1681 88 1674 79" />
      <polygon style="fill:rgb(64,64,64); stroke:none;" points=" 1663 64 1658 77 1652 88 1644 96 1638 104 1626 112 1614 119 1601 124 1590 129 1579 132 1571 136 1573 139 1584 136 1598 133 1613 128 1626 123 1637 116 1647 109 1656 101 1664 93 1668 85 1672 79 1682 74" />
      <polygon style="fill:none; stroke:rgb(64,64,64);" points=" 1663 64 1658 77 1652 88 1644 96 1638 104 1626 112 1614 119 1601 124 1590 129 1579 132 1571 136 1573 139 1584 136 1598 133 1613 128 1626 123 1637 116 1647 109 1656 101 1664 93 1668 85 1672 79 1682 74" />
      <polygon style="fill:rgb(64,64,64); stroke:none;" points=" 1634 53 1724 53 1732 44 1751 61 1724 59 1629 59" />
      <polygon style="fill:none; stroke:rgb(64,64,64);" points=" 1634 53 1724 53 1732 44 1751 61 1724 59 1629 59" />
      <polygon style="fill:rgb(64,64,64); stroke:none;" points=" 1726 59 1719 68 1714 75 1708 86 1710 88 1716 83 1728 72 1733 67 1739 63 1744 61 1751 61" />
      <polygon style="fill:none; stroke:rgb(64,64,64);" points=" 1726 59 1719 68 1714 75 1708 86 1710 88 1716 83 1728 72 1733 67 1739 63 1744 61 1751 61" />
      <polygon style="fill:rgb(64,64,64); stroke:none;" points=" 1638 18 1628 38 1621 53 1613 67 1604 78 1598 87 1591 98 1593 99 1604 89 1613 79 1621 69 1628 61 1636 50 1643 40 1647 34 1658 29" />
      <polygon style="fill:none; stroke:rgb(64,64,64);" points=" 1638 18 1628 38 1621 53 1613 67 1604 78 1598 87 1591 98 1593 99 1604 89 1613 79 1621 69 1628 61 1636 50 1643 40 1647 34 1658 29" />
      <polygon style="fill:rgb(64,64,64); stroke:none;" points=" 1526 87 1532 83 1539 79 1547 76 1553 76 1556 78 1556 83 1551 84 1546 86 1539 88 1534 89 1528 89 1525 89" />
      <polygon style="fill:none; stroke:rgb(64,64,64);" points=" 1526 87 1532 83 1539 79 1547 76 1553 76 1556 78 1556 83 1551 84 1546 86 1539 88 1534 89 1528 89 1525 89" />
      <polygon style="fill:rgb(64,64,64); stroke:none;" points=" 1533 31 1545 33 1556 36 1564 40 1569 47 1570 54 1568 59 1564 61 1559 56 1554 49 1549 44 1542 39 1536 35 1533 33" />
      <polygon style="fill:none; stroke:rgb(64,64,64);" points=" 1533 31 1545 33 1556 36 1564 40 1569 47 1570 54 1568 59 1564 61 1559 56 1554 49 1549 44 1542 39 1536 35 1533 33" />
      <path d="M1682 74 L1573 139" style="fill:none; stroke-width:4; stroke:red;" />
      <circle style="fill:lime; stroke:none;" r="7" cx="1682" cy="74" />
      <rect x="2" y="302" width="300" style="fill:none;" height="300" />
      <line x1="2" x2="302" y1="302" style="fill:none;" y2="602" />
      <line x1="302" x2="2" y1="302" style="fill:none;" y2="602" />
      <line x1="152" x2="152" y1="302" style="fill:none;" y2="602" />
      <line x1="2" x2="302" y1="452" style="fill:none;" y2="452" />
      <polygon style="fill:silver; stroke:none;" points=" 150 515 162 518 172 519 182 522 194 526 204 529 213 532 221 536 228 540 233 544 236 551 236 558 234 562 231 563 226 561 219 554 212 549 204 543 196 539 188 534 179 529 169 526 161 522 150 518" />
      <polygon style="fill:none; stroke:silver;" points=" 150 515 162 518 172 519 182 522 194 526 204 529 213 532 221 536 228 540 233 544 236 551 236 558 234 562 231 563 226 561 219 554 212 549 204 543 196 539 188 534 179 529 169 526 161 522 150 518" />
      <polygon style="fill:silver; stroke:none;" points=" 131 466 130 481 129 493 127 503 124 511 121 517 117 523 112 528 108 532 101 537 93 541 84 546 76 549 66 553 56 557 44 561 36 564 28 566 30 569 41 568 51 566 61 563 73 559 83 556 94 552 102 548 112 541 119 536 126 529 131 523 135 514 138 505 141 497 142 490 144 481 150 477" />
      <polygon style="fill:none; stroke:silver;" points=" 131 466 130 481 129 493 127 503 124 511 121 517 117 523 112 528 108 532 101 537 93 541 84 546 76 549 66 553 56 557 44 561 36 564 28 566 30 569 41 568 51 566 61 563 73 559 83 556 94 552 102 548 112 541 119 536 126 529 131 523 135 514 138 505 141 497 142 490 144 481 150 477" />
      <polygon style="fill:silver; stroke:none;" points=" 83 449 85 450 191 450 198 441 217 454 194 456 83 456" />
      <polygon style="fill:none; stroke:silver;" points=" 83 449 85 450 191 450 198 441 217 454 194 456 83 456" />
      <polygon style="fill:silver; stroke:none;" points=" 194 456 194 519 208 515 208 461 216 454" />
      <polygon style="fill:none; stroke:silver;" points=" 194 456 194 519 208 515 208 461 216 454" />
      <polygon style="fill:silver; stroke:none;" points=" 70 442 70 526 83 519 83 448 70 442" />
      <polygon style="fill:none; stroke:silver;" points=" 70 442 70 526 83 519 83 448 70 442" />
      <polygon style="fill:rgb(64,64,64); stroke:none;" points=" 170 383 176 391 181 399 189 408 197 414 205 419 213 424 222 430 233 435 241 439 246 434 254 429 264 428 265 424 254 423 241 420 231 417 221 414 212 411 201 405 193 399 186 393 181 388 174 379" />
      <polygon style="fill:none; stroke:rgb(64,64,64);" points=" 170 383 176 391 181 399 189 408 197 414 205 419 213 424 222 430 233 435 241 439 246 434 254 429 264 428 265 424 254 423 241 420 231 417 221 414 212 411 201 405 193 399 186 393 181 388 174 379" />
      <polygon style="fill:rgb(64,64,64); stroke:none;" points=" 163 364 158 377 152 388 144 396 138 404 126 412 114 419 101 424 90 429 79 432 71 436 73 439 84 436 98 433 113 428 126 423 137 416 147 409 156 401 164 393 168 385 172 379 182 374" />
      <polygon style="fill:none; stroke:rgb(64,64,64);" points=" 163 364 158 377 152 388 144 396 138 404 126 412 114 419 101 424 90 429 79 432 71 436 73 439 84 436 98 433 113 428 126 423 137 416 147 409 156 401 164 393 168 385 172 379 182 374" />
      <polygon style="fill:rgb(64,64,64); stroke:none;" points=" 134 353 224 353 232 344 251 361 224 359 129 359" />
      <polygon style="fill:none; stroke:rgb(64,64,64);" points=" 134 353 224 353 232 344 251 361 224 359 129 359" />
      <polygon style="fill:rgb(64,64,64); stroke:none;" points=" 226 359 219 368 214 375 208 386 210 388 216 383 228 372 233 367 239 363 244 361 251 361" />
      <polygon style="fill:none; stroke:rgb(64,64,64);" points=" 226 359 219 368 214 375 208 386 210 388 216 383 228 372 233 367 239 363 244 361 251 361" />
      <polygon style="fill:rgb(64,64,64); stroke:none;" points=" 138 318 128 338 121 353 113 367 104 378 98 387 91 398 93 399 104 389 113 379 121 369 128 361 136 350 143 340 147 334 158 329" />
      <polygon style="fill:none; stroke:rgb(64,64,64);" points=" 138 318 128 338 121 353 113 367 104 378 98 387 91 398 93 399 104 389 113 379 121 369 128 361 136 350 143 340 147 334 158 329" />
      <polygon style="fill:rgb(64,64,64); stroke:none;" points=" 26 387 32 383 39 379 47 376 53 376 56 378 56 383 51 384 46 386 39 388 34 389 28 389 25 389" />
      <polygon style="fill:none; stroke:rgb(64,64,64);" points=" 26 387 32 383 39 379 47 376 53 376 56 378 56 383 51 384 46 386 39 388 34 389 28 389 25 389" />
      <polygon style="fill:rgb(64,64,64); stroke:none;" points=" 33 331 45 333 56 336 64 340 69 347 70 354 68 359 64 361 59 356 54 349 49 344 42 339 36 335 33 333" />
      <polygon style="fill:none; stroke:rgb(64,64,64);" points=" 33 331 45 333 56 336 64 340 69 347 70 354 68 359 64 361 59 356 54 349 49 344 42 339 36 335 33 333" />
      <path d="M174 379 L264 428" style="fill:none; stroke-width:4; stroke:red;" />
      <circle style="fill:lime; stroke:none;" r="7" cx="174" cy="379" />
      <rect x="302" y="302" width="300" style="fill:none;" height="300" />
      <line x1="302" x2="602" y1="302" style="fill:none;" y2="602" />
      <line x1="602" x2="302" y1="302" style="fill:none;" y2="602" />
      <line x1="452" x2="452" y1="302" style="fill:none;" y2="602" />
      <line x1="302" x2="602" y1="452" style="fill:none;" y2="452" />
      <polygon style="fill:silver; stroke:none;" points=" 450 515 462 518 472 519 482 522 494 526 504 529 513 532 521 536 528 540 533 544 536 551 536 558 534 562 531 563 526 561 519 554 512 549 504 543 496 539 488 534 479 529 469 526 461 522 450 518" />
      <polygon style="fill:none; stroke:silver;" points=" 450 515 462 518 472 519 482 522 494 526 504 529 513 532 521 536 528 540 533 544 536 551 536 558 534 562 531 563 526 561 519 554 512 549 504 543 496 539 488 534 479 529 469 526 461 522 450 518" />
      <polygon style="fill:silver; stroke:none;" points=" 431 466 430 481 429 493 427 503 424 511 421 517 417 523 412 528 408 532 401 537 393 541 384 546 376 549 366 553 356 557 344 561 336 564 328 566 330 569 341 568 351 566 361 563 373 559 383 556 394 552 402 548 412 541 419 536 426 529 431 523 435 514 438 505 441 497 442 490 444 481 450 477" />
      <polygon style="fill:none; stroke:silver;" points=" 431 466 430 481 429 493 427 503 424 511 421 517 417 523 412 528 408 532 401 537 393 541 384 546 376 549 366 553 356 557 344 561 336 564 328 566 330 569 341 568 351 566 361 563 373 559 383 556 394 552 402 548 412 541 419 536 426 529 431 523 435 514 438 505 441 497 442 490 444 481 450 477" />
      <polygon style="fill:silver; stroke:none;" points=" 383 449 385 450 491 450 498 441 517 454 494 456 383 456" />
      <polygon style="fill:none; stroke:silver;" points=" 383 449 385 450 491 450 498 441 517 454 494 456 383 456" />
      <polygon style="fill:silver; stroke:none;" points=" 494 456 494 519 508 515 508 461 516 454" />
      <polygon style="fill:none; stroke:silver;" points=" 494 456 494 519 508 515 508 461 516 454" />
      <polygon style="fill:rgb(64,64,64); stroke:none;" points=" 370 442 370 526 383 519 383 448 370 442" />
      <polygon style="fill:none; stroke:rgb(64,64,64);" points=" 370 442 370 526 383 519 383 448 370 442" />
      <polygon style="fill:rgb(64,64,64); stroke:none;" points=" 470 383 476 391 481 399 489 408 497 414 505 419 513 424 522 430 533 435 541 439 546 434 554 429 564 428 565 424 554 423 541 420 531 417 521 414 512 411 501 405 493 399 486 393 481 388 474 379" />
      <polygon style="fill:none; stroke:rgb(64,64,64);" points=" 470 383 476 391 481 399 489 408 497 414 505 419 513 424 522 430 533 435 541 439 546 434 554 429 564 428 565 424 554 423 541 420 531 417 521 414 512 411 501 405 493 399 486 393 481 388 474 379" />
      <polygon style="fill:rgb(64,64,64); stroke:none;" points=" 463 364 458 377 452 388 444 396 438 404 426 412 414 419 401 424 390 429 379 432 371 436 373 439 384 436 398 433 413 428 426 423 437 416 447 409 456 401 464 393 468 385 472 379 482 374" />
      <polygon style="fill:none; stroke:rgb(64,64,64);" points=" 463 364 458 377 452 388 444 396 438 404 426 412 414 419 401 424 390 429 379 432 371 436 373 439 384 436 398 433 413 428 426 423 437 416 447 409 456 401 464 393 468 385 472 379 482 374" />
      <polygon style="fill:rgb(64,64,64); stroke:none;" points=" 434 353 524 353 532 344 551 361 524 359 429 359" />
      <polygon style="fill:none; stroke:rgb(64,64,64);" points=" 434 353 524 353 532 344 551 361 524 359 429 359" />
      <polygon style="fill:rgb(64,64,64); stroke:none;" points=" 526 359 519 368 514 375 508 386 510 388 516 383 528 372 533 367 539 363 544 361 551 361" />
      <polygon style="fill:none; stroke:rgb(64,64,64);" points=" 526 359 519 368 514 375 508 386 510 388 516 383 528 372 533 367 539 363 544 361 551 361" />
      <polygon style="fill:rgb(64,64,64); stroke:none;" points=" 438 318 428 338 421 353 413 367 404 378 398 387 391 398 393 399 404 389 413 379 421 369 428 361 436 350 443 340 447 334 458 329" />
      <polygon style="fill:none; stroke:rgb(64,64,64);" points=" 438 318 428 338 421 353 413 367 404 378 398 387 391 398 393 399 404 389 413 379 421 369 428 361 436 350 443 340 447 334 458 329" />
      <polygon style="fill:rgb(64,64,64); stroke:none;" points=" 326 387 332 383 339 379 347 376 353 376 356 378 356 383 351 384 346 386 339 388 334 389 328 389 325 389" />
      <polygon style="fill:none; stroke:rgb(64,64,64);" points=" 326 387 332 383 339 379 347 376 353 376 356 378 356 383 351 384 346 386 339 388 334 389 328 389 325 389" />
      <polygon style="fill:rgb(64,64,64); stroke:none;" points=" 333 331 345 333 356 336 364 340 369 347 370 354 368 359 364 361 359 356 354 349 349 344 342 339 336 335 333 333" />
      <polygon style="fill:none; stroke:rgb(64,64,64);" points=" 333 331 345 333 356 336 364 340 369 347 370 354 368 359 364 361 359 356 354 349 349 344 342 339 336 335 333 333" />
      <path d="M370 442 L370 526" style="fill:none; stroke-width:4; stroke:red;" />
      <circle style="fill:lime; stroke:none;" r="7" cx="370" cy="442" />
      <rect x="602" y="302" width="300" style="fill:none;" height="300" />
      <line x1="602" x2="902" y1="302" style="fill:none;" y2="602" />
      <line x1="902" x2="602" y1="302" style="fill:none;" y2="602" />
      <line x1="752" x2="752" y1="302" style="fill:none;" y2="602" />
      <line x1="602" x2="902" y1="452" style="fill:none;" y2="452" />
      <polygon style="fill:silver; stroke:none;" points=" 750 515 762 518 772 519 782 522 794 526 804 529 813 532 821 536 828 540 833 544 836 551 836 558 834 562 831 563 826 561 819 554 812 549 804 543 796 539 788 534 779 529 769 526 761 522 750 518" />
      <polygon style="fill:none; stroke:silver;" points=" 750 515 762 518 772 519 782 522 794 526 804 529 813 532 821 536 828 540 833 544 836 551 836 558 834 562 831 563 826 561 819 554 812 549 804 543 796 539 788 534 779 529 769 526 761 522 750 518" />
      <polygon style="fill:silver; stroke:none;" points=" 731 466 730 481 729 493 727 503 724 511 721 517 717 523 712 528 708 532 701 537 693 541 684 546 676 549 666 553 656 557 644 561 636 564 628 566 630 569 641 568 651 566 661 563 673 559 683 556 694 552 702 548 712 541 719 536 726 529 731 523 735 514 738 505 741 497 742 490 744 481 750 477" />
      <polygon style="fill:none; stroke:silver;" points=" 731 466 730 481 729 493 727 503 724 511 721 517 717 523 712 528 708 532 701 537 693 541 684 546 676 549 666 553 656 557 644 561 636 564 628 566 630 569 641 568 651 566 661 563 673 559 683 556 694 552 702 548 712 541 719 536 726 529 731 523 735 514 738 505 741 497 742 490 744 481 750 477" />
      <polygon style="fill:rgb(64,64,64); stroke:none;" points=" 683 449 685 450 791 450 798 441 817 454 794 456 683 456" />
      <polygon style="fill:none; stroke:rgb(64,64,64);" points=" 683 449 685 450 791 450 798 441 817 454 794 456 683 456" />
      <polygon style="fill:rgb(64,64,64); stroke:none;" points=" 794 456 794 519 808 515 808 461 816 454" />
      <polygon style="fill:none; stroke:rgb(64,64,64);" points=" 794 456 794 519 808 515 808 461 816 454" />
      <polygon style="fill:rgb(64,64,64); stroke:none;" points=" 670 442 670 526 683 519 683 448 670 442" />
      <polygon style="fill:none; stroke:rgb(64,64,64);" points=" 670 442 670 526 683 519 683 448 670 442" />
      <polygon style="fill:rgb(64,64,64); stroke:none;" points=" 770 383 776 391 781 399 789 408 797 414 805 419 813 424 822 430 833 435 841 439 846 434 854 429 864 428 865 424 854 423 841 420 831 417 821 414 812 411 801 405 793 399 786 393 781 388 774 379" />
      <polygon style="fill:none; stroke:rgb(64,64,64);" points=" 770 383 776 391 781 399 789 408 797 414 805 419 813 424 822 430 833 435 841 439 846 434 854 429 864 428 865 424 854 423 841 420 831 417 821 414 812 411 801 405 793 399 786 393 781 388 774 379" />
      <polygon style="fill:rgb(64,64,64); stroke:none;" points=" 763 364 758 377 752 388 744 396 738 404 726 412 714 419 701 424 690 429 679 432 671 436 673 439 684 436 698 433 713 428 726 423 737 416 747 409 756 401 764 393 768 385 772 379 782 374" />
      <polygon style="fill:none; stroke:rgb(64,64,64);" points=" 763 364 758 377 752 388 744 396 738 404 726 412 714 419 701 424 690 429 679 432 671 436 673 439 684 436 698 433 713 428 726 423 737 416 747 409 756 401 764 393 768 385 772 379 782 374" />
      <polygon style="fill:rgb(64,64,64); stroke:none;" points=" 734 353 824 353 832 344 851 361 824 359 729 359" />
      <polygon style="fill:none; stroke:rgb(64,64,64);" points=" 734 353 824 353 832 344 851 361 824 359 729 359" />
      <polygon style="fill:rgb(64,64,64); stroke:none;" points=" 826 359 819 368 814 375 808 386 810 388 816 383 828 372 833 367 839 363 844 361 851 361" />
      <polygon style="fill:none; stroke:rgb(64,64,64);" points=" 826 359 819 368 814 375 808 386 810 388 816 383 828 372 833 367 839 363 844 361 851 361" />
      <polygon style="fill:rgb(64,64,64); stroke:none;" points=" 738 318 728 338 721 353 713 367 704 378 698 387 691 398 693 399 704 389 713 379 721 369 728 361 736 350 743 340 747 334 758 329" />
      <polygon style="fill:none; stroke:rgb(64,64,64);" points=" 738 318 728 338 721 353 713 367 704 378 698 387 691 398 693 399 704 389 713 379 721 369 728 361 736 350 743 340 747 334 758 329" />
      <polygon style="fill:rgb(64,64,64); stroke:none;" points=" 626 387 632 383 639 379 647 376 653 376 656 378 656 383 651 384 646 386 639 388 634 389 628 389 625 389" />
      <polygon style="fill:none; stroke:rgb(64,64,64);" points=" 626 387 632 383 639 379 647 376 653 376 656 378 656 383 651 384 646 386 639 388 634 389 628 389 625 389" />
      <polygon style="fill:rgb(64,64,64); stroke:none;" points=" 633 331 645 333 656 336 664 340 669 347 670 354 668 359 664 361 659 356 654 349 649 344 642 339 636 335 633 333" />
      <polygon style="fill:none; stroke:rgb(64,64,64);" points=" 633 331 645 333 656 336 664 340 669 347 670 354 668 359 664 361 659 356 654 349 649 344 642 339 636 335 633 333" />
      <path d="M683 449 L817 454 L794 519" style="fill:none; stroke-width:4; stroke:red;" />
      <circle style="fill:lime; stroke:none;" r="7" cx="683" cy="449" />
      <rect x="902" y="302" width="300" style="fill:none;" height="300" />
      <line x1="902" x2="1202" y1="302" style="fill:none;" y2="602" />
      <line x1="1202" x2="902" y1="302" style="fill:none;" y2="602" />
      <line x1="1052" x2="1052" y1="302" style="fill:none;" y2="602" />
      <line x1="902" x2="1202" y1="452" style="fill:none;" y2="452" />
      <polygon style="fill:silver; stroke:none;" points=" 1050 515 1062 518 1072 519 1082 522 1094 526 1104 529 1113 532 1121 536 1128 540 1133 544 1136 551 1136 558 1134 562 1131 563 1126 561 1119 554 1112 549 1104 543 1096 539 1088 534 1079 529 1069 526 1061 522 1050 518" />
      <polygon style="fill:none; stroke:silver;" points=" 1050 515 1062 518 1072 519 1082 522 1094 526 1104 529 1113 532 1121 536 1128 540 1133 544 1136 551 1136 558 1134 562 1131 563 1126 561 1119 554 1112 549 1104 543 1096 539 1088 534 1079 529 1069 526 1061 522 1050 518" />
      <polygon style="fill:rgb(64,64,64); stroke:none;" points=" 1031 466 1030 481 1029 493 1027 503 1024 511 1021 517 1017 523 1012 528 1008 532 1001 537 993 541 984 546 976 549 966 553 956 557 944 561 936 564 928 566 930 569 941 568 951 566 961 563 973 559 983 556 994 552 1002 548 1012 541 1019 536 1026 529 1031 523 1035 514 1038 505 1041 497 1042 490 1044 481 1050 477" />
      <polygon style="fill:none; stroke:rgb(64,64,64);" points=" 1031 466 1030 481 1029 493 1027 503 1024 511 1021 517 1017 523 1012 528 1008 532 1001 537 993 541 984 546 976 549 966 553 956 557 944 561 936 564 928 566 930 569 941 568 951 566 961 563 973 559 983 556 994 552 1002 548 1012 541 1019 536 1026 529 1031 523 1035 514 1038 505 1041 497 1042 490 1044 481 1050 477" />
      <polygon style="fill:rgb(64,64,64); stroke:none;" points=" 983 449 985 450 1091 450 1098 441 1117 454 1094 456 983 456" />
      <polygon style="fill:none; stroke:rgb(64,64,64);" points=" 983 449 985 450 1091 450 1098 441 1117 454 1094 456 983 456" />
      <polygon style="fill:rgb(64,64,64); stroke:none;" points=" 1094 456 1094 519 1108 515 1108 461 1116 454" />
      <polygon style="fill:none; stroke:rgb(64,64,64);" points=" 1094 456 1094 519 1108 515 1108 461 1116 454" />
      <polygon style="fill:rgb(64,64,64); stroke:none;" points=" 970 442 970 526 983 519 983 448 970 442" />
      <polygon style="fill:none; stroke:rgb(64,64,64);" points=" 970 442 970 526 983 519 983 448 970 442" />
      <polygon style="fill:rgb(64,64,64); stroke:none;" points=" 1070 383 1076 391 1081 399 1089 408 1097 414 1105 419 1113 424 1122 430 1133 435 1141 439 1146 434 1154 429 1164 428 1165 424 1154 423 1141 420 1131 417 1121 414 1112 411 1101 405 1093 399 1086 393 1081 388 1074 379" />
      <polygon style="fill:none; stroke:rgb(64,64,64);" points=" 1070 383 1076 391 1081 399 1089 408 1097 414 1105 419 1113 424 1122 430 1133 435 1141 439 1146 434 1154 429 1164 428 1165 424 1154 423 1141 420 1131 417 1121 414 1112 411 1101 405 1093 399 1086 393 1081 388 1074 379" />
      <polygon style="fill:rgb(64,64,64); stroke:none;" points=" 1063 364 1058 377 1052 388 1044 396 1038 404 1026 412 1014 419 1001 424 990 429 979 432 971 436 973 439 984 436 998 433 1013 428 1026 423 1037 416 1047 409 1056 401 1064 393 1068 385 1072 379 1082 374" />
      <polygon style="fill:none; stroke:rgb(64,64,64);" points=" 1063 364 1058 377 1052 388 1044 396 1038 404 1026 412 1014 419 1001 424 990 429 979 432 971 436 973 439 984 436 998 433 1013 428 1026 423 1037 416 1047 409 1056 401 1064 393 1068 385 1072 379 1082 374" />
      <polygon style="fill:rgb(64,64,64); stroke:none;" points=" 1034 353 1124 353 1132 344 1151 361 1124 359 1029 359" />
      <polygon style="fill:none; stroke:rgb(64,64,64);" points=" 1034 353 1124 353 1132 344 1151 361 1124 359 1029 359" />
      <polygon style="fill:rgb(64,64,64); stroke:none;" points=" 1126 359 1119 368 1114 375 1108 386 1110 388 1116 383 1128 372 1133 367 1139 363 1144 361 1151 361" />
      <polygon style="fill:none; stroke:rgb(64,64,64);" points=" 1126 359 1119 368 1114 375 1108 386 1110 388 1116 383 1128 372 1133 367 1139 363 1144 361 1151 361" />
      <polygon style="fill:rgb(64,64,64); stroke:none;" points=" 1038 318 1028 338 1021 353 1013 367 1004 378 998 387 991 398 993 399 1004 389 1013 379 1021 369 1028 361 1036 350 1043 340 1047 334 1058 329" />
      <polygon style="fill:none; stroke:rgb(64,64,64);" points=" 1038 318 1028 338 1021 353 1013 367 1004 378 998 387 991 398 993 399 1004 389 1013 379 1021 369 1028 361 1036 350 1043 340 1047 334 1058 329" />
      <polygon style="fill:rgb(64,64,64); stroke:none;" points=" 926 387 932 383 939 379 947 376 953 376 956 378 956 383 951 384 946 386 939 388 934 389 928 389 925 389" />
      <polygon style="fill:none; stroke:rgb(64,64,64);" points=" 926 387 932 383 939 379 947 376 953 376 956 378 956 383 951 384 946 386 939 388 934 389 928 389 925 389" />
      <polygon style="fill:rgb(64,64,64); stroke:none;" points=" 933 331 945 333 956 336 964 340 969 347 970 354 968 359 964 361 959 356 954 349 949 344 942 339 936 335 933 333" />
      <polygon style="fill:none; stroke:rgb(64,64,64);" points=" 933 331 945 333 956 336 964 340 969 347 970 354 968 359 964 361 959 356 954 349 949 344 942 339 936 335 933 333" />
      <path d="M1050 477 L930 569" style="fill:none; stroke-width:4; stroke:red;" />
      <circle style="fill:lime; stroke:none;" r="7" cx="1050" cy="477" />
      <rect x="1202" y="302" width="300" style="fill:none;" height="300" />
      <line x1="1202" x2="1502" y1="302" style="fill:none;" y2="602" />
      <line x1="1502" x2="1202" y1="302" style="fill:none;" y2="602" />
      <line x1="1352" x2="1352" y1="302" style="fill:none;" y2="602" />
      <line x1="1202" x2="1502" y1="452" style="fill:none;" y2="452" />
      <polygon style="fill:rgb(64,64,64); stroke:none;" points=" 1350 515 1362 518 1372 519 1382 522 1394 526 1404 529 1413 532 1421 536 1428 540 1433 544 1436 551 1436 558 1434 562 1431 563 1426 561 1419 554 1412 549 1404 543 1396 539 1388 534 1379 529 1369 526 1361 522 1350 518" />
      <polygon style="fill:none; stroke:rgb(64,64,64);" points=" 1350 515 1362 518 1372 519 1382 522 1394 526 1404 529 1413 532 1421 536 1428 540 1433 544 1436 551 1436 558 1434 562 1431 563 1426 561 1419 554 1412 549 1404 543 1396 539 1388 534 1379 529 1369 526 1361 522 1350 518" />
      <polygon style="fill:rgb(64,64,64); stroke:none;" points=" 1331 466 1330 481 1329 493 1327 503 1324 511 1321 517 1317 523 1312 528 1308 532 1301 537 1293 541 1284 546 1276 549 1266 553 1256 557 1244 561 1236 564 1228 566 1230 569 1241 568 1251 566 1261 563 1273 559 1283 556 1294 552 1302 548 1312 541 1319 536 1326 529 1331 523 1335 514 1338 505 1341 497 1342 490 1344 481 1350 477" />
      <polygon style="fill:none; stroke:rgb(64,64,64);" points=" 1331 466 1330 481 1329 493 1327 503 1324 511 1321 517 1317 523 1312 528 1308 532 1301 537 1293 541 1284 546 1276 549 1266 553 1256 557 1244 561 1236 564 1228 566 1230 569 1241 568 1251 566 1261 563 1273 559 1283 556 1294 552 1302 548 1312 541 1319 536 1326 529 1331 523 1335 514 1338 505 1341 497 1342 490 1344 481 1350 477" />
      <polygon style="fill:rgb(64,64,64); stroke:none;" points=" 1283 449 1285 450 1391 450 1398 441 1417 454 1394 456 1283 456" />
      <polygon style="fill:none; stroke:rgb(64,64,64);" points=" 1283 449 1285 450 1391 450 1398 441 1417 454 1394 456 1283 456" />
      <polygon style="fill:rgb(64,64,64); stroke:none;" points=" 1394 456 1394 519 1408 515 1408 461 1416 454" />
      <polygon style="fill:none; stroke:rgb(64,64,64);" points=" 1394 456 1394 519 1408 515 1408 461 1416 454" />
      <polygon style="fill:rgb(64,64,64); stroke:none;" points=" 1270 442 1270 526 1283 519 1283 448 1270 442" />
      <polygon style="fill:none; stroke:rgb(64,64,64);" points=" 1270 442 1270 526 1283 519 1283 448 1270 442" />
      <polygon style="fill:rgb(64,64,64); stroke:none;" points=" 1370 383 1376 391 1381 399 1389 408 1397 414 1405 419 1413 424 1422 430 1433 435 1441 439 1446 434 1454 429 1464 428 1465 424 1454 423 1441 420 1431 417 1421 414 1412 411 1401 405 1393 399 1386 393 1381 388 1374 379" />
      <polygon style="fill:none; stroke:rgb(64,64,64);" points=" 1370 383 1376 391 1381 399 1389 408 1397 414 1405 419 1413 424 1422 430 1433 435 1441 439 1446 434 1454 429 1464 428 1465 424 1454 423 1441 420 1431 417 1421 414 1412 411 1401 405 1393 399 1386 393 1381 388 1374 379" />
      <polygon style="fill:rgb(64,64,64); stroke:none;" points=" 1363 364 1358 377 1352 388 1344 396 1338 404 1326 412 1314 419 1301 424 1290 429 1279 432 1271 436 1273 439 1284 436 1298 433 1313 428 1326 423 1337 416 1347 409 1356 401 1364 393 1368 385 1372 379 1382 374" />
      <polygon style="fill:none; stroke:rgb(64,64,64);" points=" 1363 364 1358 377 1352 388 1344 396 1338 404 1326 412 1314 419 1301 424 1290 429 1279 432 1271 436 1273 439 1284 436 1298 433 1313 428 1326 423 1337 416 1347 409 1356 401 1364 393 1368 385 1372 379 1382 374" />
      <polygon style="fill:rgb(64,64,64); stroke:none;" points=" 1334 353 1424 353 1432 344 1451 361 1424 359 1329 359" />
      <polygon style="fill:none; stroke:rgb(64,64,64);" points=" 1334 353 1424 353 1432 344 1451 361 1424 359 1329 359" />
      <polygon style="fill:rgb(64,64,64); stroke:none;" points=" 1426 359 1419 368 1414 375 1408 386 1410 388 1416 383 1428 372 1433 367 1439 363 1444 361 1451 361" />
      <polygon style="fill:none; stroke:rgb(64,64,64);" points=" 1426 359 1419 368 1414 375 1408 386 1410 388 1416 383 1428 372 1433 367 1439 363 1444 361 1451 361" />
      <polygon style="fill:rgb(64,64,64); stroke:none;" points=" 1338 318 1328 338 1321 353 1313 367 1304 378 1298 387 1291 398 1293 399 1304 389 1313 379 1321 369 1328 361 1336 350 1343 340 1347 334 1358 329" />
      <polygon style="fill:none; stroke:rgb(64,64,64);" points=" 1338 318 1328 338 1321 353 1313 367 1304 378 1298 387 1291 398 1293 399 1304 389 1313 379 1321 369 1328 361 1336 350 1343 340 1347 334 1358 329" />
      <polygon style="fill:rgb(64,64,64); stroke:none;" points=" 1226 387 1232 383 1239 379 1247 376 1253 376 1256 378 1256 383 1251 384 1246 386 1239 388 1234 389 1228 389 1225 389" />
      <polygon style="fill:none; stroke:rgb(64,64,64);" points=" 1226 387 1232 383 1239 379 1247 376 1253 376 1256 378 1256 383 1251 384 1246 386 1239 388 1234 389 1228 389 1225 389" />
      <polygon style="fill:rgb(64,64,64); stroke:none;" points=" 1233 331 1245 333 1256 336 1264 340 1269 347 1270 354 1268 359 1264 361 1259 356 1254 349 1249 344 1242 339 1236 335 1233 333" />
      <polygon style="fill:none; stroke:rgb(64,64,64);" points=" 1233 331 1245 333 1256 336 1264 340 1269 347 1270 354 1268 359 1264 361 1259 356 1254 349 1249 344 1242 339 1236 335 1233 333" />
      <path d="M1350 515 L1434 562" style="fill:none; stroke-width:4; stroke:red;" />
      <circle style="fill:lime; stroke:none;" r="7" cx="1350" cy="515" />
    </g>
  </g>
</svg>
