<?xml version="1.0" encoding="UTF-8"?>

<!DOCTYPE svg PUBLIC '-//W3C//DTD SVG 1.0//EN' 'http://www.w3.org/TR/2001/REC-SVG-20010904/DTD/svg10.dtd'>
<svg style="fill-opacity:1; color-rendering:auto; color-interpolation:auto; stroke:black; text-rendering:auto; stroke-linecap:square; stroke-miterlimit:10; stroke-opacity:1; shape-rendering:auto; fill:black; stroke-dasharray:none; font-weight:normal; stroke-width:1; font-family:&apos;Dialog&apos;; font-style:normal; stroke-linejoin:miter; font-size:12; stroke-dashoffset:0; image-rendering:auto;" xmlns="http://www.w3.org/2000/svg" width="1504" xmlns:xlink="http://www.w3.org/1999/xlink" height="604">
  <!--Generated by the Batik Graphics2D SVG Generator-->
  <defs id="genericDefs" />
  <g>
    <g style="fill:rgb(128,128,255); stroke:rgb(128,128,255);">
      <rect x="2" y="2" width="300" style="fill:none;" height="300" />
      <line x1="2" x2="302" y1="2" style="fill:none;" y2="302" />
      <line x1="302" x2="2" y1="2" style="fill:none;" y2="302" />
      <line x1="152" x2="152" y1="2" style="fill:none;" y2="302" />
      <line x1="2" x2="302" y1="152" style="fill:none;" y2="152" />
      <polygon style="fill:black; stroke:none;" points=" 18 166 236 166 248 151 265 171 34 171 24 174 18 166" />
      <polygon style="fill:none; stroke:black;" points=" 18 166 236 166 248 151 265 171 34 171 24 174 18 166" />
      <polygon style="fill:black; stroke:none;" points=" 183 171 179 179 173 188 168 196 164 203 156 211 148 218 136 226 128 231 118 236 108 241 99 244 91 248 79 251 66 255 54 258 39 260 27 263 27 266 39 266 51 264 63 263 75 260 85 258 96 255 106 253 116 249 127 244 136 239 145 234 153 228 161 223 169 214 177 205 183 196 189 187 194 179 198 171" />
      <polygon style="fill:none; stroke:black;" points=" 183 171 179 179 173 188 168 196 164 203 156 211 148 218 136 226 128 231 118 236 108 241 99 244 91 248 79 251 66 255 54 258 39 260 27 263 27 266 39 266 51 264 63 263 75 260 85 258 96 255 106 253 116 249 127 244 136 239 145 234 153 228 161 223 169 214 177 205 183 196 189 187 194 179 198 171" />
      <polygon style="fill:black; stroke:none;" points=" 95 199 129 146 138 142 121 133 79 203 91 204 94 200" />
      <polygon style="fill:none; stroke:black;" points=" 95 199 129 146 138 142 121 133 79 203 91 204 94 200" />
      <polygon style="fill:black; stroke:none;" points=" 91 204 104 207 119 210 133 213 148 218 161 223 173 226 186 231 201 239 213 245 224 252 234 258 238 260 241 254 241 246 235 239 224 233 212 228 200 223 186 218 174 215 169 214 155 211 139 206 123 204 109 201 94 200" />
      <polygon style="fill:none; stroke:black;" points=" 91 204 104 207 119 210 133 213 148 218 161 223 173 226 186 231 201 239 213 245 224 252 234 258 238 260 241 254 241 246 235 239 224 233 212 228 200 223 186 218 174 215 169 214 155 211 139 206 123 204 109 201 94 200" />
      <polygon style="fill:black; stroke:none;" points=" 67 125 216 125 216 130 67 130 67 125" />
      <polygon style="fill:none; stroke:black;" points=" 67 125 216 125 216 130 67 130 67 125" />
      <polygon style="fill:black; stroke:none;" points=" 163 41 174 41 174 126 163 126" />
      <polygon style="fill:none; stroke:black;" points=" 163 41 174 41 174 126 163 126" />
      <polygon style="fill:black; stroke:none;" points=" 109 42 109 126 119 126 119 43 109 42" />
      <polygon style="fill:none; stroke:black;" points=" 109 42 109 126 119 126 119 43 109 42" />
      <polygon style="fill:black; stroke:none;" points=" 68 76 212 76 219 66 238 78 217 81 68 81 68 76" />
      <polygon style="fill:none; stroke:black;" points=" 68 76 212 76 219 66 238 78 217 81 68 81 68 76" />
      <polygon style="fill:black; stroke:none;" points=" 217 81 217 145 228 141 228 87 238 77 217 81" />
      <polygon style="fill:none; stroke:black;" points=" 217 81 217 145 228 141 228 87 238 77 217 81" />
      <polygon style="fill:black; stroke:none;" points=" 56 67 56 147 68 142 68 74 56 67" />
      <polygon style="fill:none; stroke:black;" points=" 56 67 56 147 68 142 68 74 56 67" />
      <polygon style="fill:black; stroke:none;" points=" 20 38 228 38 238 24 258 42 35 43 26 45 20 38" />
      <polygon style="fill:none; stroke:black;" points=" 20 38 228 38 238 24 258 42 35 43 26 45 20 38" />
      <rect x="302" y="2" width="300" style="fill:none;" height="300" />
      <line x1="302" x2="602" y1="2" style="fill:none;" y2="302" />
      <line x1="602" x2="302" y1="2" style="fill:none;" y2="302" />
      <line x1="452" x2="452" y1="2" style="fill:none;" y2="302" />
      <line x1="302" x2="602" y1="152" style="fill:none;" y2="152" />
      <polygon style="fill:silver; stroke:none;" points=" 318 166 536 166 548 151 565 171 334 171 324 174 318 166" />
      <polygon style="fill:none; stroke:silver;" points=" 318 166 536 166 548 151 565 171 334 171 324 174 318 166" />
      <polygon style="fill:silver; stroke:none;" points=" 483 171 479 179 473 188 468 196 464 203 456 211 448 218 436 226 428 231 418 236 408 241 399 244 391 248 379 251 366 255 354 258 339 260 327 263 327 266 339 266 351 264 363 263 375 260 385 258 396 255 406 253 416 249 427 244 436 239 445 234 453 228 461 223 469 214 477 205 483 196 489 187 494 179 498 171" />
      <polygon style="fill:none; stroke:silver;" points=" 483 171 479 179 473 188 468 196 464 203 456 211 448 218 436 226 428 231 418 236 408 241 399 244 391 248 379 251 366 255 354 258 339 260 327 263 327 266 339 266 351 264 363 263 375 260 385 258 396 255 406 253 416 249 427 244 436 239 445 234 453 228 461 223 469 214 477 205 483 196 489 187 494 179 498 171" />
      <polygon style="fill:silver; stroke:none;" points=" 395 199 429 146 438 142 421 133 379 203 391 204 394 200" />
      <polygon style="fill:none; stroke:silver;" points=" 395 199 429 146 438 142 421 133 379 203 391 204 394 200" />
      <polygon style="fill:silver; stroke:none;" points=" 391 204 404 207 419 210 433 213 448 218 461 223 473 226 486 231 501 239 513 245 524 252 534 258 538 260 541 254 541 246 535 239 524 233 512 228 500 223 486 218 474 215 469 214 455 211 439 206 423 204 409 201 394 200" />
      <polygon style="fill:none; stroke:silver;" points=" 391 204 404 207 419 210 433 213 448 218 461 223 473 226 486 231 501 239 513 245 524 252 534 258 538 260 541 254 541 246 535 239 524 233 512 228 500 223 486 218 474 215 469 214 455 211 439 206 423 204 409 201 394 200" />
      <polygon style="fill:silver; stroke:none;" points=" 367 125 516 125 516 130 367 130 367 125" />
      <polygon style="fill:none; stroke:silver;" points=" 367 125 516 125 516 130 367 130 367 125" />
      <polygon style="fill:silver; stroke:none;" points=" 463 41 474 41 474 126 463 126" />
      <polygon style="fill:none; stroke:silver;" points=" 463 41 474 41 474 126 463 126" />
      <polygon style="fill:silver; stroke:none;" points=" 409 42 409 126 419 126 419 43 409 42" />
      <polygon style="fill:none; stroke:silver;" points=" 409 42 409 126 419 126 419 43 409 42" />
      <polygon style="fill:silver; stroke:none;" points=" 368 76 512 76 519 66 538 78 517 81 368 81 368 76" />
      <polygon style="fill:none; stroke:silver;" points=" 368 76 512 76 519 66 538 78 517 81 368 81 368 76" />
      <polygon style="fill:silver; stroke:none;" points=" 517 81 517 145 528 141 528 87 538 77 517 81" />
      <polygon style="fill:none; stroke:silver;" points=" 517 81 517 145 528 141 528 87 538 77 517 81" />
      <polygon style="fill:silver; stroke:none;" points=" 356 67 356 147 368 142 368 74 356 67" />
      <polygon style="fill:none; stroke:silver;" points=" 356 67 356 147 368 142 368 74 356 67" />
      <polygon style="fill:rgb(64,64,64); stroke:none;" points=" 320 38 528 38 538 24 558 42 335 43 326 45 320 38" />
      <polygon style="fill:none; stroke:rgb(64,64,64);" points=" 320 38 528 38 538 24 558 42 335 43 326 45 320 38" />
      <path d="M320 38 L558 42" style="fill:none; stroke-width:4; stroke:red;" />
      <circle style="fill:lime; stroke:none;" r="7" cx="320" cy="38" />
      <rect x="602" y="2" width="300" style="fill:none;" height="300" />
      <line x1="602" x2="902" y1="2" style="fill:none;" y2="302" />
      <line x1="902" x2="602" y1="2" style="fill:none;" y2="302" />
      <line x1="752" x2="752" y1="2" style="fill:none;" y2="302" />
      <line x1="602" x2="902" y1="152" style="fill:none;" y2="152" />
      <polygon style="fill:silver; stroke:none;" points=" 618 166 836 166 848 151 865 171 634 171 624 174 618 166" />
      <polygon style="fill:none; stroke:silver;" points=" 618 166 836 166 848 151 865 171 634 171 624 174 618 166" />
      <polygon style="fill:silver; stroke:none;" points=" 783 171 779 179 773 188 768 196 764 203 756 211 748 218 736 226 728 231 718 236 708 241 699 244 691 248 679 251 666 255 654 258 639 260 627 263 627 266 639 266 651 264 663 263 675 260 685 258 696 255 706 253 716 249 727 244 736 239 745 234 753 228 761 223 769 214 777 205 783 196 789 187 794 179 798 171" />
      <polygon style="fill:none; stroke:silver;" points=" 783 171 779 179 773 188 768 196 764 203 756 211 748 218 736 226 728 231 718 236 708 241 699 244 691 248 679 251 666 255 654 258 639 260 627 263 627 266 639 266 651 264 663 263 675 260 685 258 696 255 706 253 716 249 727 244 736 239 745 234 753 228 761 223 769 214 777 205 783 196 789 187 794 179 798 171" />
      <polygon style="fill:silver; stroke:none;" points=" 695 199 729 146 738 142 721 133 679 203 691 204 694 200" />
      <polygon style="fill:none; stroke:silver;" points=" 695 199 729 146 738 142 721 133 679 203 691 204 694 200" />
      <polygon style="fill:silver; stroke:none;" points=" 691 204 704 207 719 210 733 213 748 218 761 223 773 226 786 231 801 239 813 245 824 252 834 258 838 260 841 254 841 246 835 239 824 233 812 228 800 223 786 218 774 215 769 214 755 211 739 206 723 204 709 201 694 200" />
      <polygon style="fill:none; stroke:silver;" points=" 691 204 704 207 719 210 733 213 748 218 761 223 773 226 786 231 801 239 813 245 824 252 834 258 838 260 841 254 841 246 835 239 824 233 812 228 800 223 786 218 774 215 769 214 755 211 739 206 723 204 709 201 694 200" />
      <polygon style="fill:silver; stroke:none;" points=" 667 125 816 125 816 130 667 130 667 125" />
      <polygon style="fill:none; stroke:silver;" points=" 667 125 816 125 816 130 667 130 667 125" />
      <polygon style="fill:silver; stroke:none;" points=" 763 41 774 41 774 126 763 126" />
      <polygon style="fill:none; stroke:silver;" points=" 763 41 774 41 774 126 763 126" />
      <polygon style="fill:silver; stroke:none;" points=" 709 42 709 126 719 126 719 43 709 42" />
      <polygon style="fill:none; stroke:silver;" points=" 709 42 709 126 719 126 719 43 709 42" />
      <polygon style="fill:silver; stroke:none;" points=" 668 76 812 76 819 66 838 78 817 81 668 81 668 76" />
      <polygon style="fill:none; stroke:silver;" points=" 668 76 812 76 819 66 838 78 817 81 668 81 668 76" />
      <polygon style="fill:silver; stroke:none;" points=" 817 81 817 145 828 141 828 87 838 77 817 81" />
      <polygon style="fill:none; stroke:silver;" points=" 817 81 817 145 828 141 828 87 838 77 817 81" />
      <polygon style="fill:rgb(64,64,64); stroke:none;" points=" 656 67 656 147 668 142 668 74 656 67" />
      <polygon style="fill:none; stroke:rgb(64,64,64);" points=" 656 67 656 147 668 142 668 74 656 67" />
      <polygon style="fill:rgb(64,64,64); stroke:none;" points=" 620 38 828 38 838 24 858 42 635 43 626 45 620 38" />
      <polygon style="fill:none; stroke:rgb(64,64,64);" points=" 620 38 828 38 838 24 858 42 635 43 626 45 620 38" />
      <path d="M656 67 L656 147" style="fill:none; stroke-width:4; stroke:red;" />
      <circle style="fill:lime; stroke:none;" r="7" cx="656" cy="67" />
      <rect x="902" y="2" width="300" style="fill:none;" height="300" />
      <line x1="902" x2="1202" y1="2" style="fill:none;" y2="302" />
      <line x1="1202" x2="902" y1="2" style="fill:none;" y2="302" />
      <line x1="1052" x2="1052" y1="2" style="fill:none;" y2="302" />
      <line x1="902" x2="1202" y1="152" style="fill:none;" y2="152" />
      <polygon style="fill:silver; stroke:none;" points=" 918 166 1136 166 1148 151 1165 171 934 171 924 174 918 166" />
      <polygon style="fill:none; stroke:silver;" points=" 918 166 1136 166 1148 151 1165 171 934 171 924 174 918 166" />
      <polygon style="fill:silver; stroke:none;" points=" 1083 171 1079 179 1073 188 1068 196 1064 203 1056 211 1048 218 1036 226 1028 231 1018 236 1008 241 999 244 991 248 979 251 966 255 954 258 939 260 927 263 927 266 939 266 951 264 963 263 975 260 985 258 996 255 1006 253 1016 249 1027 244 1036 239 1045 234 1053 228 1061 223 1069 214 1077 205 1083 196 1089 187 1094 179 1098 171" />
      <polygon style="fill:none; stroke:silver;" points=" 1083 171 1079 179 1073 188 1068 196 1064 203 1056 211 1048 218 1036 226 1028 231 1018 236 1008 241 999 244 991 248 979 251 966 255 954 258 939 260 927 263 927 266 939 266 951 264 963 263 975 260 985 258 996 255 1006 253 1016 249 1027 244 1036 239 1045 234 1053 228 1061 223 1069 214 1077 205 1083 196 1089 187 1094 179 1098 171" />
      <polygon style="fill:silver; stroke:none;" points=" 995 199 1029 146 1038 142 1021 133 979 203 991 204 994 200" />
      <polygon style="fill:none; stroke:silver;" points=" 995 199 1029 146 1038 142 1021 133 979 203 991 204 994 200" />
      <polygon style="fill:silver; stroke:none;" points=" 991 204 1004 207 1019 210 1033 213 1048 218 1061 223 1073 226 1086 231 1101 239 1113 245 1124 252 1134 258 1138 260 1141 254 1141 246 1135 239 1124 233 1112 228 1100 223 1086 218 1074 215 1069 214 1055 211 1039 206 1023 204 1009 201 994 200" />
      <polygon style="fill:none; stroke:silver;" points=" 991 204 1004 207 1019 210 1033 213 1048 218 1061 223 1073 226 1086 231 1101 239 1113 245 1124 252 1134 258 1138 260 1141 254 1141 246 1135 239 1124 233 1112 228 1100 223 1086 218 1074 215 1069 214 1055 211 1039 206 1023 204 1009 201 994 200" />
      <polygon style="fill:silver; stroke:none;" points=" 967 125 1116 125 1116 130 967 130 967 125" />
      <polygon style="fill:none; stroke:silver;" points=" 967 125 1116 125 1116 130 967 130 967 125" />
      <polygon style="fill:silver; stroke:none;" points=" 1063 41 1074 41 1074 126 1063 126" />
      <polygon style="fill:none; stroke:silver;" points=" 1063 41 1074 41 1074 126 1063 126" />
      <polygon style="fill:silver; stroke:none;" points=" 1009 42 1009 126 1019 126 1019 43 1009 42" />
      <polygon style="fill:none; stroke:silver;" points=" 1009 42 1009 126 1019 126 1019 43 1009 42" />
      <polygon style="fill:rgb(64,64,64); stroke:none;" points=" 968 76 1112 76 1119 66 1138 78 1117 81 968 81 968 76" />
      <polygon style="fill:none; stroke:rgb(64,64,64);" points=" 968 76 1112 76 1119 66 1138 78 1117 81 968 81 968 76" />
      <polygon style="fill:rgb(64,64,64); stroke:none;" points=" 1117 81 1117 145 1128 141 1128 87 1138 77 1117 81" />
      <polygon style="fill:none; stroke:rgb(64,64,64);" points=" 1117 81 1117 145 1128 141 1128 87 1138 77 1117 81" />
      <polygon style="fill:rgb(64,64,64); stroke:none;" points=" 956 67 956 147 968 142 968 74 956 67" />
      <polygon style="fill:none; stroke:rgb(64,64,64);" points=" 956 67 956 147 968 142 968 74 956 67" />
      <polygon style="fill:rgb(64,64,64); stroke:none;" points=" 920 38 1128 38 1138 24 1158 42 935 43 926 45 920 38" />
      <polygon style="fill:none; stroke:rgb(64,64,64);" points=" 920 38 1128 38 1138 24 1158 42 935 43 926 45 920 38" />
      <path d="M968 76 L1138 78 L1117 145" style="fill:none; stroke-width:4; stroke:red;" />
      <circle style="fill:lime; stroke:none;" r="7" cx="968" cy="76" />
      <rect x="1202" y="2" width="300" style="fill:none;" height="300" />
      <line x1="1202" x2="1502" y1="2" style="fill:none;" y2="302" />
      <line x1="1502" x2="1202" y1="2" style="fill:none;" y2="302" />
      <line x1="1352" x2="1352" y1="2" style="fill:none;" y2="302" />
      <line x1="1202" x2="1502" y1="152" style="fill:none;" y2="152" />
      <polygon style="fill:silver; stroke:none;" points=" 1218 166 1436 166 1448 151 1465 171 1234 171 1224 174 1218 166" />
      <polygon style="fill:none; stroke:silver;" points=" 1218 166 1436 166 1448 151 1465 171 1234 171 1224 174 1218 166" />
      <polygon style="fill:silver; stroke:none;" points=" 1383 171 1379 179 1373 188 1368 196 1364 203 1356 211 1348 218 1336 226 1328 231 1318 236 1308 241 1299 244 1291 248 1279 251 1266 255 1254 258 1239 260 1227 263 1227 266 1239 266 1251 264 1263 263 1275 260 1285 258 1296 255 1306 253 1316 249 1327 244 1336 239 1345 234 1353 228 1361 223 1369 214 1377 205 1383 196 1389 187 1394 179 1398 171" />
      <polygon style="fill:none; stroke:silver;" points=" 1383 171 1379 179 1373 188 1368 196 1364 203 1356 211 1348 218 1336 226 1328 231 1318 236 1308 241 1299 244 1291 248 1279 251 1266 255 1254 258 1239 260 1227 263 1227 266 1239 266 1251 264 1263 263 1275 260 1285 258 1296 255 1306 253 1316 249 1327 244 1336 239 1345 234 1353 228 1361 223 1369 214 1377 205 1383 196 1389 187 1394 179 1398 171" />
      <polygon style="fill:silver; stroke:none;" points=" 1295 199 1329 146 1338 142 1321 133 1279 203 1291 204 1294 200" />
      <polygon style="fill:none; stroke:silver;" points=" 1295 199 1329 146 1338 142 1321 133 1279 203 1291 204 1294 200" />
      <polygon style="fill:silver; stroke:none;" points=" 1291 204 1304 207 1319 210 1333 213 1348 218 1361 223 1373 226 1386 231 1401 239 1413 245 1424 252 1434 258 1438 260 1441 254 1441 246 1435 239 1424 233 1412 228 1400 223 1386 218 1374 215 1369 214 1355 211 1339 206 1323 204 1309 201 1294 200" />
      <polygon style="fill:none; stroke:silver;" points=" 1291 204 1304 207 1319 210 1333 213 1348 218 1361 223 1373 226 1386 231 1401 239 1413 245 1424 252 1434 258 1438 260 1441 254 1441 246 1435 239 1424 233 1412 228 1400 223 1386 218 1374 215 1369 214 1355 211 1339 206 1323 204 1309 201 1294 200" />
      <polygon style="fill:silver; stroke:none;" points=" 1267 125 1416 125 1416 130 1267 130 1267 125" />
      <polygon style="fill:none; stroke:silver;" points=" 1267 125 1416 125 1416 130 1267 130 1267 125" />
      <polygon style="fill:silver; stroke:none;" points=" 1363 41 1374 41 1374 126 1363 126" />
      <polygon style="fill:none; stroke:silver;" points=" 1363 41 1374 41 1374 126 1363 126" />
      <polygon style="fill:rgb(64,64,64); stroke:none;" points=" 1309 42 1309 126 1319 126 1319 43 1309 42" />
      <polygon style="fill:none; stroke:rgb(64,64,64);" points=" 1309 42 1309 126 1319 126 1319 43 1309 42" />
      <polygon style="fill:rgb(64,64,64); stroke:none;" points=" 1268 76 1412 76 1419 66 1438 78 1417 81 1268 81 1268 76" />
      <polygon style="fill:none; stroke:rgb(64,64,64);" points=" 1268 76 1412 76 1419 66 1438 78 1417 81 1268 81 1268 76" />
      <polygon style="fill:rgb(64,64,64); stroke:none;" points=" 1417 81 1417 145 1428 141 1428 87 1438 77 1417 81" />
      <polygon style="fill:none; stroke:rgb(64,64,64);" points=" 1417 81 1417 145 1428 141 1428 87 1438 77 1417 81" />
      <polygon style="fill:rgb(64,64,64); stroke:none;" points=" 1256 67 1256 147 1268 142 1268 74 1256 67" />
      <polygon style="fill:none; stroke:rgb(64,64,64);" points=" 1256 67 1256 147 1268 142 1268 74 1256 67" />
      <polygon style="fill:rgb(64,64,64); stroke:none;" points=" 1220 38 1428 38 1438 24 1458 42 1235 43 1226 45 1220 38" />
      <polygon style="fill:none; stroke:rgb(64,64,64);" points=" 1220 38 1428 38 1438 24 1458 42 1235 43 1226 45 1220 38" />
      <path d="M1309 42 L1309 126" style="fill:none; stroke-width:4; stroke:red;" />
      <circle style="fill:lime; stroke:none;" r="7" cx="1309" cy="42" />
      <rect x="2" y="302" width="300" style="fill:none;" height="300" />
      <line x1="2" x2="302" y1="302" style="fill:none;" y2="602" />
      <line x1="302" x2="2" y1="302" style="fill:none;" y2="602" />
      <line x1="152" x2="152" y1="302" style="fill:none;" y2="602" />
      <line x1="2" x2="302" y1="452" style="fill:none;" y2="452" />
      <polygon style="fill:silver; stroke:none;" points=" 18 466 236 466 248 451 265 471 34 471 24 474 18 466" />
      <polygon style="fill:none; stroke:silver;" points=" 18 466 236 466 248 451 265 471 34 471 24 474 18 466" />
      <polygon style="fill:silver; stroke:none;" points=" 183 471 179 479 173 488 168 496 164 503 156 511 148 518 136 526 128 531 118 536 108 541 99 544 91 548 79 551 66 555 54 558 39 560 27 563 27 566 39 566 51 564 63 563 75 560 85 558 96 555 106 553 116 549 127 544 136 539 145 534 153 528 161 523 169 514 177 505 183 496 189 487 194 479 198 471" />
      <polygon style="fill:none; stroke:silver;" points=" 183 471 179 479 173 488 168 496 164 503 156 511 148 518 136 526 128 531 118 536 108 541 99 544 91 548 79 551 66 555 54 558 39 560 27 563 27 566 39 566 51 564 63 563 75 560 85 558 96 555 106 553 116 549 127 544 136 539 145 534 153 528 161 523 169 514 177 505 183 496 189 487 194 479 198 471" />
      <polygon style="fill:silver; stroke:none;" points=" 95 499 129 446 138 442 121 433 79 503 91 504 94 500" />
      <polygon style="fill:none; stroke:silver;" points=" 95 499 129 446 138 442 121 433 79 503 91 504 94 500" />
      <polygon style="fill:silver; stroke:none;" points=" 91 504 104 507 119 510 133 513 148 518 161 523 173 526 186 531 201 539 213 545 224 552 234 558 238 560 241 554 241 546 235 539 224 533 212 528 200 523 186 518 174 515 169 514 155 511 139 506 123 504 109 501 94 500" />
      <polygon style="fill:none; stroke:silver;" points=" 91 504 104 507 119 510 133 513 148 518 161 523 173 526 186 531 201 539 213 545 224 552 234 558 238 560 241 554 241 546 235 539 224 533 212 528 200 523 186 518 174 515 169 514 155 511 139 506 123 504 109 501 94 500" />
      <polygon style="fill:silver; stroke:none;" points=" 67 425 216 425 216 430 67 430 67 425" />
      <polygon style="fill:none; stroke:silver;" points=" 67 425 216 425 216 430 67 430 67 425" />
      <polygon style="fill:rgb(64,64,64); stroke:none;" points=" 163 341 174 341 174 426 163 426" />
      <polygon style="fill:none; stroke:rgb(64,64,64);" points=" 163 341 174 341 174 426 163 426" />
      <polygon style="fill:rgb(64,64,64); stroke:none;" points=" 109 342 109 426 119 426 119 343 109 342" />
      <polygon style="fill:none; stroke:rgb(64,64,64);" points=" 109 342 109 426 119 426 119 343 109 342" />
      <polygon style="fill:rgb(64,64,64); stroke:none;" points=" 68 376 212 376 219 366 238 378 217 381 68 381 68 376" />
      <polygon style="fill:none; stroke:rgb(64,64,64);" points=" 68 376 212 376 219 366 238 378 217 381 68 381 68 376" />
      <polygon style="fill:rgb(64,64,64); stroke:none;" points=" 217 381 217 445 228 441 228 387 238 377 217 381" />
      <polygon style="fill:none; stroke:rgb(64,64,64);" points=" 217 381 217 445 228 441 228 387 238 377 217 381" />
      <polygon style="fill:rgb(64,64,64); stroke:none;" points=" 56 367 56 447 68 442 68 374 56 367" />
      <polygon style="fill:none; stroke:rgb(64,64,64);" points=" 56 367 56 447 68 442 68 374 56 367" />
      <polygon style="fill:rgb(64,64,64); stroke:none;" points=" 20 338 228 338 238 324 258 342 35 343 26 345 20 338" />
      <polygon style="fill:none; stroke:rgb(64,64,64);" points=" 20 338 228 338 238 324 258 342 35 343 26 345 20 338" />
      <path d="M163 341 L174 426" style="fill:none; stroke-width:4; stroke:red;" />
      <circle style="fill:lime; stroke:none;" r="7" cx="163" cy="341" />
      <rect x="302" y="302" width="300" style="fill:none;" height="300" />
      <line x1="302" x2="602" y1="302" style="fill:none;" y2="602" />
      <line x1="602" x2="302" y1="302" style="fill:none;" y2="602" />
      <line x1="452" x2="452" y1="302" style="fill:none;" y2="602" />
      <line x1="302" x2="602" y1="452" style="fill:none;" y2="452" />
      <polygon style="fill:silver; stroke:none;" points=" 318 466 536 466 548 451 565 471 334 471 324 474 318 466" />
      <polygon style="fill:none; stroke:silver;" points=" 318 466 536 466 548 451 565 471 334 471 324 474 318 466" />
      <polygon style="fill:silver; stroke:none;" points=" 483 471 479 479 473 488 468 496 464 503 456 511 448 518 436 526 428 531 418 536 408 541 399 544 391 548 379 551 366 555 354 558 339 560 327 563 327 566 339 566 351 564 363 563 375 560 385 558 396 555 406 553 416 549 427 544 436 539 445 534 453 528 461 523 469 514 477 505 483 496 489 487 494 479 498 471" />
      <polygon style="fill:none; stroke:silver;" points=" 483 471 479 479 473 488 468 496 464 503 456 511 448 518 436 526 428 531 418 536 408 541 399 544 391 548 379 551 366 555 354 558 339 560 327 563 327 566 339 566 351 564 363 563 375 560 385 558 396 555 406 553 416 549 427 544 436 539 445 534 453 528 461 523 469 514 477 505 483 496 489 487 494 479 498 471" />
      <polygon style="fill:silver; stroke:none;" points=" 395 499 429 446 438 442 421 433 379 503 391 504 394 500" />
      <polygon style="fill:none; stroke:silver;" points=" 395 499 429 446 438 442 421 433 379 503 391 504 394 500" />
      <polygon style="fill:silver; stroke:none;" points=" 391 504 404 507 419 510 433 513 448 518 461 523 473 526 486 531 501 539 513 545 524 552 534 558 538 560 541 554 541 546 535 539 524 533 512 528 500 523 486 518 474 515 469 514 455 511 439 506 423 504 409 501 394 500" />
      <polygon style="fill:none; stroke:silver;" points=" 391 504 404 507 419 510 433 513 448 518 461 523 473 526 486 531 501 539 513 545 524 552 534 558 538 560 541 554 541 546 535 539 524 533 512 528 500 523 486 518 474 515 469 514 455 511 439 506 423 504 409 501 394 500" />
      <polygon style="fill:rgb(64,64,64); stroke:none;" points=" 367 425 516 425 516 430 367 430 367 425" />
      <polygon style="fill:none; stroke:rgb(64,64,64);" points=" 367 425 516 425 516 430 367 430 367 425" />
      <polygon style="fill:rgb(64,64,64); stroke:none;" points=" 463 341 474 341 474 426 463 426" />
      <polygon style="fill:none; stroke:rgb(64,64,64);" points=" 463 341 474 341 474 426 463 426" />
      <polygon style="fill:rgb(64,64,64); stroke:none;" points=" 409 342 409 426 419 426 419 343 409 342" />
      <polygon style="fill:none; stroke:rgb(64,64,64);" points=" 409 342 409 426 419 426 419 343 409 342" />
      <polygon style="fill:rgb(64,64,64); stroke:none;" points=" 368 376 512 376 519 366 538 378 517 381 368 381 368 376" />
      <polygon style="fill:none; stroke:rgb(64,64,64);" points=" 368 376 512 376 519 366 538 378 517 381 368 381 368 376" />
      <polygon style="fill:rgb(64,64,64); stroke:none;" points=" 517 381 517 445 528 441 528 387 538 377 517 381" />
      <polygon style="fill:none; stroke:rgb(64,64,64);" points=" 517 381 517 445 528 441 528 387 538 377 517 381" />
      <polygon style="fill:rgb(64,64,64); stroke:none;" points=" 356 367 356 447 368 442 368 374 356 367" />
      <polygon style="fill:none; stroke:rgb(64,64,64);" points=" 356 367 356 447 368 442 368 374 356 367" />
      <polygon style="fill:rgb(64,64,64); stroke:none;" points=" 320 338 528 338 538 324 558 342 335 343 326 345 320 338" />
      <polygon style="fill:none; stroke:rgb(64,64,64);" points=" 320 338 528 338 538 324 558 342 335 343 326 345 320 338" />
      <path d="M367 425 L516 425" style="fill:none; stroke-width:4; stroke:red;" />
      <circle style="fill:lime; stroke:none;" r="7" cx="367" cy="425" />
      <rect x="602" y="302" width="300" style="fill:none;" height="300" />
      <line x1="602" x2="902" y1="302" style="fill:none;" y2="602" />
      <line x1="902" x2="602" y1="302" style="fill:none;" y2="602" />
      <line x1="752" x2="752" y1="302" style="fill:none;" y2="602" />
      <line x1="602" x2="902" y1="452" style="fill:none;" y2="452" />
      <polygon style="fill:silver; stroke:none;" points=" 618 466 836 466 848 451 865 471 634 471 624 474 618 466" />
      <polygon style="fill:none; stroke:silver;" points=" 618 466 836 466 848 451 865 471 634 471 624 474 618 466" />
      <polygon style="fill:silver; stroke:none;" points=" 783 471 779 479 773 488 768 496 764 503 756 511 748 518 736 526 728 531 718 536 708 541 699 544 691 548 679 551 666 555 654 558 639 560 627 563 627 566 639 566 651 564 663 563 675 560 685 558 696 555 706 553 716 549 727 544 736 539 745 534 753 528 761 523 769 514 777 505 783 496 789 487 794 479 798 471" />
      <polygon style="fill:none; stroke:silver;" points=" 783 471 779 479 773 488 768 496 764 503 756 511 748 518 736 526 728 531 718 536 708 541 699 544 691 548 679 551 666 555 654 558 639 560 627 563 627 566 639 566 651 564 663 563 675 560 685 558 696 555 706 553 716 549 727 544 736 539 745 534 753 528 761 523 769 514 777 505 783 496 789 487 794 479 798 471" />
      <polygon style="fill:rgb(64,64,64); stroke:none;" points=" 695 499 729 446 738 442 721 433 679 503 691 504 694 500" />
      <polygon style="fill:none; stroke:rgb(64,64,64);" points=" 695 499 729 446 738 442 721 433 679 503 691 504 694 500" />
      <polygon style="fill:rgb(64,64,64); stroke:none;" points=" 691 504 704 507 719 510 733 513 748 518 761 523 773 526 786 531 801 539 813 545 824 552 834 558 838 560 841 554 841 546 835 539 824 533 812 528 800 523 786 518 774 515 769 514 755 511 739 506 723 504 709 501 694 500" />
      <polygon style="fill:none; stroke:rgb(64,64,64);" points=" 691 504 704 507 719 510 733 513 748 518 761 523 773 526 786 531 801 539 813 545 824 552 834 558 838 560 841 554 841 546 835 539 824 533 812 528 800 523 786 518 774 515 769 514 755 511 739 506 723 504 709 501 694 500" />
      <polygon style="fill:rgb(64,64,64); stroke:none;" points=" 667 425 816 425 816 430 667 430 667 425" />
      <polygon style="fill:none; stroke:rgb(64,64,64);" points=" 667 425 816 425 816 430 667 430 667 425" />
      <polygon style="fill:rgb(64,64,64); stroke:none;" points=" 763 341 774 341 774 426 763 426" />
      <polygon style="fill:none; stroke:rgb(64,64,64);" points=" 763 341 774 341 774 426 763 426" />
      <polygon style="fill:rgb(64,64,64); stroke:none;" points=" 709 342 709 426 719 426 719 343 709 342" />
      <polygon style="fill:none; stroke:rgb(64,64,64);" points=" 709 342 709 426 719 426 719 343 709 342" />
      <polygon style="fill:rgb(64,64,64); stroke:none;" points=" 668 376 812 376 819 366 838 378 817 381 668 381 668 376" />
      <polygon style="fill:none; stroke:rgb(64,64,64);" points=" 668 376 812 376 819 366 838 378 817 381 668 381 668 376" />
      <polygon style="fill:rgb(64,64,64); stroke:none;" points=" 817 381 817 445 828 441 828 387 838 377 817 381" />
      <polygon style="fill:none; stroke:rgb(64,64,64);" points=" 817 381 817 445 828 441 828 387 838 377 817 381" />
      <polygon style="fill:rgb(64,64,64); stroke:none;" points=" 656 367 656 447 668 442 668 374 656 367" />
      <polygon style="fill:none; stroke:rgb(64,64,64);" points=" 656 367 656 447 668 442 668 374 656 367" />
      <polygon style="fill:rgb(64,64,64); stroke:none;" points=" 620 338 828 338 838 324 858 342 635 343 626 345 620 338" />
      <polygon style="fill:none; stroke:rgb(64,64,64);" points=" 620 338 828 338 838 324 858 342 635 343 626 345 620 338" />
      <path d="M738 442 L679 503 L838 560" style="fill:none; stroke-width:4; stroke:red;" />
      <circle style="fill:lime; stroke:none;" r="7" cx="738" cy="442" />
      <rect x="902" y="302" width="300" style="fill:none;" height="300" />
      <line x1="902" x2="1202" y1="302" style="fill:none;" y2="602" />
      <line x1="1202" x2="902" y1="302" style="fill:none;" y2="602" />
      <line x1="1052" x2="1052" y1="302" style="fill:none;" y2="602" />
      <line x1="902" x2="1202" y1="452" style="fill:none;" y2="452" />
      <polygon style="fill:silver; stroke:none;" points=" 918 466 1136 466 1148 451 1165 471 934 471 924 474 918 466" />
      <polygon style="fill:none; stroke:silver;" points=" 918 466 1136 466 1148 451 1165 471 934 471 924 474 918 466" />
      <polygon style="fill:rgb(64,64,64); stroke:none;" points=" 1083 471 1079 479 1073 488 1068 496 1064 503 1056 511 1048 518 1036 526 1028 531 1018 536 1008 541 999 544 991 548 979 551 966 555 954 558 939 560 927 563 927 566 939 566 951 564 963 563 975 560 985 558 996 555 1006 553 1016 549 1027 544 1036 539 1045 534 1053 528 1061 523 1069 514 1077 505 1083 496 1089 487 1094 479 1098 471" />
      <polygon style="fill:none; stroke:rgb(64,64,64);" points=" 1083 471 1079 479 1073 488 1068 496 1064 503 1056 511 1048 518 1036 526 1028 531 1018 536 1008 541 999 544 991 548 979 551 966 555 954 558 939 560 927 563 927 566 939 566 951 564 963 563 975 560 985 558 996 555 1006 553 1016 549 1027 544 1036 539 1045 534 1053 528 1061 523 1069 514 1077 505 1083 496 1089 487 1094 479 1098 471" />
      <polygon style="fill:rgb(64,64,64); stroke:none;" points=" 995 499 1029 446 1038 442 1021 433 979 503 991 504 994 500" />
      <polygon style="fill:none; stroke:rgb(64,64,64);" points=" 995 499 1029 446 1038 442 1021 433 979 503 991 504 994 500" />
      <polygon style="fill:rgb(64,64,64); stroke:none;" points=" 991 504 1004 507 1019 510 1033 513 1048 518 1061 523 1073 526 1086 531 1101 539 1113 545 1124 552 1134 558 1138 560 1141 554 1141 546 1135 539 1124 533 1112 528 1100 523 1086 518 1074 515 1069 514 1055 511 1039 506 1023 504 1009 501 994 500" />
      <polygon style="fill:none; stroke:rgb(64,64,64);" points=" 991 504 1004 507 1019 510 1033 513 1048 518 1061 523 1073 526 1086 531 1101 539 1113 545 1124 552 1134 558 1138 560 1141 554 1141 546 1135 539 1124 533 1112 528 1100 523 1086 518 1074 515 1069 514 1055 511 1039 506 1023 504 1009 501 994 500" />
      <polygon style="fill:rgb(64,64,64); stroke:none;" points=" 967 425 1116 425 1116 430 967 430 967 425" />
      <polygon style="fill:none; stroke:rgb(64,64,64);" points=" 967 425 1116 425 1116 430 967 430 967 425" />
      <polygon style="fill:rgb(64,64,64); stroke:none;" points=" 1063 341 1074 341 1074 426 1063 426" />
      <polygon style="fill:none; stroke:rgb(64,64,64);" points=" 1063 341 1074 341 1074 426 1063 426" />
      <polygon style="fill:rgb(64,64,64); stroke:none;" points=" 1009 342 1009 426 1019 426 1019 343 1009 342" />
      <polygon style="fill:none; stroke:rgb(64,64,64);" points=" 1009 342 1009 426 1019 426 1019 343 1009 342" />
      <polygon style="fill:rgb(64,64,64); stroke:none;" points=" 968 376 1112 376 1119 366 1138 378 1117 381 968 381 968 376" />
      <polygon style="fill:none; stroke:rgb(64,64,64);" points=" 968 376 1112 376 1119 366 1138 378 1117 381 968 381 968 376" />
      <polygon style="fill:rgb(64,64,64); stroke:none;" points=" 1117 381 1117 445 1128 441 1128 387 1138 377 1117 381" />
      <polygon style="fill:none; stroke:rgb(64,64,64);" points=" 1117 381 1117 445 1128 441 1128 387 1138 377 1117 381" />
      <polygon style="fill:rgb(64,64,64); stroke:none;" points=" 956 367 956 447 968 442 968 374 956 367" />
      <polygon style="fill:none; stroke:rgb(64,64,64);" points=" 956 367 956 447 968 442 968 374 956 367" />
      <polygon style="fill:rgb(64,64,64); stroke:none;" points=" 920 338 1128 338 1138 324 1158 342 935 343 926 345 920 338" />
      <polygon style="fill:none; stroke:rgb(64,64,64);" points=" 920 338 1128 338 1138 324 1158 342 935 343 926 345 920 338" />
      <path d="M1098 471 L927 566" style="fill:none; stroke-width:4; stroke:red;" />
      <circle style="fill:lime; stroke:none;" r="7" cx="1098" cy="471" />
      <rect x="1202" y="302" width="300" style="fill:none;" height="300" />
      <line x1="1202" x2="1502" y1="302" style="fill:none;" y2="602" />
      <line x1="1502" x2="1202" y1="302" style="fill:none;" y2="602" />
      <line x1="1352" x2="1352" y1="302" style="fill:none;" y2="602" />
      <line x1="1202" x2="1502" y1="452" style="fill:none;" y2="452" />
      <polygon style="fill:rgb(64,64,64); stroke:none;" points=" 1218 466 1436 466 1448 451 1465 471 1234 471 1224 474 1218 466" />
      <polygon style="fill:none; stroke:rgb(64,64,64);" points=" 1218 466 1436 466 1448 451 1465 471 1234 471 1224 474 1218 466" />
      <polygon style="fill:rgb(64,64,64); stroke:none;" points=" 1383 471 1379 479 1373 488 1368 496 1364 503 1356 511 1348 518 1336 526 1328 531 1318 536 1308 541 1299 544 1291 548 1279 551 1266 555 1254 558 1239 560 1227 563 1227 566 1239 566 1251 564 1263 563 1275 560 1285 558 1296 555 1306 553 1316 549 1327 544 1336 539 1345 534 1353 528 1361 523 1369 514 1377 505 1383 496 1389 487 1394 479 1398 471" />
      <polygon style="fill:none; stroke:rgb(64,64,64);" points=" 1383 471 1379 479 1373 488 1368 496 1364 503 1356 511 1348 518 1336 526 1328 531 1318 536 1308 541 1299 544 1291 548 1279 551 1266 555 1254 558 1239 560 1227 563 1227 566 1239 566 1251 564 1263 563 1275 560 1285 558 1296 555 1306 553 1316 549 1327 544 1336 539 1345 534 1353 528 1361 523 1369 514 1377 505 1383 496 1389 487 1394 479 1398 471" />
      <polygon style="fill:rgb(64,64,64); stroke:none;" points=" 1295 499 1329 446 1338 442 1321 433 1279 503 1291 504 1294 500" />
      <polygon style="fill:none; stroke:rgb(64,64,64);" points=" 1295 499 1329 446 1338 442 1321 433 1279 503 1291 504 1294 500" />
      <polygon style="fill:rgb(64,64,64); stroke:none;" points=" 1291 504 1304 507 1319 510 1333 513 1348 518 1361 523 1373 526 1386 531 1401 539 1413 545 1424 552 1434 558 1438 560 1441 554 1441 546 1435 539 1424 533 1412 528 1400 523 1386 518 1374 515 1369 514 1355 511 1339 506 1323 504 1309 501 1294 500" />
      <polygon style="fill:none; stroke:rgb(64,64,64);" points=" 1291 504 1304 507 1319 510 1333 513 1348 518 1361 523 1373 526 1386 531 1401 539 1413 545 1424 552 1434 558 1438 560 1441 554 1441 546 1435 539 1424 533 1412 528 1400 523 1386 518 1374 515 1369 514 1355 511 1339 506 1323 504 1309 501 1294 500" />
      <polygon style="fill:rgb(64,64,64); stroke:none;" points=" 1267 425 1416 425 1416 430 1267 430 1267 425" />
      <polygon style="fill:none; stroke:rgb(64,64,64);" points=" 1267 425 1416 425 1416 430 1267 430 1267 425" />
      <polygon style="fill:rgb(64,64,64); stroke:none;" points=" 1363 341 1374 341 1374 426 1363 426" />
      <polygon style="fill:none; stroke:rgb(64,64,64);" points=" 1363 341 1374 341 1374 426 1363 426" />
      <polygon style="fill:rgb(64,64,64); stroke:none;" points=" 1309 342 1309 426 1319 426 1319 343 1309 342" />
      <polygon style="fill:none; stroke:rgb(64,64,64);" points=" 1309 342 1309 426 1319 426 1319 343 1309 342" />
      <polygon style="fill:rgb(64,64,64); stroke:none;" points=" 1268 376 1412 376 1419 366 1438 378 1417 381 1268 381 1268 376" />
      <polygon style="fill:none; stroke:rgb(64,64,64);" points=" 1268 376 1412 376 1419 366 1438 378 1417 381 1268 381 1268 376" />
      <polygon style="fill:rgb(64,64,64); stroke:none;" points=" 1417 381 1417 445 1428 441 1428 387 1438 377 1417 381" />
      <polygon style="fill:none; stroke:rgb(64,64,64);" points=" 1417 381 1417 445 1428 441 1428 387 1438 377 1417 381" />
      <polygon style="fill:rgb(64,64,64); stroke:none;" points=" 1256 367 1256 447 1268 442 1268 374 1256 367" />
      <polygon style="fill:none; stroke:rgb(64,64,64);" points=" 1256 367 1256 447 1268 442 1268 374 1256 367" />
      <polygon style="fill:rgb(64,64,64); stroke:none;" points=" 1220 338 1428 338 1438 324 1458 342 1235 343 1226 345 1220 338" />
      <polygon style="fill:none; stroke:rgb(64,64,64);" points=" 1220 338 1428 338 1438 324 1458 342 1235 343 1226 345 1220 338" />
      <path d="M1218 466 L1465 471" style="fill:none; stroke-width:4; stroke:red;" />
      <circle style="fill:lime; stroke:none;" r="7" cx="1218" cy="466" />
    </g>
  </g>
</svg>
