<?xml version="1.0" encoding="UTF-8"?>

<!DOCTYPE svg PUBLIC '-//W3C//DTD SVG 1.0//EN' 'http://www.w3.org/TR/2001/REC-SVG-20010904/DTD/svg10.dtd'>
<svg style="fill-opacity:1; color-rendering:auto; color-interpolation:auto; stroke:black; text-rendering:auto; stroke-linecap:square; stroke-miterlimit:10; stroke-opacity:1; shape-rendering:auto; fill:black; stroke-dasharray:none; font-weight:normal; stroke-width:1; font-family:&apos;Dialog&apos;; font-style:normal; stroke-linejoin:miter; font-size:12; stroke-dashoffset:0; image-rendering:auto;" xmlns="http://www.w3.org/2000/svg" width="1204" xmlns:xlink="http://www.w3.org/1999/xlink" height="304">
  <!--Generated by the Batik Graphics2D SVG Generator-->
  <defs id="genericDefs" />
  <g>
    <g style="fill:rgb(128,128,255); stroke:rgb(128,128,255);">
      <rect x="2" y="2" width="300" style="fill:none;" height="300" />
      <line x1="2" x2="302" y1="2" style="fill:none;" y2="302" />
      <line x1="302" x2="2" y1="2" style="fill:none;" y2="302" />
      <line x1="152" x2="152" y1="2" style="fill:none;" y2="302" />
      <line x1="2" x2="302" y1="152" style="fill:none;" y2="152" />
      <polygon style="fill:black; stroke:none;" points=" 132 88 133 264 136 264 140 262 143 260 145 258 145 105 153 98 132 88" />
      <polygon style="fill:none; stroke:black;" points=" 132 88 133 264 136 264 140 262 143 260 145 258 145 105 153 98 132 88" />
      <polygon style="fill:black; stroke:none;" points=" 148 38 150 41 153 45 156 51 160 55 164 61 168 66 172 70 176 74 180 78 185 83 193 89 199 94 206 98 214 104 220 106 228 110 238 114 247 118 254 120 261 121 266 122 263 124 257 124 252 125 247 128 243 130 238 133 233 131 226 127 221 124 214 120 210 116 203 112 198 107 193 103 189 99 184 94 180 91 176 86 171 82 168 78 164 73 162 70 160 66 156 62 154 58 153 55 151 52 149 48 147 44 145 41 144 39" />
      <polygon style="fill:none; stroke:black;" points=" 148 38 150 41 153 45 156 51 160 55 164 61 168 66 172 70 176 74 180 78 185 83 193 89 199 94 206 98 214 104 220 106 228 110 238 114 247 118 254 120 261 121 266 122 263 124 257 124 252 125 247 128 243 130 238 133 233 131 226 127 221 124 214 120 210 116 203 112 198 107 193 103 189 99 184 94 180 91 176 86 171 82 168 78 164 73 162 70 160 66 156 62 154 58 153 55 151 52 149 48 147 44 145 41 144 39" />
      <polygon style="fill:black; stroke:none;" points=" 136 19 133 24 131 29 128 33 125 37 124 41 121 44 118 49 114 54 109 59 106 66 102 71 98 76 91 83 87 88 83 93 76 98 70 104 64 109 61 114 57 118 51 122 46 127 43 130 38 133 33 138 27 142 23 144 19 147 21 150 28 146 34 143 40 139 49 133 56 128 64 122 70 116 77 111 84 104 91 99 98 91 106 84 112 76 119 68 125 61 129 55 136 47 139 42 142 39 147 36 152 35 158 32 136 20" />
      <polygon style="fill:none; stroke:black;" points=" 136 19 133 24 131 29 128 33 125 37 124 41 121 44 118 49 114 54 109 59 106 66 102 71 98 76 91 83 87 88 83 93 76 98 70 104 64 109 61 114 57 118 51 122 46 127 43 130 38 133 33 138 27 142 23 144 19 147 21 150 28 146 34 143 40 139 49 133 56 128 64 122 70 116 77 111 84 104 91 99 98 91 106 84 112 76 119 68 125 61 129 55 136 47 139 42 142 39 147 36 152 35 158 32 136 20" />
      <rect x="302" y="2" width="300" style="fill:none;" height="300" />
      <line x1="302" x2="602" y1="2" style="fill:none;" y2="302" />
      <line x1="602" x2="302" y1="2" style="fill:none;" y2="302" />
      <line x1="452" x2="452" y1="2" style="fill:none;" y2="302" />
      <line x1="302" x2="602" y1="152" style="fill:none;" y2="152" />
      <polygon style="fill:silver; stroke:none;" points=" 432 88 433 264 436 264 440 262 443 260 445 258 445 105 453 98 432 88" />
      <polygon style="fill:none; stroke:silver;" points=" 432 88 433 264 436 264 440 262 443 260 445 258 445 105 453 98 432 88" />
      <polygon style="fill:silver; stroke:none;" points=" 448 38 450 41 453 45 456 51 460 55 464 61 468 66 472 70 476 74 480 78 485 83 493 89 499 94 506 98 514 104 520 106 528 110 538 114 547 118 554 120 561 121 566 122 563 124 557 124 552 125 547 128 543 130 538 133 533 131 526 127 521 124 514 120 510 116 503 112 498 107 493 103 489 99 484 94 480 91 476 86 471 82 468 78 464 73 462 70 460 66 456 62 454 58 453 55 451 52 449 48 447 44 445 41 444 39" />
      <polygon style="fill:none; stroke:silver;" points=" 448 38 450 41 453 45 456 51 460 55 464 61 468 66 472 70 476 74 480 78 485 83 493 89 499 94 506 98 514 104 520 106 528 110 538 114 547 118 554 120 561 121 566 122 563 124 557 124 552 125 547 128 543 130 538 133 533 131 526 127 521 124 514 120 510 116 503 112 498 107 493 103 489 99 484 94 480 91 476 86 471 82 468 78 464 73 462 70 460 66 456 62 454 58 453 55 451 52 449 48 447 44 445 41 444 39" />
      <polygon style="fill:rgb(64,64,64); stroke:none;" points=" 436 19 433 24 431 29 428 33 425 37 424 41 421 44 418 49 414 54 409 59 406 66 402 71 398 76 391 83 387 88 383 93 376 98 370 104 364 109 361 114 357 118 351 122 346 127 343 130 338 133 333 138 327 142 323 144 319 147 321 150 328 146 334 143 340 139 349 133 356 128 364 122 370 116 377 111 384 104 391 99 398 91 406 84 412 76 419 68 425 61 429 55 436 47 439 42 442 39 447 36 452 35 458 32 436 20" />
      <polygon style="fill:none; stroke:rgb(64,64,64);" points=" 436 19 433 24 431 29 428 33 425 37 424 41 421 44 418 49 414 54 409 59 406 66 402 71 398 76 391 83 387 88 383 93 376 98 370 104 364 109 361 114 357 118 351 122 346 127 343 130 338 133 333 138 327 142 323 144 319 147 321 150 328 146 334 143 340 139 349 133 356 128 364 122 370 116 377 111 384 104 391 99 398 91 406 84 412 76 419 68 425 61 429 55 436 47 439 42 442 39 447 36 452 35 458 32 436 20" />
      <path d="M458 32 L321 150" style="fill:none; stroke-width:4; stroke:red;" />
      <circle style="fill:lime; stroke:none;" r="7" cx="458" cy="32" />
      <rect x="602" y="2" width="300" style="fill:none;" height="300" />
      <line x1="602" x2="902" y1="2" style="fill:none;" y2="302" />
      <line x1="902" x2="602" y1="2" style="fill:none;" y2="302" />
      <line x1="752" x2="752" y1="2" style="fill:none;" y2="302" />
      <line x1="602" x2="902" y1="152" style="fill:none;" y2="152" />
      <polygon style="fill:silver; stroke:none;" points=" 732 88 733 264 736 264 740 262 743 260 745 258 745 105 753 98 732 88" />
      <polygon style="fill:none; stroke:silver;" points=" 732 88 733 264 736 264 740 262 743 260 745 258 745 105 753 98 732 88" />
      <polygon style="fill:rgb(64,64,64); stroke:none;" points=" 748 38 750 41 753 45 756 51 760 55 764 61 768 66 772 70 776 74 780 78 785 83 793 89 799 94 806 98 814 104 820 106 828 110 838 114 847 118 854 120 861 121 866 122 863 124 857 124 852 125 847 128 843 130 838 133 833 131 826 127 821 124 814 120 810 116 803 112 798 107 793 103 789 99 784 94 780 91 776 86 771 82 768 78 764 73 762 70 760 66 756 62 754 58 753 55 751 52 749 48 747 44 745 41 744 39" />
      <polygon style="fill:none; stroke:rgb(64,64,64);" points=" 748 38 750 41 753 45 756 51 760 55 764 61 768 66 772 70 776 74 780 78 785 83 793 89 799 94 806 98 814 104 820 106 828 110 838 114 847 118 854 120 861 121 866 122 863 124 857 124 852 125 847 128 843 130 838 133 833 131 826 127 821 124 814 120 810 116 803 112 798 107 793 103 789 99 784 94 780 91 776 86 771 82 768 78 764 73 762 70 760 66 756 62 754 58 753 55 751 52 749 48 747 44 745 41 744 39" />
      <polygon style="fill:rgb(64,64,64); stroke:none;" points=" 736 19 733 24 731 29 728 33 725 37 724 41 721 44 718 49 714 54 709 59 706 66 702 71 698 76 691 83 687 88 683 93 676 98 670 104 664 109 661 114 657 118 651 122 646 127 643 130 638 133 633 138 627 142 623 144 619 147 621 150 628 146 634 143 640 139 649 133 656 128 664 122 670 116 677 111 684 104 691 99 698 91 706 84 712 76 719 68 725 61 729 55 736 47 739 42 742 39 747 36 752 35 758 32 736 20" />
      <polygon style="fill:none; stroke:rgb(64,64,64);" points=" 736 19 733 24 731 29 728 33 725 37 724 41 721 44 718 49 714 54 709 59 706 66 702 71 698 76 691 83 687 88 683 93 676 98 670 104 664 109 661 114 657 118 651 122 646 127 643 130 638 133 633 138 627 142 623 144 619 147 621 150 628 146 634 143 640 139 649 133 656 128 664 122 670 116 677 111 684 104 691 99 698 91 706 84 712 76 719 68 725 61 729 55 736 47 739 42 742 39 747 36 752 35 758 32 736 20" />
      <path d="M744 39 L866 122" style="fill:none; stroke-width:4; stroke:red;" />
      <circle style="fill:lime; stroke:none;" r="7" cx="744" cy="39" />
      <rect x="902" y="2" width="300" style="fill:none;" height="300" />
      <line x1="902" x2="1202" y1="2" style="fill:none;" y2="302" />
      <line x1="1202" x2="902" y1="2" style="fill:none;" y2="302" />
      <line x1="1052" x2="1052" y1="2" style="fill:none;" y2="302" />
      <line x1="902" x2="1202" y1="152" style="fill:none;" y2="152" />
      <polygon style="fill:rgb(64,64,64); stroke:none;" points=" 1032 88 1033 264 1036 264 1040 262 1043 260 1045 258 1045 105 1053 98 1032 88" />
      <polygon style="fill:none; stroke:rgb(64,64,64);" points=" 1032 88 1033 264 1036 264 1040 262 1043 260 1045 258 1045 105 1053 98 1032 88" />
      <polygon style="fill:rgb(64,64,64); stroke:none;" points=" 1048 38 1050 41 1053 45 1056 51 1060 55 1064 61 1068 66 1072 70 1076 74 1080 78 1085 83 1093 89 1099 94 1106 98 1114 104 1120 106 1128 110 1138 114 1147 118 1154 120 1161 121 1166 122 1163 124 1157 124 1152 125 1147 128 1143 130 1138 133 1133 131 1126 127 1121 124 1114 120 1110 116 1103 112 1098 107 1093 103 1089 99 1084 94 1080 91 1076 86 1071 82 1068 78 1064 73 1062 70 1060 66 1056 62 1054 58 1053 55 1051 52 1049 48 1047 44 1045 41 1044 39" />
      <polygon style="fill:none; stroke:rgb(64,64,64);" points=" 1048 38 1050 41 1053 45 1056 51 1060 55 1064 61 1068 66 1072 70 1076 74 1080 78 1085 83 1093 89 1099 94 1106 98 1114 104 1120 106 1128 110 1138 114 1147 118 1154 120 1161 121 1166 122 1163 124 1157 124 1152 125 1147 128 1143 130 1138 133 1133 131 1126 127 1121 124 1114 120 1110 116 1103 112 1098 107 1093 103 1089 99 1084 94 1080 91 1076 86 1071 82 1068 78 1064 73 1062 70 1060 66 1056 62 1054 58 1053 55 1051 52 1049 48 1047 44 1045 41 1044 39" />
      <polygon style="fill:rgb(64,64,64); stroke:none;" points=" 1036 19 1033 24 1031 29 1028 33 1025 37 1024 41 1021 44 1018 49 1014 54 1009 59 1006 66 1002 71 998 76 991 83 987 88 983 93 976 98 970 104 964 109 961 114 957 118 951 122 946 127 943 130 938 133 933 138 927 142 923 144 919 147 921 150 928 146 934 143 940 139 949 133 956 128 964 122 970 116 977 111 984 104 991 99 998 91 1006 84 1012 76 1019 68 1025 61 1029 55 1036 47 1039 42 1042 39 1047 36 1052 35 1058 32 1036 20" />
      <polygon style="fill:none; stroke:rgb(64,64,64);" points=" 1036 19 1033 24 1031 29 1028 33 1025 37 1024 41 1021 44 1018 49 1014 54 1009 59 1006 66 1002 71 998 76 991 83 987 88 983 93 976 98 970 104 964 109 961 114 957 118 951 122 946 127 943 130 938 133 933 138 927 142 923 144 919 147 921 150 928 146 934 143 940 139 949 133 956 128 964 122 970 116 977 111 984 104 991 99 998 91 1006 84 1012 76 1019 68 1025 61 1029 55 1036 47 1039 42 1042 39 1047 36 1052 35 1058 32 1036 20" />
      <path d="M1032 88 L1033 264" style="fill:none; stroke-width:4; stroke:red;" />
      <circle style="fill:lime; stroke:none;" r="7" cx="1032" cy="88" />
    </g>
  </g>
</svg>
