<?xml version="1.0" encoding="UTF-8"?>

<!DOCTYPE svg PUBLIC '-//W3C//DTD SVG 1.0//EN' 'http://www.w3.org/TR/2001/REC-SVG-20010904/DTD/svg10.dtd'>
<svg style="fill-opacity:1; color-rendering:auto; color-interpolation:auto; stroke:black; text-rendering:auto; stroke-linecap:square; stroke-miterlimit:10; stroke-opacity:1; shape-rendering:auto; fill:black; stroke-dasharray:none; font-weight:normal; stroke-width:1; font-family:&apos;Dialog&apos;; font-style:normal; stroke-linejoin:miter; font-size:12; stroke-dashoffset:0; image-rendering:auto;" xmlns="http://www.w3.org/2000/svg" width="2404" xmlns:xlink="http://www.w3.org/1999/xlink" height="304">
  <!--Generated by the Batik Graphics2D SVG Generator-->
  <defs id="genericDefs" />
  <g>
    <g style="fill:rgb(128,128,255); stroke:rgb(128,128,255);">
      <rect x="2" y="2" width="300" style="fill:none;" height="300" />
      <line x1="2" x2="302" y1="2" style="fill:none;" y2="302" />
      <line x1="302" x2="2" y1="2" style="fill:none;" y2="302" />
      <line x1="152" x2="152" y1="2" style="fill:none;" y2="302" />
      <line x1="2" x2="302" y1="152" style="fill:none;" y2="152" />
      <polygon style="fill:black; stroke:none;" points=" 206 145 213 149 218 154 224 159 229 166 235 171 239 175 243 180 248 186 251 191 254 196 258 203 260 209 260 213 259 218 257 222 254 224 251 225 248 225 246 223 245 218 244 214 243 210 241 206 241 203 239 199 238 196 236 191 233 187 231 183 228 179 226 174 223 172 222 169 220 166 217 163 213 158 210 154 206 149 205 148" />
      <polygon style="fill:none; stroke:black;" points=" 206 145 213 149 218 154 224 159 229 166 235 171 239 175 243 180 248 186 251 191 254 196 258 203 260 209 260 213 259 218 257 222 254 224 251 225 248 225 246 223 245 218 244 214 243 210 241 206 241 203 239 199 238 196 236 191 233 187 231 183 228 179 226 174 223 172 222 169 220 166 217 163 213 158 210 154 206 149 205 148" />
      <polygon style="fill:black; stroke:none;" points=" 133 141 153 153 145 159 141 163 138 169 135 173 131 179 129 184 126 189 123 193 119 199 117 203 113 209 109 214 104 219 101 224 96 228 89 236 88 234 93 226 99 219 103 212 107 203 110 197 113 191 116 184 120 178 123 170 126 164 128 156 131 150 133 141" />
      <polygon style="fill:none; stroke:black;" points=" 133 141 153 153 145 159 141 163 138 169 135 173 131 179 129 184 126 189 123 193 119 199 117 203 113 209 109 214 104 219 101 224 96 228 89 236 88 234 93 226 99 219 103 212 107 203 110 197 113 191 116 184 120 178 123 170 126 164 128 156 131 150 133 141" />
      <polygon style="fill:black; stroke:none;" points=" 172 99 193 108 184 115 184 244 183 249 171 241 173 99" />
      <polygon style="fill:none; stroke:black;" points=" 172 99 193 108 184 115 184 244 183 249 171 241 173 99" />
      <polygon style="fill:black; stroke:none;" points=" 172 242 169 244 167 246 161 246 155 245 133 241 131 243 147 249 154 252 158 255 163 261 165 266 171 264 176 261 180 258 183 251 183 249" />
      <polygon style="fill:none; stroke:black;" points=" 172 242 169 244 167 246 161 246 155 245 133 241 131 243 147 249 154 252 158 255 163 261 165 266 171 264 176 261 180 258 183 251 183 249" />
      <polygon style="fill:black; stroke:none;" points=" 140 79 234 79 244 65 261 84 236 84 139 83" />
      <polygon style="fill:none; stroke:black;" points=" 140 79 234 79 244 65 261 84 236 84 139 83" />
      <polygon style="fill:black; stroke:none;" points=" 236 83 233 88 231 91 229 94 227 99 226 102 224 104 221 108 219 113 219 115 220 116 224 113 228 109 231 105 234 103 238 98 242 95 246 91 251 89 258 88 261 86" />
      <polygon style="fill:none; stroke:black;" points=" 236 83 233 88 231 91 229 94 227 99 226 102 224 104 221 108 219 113 219 115 220 116 224 113 228 109 231 105 234 103 238 98 242 95 246 91 251 89 258 88 261 86" />
      <polygon style="fill:black; stroke:none;" points=" 153 22 173 34 166 38 163 42 159 46 157 53 154 58 150 64 148 69 146 74 144 77 139 83 138 88 135 92 132 96 128 102 126 107 123 111 118 117 114 123 111 127 108 131 105 134 102 138 99 142 94 145 91 149 89 147 92 143 96 138 100 133 106 124 111 116 116 106 120 98 124 91 131 79 134 73 138 64 141 54 144 48 147 39 150 31 153 23" />
      <polygon style="fill:none; stroke:black;" points=" 153 22 173 34 166 38 163 42 159 46 157 53 154 58 150 64 148 69 146 74 144 77 139 83 138 88 135 92 132 96 128 102 126 107 123 111 118 117 114 123 111 127 108 131 105 134 102 138 99 142 94 145 91 149 89 147 92 143 96 138 100 133 106 124 111 116 116 106 120 98 124 91 131 79 134 73 138 64 141 54 144 48 147 39 150 31 153 23" />
      <polygon style="fill:black; stroke:none;" points=" 62 89 83 98 73 107 73 224 73 246 73 259 71 261 67 263 63 263 61 263 61 248 62 90" />
      <polygon style="fill:none; stroke:black;" points=" 62 89 83 98 73 107 73 224 73 246 73 259 71 261 67 263 63 263 61 263 61 248 62 90" />
      <polygon style="fill:black; stroke:none;" points=" 81 21 101 34 93 39 91 44 88 47 86 51 84 56 82 60 80 66 78 71 75 76 72 80 69 85 68 89 65 93 63 98 61 103 59 106 56 110 55 114 53 118 50 123 48 125 45 129 43 136 40 139 37 144 34 149 29 153 26 156 24 159 21 165 18 162 23 155 27 149 30 144 33 138 38 131 41 125 44 118 48 109 51 103 54 94 58 88 60 81 63 75 65 70 66 64 69 60 71 54 72 48 74 43 76 38 78 34 79 28 81 22" />
      <polygon style="fill:none; stroke:black;" points=" 81 21 101 34 93 39 91 44 88 47 86 51 84 56 82 60 80 66 78 71 75 76 72 80 69 85 68 89 65 93 63 98 61 103 59 106 56 110 55 114 53 118 50 123 48 125 45 129 43 136 40 139 37 144 34 149 29 153 26 156 24 159 21 165 18 162 23 155 27 149 30 144 33 138 38 131 41 125 44 118 48 109 51 103 54 94 58 88 60 81 63 75 65 70 66 64 69 60 71 54 72 48 74 43 76 38 78 34 79 28 81 22" />
      <rect x="302" y="2" width="300" style="fill:none;" height="300" />
      <line x1="302" x2="602" y1="2" style="fill:none;" y2="302" />
      <line x1="602" x2="302" y1="2" style="fill:none;" y2="302" />
      <line x1="452" x2="452" y1="2" style="fill:none;" y2="302" />
      <line x1="302" x2="602" y1="152" style="fill:none;" y2="152" />
      <polygon style="fill:silver; stroke:none;" points=" 506 145 513 149 518 154 524 159 529 166 535 171 539 175 543 180 548 186 551 191 554 196 558 203 560 209 560 213 559 218 557 222 554 224 551 225 548 225 546 223 545 218 544 214 543 210 541 206 541 203 539 199 538 196 536 191 533 187 531 183 528 179 526 174 523 172 522 169 520 166 517 163 513 158 510 154 506 149 505 148" />
      <polygon style="fill:none; stroke:silver;" points=" 506 145 513 149 518 154 524 159 529 166 535 171 539 175 543 180 548 186 551 191 554 196 558 203 560 209 560 213 559 218 557 222 554 224 551 225 548 225 546 223 545 218 544 214 543 210 541 206 541 203 539 199 538 196 536 191 533 187 531 183 528 179 526 174 523 172 522 169 520 166 517 163 513 158 510 154 506 149 505 148" />
      <polygon style="fill:silver; stroke:none;" points=" 433 141 453 153 445 159 441 163 438 169 435 173 431 179 429 184 426 189 423 193 419 199 417 203 413 209 409 214 404 219 401 224 396 228 389 236 388 234 393 226 399 219 403 212 407 203 410 197 413 191 416 184 420 178 423 170 426 164 428 156 431 150 433 141" />
      <polygon style="fill:none; stroke:silver;" points=" 433 141 453 153 445 159 441 163 438 169 435 173 431 179 429 184 426 189 423 193 419 199 417 203 413 209 409 214 404 219 401 224 396 228 389 236 388 234 393 226 399 219 403 212 407 203 410 197 413 191 416 184 420 178 423 170 426 164 428 156 431 150 433 141" />
      <polygon style="fill:silver; stroke:none;" points=" 472 99 493 108 484 115 484 244 483 249 471 241 473 99" />
      <polygon style="fill:none; stroke:silver;" points=" 472 99 493 108 484 115 484 244 483 249 471 241 473 99" />
      <polygon style="fill:silver; stroke:none;" points=" 472 242 469 244 467 246 461 246 455 245 433 241 431 243 447 249 454 252 458 255 463 261 465 266 471 264 476 261 480 258 483 251 483 249" />
      <polygon style="fill:none; stroke:silver;" points=" 472 242 469 244 467 246 461 246 455 245 433 241 431 243 447 249 454 252 458 255 463 261 465 266 471 264 476 261 480 258 483 251 483 249" />
      <polygon style="fill:silver; stroke:none;" points=" 440 79 534 79 544 65 561 84 536 84 439 83" />
      <polygon style="fill:none; stroke:silver;" points=" 440 79 534 79 544 65 561 84 536 84 439 83" />
      <polygon style="fill:silver; stroke:none;" points=" 536 83 533 88 531 91 529 94 527 99 526 102 524 104 521 108 519 113 519 115 520 116 524 113 528 109 531 105 534 103 538 98 542 95 546 91 551 89 558 88 561 86" />
      <polygon style="fill:none; stroke:silver;" points=" 536 83 533 88 531 91 529 94 527 99 526 102 524 104 521 108 519 113 519 115 520 116 524 113 528 109 531 105 534 103 538 98 542 95 546 91 551 89 558 88 561 86" />
      <polygon style="fill:silver; stroke:none;" points=" 453 22 473 34 466 38 463 42 459 46 457 53 454 58 450 64 448 69 446 74 444 77 439 83 438 88 435 92 432 96 428 102 426 107 423 111 418 117 414 123 411 127 408 131 405 134 402 138 399 142 394 145 391 149 389 147 392 143 396 138 400 133 406 124 411 116 416 106 420 98 424 91 431 79 434 73 438 64 441 54 444 48 447 39 450 31 453 23" />
      <polygon style="fill:none; stroke:silver;" points=" 453 22 473 34 466 38 463 42 459 46 457 53 454 58 450 64 448 69 446 74 444 77 439 83 438 88 435 92 432 96 428 102 426 107 423 111 418 117 414 123 411 127 408 131 405 134 402 138 399 142 394 145 391 149 389 147 392 143 396 138 400 133 406 124 411 116 416 106 420 98 424 91 431 79 434 73 438 64 441 54 444 48 447 39 450 31 453 23" />
      <polygon style="fill:silver; stroke:none;" points=" 362 89 383 98 373 107 373 224 373 246 373 259 371 261 367 263 363 263 361 263 361 248 362 90" />
      <polygon style="fill:none; stroke:silver;" points=" 362 89 383 98 373 107 373 224 373 246 373 259 371 261 367 263 363 263 361 263 361 248 362 90" />
      <polygon style="fill:rgb(64,64,64); stroke:none;" points=" 381 21 401 34 393 39 391 44 388 47 386 51 384 56 382 60 380 66 378 71 375 76 372 80 369 85 368 89 365 93 363 98 361 103 359 106 356 110 355 114 353 118 350 123 348 125 345 129 343 136 340 139 337 144 334 149 329 153 326 156 324 159 321 165 318 162 323 155 327 149 330 144 333 138 338 131 341 125 344 118 348 109 351 103 354 94 358 88 360 81 363 75 365 70 366 64 369 60 371 54 372 48 374 43 376 38 378 34 379 28 381 22" />
      <polygon style="fill:none; stroke:rgb(64,64,64);" points=" 381 21 401 34 393 39 391 44 388 47 386 51 384 56 382 60 380 66 378 71 375 76 372 80 369 85 368 89 365 93 363 98 361 103 359 106 356 110 355 114 353 118 350 123 348 125 345 129 343 136 340 139 337 144 334 149 329 153 326 156 324 159 321 165 318 162 323 155 327 149 330 144 333 138 338 131 341 125 344 118 348 109 351 103 354 94 358 88 360 81 363 75 365 70 366 64 369 60 371 54 372 48 374 43 376 38 378 34 379 28 381 22" />
      <path d="M401 34 L321 165" style="fill:none; stroke-width:4; stroke:red;" />
      <circle style="fill:lime; stroke:none;" r="7" cx="401" cy="34" />
      <rect x="602" y="2" width="300" style="fill:none;" height="300" />
      <line x1="602" x2="902" y1="2" style="fill:none;" y2="302" />
      <line x1="902" x2="602" y1="2" style="fill:none;" y2="302" />
      <line x1="752" x2="752" y1="2" style="fill:none;" y2="302" />
      <line x1="602" x2="902" y1="152" style="fill:none;" y2="152" />
      <polygon style="fill:silver; stroke:none;" points=" 806 145 813 149 818 154 824 159 829 166 835 171 839 175 843 180 848 186 851 191 854 196 858 203 860 209 860 213 859 218 857 222 854 224 851 225 848 225 846 223 845 218 844 214 843 210 841 206 841 203 839 199 838 196 836 191 833 187 831 183 828 179 826 174 823 172 822 169 820 166 817 163 813 158 810 154 806 149 805 148" />
      <polygon style="fill:none; stroke:silver;" points=" 806 145 813 149 818 154 824 159 829 166 835 171 839 175 843 180 848 186 851 191 854 196 858 203 860 209 860 213 859 218 857 222 854 224 851 225 848 225 846 223 845 218 844 214 843 210 841 206 841 203 839 199 838 196 836 191 833 187 831 183 828 179 826 174 823 172 822 169 820 166 817 163 813 158 810 154 806 149 805 148" />
      <polygon style="fill:silver; stroke:none;" points=" 733 141 753 153 745 159 741 163 738 169 735 173 731 179 729 184 726 189 723 193 719 199 717 203 713 209 709 214 704 219 701 224 696 228 689 236 688 234 693 226 699 219 703 212 707 203 710 197 713 191 716 184 720 178 723 170 726 164 728 156 731 150 733 141" />
      <polygon style="fill:none; stroke:silver;" points=" 733 141 753 153 745 159 741 163 738 169 735 173 731 179 729 184 726 189 723 193 719 199 717 203 713 209 709 214 704 219 701 224 696 228 689 236 688 234 693 226 699 219 703 212 707 203 710 197 713 191 716 184 720 178 723 170 726 164 728 156 731 150 733 141" />
      <polygon style="fill:silver; stroke:none;" points=" 772 99 793 108 784 115 784 244 783 249 771 241 773 99" />
      <polygon style="fill:none; stroke:silver;" points=" 772 99 793 108 784 115 784 244 783 249 771 241 773 99" />
      <polygon style="fill:silver; stroke:none;" points=" 772 242 769 244 767 246 761 246 755 245 733 241 731 243 747 249 754 252 758 255 763 261 765 266 771 264 776 261 780 258 783 251 783 249" />
      <polygon style="fill:none; stroke:silver;" points=" 772 242 769 244 767 246 761 246 755 245 733 241 731 243 747 249 754 252 758 255 763 261 765 266 771 264 776 261 780 258 783 251 783 249" />
      <polygon style="fill:silver; stroke:none;" points=" 740 79 834 79 844 65 861 84 836 84 739 83" />
      <polygon style="fill:none; stroke:silver;" points=" 740 79 834 79 844 65 861 84 836 84 739 83" />
      <polygon style="fill:silver; stroke:none;" points=" 836 83 833 88 831 91 829 94 827 99 826 102 824 104 821 108 819 113 819 115 820 116 824 113 828 109 831 105 834 103 838 98 842 95 846 91 851 89 858 88 861 86" />
      <polygon style="fill:none; stroke:silver;" points=" 836 83 833 88 831 91 829 94 827 99 826 102 824 104 821 108 819 113 819 115 820 116 824 113 828 109 831 105 834 103 838 98 842 95 846 91 851 89 858 88 861 86" />
      <polygon style="fill:silver; stroke:none;" points=" 753 22 773 34 766 38 763 42 759 46 757 53 754 58 750 64 748 69 746 74 744 77 739 83 738 88 735 92 732 96 728 102 726 107 723 111 718 117 714 123 711 127 708 131 705 134 702 138 699 142 694 145 691 149 689 147 692 143 696 138 700 133 706 124 711 116 716 106 720 98 724 91 731 79 734 73 738 64 741 54 744 48 747 39 750 31 753 23" />
      <polygon style="fill:none; stroke:silver;" points=" 753 22 773 34 766 38 763 42 759 46 757 53 754 58 750 64 748 69 746 74 744 77 739 83 738 88 735 92 732 96 728 102 726 107 723 111 718 117 714 123 711 127 708 131 705 134 702 138 699 142 694 145 691 149 689 147 692 143 696 138 700 133 706 124 711 116 716 106 720 98 724 91 731 79 734 73 738 64 741 54 744 48 747 39 750 31 753 23" />
      <polygon style="fill:rgb(64,64,64); stroke:none;" points=" 662 89 683 98 673 107 673 224 673 246 673 259 671 261 667 263 663 263 661 263 661 248 662 90" />
      <polygon style="fill:none; stroke:rgb(64,64,64);" points=" 662 89 683 98 673 107 673 224 673 246 673 259 671 261 667 263 663 263 661 263 661 248 662 90" />
      <polygon style="fill:rgb(64,64,64); stroke:none;" points=" 681 21 701 34 693 39 691 44 688 47 686 51 684 56 682 60 680 66 678 71 675 76 672 80 669 85 668 89 665 93 663 98 661 103 659 106 656 110 655 114 653 118 650 123 648 125 645 129 643 136 640 139 637 144 634 149 629 153 626 156 624 159 621 165 618 162 623 155 627 149 630 144 633 138 638 131 641 125 644 118 648 109 651 103 654 94 658 88 660 81 663 75 665 70 666 64 669 60 671 54 672 48 674 43 676 38 678 34 679 28 681 22" />
      <polygon style="fill:none; stroke:rgb(64,64,64);" points=" 681 21 701 34 693 39 691 44 688 47 686 51 684 56 682 60 680 66 678 71 675 76 672 80 669 85 668 89 665 93 663 98 661 103 659 106 656 110 655 114 653 118 650 123 648 125 645 129 643 136 640 139 637 144 634 149 629 153 626 156 624 159 621 165 618 162 623 155 627 149 630 144 633 138 638 131 641 125 644 118 648 109 651 103 654 94 658 88 660 81 663 75 665 70 666 64 669 60 671 54 672 48 674 43 676 38 678 34 679 28 681 22" />
      <path d="M662 89 L667 263" style="fill:none; stroke-width:4; stroke:red;" />
      <circle style="fill:lime; stroke:none;" r="7" cx="662" cy="89" />
      <rect x="902" y="2" width="300" style="fill:none;" height="300" />
      <line x1="902" x2="1202" y1="2" style="fill:none;" y2="302" />
      <line x1="1202" x2="902" y1="2" style="fill:none;" y2="302" />
      <line x1="1052" x2="1052" y1="2" style="fill:none;" y2="302" />
      <line x1="902" x2="1202" y1="152" style="fill:none;" y2="152" />
      <polygon style="fill:silver; stroke:none;" points=" 1106 145 1113 149 1118 154 1124 159 1129 166 1135 171 1139 175 1143 180 1148 186 1151 191 1154 196 1158 203 1160 209 1160 213 1159 218 1157 222 1154 224 1151 225 1148 225 1146 223 1145 218 1144 214 1143 210 1141 206 1141 203 1139 199 1138 196 1136 191 1133 187 1131 183 1128 179 1126 174 1123 172 1122 169 1120 166 1117 163 1113 158 1110 154 1106 149 1105 148" />
      <polygon style="fill:none; stroke:silver;" points=" 1106 145 1113 149 1118 154 1124 159 1129 166 1135 171 1139 175 1143 180 1148 186 1151 191 1154 196 1158 203 1160 209 1160 213 1159 218 1157 222 1154 224 1151 225 1148 225 1146 223 1145 218 1144 214 1143 210 1141 206 1141 203 1139 199 1138 196 1136 191 1133 187 1131 183 1128 179 1126 174 1123 172 1122 169 1120 166 1117 163 1113 158 1110 154 1106 149 1105 148" />
      <polygon style="fill:silver; stroke:none;" points=" 1033 141 1053 153 1045 159 1041 163 1038 169 1035 173 1031 179 1029 184 1026 189 1023 193 1019 199 1017 203 1013 209 1009 214 1004 219 1001 224 996 228 989 236 988 234 993 226 999 219 1003 212 1007 203 1010 197 1013 191 1016 184 1020 178 1023 170 1026 164 1028 156 1031 150 1033 141" />
      <polygon style="fill:none; stroke:silver;" points=" 1033 141 1053 153 1045 159 1041 163 1038 169 1035 173 1031 179 1029 184 1026 189 1023 193 1019 199 1017 203 1013 209 1009 214 1004 219 1001 224 996 228 989 236 988 234 993 226 999 219 1003 212 1007 203 1010 197 1013 191 1016 184 1020 178 1023 170 1026 164 1028 156 1031 150 1033 141" />
      <polygon style="fill:silver; stroke:none;" points=" 1072 99 1093 108 1084 115 1084 244 1083 249 1071 241 1073 99" />
      <polygon style="fill:none; stroke:silver;" points=" 1072 99 1093 108 1084 115 1084 244 1083 249 1071 241 1073 99" />
      <polygon style="fill:silver; stroke:none;" points=" 1072 242 1069 244 1067 246 1061 246 1055 245 1033 241 1031 243 1047 249 1054 252 1058 255 1063 261 1065 266 1071 264 1076 261 1080 258 1083 251 1083 249" />
      <polygon style="fill:none; stroke:silver;" points=" 1072 242 1069 244 1067 246 1061 246 1055 245 1033 241 1031 243 1047 249 1054 252 1058 255 1063 261 1065 266 1071 264 1076 261 1080 258 1083 251 1083 249" />
      <polygon style="fill:silver; stroke:none;" points=" 1040 79 1134 79 1144 65 1161 84 1136 84 1039 83" />
      <polygon style="fill:none; stroke:silver;" points=" 1040 79 1134 79 1144 65 1161 84 1136 84 1039 83" />
      <polygon style="fill:silver; stroke:none;" points=" 1136 83 1133 88 1131 91 1129 94 1127 99 1126 102 1124 104 1121 108 1119 113 1119 115 1120 116 1124 113 1128 109 1131 105 1134 103 1138 98 1142 95 1146 91 1151 89 1158 88 1161 86" />
      <polygon style="fill:none; stroke:silver;" points=" 1136 83 1133 88 1131 91 1129 94 1127 99 1126 102 1124 104 1121 108 1119 113 1119 115 1120 116 1124 113 1128 109 1131 105 1134 103 1138 98 1142 95 1146 91 1151 89 1158 88 1161 86" />
      <polygon style="fill:rgb(64,64,64); stroke:none;" points=" 1053 22 1073 34 1066 38 1063 42 1059 46 1057 53 1054 58 1050 64 1048 69 1046 74 1044 77 1039 83 1038 88 1035 92 1032 96 1028 102 1026 107 1023 111 1018 117 1014 123 1011 127 1008 131 1005 134 1002 138 999 142 994 145 991 149 989 147 992 143 996 138 1000 133 1006 124 1011 116 1016 106 1020 98 1024 91 1031 79 1034 73 1038 64 1041 54 1044 48 1047 39 1050 31 1053 23" />
      <polygon style="fill:none; stroke:rgb(64,64,64);" points=" 1053 22 1073 34 1066 38 1063 42 1059 46 1057 53 1054 58 1050 64 1048 69 1046 74 1044 77 1039 83 1038 88 1035 92 1032 96 1028 102 1026 107 1023 111 1018 117 1014 123 1011 127 1008 131 1005 134 1002 138 999 142 994 145 991 149 989 147 992 143 996 138 1000 133 1006 124 1011 116 1016 106 1020 98 1024 91 1031 79 1034 73 1038 64 1041 54 1044 48 1047 39 1050 31 1053 23" />
      <polygon style="fill:rgb(64,64,64); stroke:none;" points=" 962 89 983 98 973 107 973 224 973 246 973 259 971 261 967 263 963 263 961 263 961 248 962 90" />
      <polygon style="fill:none; stroke:rgb(64,64,64);" points=" 962 89 983 98 973 107 973 224 973 246 973 259 971 261 967 263 963 263 961 263 961 248 962 90" />
      <polygon style="fill:rgb(64,64,64); stroke:none;" points=" 981 21 1001 34 993 39 991 44 988 47 986 51 984 56 982 60 980 66 978 71 975 76 972 80 969 85 968 89 965 93 963 98 961 103 959 106 956 110 955 114 953 118 950 123 948 125 945 129 943 136 940 139 937 144 934 149 929 153 926 156 924 159 921 165 918 162 923 155 927 149 930 144 933 138 938 131 941 125 944 118 948 109 951 103 954 94 958 88 960 81 963 75 965 70 966 64 969 60 971 54 972 48 974 43 976 38 978 34 979 28 981 22" />
      <polygon style="fill:none; stroke:rgb(64,64,64);" points=" 981 21 1001 34 993 39 991 44 988 47 986 51 984 56 982 60 980 66 978 71 975 76 972 80 969 85 968 89 965 93 963 98 961 103 959 106 956 110 955 114 953 118 950 123 948 125 945 129 943 136 940 139 937 144 934 149 929 153 926 156 924 159 921 165 918 162 923 155 927 149 930 144 933 138 938 131 941 125 944 118 948 109 951 103 954 94 958 88 960 81 963 75 965 70 966 64 969 60 971 54 972 48 974 43 976 38 978 34 979 28 981 22" />
      <path d="M1073 34 L989 147" style="fill:none; stroke-width:4; stroke:red;" />
      <circle style="fill:lime; stroke:none;" r="7" cx="1073" cy="34" />
      <rect x="1202" y="2" width="300" style="fill:none;" height="300" />
      <line x1="1202" x2="1502" y1="2" style="fill:none;" y2="302" />
      <line x1="1502" x2="1202" y1="2" style="fill:none;" y2="302" />
      <line x1="1352" x2="1352" y1="2" style="fill:none;" y2="302" />
      <line x1="1202" x2="1502" y1="152" style="fill:none;" y2="152" />
      <polygon style="fill:silver; stroke:none;" points=" 1406 145 1413 149 1418 154 1424 159 1429 166 1435 171 1439 175 1443 180 1448 186 1451 191 1454 196 1458 203 1460 209 1460 213 1459 218 1457 222 1454 224 1451 225 1448 225 1446 223 1445 218 1444 214 1443 210 1441 206 1441 203 1439 199 1438 196 1436 191 1433 187 1431 183 1428 179 1426 174 1423 172 1422 169 1420 166 1417 163 1413 158 1410 154 1406 149 1405 148" />
      <polygon style="fill:none; stroke:silver;" points=" 1406 145 1413 149 1418 154 1424 159 1429 166 1435 171 1439 175 1443 180 1448 186 1451 191 1454 196 1458 203 1460 209 1460 213 1459 218 1457 222 1454 224 1451 225 1448 225 1446 223 1445 218 1444 214 1443 210 1441 206 1441 203 1439 199 1438 196 1436 191 1433 187 1431 183 1428 179 1426 174 1423 172 1422 169 1420 166 1417 163 1413 158 1410 154 1406 149 1405 148" />
      <polygon style="fill:silver; stroke:none;" points=" 1333 141 1353 153 1345 159 1341 163 1338 169 1335 173 1331 179 1329 184 1326 189 1323 193 1319 199 1317 203 1313 209 1309 214 1304 219 1301 224 1296 228 1289 236 1288 234 1293 226 1299 219 1303 212 1307 203 1310 197 1313 191 1316 184 1320 178 1323 170 1326 164 1328 156 1331 150 1333 141" />
      <polygon style="fill:none; stroke:silver;" points=" 1333 141 1353 153 1345 159 1341 163 1338 169 1335 173 1331 179 1329 184 1326 189 1323 193 1319 199 1317 203 1313 209 1309 214 1304 219 1301 224 1296 228 1289 236 1288 234 1293 226 1299 219 1303 212 1307 203 1310 197 1313 191 1316 184 1320 178 1323 170 1326 164 1328 156 1331 150 1333 141" />
      <polygon style="fill:silver; stroke:none;" points=" 1372 99 1393 108 1384 115 1384 244 1383 249 1371 241 1373 99" />
      <polygon style="fill:none; stroke:silver;" points=" 1372 99 1393 108 1384 115 1384 244 1383 249 1371 241 1373 99" />
      <polygon style="fill:silver; stroke:none;" points=" 1372 242 1369 244 1367 246 1361 246 1355 245 1333 241 1331 243 1347 249 1354 252 1358 255 1363 261 1365 266 1371 264 1376 261 1380 258 1383 251 1383 249" />
      <polygon style="fill:none; stroke:silver;" points=" 1372 242 1369 244 1367 246 1361 246 1355 245 1333 241 1331 243 1347 249 1354 252 1358 255 1363 261 1365 266 1371 264 1376 261 1380 258 1383 251 1383 249" />
      <polygon style="fill:rgb(64,64,64); stroke:none;" points=" 1340 79 1434 79 1444 65 1461 84 1436 84 1339 83" />
      <polygon style="fill:none; stroke:rgb(64,64,64);" points=" 1340 79 1434 79 1444 65 1461 84 1436 84 1339 83" />
      <polygon style="fill:rgb(64,64,64); stroke:none;" points=" 1436 83 1433 88 1431 91 1429 94 1427 99 1426 102 1424 104 1421 108 1419 113 1419 115 1420 116 1424 113 1428 109 1431 105 1434 103 1438 98 1442 95 1446 91 1451 89 1458 88 1461 86" />
      <polygon style="fill:none; stroke:rgb(64,64,64);" points=" 1436 83 1433 88 1431 91 1429 94 1427 99 1426 102 1424 104 1421 108 1419 113 1419 115 1420 116 1424 113 1428 109 1431 105 1434 103 1438 98 1442 95 1446 91 1451 89 1458 88 1461 86" />
      <polygon style="fill:rgb(64,64,64); stroke:none;" points=" 1353 22 1373 34 1366 38 1363 42 1359 46 1357 53 1354 58 1350 64 1348 69 1346 74 1344 77 1339 83 1338 88 1335 92 1332 96 1328 102 1326 107 1323 111 1318 117 1314 123 1311 127 1308 131 1305 134 1302 138 1299 142 1294 145 1291 149 1289 147 1292 143 1296 138 1300 133 1306 124 1311 116 1316 106 1320 98 1324 91 1331 79 1334 73 1338 64 1341 54 1344 48 1347 39 1350 31 1353 23" />
      <polygon style="fill:none; stroke:rgb(64,64,64);" points=" 1353 22 1373 34 1366 38 1363 42 1359 46 1357 53 1354 58 1350 64 1348 69 1346 74 1344 77 1339 83 1338 88 1335 92 1332 96 1328 102 1326 107 1323 111 1318 117 1314 123 1311 127 1308 131 1305 134 1302 138 1299 142 1294 145 1291 149 1289 147 1292 143 1296 138 1300 133 1306 124 1311 116 1316 106 1320 98 1324 91 1331 79 1334 73 1338 64 1341 54 1344 48 1347 39 1350 31 1353 23" />
      <polygon style="fill:rgb(64,64,64); stroke:none;" points=" 1262 89 1283 98 1273 107 1273 224 1273 246 1273 259 1271 261 1267 263 1263 263 1261 263 1261 248 1262 90" />
      <polygon style="fill:none; stroke:rgb(64,64,64);" points=" 1262 89 1283 98 1273 107 1273 224 1273 246 1273 259 1271 261 1267 263 1263 263 1261 263 1261 248 1262 90" />
      <polygon style="fill:rgb(64,64,64); stroke:none;" points=" 1281 21 1301 34 1293 39 1291 44 1288 47 1286 51 1284 56 1282 60 1280 66 1278 71 1275 76 1272 80 1269 85 1268 89 1265 93 1263 98 1261 103 1259 106 1256 110 1255 114 1253 118 1250 123 1248 125 1245 129 1243 136 1240 139 1237 144 1234 149 1229 153 1226 156 1224 159 1221 165 1218 162 1223 155 1227 149 1230 144 1233 138 1238 131 1241 125 1244 118 1248 109 1251 103 1254 94 1258 88 1260 81 1263 75 1265 70 1266 64 1269 60 1271 54 1272 48 1274 43 1276 38 1278 34 1279 28 1281 22" />
      <polygon style="fill:none; stroke:rgb(64,64,64);" points=" 1281 21 1301 34 1293 39 1291 44 1288 47 1286 51 1284 56 1282 60 1280 66 1278 71 1275 76 1272 80 1269 85 1268 89 1265 93 1263 98 1261 103 1259 106 1256 110 1255 114 1253 118 1250 123 1248 125 1245 129 1243 136 1240 139 1237 144 1234 149 1229 153 1226 156 1224 159 1221 165 1218 162 1223 155 1227 149 1230 144 1233 138 1238 131 1241 125 1244 118 1248 109 1251 103 1254 94 1258 88 1260 81 1263 75 1265 70 1266 64 1269 60 1271 54 1272 48 1274 43 1276 38 1278 34 1279 28 1281 22" />
      <path d="M1339 83 L1461 84 L1419 115" style="fill:none; stroke-width:4; stroke:red;" />
      <circle style="fill:lime; stroke:none;" r="7" cx="1339" cy="83" />
      <rect x="1502" y="2" width="300" style="fill:none;" height="300" />
      <line x1="1502" x2="1802" y1="2" style="fill:none;" y2="302" />
      <line x1="1802" x2="1502" y1="2" style="fill:none;" y2="302" />
      <line x1="1652" x2="1652" y1="2" style="fill:none;" y2="302" />
      <line x1="1502" x2="1802" y1="152" style="fill:none;" y2="152" />
      <polygon style="fill:silver; stroke:none;" points=" 1706 145 1713 149 1718 154 1724 159 1729 166 1735 171 1739 175 1743 180 1748 186 1751 191 1754 196 1758 203 1760 209 1760 213 1759 218 1757 222 1754 224 1751 225 1748 225 1746 223 1745 218 1744 214 1743 210 1741 206 1741 203 1739 199 1738 196 1736 191 1733 187 1731 183 1728 179 1726 174 1723 172 1722 169 1720 166 1717 163 1713 158 1710 154 1706 149 1705 148" />
      <polygon style="fill:none; stroke:silver;" points=" 1706 145 1713 149 1718 154 1724 159 1729 166 1735 171 1739 175 1743 180 1748 186 1751 191 1754 196 1758 203 1760 209 1760 213 1759 218 1757 222 1754 224 1751 225 1748 225 1746 223 1745 218 1744 214 1743 210 1741 206 1741 203 1739 199 1738 196 1736 191 1733 187 1731 183 1728 179 1726 174 1723 172 1722 169 1720 166 1717 163 1713 158 1710 154 1706 149 1705 148" />
      <polygon style="fill:silver; stroke:none;" points=" 1633 141 1653 153 1645 159 1641 163 1638 169 1635 173 1631 179 1629 184 1626 189 1623 193 1619 199 1617 203 1613 209 1609 214 1604 219 1601 224 1596 228 1589 236 1588 234 1593 226 1599 219 1603 212 1607 203 1610 197 1613 191 1616 184 1620 178 1623 170 1626 164 1628 156 1631 150 1633 141" />
      <polygon style="fill:none; stroke:silver;" points=" 1633 141 1653 153 1645 159 1641 163 1638 169 1635 173 1631 179 1629 184 1626 189 1623 193 1619 199 1617 203 1613 209 1609 214 1604 219 1601 224 1596 228 1589 236 1588 234 1593 226 1599 219 1603 212 1607 203 1610 197 1613 191 1616 184 1620 178 1623 170 1626 164 1628 156 1631 150 1633 141" />
      <polygon style="fill:rgb(64,64,64); stroke:none;" points=" 1672 99 1693 108 1684 115 1684 244 1683 249 1671 241 1673 99" />
      <polygon style="fill:none; stroke:rgb(64,64,64);" points=" 1672 99 1693 108 1684 115 1684 244 1683 249 1671 241 1673 99" />
      <polygon style="fill:rgb(64,64,64); stroke:none;" points=" 1672 242 1669 244 1667 246 1661 246 1655 245 1633 241 1631 243 1647 249 1654 252 1658 255 1663 261 1665 266 1671 264 1676 261 1680 258 1683 251 1683 249" />
      <polygon style="fill:none; stroke:rgb(64,64,64);" points=" 1672 242 1669 244 1667 246 1661 246 1655 245 1633 241 1631 243 1647 249 1654 252 1658 255 1663 261 1665 266 1671 264 1676 261 1680 258 1683 251 1683 249" />
      <polygon style="fill:rgb(64,64,64); stroke:none;" points=" 1640 79 1734 79 1744 65 1761 84 1736 84 1639 83" />
      <polygon style="fill:none; stroke:rgb(64,64,64);" points=" 1640 79 1734 79 1744 65 1761 84 1736 84 1639 83" />
      <polygon style="fill:rgb(64,64,64); stroke:none;" points=" 1736 83 1733 88 1731 91 1729 94 1727 99 1726 102 1724 104 1721 108 1719 113 1719 115 1720 116 1724 113 1728 109 1731 105 1734 103 1738 98 1742 95 1746 91 1751 89 1758 88 1761 86" />
      <polygon style="fill:none; stroke:rgb(64,64,64);" points=" 1736 83 1733 88 1731 91 1729 94 1727 99 1726 102 1724 104 1721 108 1719 113 1719 115 1720 116 1724 113 1728 109 1731 105 1734 103 1738 98 1742 95 1746 91 1751 89 1758 88 1761 86" />
      <polygon style="fill:rgb(64,64,64); stroke:none;" points=" 1653 22 1673 34 1666 38 1663 42 1659 46 1657 53 1654 58 1650 64 1648 69 1646 74 1644 77 1639 83 1638 88 1635 92 1632 96 1628 102 1626 107 1623 111 1618 117 1614 123 1611 127 1608 131 1605 134 1602 138 1599 142 1594 145 1591 149 1589 147 1592 143 1596 138 1600 133 1606 124 1611 116 1616 106 1620 98 1624 91 1631 79 1634 73 1638 64 1641 54 1644 48 1647 39 1650 31 1653 23" />
      <polygon style="fill:none; stroke:rgb(64,64,64);" points=" 1653 22 1673 34 1666 38 1663 42 1659 46 1657 53 1654 58 1650 64 1648 69 1646 74 1644 77 1639 83 1638 88 1635 92 1632 96 1628 102 1626 107 1623 111 1618 117 1614 123 1611 127 1608 131 1605 134 1602 138 1599 142 1594 145 1591 149 1589 147 1592 143 1596 138 1600 133 1606 124 1611 116 1616 106 1620 98 1624 91 1631 79 1634 73 1638 64 1641 54 1644 48 1647 39 1650 31 1653 23" />
      <polygon style="fill:rgb(64,64,64); stroke:none;" points=" 1562 89 1583 98 1573 107 1573 224 1573 246 1573 259 1571 261 1567 263 1563 263 1561 263 1561 248 1562 90" />
      <polygon style="fill:none; stroke:rgb(64,64,64);" points=" 1562 89 1583 98 1573 107 1573 224 1573 246 1573 259 1571 261 1567 263 1563 263 1561 263 1561 248 1562 90" />
      <polygon style="fill:rgb(64,64,64); stroke:none;" points=" 1581 21 1601 34 1593 39 1591 44 1588 47 1586 51 1584 56 1582 60 1580 66 1578 71 1575 76 1572 80 1569 85 1568 89 1565 93 1563 98 1561 103 1559 106 1556 110 1555 114 1553 118 1550 123 1548 125 1545 129 1543 136 1540 139 1537 144 1534 149 1529 153 1526 156 1524 159 1521 165 1518 162 1523 155 1527 149 1530 144 1533 138 1538 131 1541 125 1544 118 1548 109 1551 103 1554 94 1558 88 1560 81 1563 75 1565 70 1566 64 1569 60 1571 54 1572 48 1574 43 1576 38 1578 34 1579 28 1581 22" />
      <polygon style="fill:none; stroke:rgb(64,64,64);" points=" 1581 21 1601 34 1593 39 1591 44 1588 47 1586 51 1584 56 1582 60 1580 66 1578 71 1575 76 1572 80 1569 85 1568 89 1565 93 1563 98 1561 103 1559 106 1556 110 1555 114 1553 118 1550 123 1548 125 1545 129 1543 136 1540 139 1537 144 1534 149 1529 153 1526 156 1524 159 1521 165 1518 162 1523 155 1527 149 1530 144 1533 138 1538 131 1541 125 1544 118 1548 109 1551 103 1554 94 1558 88 1560 81 1563 75 1565 70 1566 64 1569 60 1571 54 1572 48 1574 43 1576 38 1578 34 1579 28 1581 22" />
      <path d="M1672 99 L1683 249 L1633 241" style="fill:none; stroke-width:4; stroke:red;" />
      <circle style="fill:lime; stroke:none;" r="7" cx="1672" cy="99" />
      <rect x="1802" y="2" width="300" style="fill:none;" height="300" />
      <line x1="1802" x2="2102" y1="2" style="fill:none;" y2="302" />
      <line x1="2102" x2="1802" y1="2" style="fill:none;" y2="302" />
      <line x1="1952" x2="1952" y1="2" style="fill:none;" y2="302" />
      <line x1="1802" x2="2102" y1="152" style="fill:none;" y2="152" />
      <polygon style="fill:silver; stroke:none;" points=" 2006 145 2013 149 2018 154 2024 159 2029 166 2035 171 2039 175 2043 180 2048 186 2051 191 2054 196 2058 203 2060 209 2060 213 2059 218 2057 222 2054 224 2051 225 2048 225 2046 223 2045 218 2044 214 2043 210 2041 206 2041 203 2039 199 2038 196 2036 191 2033 187 2031 183 2028 179 2026 174 2023 172 2022 169 2020 166 2017 163 2013 158 2010 154 2006 149 2005 148" />
      <polygon style="fill:none; stroke:silver;" points=" 2006 145 2013 149 2018 154 2024 159 2029 166 2035 171 2039 175 2043 180 2048 186 2051 191 2054 196 2058 203 2060 209 2060 213 2059 218 2057 222 2054 224 2051 225 2048 225 2046 223 2045 218 2044 214 2043 210 2041 206 2041 203 2039 199 2038 196 2036 191 2033 187 2031 183 2028 179 2026 174 2023 172 2022 169 2020 166 2017 163 2013 158 2010 154 2006 149 2005 148" />
      <polygon style="fill:rgb(64,64,64); stroke:none;" points=" 1933 141 1953 153 1945 159 1941 163 1938 169 1935 173 1931 179 1929 184 1926 189 1923 193 1919 199 1917 203 1913 209 1909 214 1904 219 1901 224 1896 228 1889 236 1888 234 1893 226 1899 219 1903 212 1907 203 1910 197 1913 191 1916 184 1920 178 1923 170 1926 164 1928 156 1931 150 1933 141" />
      <polygon style="fill:none; stroke:rgb(64,64,64);" points=" 1933 141 1953 153 1945 159 1941 163 1938 169 1935 173 1931 179 1929 184 1926 189 1923 193 1919 199 1917 203 1913 209 1909 214 1904 219 1901 224 1896 228 1889 236 1888 234 1893 226 1899 219 1903 212 1907 203 1910 197 1913 191 1916 184 1920 178 1923 170 1926 164 1928 156 1931 150 1933 141" />
      <polygon style="fill:rgb(64,64,64); stroke:none;" points=" 1972 99 1993 108 1984 115 1984 244 1983 249 1971 241 1973 99" />
      <polygon style="fill:none; stroke:rgb(64,64,64);" points=" 1972 99 1993 108 1984 115 1984 244 1983 249 1971 241 1973 99" />
      <polygon style="fill:rgb(64,64,64); stroke:none;" points=" 1972 242 1969 244 1967 246 1961 246 1955 245 1933 241 1931 243 1947 249 1954 252 1958 255 1963 261 1965 266 1971 264 1976 261 1980 258 1983 251 1983 249" />
      <polygon style="fill:none; stroke:rgb(64,64,64);" points=" 1972 242 1969 244 1967 246 1961 246 1955 245 1933 241 1931 243 1947 249 1954 252 1958 255 1963 261 1965 266 1971 264 1976 261 1980 258 1983 251 1983 249" />
      <polygon style="fill:rgb(64,64,64); stroke:none;" points=" 1940 79 2034 79 2044 65 2061 84 2036 84 1939 83" />
      <polygon style="fill:none; stroke:rgb(64,64,64);" points=" 1940 79 2034 79 2044 65 2061 84 2036 84 1939 83" />
      <polygon style="fill:rgb(64,64,64); stroke:none;" points=" 2036 83 2033 88 2031 91 2029 94 2027 99 2026 102 2024 104 2021 108 2019 113 2019 115 2020 116 2024 113 2028 109 2031 105 2034 103 2038 98 2042 95 2046 91 2051 89 2058 88 2061 86" />
      <polygon style="fill:none; stroke:rgb(64,64,64);" points=" 2036 83 2033 88 2031 91 2029 94 2027 99 2026 102 2024 104 2021 108 2019 113 2019 115 2020 116 2024 113 2028 109 2031 105 2034 103 2038 98 2042 95 2046 91 2051 89 2058 88 2061 86" />
      <polygon style="fill:rgb(64,64,64); stroke:none;" points=" 1953 22 1973 34 1966 38 1963 42 1959 46 1957 53 1954 58 1950 64 1948 69 1946 74 1944 77 1939 83 1938 88 1935 92 1932 96 1928 102 1926 107 1923 111 1918 117 1914 123 1911 127 1908 131 1905 134 1902 138 1899 142 1894 145 1891 149 1889 147 1892 143 1896 138 1900 133 1906 124 1911 116 1916 106 1920 98 1924 91 1931 79 1934 73 1938 64 1941 54 1944 48 1947 39 1950 31 1953 23" />
      <polygon style="fill:none; stroke:rgb(64,64,64);" points=" 1953 22 1973 34 1966 38 1963 42 1959 46 1957 53 1954 58 1950 64 1948 69 1946 74 1944 77 1939 83 1938 88 1935 92 1932 96 1928 102 1926 107 1923 111 1918 117 1914 123 1911 127 1908 131 1905 134 1902 138 1899 142 1894 145 1891 149 1889 147 1892 143 1896 138 1900 133 1906 124 1911 116 1916 106 1920 98 1924 91 1931 79 1934 73 1938 64 1941 54 1944 48 1947 39 1950 31 1953 23" />
      <polygon style="fill:rgb(64,64,64); stroke:none;" points=" 1862 89 1883 98 1873 107 1873 224 1873 246 1873 259 1871 261 1867 263 1863 263 1861 263 1861 248 1862 90" />
      <polygon style="fill:none; stroke:rgb(64,64,64);" points=" 1862 89 1883 98 1873 107 1873 224 1873 246 1873 259 1871 261 1867 263 1863 263 1861 263 1861 248 1862 90" />
      <polygon style="fill:rgb(64,64,64); stroke:none;" points=" 1881 21 1901 34 1893 39 1891 44 1888 47 1886 51 1884 56 1882 60 1880 66 1878 71 1875 76 1872 80 1869 85 1868 89 1865 93 1863 98 1861 103 1859 106 1856 110 1855 114 1853 118 1850 123 1848 125 1845 129 1843 136 1840 139 1837 144 1834 149 1829 153 1826 156 1824 159 1821 165 1818 162 1823 155 1827 149 1830 144 1833 138 1838 131 1841 125 1844 118 1848 109 1851 103 1854 94 1858 88 1860 81 1863 75 1865 70 1866 64 1869 60 1871 54 1872 48 1874 43 1876 38 1878 34 1879 28 1881 22" />
      <polygon style="fill:none; stroke:rgb(64,64,64);" points=" 1881 21 1901 34 1893 39 1891 44 1888 47 1886 51 1884 56 1882 60 1880 66 1878 71 1875 76 1872 80 1869 85 1868 89 1865 93 1863 98 1861 103 1859 106 1856 110 1855 114 1853 118 1850 123 1848 125 1845 129 1843 136 1840 139 1837 144 1834 149 1829 153 1826 156 1824 159 1821 165 1818 162 1823 155 1827 149 1830 144 1833 138 1838 131 1841 125 1844 118 1848 109 1851 103 1854 94 1858 88 1860 81 1863 75 1865 70 1866 64 1869 60 1871 54 1872 48 1874 43 1876 38 1878 34 1879 28 1881 22" />
      <path d="M1953 153 L1889 236" style="fill:none; stroke-width:4; stroke:red;" />
      <circle style="fill:lime; stroke:none;" r="7" cx="1953" cy="153" />
      <rect x="2102" y="2" width="300" style="fill:none;" height="300" />
      <line x1="2102" x2="2402" y1="2" style="fill:none;" y2="302" />
      <line x1="2402" x2="2102" y1="2" style="fill:none;" y2="302" />
      <line x1="2252" x2="2252" y1="2" style="fill:none;" y2="302" />
      <line x1="2102" x2="2402" y1="152" style="fill:none;" y2="152" />
      <polygon style="fill:rgb(64,64,64); stroke:none;" points=" 2306 145 2313 149 2318 154 2324 159 2329 166 2335 171 2339 175 2343 180 2348 186 2351 191 2354 196 2358 203 2360 209 2360 213 2359 218 2357 222 2354 224 2351 225 2348 225 2346 223 2345 218 2344 214 2343 210 2341 206 2341 203 2339 199 2338 196 2336 191 2333 187 2331 183 2328 179 2326 174 2323 172 2322 169 2320 166 2317 163 2313 158 2310 154 2306 149 2305 148" />
      <polygon style="fill:none; stroke:rgb(64,64,64);" points=" 2306 145 2313 149 2318 154 2324 159 2329 166 2335 171 2339 175 2343 180 2348 186 2351 191 2354 196 2358 203 2360 209 2360 213 2359 218 2357 222 2354 224 2351 225 2348 225 2346 223 2345 218 2344 214 2343 210 2341 206 2341 203 2339 199 2338 196 2336 191 2333 187 2331 183 2328 179 2326 174 2323 172 2322 169 2320 166 2317 163 2313 158 2310 154 2306 149 2305 148" />
      <polygon style="fill:rgb(64,64,64); stroke:none;" points=" 2233 141 2253 153 2245 159 2241 163 2238 169 2235 173 2231 179 2229 184 2226 189 2223 193 2219 199 2217 203 2213 209 2209 214 2204 219 2201 224 2196 228 2189 236 2188 234 2193 226 2199 219 2203 212 2207 203 2210 197 2213 191 2216 184 2220 178 2223 170 2226 164 2228 156 2231 150 2233 141" />
      <polygon style="fill:none; stroke:rgb(64,64,64);" points=" 2233 141 2253 153 2245 159 2241 163 2238 169 2235 173 2231 179 2229 184 2226 189 2223 193 2219 199 2217 203 2213 209 2209 214 2204 219 2201 224 2196 228 2189 236 2188 234 2193 226 2199 219 2203 212 2207 203 2210 197 2213 191 2216 184 2220 178 2223 170 2226 164 2228 156 2231 150 2233 141" />
      <polygon style="fill:rgb(64,64,64); stroke:none;" points=" 2272 99 2293 108 2284 115 2284 244 2283 249 2271 241 2273 99" />
      <polygon style="fill:none; stroke:rgb(64,64,64);" points=" 2272 99 2293 108 2284 115 2284 244 2283 249 2271 241 2273 99" />
      <polygon style="fill:rgb(64,64,64); stroke:none;" points=" 2272 242 2269 244 2267 246 2261 246 2255 245 2233 241 2231 243 2247 249 2254 252 2258 255 2263 261 2265 266 2271 264 2276 261 2280 258 2283 251 2283 249" />
      <polygon style="fill:none; stroke:rgb(64,64,64);" points=" 2272 242 2269 244 2267 246 2261 246 2255 245 2233 241 2231 243 2247 249 2254 252 2258 255 2263 261 2265 266 2271 264 2276 261 2280 258 2283 251 2283 249" />
      <polygon style="fill:rgb(64,64,64); stroke:none;" points=" 2240 79 2334 79 2344 65 2361 84 2336 84 2239 83" />
      <polygon style="fill:none; stroke:rgb(64,64,64);" points=" 2240 79 2334 79 2344 65 2361 84 2336 84 2239 83" />
      <polygon style="fill:rgb(64,64,64); stroke:none;" points=" 2336 83 2333 88 2331 91 2329 94 2327 99 2326 102 2324 104 2321 108 2319 113 2319 115 2320 116 2324 113 2328 109 2331 105 2334 103 2338 98 2342 95 2346 91 2351 89 2358 88 2361 86" />
      <polygon style="fill:none; stroke:rgb(64,64,64);" points=" 2336 83 2333 88 2331 91 2329 94 2327 99 2326 102 2324 104 2321 108 2319 113 2319 115 2320 116 2324 113 2328 109 2331 105 2334 103 2338 98 2342 95 2346 91 2351 89 2358 88 2361 86" />
      <polygon style="fill:rgb(64,64,64); stroke:none;" points=" 2253 22 2273 34 2266 38 2263 42 2259 46 2257 53 2254 58 2250 64 2248 69 2246 74 2244 77 2239 83 2238 88 2235 92 2232 96 2228 102 2226 107 2223 111 2218 117 2214 123 2211 127 2208 131 2205 134 2202 138 2199 142 2194 145 2191 149 2189 147 2192 143 2196 138 2200 133 2206 124 2211 116 2216 106 2220 98 2224 91 2231 79 2234 73 2238 64 2241 54 2244 48 2247 39 2250 31 2253 23" />
      <polygon style="fill:none; stroke:rgb(64,64,64);" points=" 2253 22 2273 34 2266 38 2263 42 2259 46 2257 53 2254 58 2250 64 2248 69 2246 74 2244 77 2239 83 2238 88 2235 92 2232 96 2228 102 2226 107 2223 111 2218 117 2214 123 2211 127 2208 131 2205 134 2202 138 2199 142 2194 145 2191 149 2189 147 2192 143 2196 138 2200 133 2206 124 2211 116 2216 106 2220 98 2224 91 2231 79 2234 73 2238 64 2241 54 2244 48 2247 39 2250 31 2253 23" />
      <polygon style="fill:rgb(64,64,64); stroke:none;" points=" 2162 89 2183 98 2173 107 2173 224 2173 246 2173 259 2171 261 2167 263 2163 263 2161 263 2161 248 2162 90" />
      <polygon style="fill:none; stroke:rgb(64,64,64);" points=" 2162 89 2183 98 2173 107 2173 224 2173 246 2173 259 2171 261 2167 263 2163 263 2161 263 2161 248 2162 90" />
      <polygon style="fill:rgb(64,64,64); stroke:none;" points=" 2181 21 2201 34 2193 39 2191 44 2188 47 2186 51 2184 56 2182 60 2180 66 2178 71 2175 76 2172 80 2169 85 2168 89 2165 93 2163 98 2161 103 2159 106 2156 110 2155 114 2153 118 2150 123 2148 125 2145 129 2143 136 2140 139 2137 144 2134 149 2129 153 2126 156 2124 159 2121 165 2118 162 2123 155 2127 149 2130 144 2133 138 2138 131 2141 125 2144 118 2148 109 2151 103 2154 94 2158 88 2160 81 2163 75 2165 70 2166 64 2169 60 2171 54 2172 48 2174 43 2176 38 2178 34 2179 28 2181 22" />
      <polygon style="fill:none; stroke:rgb(64,64,64);" points=" 2181 21 2201 34 2193 39 2191 44 2188 47 2186 51 2184 56 2182 60 2180 66 2178 71 2175 76 2172 80 2169 85 2168 89 2165 93 2163 98 2161 103 2159 106 2156 110 2155 114 2153 118 2150 123 2148 125 2145 129 2143 136 2140 139 2137 144 2134 149 2129 153 2126 156 2124 159 2121 165 2118 162 2123 155 2127 149 2130 144 2133 138 2138 131 2141 125 2144 118 2148 109 2151 103 2154 94 2158 88 2160 81 2163 75 2165 70 2166 64 2169 60 2171 54 2172 48 2174 43 2176 38 2178 34 2179 28 2181 22" />
      <path d="M2306 145 L2357 222" style="fill:none; stroke-width:4; stroke:red;" />
      <circle style="fill:lime; stroke:none;" r="7" cx="2306" cy="145" />
    </g>
  </g>
</svg>
