<?xml version="1.0" encoding="UTF-8"?>

<!DOCTYPE svg PUBLIC '-//W3C//DTD SVG 1.0//EN' 'http://www.w3.org/TR/2001/REC-SVG-20010904/DTD/svg10.dtd'>
<svg style="fill-opacity:1; color-rendering:auto; color-interpolation:auto; stroke:black; text-rendering:auto; stroke-linecap:square; stroke-miterlimit:10; stroke-opacity:1; shape-rendering:auto; fill:black; stroke-dasharray:none; font-weight:normal; stroke-width:1; font-family:&apos;Dialog&apos;; font-style:normal; stroke-linejoin:miter; font-size:12; stroke-dashoffset:0; image-rendering:auto;" xmlns="http://www.w3.org/2000/svg" width="2104" xmlns:xlink="http://www.w3.org/1999/xlink" height="304">
  <!--Generated by the Batik Graphics2D SVG Generator-->
  <defs id="genericDefs" />
  <g>
    <g style="fill:rgb(128,128,255); stroke:rgb(128,128,255);">
      <rect x="2" y="2" width="300" style="fill:none;" height="300" />
      <line x1="2" x2="302" y1="2" style="fill:none;" y2="302" />
      <line x1="302" x2="2" y1="2" style="fill:none;" y2="302" />
      <line x1="152" x2="152" y1="2" style="fill:none;" y2="302" />
      <line x1="2" x2="302" y1="152" style="fill:none;" y2="152" />
      <polygon style="fill:black; stroke:none;" points=" 166 199 186 211 201 221 213 231 222 241 226 248 226 254 226 261 223 264 221 266 218 266 213 262 211 256 207 250 204 244 198 236 194 229 189 224 184 219 178 213 174 209 169 206 165 201" />
      <polygon style="fill:none; stroke:black;" points=" 166 199 186 211 201 221 213 231 222 241 226 248 226 254 226 261 223 264 221 266 218 266 213 262 211 256 207 250 204 244 198 236 194 229 189 224 184 219 178 213 174 209 169 206 165 201" />
      <polygon style="fill:black; stroke:none;" points=" 123 177 114 190 101 208 88 225 80 235 76 238 71 241 66 243 56 244 59 252 78 244 84 239 124 198 131 193 141 189 123 176" />
      <polygon style="fill:none; stroke:black;" points=" 123 177 114 190 101 208 88 225 80 235 76 238 71 241 66 243 56 244 59 252 78 244 84 239 124 198 131 193 141 189 123 176" />
      <polygon style="fill:black; stroke:none;" points=" 60 253 65 263 77 259 91 256 118 253 147 249 203 244 199 239 149 241 104 243 77 244 59 252" />
      <polygon style="fill:none; stroke:black;" points=" 60 253 65 263 77 259 91 256 118 253 147 249 203 244 199 239 149 241 104 243 77 244 59 252" />
      <polygon style="fill:black; stroke:none;" points=" 31 171 216 171 227 157 246 176 48 177 39 179 32 171" />
      <polygon style="fill:none; stroke:black;" points=" 31 171 216 171 227 157 246 176 48 177 39 179 32 171" />
      <polygon style="fill:black; stroke:none;" points=" 78 126 173 127 183 114 200 132 94 132 86 135 79 126" />
      <polygon style="fill:none; stroke:black;" points=" 78 126 173 127 183 114 200 132 94 132 86 135 79 126" />
      <polygon style="fill:black; stroke:none;" points=" 146 42 151 53 159 66 167 78 173 87 181 96 189 104 198 111 206 119 216 126 225 133 238 141 243 136 249 133 257 130 267 131 267 127 257 125 244 121 232 116 219 110 208 103 198 96 189 89 181 81 174 73 166 64 160 56 156 49 149 39" />
      <polygon style="fill:none; stroke:black;" points=" 146 42 151 53 159 66 167 78 173 87 181 96 189 104 198 111 206 119 216 126 225 133 238 141 243 136 249 133 257 130 267 131 267 127 257 125 244 121 232 116 219 110 208 103 198 96 189 89 181 81 174 73 166 64 160 56 156 49 149 39" />
      <polygon style="fill:black; stroke:none;" points=" 136 23 129 36 121 49 112 61 103 74 91 89 79 101 64 116 48 131 35 141 17 156 18 158 36 148 53 136 69 124 81 112 91 103 102 91 111 81 124 68 134 54 144 42 158 35 136 23" />
      <polygon style="fill:none; stroke:black;" points=" 136 23 129 36 121 49 112 61 103 74 91 89 79 101 64 116 48 131 35 141 17 156 18 158 36 148 53 136 69 124 81 112 91 103 102 91 111 81 124 68 134 54 144 42 158 35 136 23" />
      <rect x="302" y="2" width="300" style="fill:none;" height="300" />
      <line x1="302" x2="602" y1="2" style="fill:none;" y2="302" />
      <line x1="602" x2="302" y1="2" style="fill:none;" y2="302" />
      <line x1="452" x2="452" y1="2" style="fill:none;" y2="302" />
      <line x1="302" x2="602" y1="152" style="fill:none;" y2="152" />
      <polygon style="fill:silver; stroke:none;" points=" 466 199 486 211 501 221 513 231 522 241 526 248 526 254 526 261 523 264 521 266 518 266 513 262 511 256 507 250 504 244 498 236 494 229 489 224 484 219 478 213 474 209 469 206 465 201" />
      <polygon style="fill:none; stroke:silver;" points=" 466 199 486 211 501 221 513 231 522 241 526 248 526 254 526 261 523 264 521 266 518 266 513 262 511 256 507 250 504 244 498 236 494 229 489 224 484 219 478 213 474 209 469 206 465 201" />
      <polygon style="fill:silver; stroke:none;" points=" 423 177 414 190 401 208 388 225 380 235 376 238 371 241 366 243 356 244 359 252 378 244 384 239 424 198 431 193 441 189 423 176" />
      <polygon style="fill:none; stroke:silver;" points=" 423 177 414 190 401 208 388 225 380 235 376 238 371 241 366 243 356 244 359 252 378 244 384 239 424 198 431 193 441 189 423 176" />
      <polygon style="fill:silver; stroke:none;" points=" 360 253 365 263 377 259 391 256 418 253 447 249 503 244 499 239 449 241 404 243 377 244 359 252" />
      <polygon style="fill:none; stroke:silver;" points=" 360 253 365 263 377 259 391 256 418 253 447 249 503 244 499 239 449 241 404 243 377 244 359 252" />
      <polygon style="fill:silver; stroke:none;" points=" 331 171 516 171 527 157 546 176 348 177 339 179 332 171" />
      <polygon style="fill:none; stroke:silver;" points=" 331 171 516 171 527 157 546 176 348 177 339 179 332 171" />
      <polygon style="fill:silver; stroke:none;" points=" 378 126 473 127 483 114 500 132 394 132 386 135 379 126" />
      <polygon style="fill:none; stroke:silver;" points=" 378 126 473 127 483 114 500 132 394 132 386 135 379 126" />
      <polygon style="fill:silver; stroke:none;" points=" 446 42 451 53 459 66 467 78 473 87 481 96 489 104 498 111 506 119 516 126 525 133 538 141 543 136 549 133 557 130 567 131 567 127 557 125 544 121 532 116 519 110 508 103 498 96 489 89 481 81 474 73 466 64 460 56 456 49 449 39" />
      <polygon style="fill:none; stroke:silver;" points=" 446 42 451 53 459 66 467 78 473 87 481 96 489 104 498 111 506 119 516 126 525 133 538 141 543 136 549 133 557 130 567 131 567 127 557 125 544 121 532 116 519 110 508 103 498 96 489 89 481 81 474 73 466 64 460 56 456 49 449 39" />
      <polygon style="fill:rgb(64,64,64); stroke:none;" points=" 436 23 429 36 421 49 412 61 403 74 391 89 379 101 364 116 348 131 335 141 317 156 318 158 336 148 353 136 369 124 381 112 391 103 402 91 411 81 424 68 434 54 444 42 458 35 436 23" />
      <polygon style="fill:none; stroke:rgb(64,64,64);" points=" 436 23 429 36 421 49 412 61 403 74 391 89 379 101 364 116 348 131 335 141 317 156 318 158 336 148 353 136 369 124 381 112 391 103 402 91 411 81 424 68 434 54 444 42 458 35 436 23" />
      <path d="M458 35 L318 158" style="fill:none; stroke-width:4; stroke:red;" />
      <circle style="fill:lime; stroke:none;" r="7" cx="458" cy="35" />
      <rect x="602" y="2" width="300" style="fill:none;" height="300" />
      <line x1="602" x2="902" y1="2" style="fill:none;" y2="302" />
      <line x1="902" x2="602" y1="2" style="fill:none;" y2="302" />
      <line x1="752" x2="752" y1="2" style="fill:none;" y2="302" />
      <line x1="602" x2="902" y1="152" style="fill:none;" y2="152" />
      <polygon style="fill:silver; stroke:none;" points=" 766 199 786 211 801 221 813 231 822 241 826 248 826 254 826 261 823 264 821 266 818 266 813 262 811 256 807 250 804 244 798 236 794 229 789 224 784 219 778 213 774 209 769 206 765 201" />
      <polygon style="fill:none; stroke:silver;" points=" 766 199 786 211 801 221 813 231 822 241 826 248 826 254 826 261 823 264 821 266 818 266 813 262 811 256 807 250 804 244 798 236 794 229 789 224 784 219 778 213 774 209 769 206 765 201" />
      <polygon style="fill:silver; stroke:none;" points=" 723 177 714 190 701 208 688 225 680 235 676 238 671 241 666 243 656 244 659 252 678 244 684 239 724 198 731 193 741 189 723 176" />
      <polygon style="fill:none; stroke:silver;" points=" 723 177 714 190 701 208 688 225 680 235 676 238 671 241 666 243 656 244 659 252 678 244 684 239 724 198 731 193 741 189 723 176" />
      <polygon style="fill:silver; stroke:none;" points=" 660 253 665 263 677 259 691 256 718 253 747 249 803 244 799 239 749 241 704 243 677 244 659 252" />
      <polygon style="fill:none; stroke:silver;" points=" 660 253 665 263 677 259 691 256 718 253 747 249 803 244 799 239 749 241 704 243 677 244 659 252" />
      <polygon style="fill:silver; stroke:none;" points=" 631 171 816 171 827 157 846 176 648 177 639 179 632 171" />
      <polygon style="fill:none; stroke:silver;" points=" 631 171 816 171 827 157 846 176 648 177 639 179 632 171" />
      <polygon style="fill:silver; stroke:none;" points=" 678 126 773 127 783 114 800 132 694 132 686 135 679 126" />
      <polygon style="fill:none; stroke:silver;" points=" 678 126 773 127 783 114 800 132 694 132 686 135 679 126" />
      <polygon style="fill:rgb(64,64,64); stroke:none;" points=" 746 42 751 53 759 66 767 78 773 87 781 96 789 104 798 111 806 119 816 126 825 133 838 141 843 136 849 133 857 130 867 131 867 127 857 125 844 121 832 116 819 110 808 103 798 96 789 89 781 81 774 73 766 64 760 56 756 49 749 39" />
      <polygon style="fill:none; stroke:rgb(64,64,64);" points=" 746 42 751 53 759 66 767 78 773 87 781 96 789 104 798 111 806 119 816 126 825 133 838 141 843 136 849 133 857 130 867 131 867 127 857 125 844 121 832 116 819 110 808 103 798 96 789 89 781 81 774 73 766 64 760 56 756 49 749 39" />
      <polygon style="fill:rgb(64,64,64); stroke:none;" points=" 736 23 729 36 721 49 712 61 703 74 691 89 679 101 664 116 648 131 635 141 617 156 618 158 636 148 653 136 669 124 681 112 691 103 702 91 711 81 724 68 734 54 744 42 758 35 736 23" />
      <polygon style="fill:none; stroke:rgb(64,64,64);" points=" 736 23 729 36 721 49 712 61 703 74 691 89 679 101 664 116 648 131 635 141 617 156 618 158 636 148 653 136 669 124 681 112 691 103 702 91 711 81 724 68 734 54 744 42 758 35 736 23" />
      <path d="M749 39 L867 131" style="fill:none; stroke-width:4; stroke:red;" />
      <circle style="fill:lime; stroke:none;" r="7" cx="749" cy="39" />
      <rect x="902" y="2" width="300" style="fill:none;" height="300" />
      <line x1="902" x2="1202" y1="2" style="fill:none;" y2="302" />
      <line x1="1202" x2="902" y1="2" style="fill:none;" y2="302" />
      <line x1="1052" x2="1052" y1="2" style="fill:none;" y2="302" />
      <line x1="902" x2="1202" y1="152" style="fill:none;" y2="152" />
      <polygon style="fill:silver; stroke:none;" points=" 1066 199 1086 211 1101 221 1113 231 1122 241 1126 248 1126 254 1126 261 1123 264 1121 266 1118 266 1113 262 1111 256 1107 250 1104 244 1098 236 1094 229 1089 224 1084 219 1078 213 1074 209 1069 206 1065 201" />
      <polygon style="fill:none; stroke:silver;" points=" 1066 199 1086 211 1101 221 1113 231 1122 241 1126 248 1126 254 1126 261 1123 264 1121 266 1118 266 1113 262 1111 256 1107 250 1104 244 1098 236 1094 229 1089 224 1084 219 1078 213 1074 209 1069 206 1065 201" />
      <polygon style="fill:silver; stroke:none;" points=" 1023 177 1014 190 1001 208 988 225 980 235 976 238 971 241 966 243 956 244 959 252 978 244 984 239 1024 198 1031 193 1041 189 1023 176" />
      <polygon style="fill:none; stroke:silver;" points=" 1023 177 1014 190 1001 208 988 225 980 235 976 238 971 241 966 243 956 244 959 252 978 244 984 239 1024 198 1031 193 1041 189 1023 176" />
      <polygon style="fill:silver; stroke:none;" points=" 960 253 965 263 977 259 991 256 1018 253 1047 249 1103 244 1099 239 1049 241 1004 243 977 244 959 252" />
      <polygon style="fill:none; stroke:silver;" points=" 960 253 965 263 977 259 991 256 1018 253 1047 249 1103 244 1099 239 1049 241 1004 243 977 244 959 252" />
      <polygon style="fill:silver; stroke:none;" points=" 931 171 1116 171 1127 157 1146 176 948 177 939 179 932 171" />
      <polygon style="fill:none; stroke:silver;" points=" 931 171 1116 171 1127 157 1146 176 948 177 939 179 932 171" />
      <polygon style="fill:rgb(64,64,64); stroke:none;" points=" 978 126 1073 127 1083 114 1100 132 994 132 986 135 979 126" />
      <polygon style="fill:none; stroke:rgb(64,64,64);" points=" 978 126 1073 127 1083 114 1100 132 994 132 986 135 979 126" />
      <polygon style="fill:rgb(64,64,64); stroke:none;" points=" 1046 42 1051 53 1059 66 1067 78 1073 87 1081 96 1089 104 1098 111 1106 119 1116 126 1125 133 1138 141 1143 136 1149 133 1157 130 1167 131 1167 127 1157 125 1144 121 1132 116 1119 110 1108 103 1098 96 1089 89 1081 81 1074 73 1066 64 1060 56 1056 49 1049 39" />
      <polygon style="fill:none; stroke:rgb(64,64,64);" points=" 1046 42 1051 53 1059 66 1067 78 1073 87 1081 96 1089 104 1098 111 1106 119 1116 126 1125 133 1138 141 1143 136 1149 133 1157 130 1167 131 1167 127 1157 125 1144 121 1132 116 1119 110 1108 103 1098 96 1089 89 1081 81 1074 73 1066 64 1060 56 1056 49 1049 39" />
      <polygon style="fill:rgb(64,64,64); stroke:none;" points=" 1036 23 1029 36 1021 49 1012 61 1003 74 991 89 979 101 964 116 948 131 935 141 917 156 918 158 936 148 953 136 969 124 981 112 991 103 1002 91 1011 81 1024 68 1034 54 1044 42 1058 35 1036 23" />
      <polygon style="fill:none; stroke:rgb(64,64,64);" points=" 1036 23 1029 36 1021 49 1012 61 1003 74 991 89 979 101 964 116 948 131 935 141 917 156 918 158 936 148 953 136 969 124 981 112 991 103 1002 91 1011 81 1024 68 1034 54 1044 42 1058 35 1036 23" />
      <path d="M978 126 L1100 132" style="fill:none; stroke-width:4; stroke:red;" />
      <circle style="fill:lime; stroke:none;" r="7" cx="978" cy="126" />
      <rect x="1202" y="2" width="300" style="fill:none;" height="300" />
      <line x1="1202" x2="1502" y1="2" style="fill:none;" y2="302" />
      <line x1="1502" x2="1202" y1="2" style="fill:none;" y2="302" />
      <line x1="1352" x2="1352" y1="2" style="fill:none;" y2="302" />
      <line x1="1202" x2="1502" y1="152" style="fill:none;" y2="152" />
      <polygon style="fill:silver; stroke:none;" points=" 1366 199 1386 211 1401 221 1413 231 1422 241 1426 248 1426 254 1426 261 1423 264 1421 266 1418 266 1413 262 1411 256 1407 250 1404 244 1398 236 1394 229 1389 224 1384 219 1378 213 1374 209 1369 206 1365 201" />
      <polygon style="fill:none; stroke:silver;" points=" 1366 199 1386 211 1401 221 1413 231 1422 241 1426 248 1426 254 1426 261 1423 264 1421 266 1418 266 1413 262 1411 256 1407 250 1404 244 1398 236 1394 229 1389 224 1384 219 1378 213 1374 209 1369 206 1365 201" />
      <polygon style="fill:silver; stroke:none;" points=" 1323 177 1314 190 1301 208 1288 225 1280 235 1276 238 1271 241 1266 243 1256 244 1259 252 1278 244 1284 239 1324 198 1331 193 1341 189 1323 176" />
      <polygon style="fill:none; stroke:silver;" points=" 1323 177 1314 190 1301 208 1288 225 1280 235 1276 238 1271 241 1266 243 1256 244 1259 252 1278 244 1284 239 1324 198 1331 193 1341 189 1323 176" />
      <polygon style="fill:silver; stroke:none;" points=" 1260 253 1265 263 1277 259 1291 256 1318 253 1347 249 1403 244 1399 239 1349 241 1304 243 1277 244 1259 252" />
      <polygon style="fill:none; stroke:silver;" points=" 1260 253 1265 263 1277 259 1291 256 1318 253 1347 249 1403 244 1399 239 1349 241 1304 243 1277 244 1259 252" />
      <polygon style="fill:rgb(64,64,64); stroke:none;" points=" 1231 171 1416 171 1427 157 1446 176 1248 177 1239 179 1232 171" />
      <polygon style="fill:none; stroke:rgb(64,64,64);" points=" 1231 171 1416 171 1427 157 1446 176 1248 177 1239 179 1232 171" />
      <polygon style="fill:rgb(64,64,64); stroke:none;" points=" 1278 126 1373 127 1383 114 1400 132 1294 132 1286 135 1279 126" />
      <polygon style="fill:none; stroke:rgb(64,64,64);" points=" 1278 126 1373 127 1383 114 1400 132 1294 132 1286 135 1279 126" />
      <polygon style="fill:rgb(64,64,64); stroke:none;" points=" 1346 42 1351 53 1359 66 1367 78 1373 87 1381 96 1389 104 1398 111 1406 119 1416 126 1425 133 1438 141 1443 136 1449 133 1457 130 1467 131 1467 127 1457 125 1444 121 1432 116 1419 110 1408 103 1398 96 1389 89 1381 81 1374 73 1366 64 1360 56 1356 49 1349 39" />
      <polygon style="fill:none; stroke:rgb(64,64,64);" points=" 1346 42 1351 53 1359 66 1367 78 1373 87 1381 96 1389 104 1398 111 1406 119 1416 126 1425 133 1438 141 1443 136 1449 133 1457 130 1467 131 1467 127 1457 125 1444 121 1432 116 1419 110 1408 103 1398 96 1389 89 1381 81 1374 73 1366 64 1360 56 1356 49 1349 39" />
      <polygon style="fill:rgb(64,64,64); stroke:none;" points=" 1336 23 1329 36 1321 49 1312 61 1303 74 1291 89 1279 101 1264 116 1248 131 1235 141 1217 156 1218 158 1236 148 1253 136 1269 124 1281 112 1291 103 1302 91 1311 81 1324 68 1334 54 1344 42 1358 35 1336 23" />
      <polygon style="fill:none; stroke:rgb(64,64,64);" points=" 1336 23 1329 36 1321 49 1312 61 1303 74 1291 89 1279 101 1264 116 1248 131 1235 141 1217 156 1218 158 1236 148 1253 136 1269 124 1281 112 1291 103 1302 91 1311 81 1324 68 1334 54 1344 42 1358 35 1336 23" />
      <path d="M1231 171 L1446 176" style="fill:none; stroke-width:4; stroke:red;" />
      <circle style="fill:lime; stroke:none;" r="7" cx="1231" cy="171" />
      <rect x="1502" y="2" width="300" style="fill:none;" height="300" />
      <line x1="1502" x2="1802" y1="2" style="fill:none;" y2="302" />
      <line x1="1802" x2="1502" y1="2" style="fill:none;" y2="302" />
      <line x1="1652" x2="1652" y1="2" style="fill:none;" y2="302" />
      <line x1="1502" x2="1802" y1="152" style="fill:none;" y2="152" />
      <polygon style="fill:silver; stroke:none;" points=" 1666 199 1686 211 1701 221 1713 231 1722 241 1726 248 1726 254 1726 261 1723 264 1721 266 1718 266 1713 262 1711 256 1707 250 1704 244 1698 236 1694 229 1689 224 1684 219 1678 213 1674 209 1669 206 1665 201" />
      <polygon style="fill:none; stroke:silver;" points=" 1666 199 1686 211 1701 221 1713 231 1722 241 1726 248 1726 254 1726 261 1723 264 1721 266 1718 266 1713 262 1711 256 1707 250 1704 244 1698 236 1694 229 1689 224 1684 219 1678 213 1674 209 1669 206 1665 201" />
      <polygon style="fill:rgb(64,64,64); stroke:none;" points=" 1623 177 1614 190 1601 208 1588 225 1580 235 1576 238 1571 241 1566 243 1556 244 1559 252 1578 244 1584 239 1624 198 1631 193 1641 189 1623 176" />
      <polygon style="fill:none; stroke:rgb(64,64,64);" points=" 1623 177 1614 190 1601 208 1588 225 1580 235 1576 238 1571 241 1566 243 1556 244 1559 252 1578 244 1584 239 1624 198 1631 193 1641 189 1623 176" />
      <polygon style="fill:rgb(64,64,64); stroke:none;" points=" 1560 253 1565 263 1577 259 1591 256 1618 253 1647 249 1703 244 1699 239 1649 241 1604 243 1577 244 1559 252" />
      <polygon style="fill:none; stroke:rgb(64,64,64);" points=" 1560 253 1565 263 1577 259 1591 256 1618 253 1647 249 1703 244 1699 239 1649 241 1604 243 1577 244 1559 252" />
      <polygon style="fill:rgb(64,64,64); stroke:none;" points=" 1531 171 1716 171 1727 157 1746 176 1548 177 1539 179 1532 171" />
      <polygon style="fill:none; stroke:rgb(64,64,64);" points=" 1531 171 1716 171 1727 157 1746 176 1548 177 1539 179 1532 171" />
      <polygon style="fill:rgb(64,64,64); stroke:none;" points=" 1578 126 1673 127 1683 114 1700 132 1594 132 1586 135 1579 126" />
      <polygon style="fill:none; stroke:rgb(64,64,64);" points=" 1578 126 1673 127 1683 114 1700 132 1594 132 1586 135 1579 126" />
      <polygon style="fill:rgb(64,64,64); stroke:none;" points=" 1646 42 1651 53 1659 66 1667 78 1673 87 1681 96 1689 104 1698 111 1706 119 1716 126 1725 133 1738 141 1743 136 1749 133 1757 130 1767 131 1767 127 1757 125 1744 121 1732 116 1719 110 1708 103 1698 96 1689 89 1681 81 1674 73 1666 64 1660 56 1656 49 1649 39" />
      <polygon style="fill:none; stroke:rgb(64,64,64);" points=" 1646 42 1651 53 1659 66 1667 78 1673 87 1681 96 1689 104 1698 111 1706 119 1716 126 1725 133 1738 141 1743 136 1749 133 1757 130 1767 131 1767 127 1757 125 1744 121 1732 116 1719 110 1708 103 1698 96 1689 89 1681 81 1674 73 1666 64 1660 56 1656 49 1649 39" />
      <polygon style="fill:rgb(64,64,64); stroke:none;" points=" 1636 23 1629 36 1621 49 1612 61 1603 74 1591 89 1579 101 1564 116 1548 131 1535 141 1517 156 1518 158 1536 148 1553 136 1569 124 1581 112 1591 103 1602 91 1611 81 1624 68 1634 54 1644 42 1658 35 1636 23" />
      <polygon style="fill:none; stroke:rgb(64,64,64);" points=" 1636 23 1629 36 1621 49 1612 61 1603 74 1591 89 1579 101 1564 116 1548 131 1535 141 1517 156 1518 158 1536 148 1553 136 1569 124 1581 112 1591 103 1602 91 1611 81 1624 68 1634 54 1644 42 1658 35 1636 23" />
      <path d="M1641 189 L1559 252 L1703 244" style="fill:none; stroke-width:4; stroke:red;" />
      <circle style="fill:lime; stroke:none;" r="7" cx="1641" cy="189" />
      <rect x="1802" y="2" width="300" style="fill:none;" height="300" />
      <line x1="1802" x2="2102" y1="2" style="fill:none;" y2="302" />
      <line x1="2102" x2="1802" y1="2" style="fill:none;" y2="302" />
      <line x1="1952" x2="1952" y1="2" style="fill:none;" y2="302" />
      <line x1="1802" x2="2102" y1="152" style="fill:none;" y2="152" />
      <polygon style="fill:rgb(64,64,64); stroke:none;" points=" 1966 199 1986 211 2001 221 2013 231 2022 241 2026 248 2026 254 2026 261 2023 264 2021 266 2018 266 2013 262 2011 256 2007 250 2004 244 1998 236 1994 229 1989 224 1984 219 1978 213 1974 209 1969 206 1965 201" />
      <polygon style="fill:none; stroke:rgb(64,64,64);" points=" 1966 199 1986 211 2001 221 2013 231 2022 241 2026 248 2026 254 2026 261 2023 264 2021 266 2018 266 2013 262 2011 256 2007 250 2004 244 1998 236 1994 229 1989 224 1984 219 1978 213 1974 209 1969 206 1965 201" />
      <polygon style="fill:rgb(64,64,64); stroke:none;" points=" 1923 177 1914 190 1901 208 1888 225 1880 235 1876 238 1871 241 1866 243 1856 244 1859 252 1878 244 1884 239 1924 198 1931 193 1941 189 1923 176" />
      <polygon style="fill:none; stroke:rgb(64,64,64);" points=" 1923 177 1914 190 1901 208 1888 225 1880 235 1876 238 1871 241 1866 243 1856 244 1859 252 1878 244 1884 239 1924 198 1931 193 1941 189 1923 176" />
      <polygon style="fill:rgb(64,64,64); stroke:none;" points=" 1860 253 1865 263 1877 259 1891 256 1918 253 1947 249 2003 244 1999 239 1949 241 1904 243 1877 244 1859 252" />
      <polygon style="fill:none; stroke:rgb(64,64,64);" points=" 1860 253 1865 263 1877 259 1891 256 1918 253 1947 249 2003 244 1999 239 1949 241 1904 243 1877 244 1859 252" />
      <polygon style="fill:rgb(64,64,64); stroke:none;" points=" 1831 171 2016 171 2027 157 2046 176 1848 177 1839 179 1832 171" />
      <polygon style="fill:none; stroke:rgb(64,64,64);" points=" 1831 171 2016 171 2027 157 2046 176 1848 177 1839 179 1832 171" />
      <polygon style="fill:rgb(64,64,64); stroke:none;" points=" 1878 126 1973 127 1983 114 2000 132 1894 132 1886 135 1879 126" />
      <polygon style="fill:none; stroke:rgb(64,64,64);" points=" 1878 126 1973 127 1983 114 2000 132 1894 132 1886 135 1879 126" />
      <polygon style="fill:rgb(64,64,64); stroke:none;" points=" 1946 42 1951 53 1959 66 1967 78 1973 87 1981 96 1989 104 1998 111 2006 119 2016 126 2025 133 2038 141 2043 136 2049 133 2057 130 2067 131 2067 127 2057 125 2044 121 2032 116 2019 110 2008 103 1998 96 1989 89 1981 81 1974 73 1966 64 1960 56 1956 49 1949 39" />
      <polygon style="fill:none; stroke:rgb(64,64,64);" points=" 1946 42 1951 53 1959 66 1967 78 1973 87 1981 96 1989 104 1998 111 2006 119 2016 126 2025 133 2038 141 2043 136 2049 133 2057 130 2067 131 2067 127 2057 125 2044 121 2032 116 2019 110 2008 103 1998 96 1989 89 1981 81 1974 73 1966 64 1960 56 1956 49 1949 39" />
      <polygon style="fill:rgb(64,64,64); stroke:none;" points=" 1936 23 1929 36 1921 49 1912 61 1903 74 1891 89 1879 101 1864 116 1848 131 1835 141 1817 156 1818 158 1836 148 1853 136 1869 124 1881 112 1891 103 1902 91 1911 81 1924 68 1934 54 1944 42 1958 35 1936 23" />
      <polygon style="fill:none; stroke:rgb(64,64,64);" points=" 1936 23 1929 36 1921 49 1912 61 1903 74 1891 89 1879 101 1864 116 1848 131 1835 141 1817 156 1818 158 1836 148 1853 136 1869 124 1881 112 1891 103 1902 91 1911 81 1924 68 1934 54 1944 42 1958 35 1936 23" />
      <path d="M1966 199 L2023 264" style="fill:none; stroke-width:4; stroke:red;" />
      <circle style="fill:lime; stroke:none;" r="7" cx="1966" cy="199" />
    </g>
  </g>
</svg>
